<svg width="737" height="376" viewBox="0 0 737 376" fill="none" xmlns="http://www.w3.org/2000/svg">
<path d="M567.688 121.361L562.749 114.887C565.24 112.991 567.137 112.572 568.526 112.27C569.54 112.05 570.047 111.94 571.098 111.139C572.149 110.338 572.391 109.875 572.869 108.956C573.53 107.699 574.427 105.979 576.918 104.076C579.41 102.18 581.306 101.761 582.695 101.46C583.709 101.239 584.216 101.129 585.267 100.32C586.318 99.5194 586.561 99.0564 587.038 98.1378C587.7 96.881 588.596 95.1613 591.088 93.2578C593.579 91.3617 595.475 90.9428 596.864 90.6415C597.879 90.421 598.386 90.3108 599.437 89.5024C600.495 88.7013 600.73 88.2383 601.215 87.3196C601.877 86.0629 602.773 84.3432 605.265 82.4397L610.203 88.9144C609.145 89.7155 608.91 90.1785 608.425 91.0971C607.763 92.3539 606.867 94.0736 604.375 95.9771C601.884 97.8732 599.988 98.2921 598.599 98.5934C597.585 98.8139 597.078 98.9241 596.027 99.7326C594.976 100.534 594.733 100.997 594.248 101.915C593.587 103.172 592.69 104.892 590.199 106.788C587.707 108.684 585.811 109.103 584.422 109.404C583.408 109.625 582.901 109.735 581.85 110.543C580.799 111.344 580.556 111.807 580.071 112.726C579.41 113.983 578.513 115.703 576.022 117.606C573.53 119.502 571.634 119.921 570.253 120.222C569.246 120.45 568.739 120.56 567.688 121.361Z" fill="#27AAE1"/>
<path d="M31.8366 59.5613C29.4334 56.4673 28.9484 53.9759 28.625 52.3223C28.3972 51.1758 28.3163 50.7495 27.5226 49.728C26.7289 48.7064 26.332 48.5227 25.2811 48.0156C23.7598 47.2954 21.4668 46.2003 19.0636 43.1136C16.6604 40.0196 16.1753 37.5282 15.852 35.8746C15.6241 34.7281 15.5433 34.3018 14.7496 33.2729C13.9559 32.2514 13.559 32.0603 12.5007 31.5605C10.9794 30.8403 8.68642 29.7453 6.2832 26.6512L14.9921 19.8899C15.7858 20.9114 16.1827 21.1025 17.241 21.6023C18.7623 22.3225 21.0553 23.4175 23.4585 26.5116C25.8617 29.6056 26.3467 32.097 26.6701 33.7506C26.8979 34.8971 26.9788 35.3307 27.7725 36.3523C28.5662 37.3738 28.9557 37.5576 30.014 38.0573C31.5353 38.7775 33.8283 39.8726 36.2315 42.9593C38.6347 46.0533 39.1198 48.5447 39.4432 50.1983C39.671 51.3448 39.7518 51.7711 40.5456 52.7926L31.8366 59.5613Z" fill="#FF4C9D"/>
<path d="M703.062 126.712C699.901 124.404 696.741 122.096 693.581 119.789C693.691 110.911 697.866 105.193 706.288 102.378C709.448 104.686 712.608 106.994 715.769 109.301C707.346 112.116 703.172 117.834 703.062 126.712Z" fill="#45D1A7"/>
<path d="M659.326 167.287C660.745 165.832 662.17 164.369 663.589 162.914C668.153 163.627 670.791 166.199 671.622 170.749C670.203 172.204 668.777 173.666 667.359 175.121C666.536 170.572 663.897 168 659.326 167.287Z" fill="#FF66AA"/>
<path d="M631.34 326.972C628.989 324.936 626.637 322.901 624.285 320.865C624.954 313.839 628.636 309.584 635.5 307.908C637.852 309.944 640.204 311.98 642.555 314.015C635.691 315.684 632.009 319.946 631.34 326.972Z" fill="#45D1A7"/>
<path d="M646.406 216.432C649.427 214.212 652.447 211.993 655.468 209.773C663.545 212.441 667.565 217.909 667.697 226.419C664.677 228.639 661.656 230.858 658.635 233.078C658.503 224.567 654.49 219.099 646.406 216.432Z" fill="#6555F2"/>
<path d="M722.507 220.305C727.16 224.001 731.812 227.705 736.464 231.402C735.744 244.873 729.048 253.303 716.084 257.036C711.432 253.34 706.78 249.636 702.128 245.939C715.092 242.198 721.787 233.776 722.507 220.305Z" fill="#EA1D25"/>
<path d="M510.621 259.021C507.945 255.456 505.27 251.885 502.603 248.32C505.682 238.685 512.135 233.842 522.255 233.592C524.93 237.157 527.605 240.728 530.273 244.293C520.153 244.543 513.7 249.379 510.621 259.021Z" fill="#FF7700"/>
<path d="M465.276 82.9175C462.527 80.6686 459.771 78.4197 457.022 76.1708C457.559 68.1234 461.63 63.1406 469.413 61.0093C472.162 63.2582 474.918 65.507 477.667 67.7559C469.884 69.8872 465.812 74.87 465.276 82.9175Z" fill="#EA1D25"/>
<path d="M442.074 239.442C444.823 238.318 447.579 237.193 450.327 236.069C456.031 239.677 458.066 244.66 456.523 251.23C453.774 252.355 451.018 253.479 448.27 254.604C449.813 248.033 447.777 243.051 442.074 239.442Z" fill="#FF4C9D"/>
<path d="M340.081 328.589C338.552 331.463 337.023 334.329 335.502 337.203C328.182 338.158 322.986 335.387 319.687 328.788C321.215 325.914 322.744 323.048 324.265 320.174C327.572 326.774 332.768 329.537 340.081 328.589Z" fill="#45D1A7"/>
<path d="M278.802 82.1163C278.28 79.2795 277.751 76.4353 277.229 73.5985C281.793 68.895 286.931 67.9469 292.869 70.7103C293.391 73.5471 293.92 76.3912 294.441 79.2281C288.503 76.4574 283.366 77.4054 278.802 82.1163Z" fill="white"/>
<path d="M443.573 352.563C439.082 350.681 434.599 348.807 430.109 346.926C427.676 336.152 431.079 328.031 440.457 322.203C444.947 324.084 449.43 325.958 453.921 327.84C444.543 333.668 441.14 341.788 443.573 352.563Z" fill="#6555F2"/>
<path d="M214.106 102.187C211.702 100.754 209.299 99.3135 206.896 97.8804C206.389 91.5453 208.991 87.1945 214.804 84.637C217.207 86.0701 219.61 87.5105 222.013 88.9436C216.2 91.5012 213.599 95.852 214.106 102.187Z" fill="#00E0C2"/>
<path d="M45.7122 359.934C43.1546 358.03 40.6044 356.127 38.0469 354.216C38.2086 346.984 41.6554 342.354 48.5416 340.135C51.0992 342.038 53.6494 343.942 56.2069 345.852C49.3207 348.079 45.8739 352.702 45.7122 359.934Z" fill="#FC7F0E"/>
<path d="M193.587 313.185C194.528 315.882 195.476 318.579 196.417 321.277C192.669 326.568 187.789 328.273 181.564 326.473C180.623 323.775 179.675 321.078 178.734 318.381C184.967 320.182 189.846 318.477 193.587 313.185Z" fill="#FF4C9D"/>
<path d="M598.011 159.886C597.033 162.951 596.048 166.016 595.071 169.088L576.94 183.933C574.383 183.852 571.921 183.477 569.562 182.801L597.246 160.121C597.489 160.048 597.753 159.974 598.011 159.886Z" fill="white"/>
<path d="M597.239 160.121L569.554 182.801C567.747 182.287 566.005 181.611 564.314 180.743L587.185 162.01C590.382 161.819 593.734 161.187 597.239 160.121Z" fill="#45D1A7"/>
<path d="M595.071 169.088C593.719 173.306 592.367 177.532 591.014 181.75C586.024 183.345 581.335 184.073 576.94 183.933L595.071 169.088Z" fill="#45D1A7"/>
<path d="M587.186 162.018L564.315 180.751C562.602 179.891 560.949 178.855 559.347 177.635L579.021 161.525C581.63 162.032 584.349 162.194 587.186 162.018Z" fill="white"/>
<path d="M579.02 161.525L559.346 177.635C557.891 176.54 556.48 175.29 555.113 173.894L572.656 159.526C574.706 160.437 576.823 161.099 579.02 161.525Z" fill="#45D1A7"/>
<path d="M572.663 159.526L555.12 173.894C553.864 172.623 552.651 171.226 551.468 169.712L567.482 156.594C569.15 157.762 570.877 158.732 572.663 159.526Z" fill="white"/>
<path d="M567.475 156.594L551.461 169.712C551.255 169.448 551.056 169.183 550.851 168.911C553.18 161.621 555.517 154.338 557.847 147.04C560.831 151.016 564.028 154.198 567.475 156.594Z" fill="#45D1A7"/>
<path d="M18.3805 231.395C16.4991 241.809 10.458 247.71 0 249.342C3.25573 252.679 6.51881 256.015 9.77454 259.352C20.2326 257.713 26.2737 251.819 28.1551 241.405C24.892 238.068 21.6363 234.732 18.3805 231.395Z" fill="#6555F2"/>
<g opacity="0.2">
<g opacity="0.2">
<g opacity="0.2">
<path opacity="0.2" d="M23.8843 224.581L23.1523 224.646L26.2671 259.387L26.9991 259.321L23.8843 224.581Z" fill="white"/>
</g>
<g opacity="0.2">
<path opacity="0.2" d="M21.3414 225.411L20.6094 225.477L23.7241 260.217L24.4561 260.152L21.3414 225.411Z" fill="white"/>
</g>
<g opacity="0.2">
<path opacity="0.2" d="M18.8003 226.242L18.0684 226.308L21.1831 261.048L21.9151 260.982L18.8003 226.242Z" fill="white"/>
</g>
<g opacity="0.2">
<path opacity="0.2" d="M16.2671 227.071L15.5352 227.137L18.6499 261.877L19.3819 261.811L16.2671 227.071Z" fill="white"/>
</g>
<g opacity="0.2">
<path opacity="0.2" d="M13.7242 227.902L12.9922 227.968L16.1069 262.708L16.8389 262.642L13.7242 227.902Z" fill="white"/>
</g>
<g opacity="0.2">
<path opacity="0.2" d="M11.1773 228.733L10.4453 228.799L13.5601 263.539L14.2921 263.474L11.1773 228.733Z" fill="white"/>
</g>
<g opacity="0.2">
<path opacity="0.2" d="M8.63433 229.556L7.90234 229.622L11.0171 264.362L11.7491 264.297L8.63433 229.556Z" fill="white"/>
</g>
<g opacity="0.2">
<path opacity="0.2" d="M6.09527 230.386L5.36328 230.452L8.47804 265.192L9.21002 265.126L6.09527 230.386Z" fill="white"/>
</g>
<g opacity="0.2">
<path opacity="0.2" d="M3.5523 231.217L2.82031 231.283L5.93507 266.023L6.66706 265.957L3.5523 231.217Z" fill="white"/>
</g>
</g>
</g>
<path d="M156.143 162.738C154.805 163.157 153.46 163.576 152.123 163.995C146.765 160.842 143.076 156.733 141.694 152.383C139.092 144.181 143.414 136.038 143.458 135.957C144.766 135.546 146.074 135.141 147.382 134.73C143.634 146.224 146.515 155.425 156.143 162.738Z" fill="#45D1A7"/>
<path d="M143.444 135.964C143.452 135.957 143.459 135.957 143.459 135.957C143.415 136.038 139.093 144.181 141.695 152.383C143.077 156.733 146.766 160.842 152.124 163.995C150.022 164.649 147.927 165.303 145.825 165.964C140.269 161.753 137.844 157.248 136.793 153.941C134.831 147.76 135.904 141.807 137.131 137.934C139.24 137.273 141.342 136.618 143.444 135.964Z" fill="white"/>
<path d="M145.825 165.964C144.179 166.479 142.54 166.993 140.894 167.508C131.266 160.195 128.386 150.994 132.134 139.499C133.802 138.978 135.47 138.456 137.131 137.934C135.904 141.807 134.831 147.76 136.793 153.941C137.844 157.248 140.269 161.753 145.825 165.964Z" fill="#45D1A7"/>
<path d="M143.46 135.957C143.46 135.957 143.452 135.957 143.445 135.964L141.49 134.884L143.46 135.957Z" fill="white"/>
<path d="M211.837 63.4199C213.806 64.1401 215.482 65.6541 216.408 67.7854C218.253 72.0479 216.379 77.1704 212.212 79.2282C210.132 80.2571 207.876 80.3232 205.906 79.603C203.936 78.8828 202.253 77.3688 201.335 75.2375C199.49 70.975 201.364 65.8525 205.531 63.7947C207.611 62.7658 209.867 62.6997 211.837 63.4199Z" fill="black"/>
<path d="M210.557 76.0828C210.477 76.0534 210.41 75.9946 210.374 75.9137L209.991 75.0318C209.918 74.8628 209.991 74.6643 210.153 74.5835C210.234 74.5467 210.322 74.5394 210.403 74.5688C210.484 74.5982 210.55 74.657 210.587 74.7378L210.969 75.6197C211.042 75.7888 210.969 75.9872 210.8 76.0754C210.726 76.1048 210.638 76.1121 210.557 76.0828ZM204.553 73.878C204.472 73.8486 204.406 73.7898 204.369 73.7089C204.296 73.5399 204.369 73.3415 204.538 73.2533L205.479 72.7976C205.56 72.7535 205.648 72.7535 205.729 72.7829C205.81 72.8123 205.876 72.8711 205.905 72.9593C205.979 73.1283 205.905 73.3268 205.744 73.4076L204.803 73.8706C204.722 73.9074 204.634 73.9074 204.553 73.878ZM207.28 68.5497C207.199 68.5203 207.133 68.4615 207.103 68.3734L206.684 67.4179C206.611 67.2489 206.684 67.0505 206.846 66.9696C206.927 66.9256 207.022 66.9256 207.096 66.9549C207.169 66.9843 207.236 67.0431 207.272 67.1313L207.691 68.0867C207.765 68.2558 207.691 68.4542 207.529 68.535C207.449 68.5791 207.353 68.5791 207.28 68.5497ZM212.005 70.218C211.924 70.1886 211.858 70.1298 211.821 70.049C211.748 69.88 211.821 69.6815 211.983 69.6007L212.843 69.1744C212.924 69.1303 213.012 69.1303 213.093 69.1597C213.174 69.1891 213.24 69.2479 213.269 69.3361C213.343 69.5051 213.277 69.7036 213.108 69.7844L212.248 70.2107C212.174 70.2401 212.086 70.2474 212.005 70.218ZM211.028 65.5145C209.558 64.978 207.875 65.0221 206.324 65.7864C204.774 66.5434 203.656 67.8736 203.091 69.4169C202.525 70.9603 202.525 72.6947 203.215 74.2822C203.906 75.8696 205.156 76.9867 206.626 77.5306C208.095 78.0671 209.771 78.023 211.329 77.2586C212.88 76.5017 214.004 75.1714 214.57 73.6281C215.136 72.0847 215.136 70.3503 214.445 68.7629C213.754 67.1754 212.498 66.051 211.028 65.5145ZM206.39 78.1626C204.766 77.5673 203.377 76.3179 202.613 74.5688C201.856 72.8197 201.856 70.8868 202.481 69.1891C203.105 67.4914 204.347 66.0142 206.06 65.1764C207.779 64.3313 209.639 64.2798 211.263 64.8751C212.887 65.4704 214.276 66.7198 215.033 68.4689C215.797 70.218 215.79 72.1435 215.173 73.8412C214.548 75.5389 213.306 77.0161 211.594 77.8613C209.881 78.6991 208.015 78.7579 206.39 78.1626ZM211.844 63.295C209.83 62.5601 207.529 62.6262 205.406 63.6698C201.158 65.757 199.247 70.9603 201.143 75.2964C202.084 77.4644 203.803 79.0078 205.81 79.7427C207.816 80.4776 210.124 80.4115 212.248 79.3679C216.496 77.288 218.399 72.0774 216.51 67.7413C215.57 65.5733 213.85 64.0299 211.844 63.295Z" fill="black"/>
<path d="M206.626 77.523C205.156 76.9865 203.899 75.8621 203.215 74.2747C202.525 72.6946 202.525 70.9528 203.091 69.4094C203.656 67.8661 204.781 66.5359 206.324 65.7789C207.875 65.0146 209.558 64.9705 211.028 65.507C212.498 66.0435 213.747 67.1679 214.438 68.7554C215.129 70.3355 215.129 72.0772 214.563 73.6206C213.997 75.1639 212.872 76.4941 211.322 77.2511C209.778 78.0155 208.095 78.0595 206.626 77.523ZM211.263 64.8749C209.639 64.2796 207.772 64.3311 206.06 65.1763C204.347 66.0141 203.105 67.4913 202.481 69.189C201.856 70.8866 201.856 72.8195 202.613 74.5686C203.377 76.3178 204.766 77.5671 206.39 78.1624C208.015 78.7577 209.881 78.7063 211.586 77.8611C213.306 77.0159 214.548 75.5387 215.165 73.8411C215.79 72.1434 215.797 70.2105 215.026 68.4687C214.276 66.7196 212.887 65.4702 211.263 64.8749Z" fill="#414042"/>
<path d="M213.101 69.1597C213.02 69.1303 212.932 69.1377 212.851 69.1744L211.991 69.6007C211.829 69.6815 211.756 69.88 211.829 70.049C211.866 70.1298 211.932 70.1886 212.013 70.218C212.094 70.2474 212.182 70.2474 212.263 70.2033L213.123 69.7771C213.292 69.6962 213.365 69.4978 213.285 69.3288C213.24 69.2479 213.182 69.1818 213.101 69.1597Z" fill="#414042"/>
<path d="M205.73 72.7755C205.649 72.7461 205.561 72.7534 205.48 72.7902L204.539 73.2458C204.377 73.3267 204.304 73.5251 204.37 73.7015C204.407 73.7823 204.473 73.8411 204.554 73.8705C204.627 73.8999 204.715 73.8999 204.804 73.8558L205.744 73.3928C205.906 73.312 205.979 73.1135 205.906 72.9445C205.877 72.8637 205.81 72.8049 205.73 72.7755Z" fill="#414042"/>
<path d="M210.411 74.5615C210.33 74.5321 210.242 74.5321 210.161 74.5762C209.999 74.657 209.926 74.8555 209.999 75.0245L210.381 75.9064C210.418 75.9873 210.484 76.0461 210.565 76.0755C210.646 76.1049 210.734 76.1049 210.815 76.0608C210.984 75.9799 211.058 75.7815 210.984 75.6051L210.602 74.7232C210.558 74.6497 210.492 74.5909 210.411 74.5615Z" fill="#414042"/>
<path d="M207.096 66.9549C207.016 66.9255 206.927 66.9329 206.846 66.9696C206.685 67.0504 206.611 67.2489 206.685 67.4179L207.104 68.3733C207.14 68.4615 207.207 68.5203 207.28 68.5497C207.361 68.5791 207.449 68.5717 207.53 68.535C207.692 68.4542 207.765 68.2557 207.692 68.0867L207.273 67.1313C207.236 67.0431 207.17 66.9843 207.096 66.9549Z" fill="#414042"/>
<path d="M205.906 79.6104C207.876 80.3306 210.132 80.2644 212.212 79.2355C216.379 77.1777 218.253 72.0553 216.408 67.7927C215.49 65.6614 213.807 64.1475 211.837 63.4272L213.175 63.9196C215.144 64.6399 216.82 66.1538 217.746 68.2851C219.591 72.5477 217.717 77.6701 213.549 79.7279C211.47 80.7568 209.213 80.823 207.244 80.1028L205.906 79.6104Z" fill="black"/>
<path d="M240.71 74.0102C242.68 74.7305 244.363 76.2444 245.282 78.3757C247.126 82.6383 245.252 87.7607 241.085 89.8185C239.005 90.8474 236.742 90.9136 234.772 90.1933C232.803 89.4731 231.127 87.9592 230.201 85.8279C228.356 81.5653 230.23 76.4428 234.397 74.3851C236.477 73.3562 238.741 73.29 240.71 74.0102Z" fill="black"/>
<path d="M239.432 86.6657C239.351 86.6363 239.285 86.5775 239.248 86.4967L238.866 85.6148C238.793 85.4458 238.866 85.2473 239.028 85.1665C239.109 85.1297 239.197 85.1224 239.278 85.1518C239.358 85.1812 239.425 85.24 239.461 85.3208L239.843 86.2027C239.917 86.3718 239.843 86.5702 239.674 86.6584C239.601 86.6951 239.513 86.6951 239.432 86.6657ZM233.428 84.4683C233.347 84.4389 233.281 84.3801 233.244 84.2993C233.17 84.1302 233.244 83.9318 233.413 83.8436L234.354 83.388C234.434 83.3439 234.523 83.3439 234.603 83.3733C234.684 83.4027 234.75 83.4615 234.78 83.5496C234.853 83.7187 234.78 83.9171 234.618 83.998L233.677 84.461C233.589 84.4903 233.501 84.4904 233.428 84.4683ZM236.154 79.1401C236.073 79.1107 236.007 79.0519 235.978 78.9637L235.559 78.0083C235.485 77.8393 235.559 77.6408 235.721 77.56C235.801 77.5159 235.897 77.5159 235.97 77.5453C236.044 77.5747 236.11 77.6335 236.147 77.7217L236.566 78.6771C236.639 78.8461 236.566 79.0445 236.404 79.1254C236.316 79.1621 236.228 79.1695 236.154 79.1401ZM240.88 80.801C240.799 80.7716 240.733 80.7128 240.696 80.632C240.623 80.4629 240.696 80.2645 240.858 80.1837L241.718 79.7574C241.798 79.7133 241.887 79.7133 241.967 79.7427C242.048 79.7721 242.114 79.8309 242.144 79.9191C242.217 80.0881 242.151 80.2866 241.982 80.3674L241.122 80.7937C241.041 80.8304 240.953 80.8304 240.88 80.801ZM239.902 76.0975C238.432 75.561 236.749 75.6051 235.199 76.3694C233.648 77.1264 232.531 78.4566 231.965 79.9999C231.399 81.5433 231.399 83.2777 232.09 84.8652C232.781 86.4526 234.03 87.5697 235.5 88.1135C236.97 88.65 238.646 88.606 240.204 87.8416C241.754 87.0847 242.879 85.7544 243.445 84.2111C244.011 82.6677 244.011 80.9333 243.32 79.3459C242.622 77.7584 241.372 76.634 239.902 76.0975ZM235.265 88.7456C233.641 88.1503 232.252 86.9009 231.487 85.1518C230.73 83.4027 230.73 81.4698 231.355 79.7721C231.98 78.0744 233.222 76.5972 234.934 75.7594C236.654 74.9142 238.513 74.8628 240.137 75.4581C241.762 76.0534 243.151 77.3028 243.908 79.0519C244.672 80.801 244.665 82.7265 244.047 84.4242C243.423 86.1219 242.181 87.5991 240.468 88.4443C238.756 89.2894 236.889 89.3409 235.265 88.7456ZM240.711 73.8853C238.697 73.1504 236.397 73.2166 234.273 74.2602C230.025 76.3474 228.114 81.5506 230.01 85.8867C230.951 88.0548 232.671 89.5981 234.677 90.333C236.683 91.068 238.991 91.0018 241.115 89.9582C245.363 87.8784 247.266 82.6677 245.377 78.3317C244.444 76.1636 242.724 74.6203 240.711 73.8853Z" fill="black"/>
<path d="M235.5 88.1137C234.03 87.5772 232.773 86.4527 232.089 84.8653C231.399 83.2852 231.399 81.5434 231.965 80.0001C232.53 78.4567 233.655 77.1265 235.198 76.3695C236.749 75.6052 238.432 75.5611 239.902 76.0976C241.372 76.6341 242.621 77.7585 243.312 79.346C244.003 80.9261 244.003 82.6678 243.437 84.2112C242.871 85.7545 241.746 87.0848 240.196 87.8417C238.645 88.5987 236.969 88.6502 235.5 88.1137ZM240.137 75.4582C238.513 74.8629 236.646 74.9143 234.934 75.7595C233.221 76.5973 231.979 78.0745 231.355 79.7722C230.73 81.4699 230.73 83.4028 231.487 85.1519C232.251 86.901 233.64 88.1504 235.264 88.7457C236.889 89.341 238.755 89.2895 240.46 88.4444C242.18 87.5992 243.422 86.122 244.039 84.4243C244.664 82.7266 244.671 80.7938 243.9 79.052C243.15 77.3029 241.761 76.0535 240.137 75.4582Z" fill="#414042"/>
<path d="M241.975 79.7427C241.894 79.7134 241.806 79.7207 241.725 79.7574L240.865 80.1837C240.703 80.2646 240.63 80.463 240.703 80.632C240.74 80.7129 240.806 80.7716 240.887 80.801C240.968 80.8304 241.056 80.8304 241.137 80.7863L241.997 80.3601C242.166 80.2792 242.239 80.0808 242.159 79.9118C242.114 79.8309 242.048 79.7721 241.975 79.7427Z" fill="#414042"/>
<path d="M234.604 83.3658C234.523 83.3364 234.435 83.3437 234.354 83.3805L233.413 83.8362C233.251 83.917 233.178 84.1154 233.244 84.2918C233.281 84.3726 233.347 84.4314 233.428 84.4608C233.501 84.4902 233.589 84.4829 233.678 84.4461L234.618 83.9831C234.78 83.9023 234.853 83.7039 234.78 83.5348C234.743 83.454 234.677 83.3952 234.604 83.3658Z" fill="#414042"/>
<path d="M239.285 85.1518C239.204 85.1224 239.116 85.1224 239.035 85.1665C238.873 85.2474 238.8 85.4458 238.873 85.6148L239.255 86.4968C239.292 86.5776 239.358 86.6364 239.439 86.6658C239.52 86.6952 239.608 86.6952 239.689 86.6511C239.858 86.5703 239.932 86.3718 239.858 86.1954L239.476 85.3135C239.424 85.24 239.358 85.1812 239.285 85.1518Z" fill="#414042"/>
<path d="M235.964 77.5382C235.883 77.5088 235.795 77.5161 235.714 77.5529C235.552 77.6337 235.478 77.8321 235.552 78.0012L235.971 78.9566C236.008 79.0448 236.074 79.1036 236.147 79.133C236.228 79.1623 236.316 79.155 236.397 79.1183C236.559 79.0374 236.632 78.839 236.559 78.67L236.14 77.7145C236.111 77.6337 236.044 77.5676 235.964 77.5382Z" fill="#414042"/>
<path d="M234.772 90.1934C236.742 90.9136 238.998 90.8475 241.085 89.8186C245.253 87.7608 247.127 82.6383 245.282 78.3757C244.356 76.2444 242.68 74.7305 240.711 74.0103L242.048 74.5027C244.018 75.2229 245.701 76.7368 246.619 78.8681C248.464 83.1307 246.59 88.2532 242.423 90.311C240.343 91.3399 238.08 91.406 236.11 90.6858L234.772 90.1934Z" fill="black"/>
<path d="M234.443 102.569C233.98 103.826 233.414 105.002 232.745 106.112C232.084 107.222 231.319 108.243 230.482 109.191C223.434 117.128 222.926 118.503 223.147 129.122C223.198 131.643 222.802 134.216 221.876 136.729C221.413 137.986 220.847 139.162 220.178 140.271C219.516 141.381 218.752 142.403 217.914 143.343C214.387 147.312 212.498 149.649 211.52 152.309C210.543 154.97 210.462 157.968 210.572 163.282C210.624 165.803 210.22 168.382 209.301 170.888C208.838 172.145 208.265 173.328 207.603 174.431C206.942 175.541 206.177 176.569 205.34 177.51C201.812 181.479 199.931 183.808 198.946 186.476C197.983 189.093 197.887 192.025 197.998 197.155L161.861 183.853C165.264 180.016 167.101 177.723 168.057 175.107C169.034 172.446 169.115 169.448 169.005 164.134C168.953 161.614 169.358 159.041 170.284 156.528C170.747 155.271 171.32 154.088 171.981 152.986C172.643 151.876 173.407 150.847 174.238 149.906C177.765 145.938 179.647 143.608 180.631 140.94C181.609 138.28 181.69 135.281 181.579 129.968C181.528 127.447 181.932 124.875 182.858 122.368C183.321 121.112 183.894 119.929 184.563 118.826C185.225 117.724 185.982 116.695 186.819 115.754C190.347 111.778 192.229 109.456 193.213 106.788C194.191 104.128 194.272 101.129 194.161 95.8155C194.11 93.2947 194.514 90.7225 195.44 88.209C196.55 85.1885 198.299 82.5721 200.467 80.4702L235.648 93.4196C235.92 96.4255 235.553 99.5416 234.443 102.569Z" fill="#562520"/>
<path d="M197.997 197.427C198.049 199.948 197.645 202.527 196.726 205.033C192.757 215.807 180.807 221.327 170.033 217.358C159.259 213.389 153.74 201.447 157.709 190.673C158.172 189.416 158.745 188.233 159.406 187.13C160.068 186.021 160.832 184.992 161.663 184.051C161.729 183.978 161.787 183.904 161.854 183.831L197.99 197.133C197.99 197.236 197.99 197.331 197.997 197.427Z" fill="#FCBD6B"/>
<path d="M235.632 93.4197L200.451 80.4703C206.007 75.0759 214.363 73.0181 222.117 75.877C229.863 78.7285 234.897 85.7103 235.632 93.4197Z" fill="black"/>
<path d="M236.286 95.7421C236.293 96.4109 235.625 96.8739 234.992 96.6388L198.849 83.3292C198.217 83.094 198.011 82.3077 198.444 81.8079C198.856 81.3302 199.29 80.8672 199.745 80.4336L236.183 93.846C236.249 94.4781 236.279 95.1101 236.286 95.7421Z" fill="#0058EF"/>
<path d="M236.184 93.8532L199.746 80.4407C200.415 79.7866 201.12 79.184 201.87 78.6328L235.743 91.1045C235.949 92.0085 236.096 92.9272 236.184 93.8532Z" fill="white"/>
<path d="M235.734 91.1047L201.861 78.6329C202.435 78.1993 203.03 77.8025 203.64 77.435C204.191 77.1043 204.852 77.0308 205.448 77.2513L233.904 87.724C234.507 87.9445 234.955 88.4295 235.161 89.0395C235.381 89.7157 235.58 90.3991 235.734 91.1047Z" fill="#0058EF"/>
<path d="M209.955 95.6393C208.867 98.5864 205.722 100.137 202.929 99.1082C200.129 98.0793 198.74 94.8529 199.827 91.9132C200.915 88.9661 204.061 87.4155 206.853 88.4444C209.653 89.4732 211.042 92.6922 209.955 95.6393Z" fill="white"/>
<path d="M208.172 94.9931C208.874 93.0849 207.974 90.9968 206.161 90.3293C204.348 89.6618 202.309 90.6676 201.606 92.5758C200.904 94.4841 201.804 96.5721 203.617 97.2397C205.43 97.9072 207.469 96.9014 208.172 94.9931Z" fill="black"/>
<path d="M216.893 103.856C216.959 103.959 216.967 104.091 216.922 104.201C215.497 107.508 211.638 109.39 207.758 108.692C203.87 107.986 200.93 104.863 200.747 101.269C200.739 101.151 200.798 101.034 200.901 100.96C200.997 100.887 201.129 100.85 201.261 100.872L205.45 101.629C205.325 102.636 206.016 103.577 207.023 103.76C207.677 103.878 208.316 103.657 208.75 103.224C209 103.782 209.514 104.209 210.168 104.334C211.183 104.517 212.145 103.885 212.388 102.893L216.577 103.65C216.717 103.68 216.827 103.753 216.893 103.856Z" fill="#EA1D25"/>
<path d="M209.25 102.32L212.388 102.886C212.145 103.878 211.183 104.51 210.168 104.326C209.514 104.209 209 103.775 208.75 103.216C208.993 102.981 209.169 102.673 209.25 102.32Z" fill="white"/>
<path d="M208.596 102.202L209.251 102.32C209.162 102.673 208.986 102.974 208.751 103.224C208.611 102.908 208.552 102.562 208.596 102.202Z" fill="white"/>
<path d="M208.75 103.224C208.316 103.657 207.684 103.878 207.023 103.76C206.016 103.576 205.325 102.643 205.45 101.629L208.596 102.202C208.552 102.562 208.61 102.908 208.75 103.224Z" fill="white"/>
<path d="M221.229 102.776C221.104 102.776 220.979 102.746 220.861 102.68L211.969 97.5281C211.704 97.3738 211.565 97.0725 211.616 96.7712C211.667 96.4698 211.903 96.2347 212.197 96.1759L222.133 94.2577C222.53 94.1769 222.912 94.4415 222.993 94.8383C223.066 95.2352 222.809 95.6173 222.412 95.6982L214.401 97.2415L221.604 101.416C221.956 101.622 222.074 102.07 221.868 102.415C221.729 102.643 221.486 102.776 221.229 102.776Z" fill="black"/>
<path d="M199.967 212.963C193.088 209.134 185.982 207.811 179.617 209.34C177.148 209.935 175.619 212.419 176.215 214.888C176.545 216.27 177.464 217.35 178.647 217.938C179.581 218.401 180.676 218.556 181.763 218.291C184.071 217.74 189.62 217.211 196.925 221.826C196.895 218.607 197.733 215.263 199.967 212.963Z" fill="#F0A94D"/>
<path d="M196.953 212.875C194.63 216.733 193.08 220.062 198.496 223.325C199.143 223.715 199.811 224.038 200.48 224.237C200.429 224.215 200.377 224.185 200.333 224.156C198.18 222.855 197.974 219.224 199.885 216.05C202.42 211.838 205.103 211.353 207.256 212.654C209.417 213.955 210.196 216.623 207.705 220.76C206.867 222.149 205.772 223.222 204.618 223.877C205.897 223.186 207.19 221.9 208.454 219.805C210.784 215.939 210.086 211.273 206.911 209.354C203.736 207.436 199.282 209.009 196.953 212.875Z" fill="#562520"/>
<path d="M199.885 216.042C197.974 219.217 198.172 222.848 200.333 224.149C200.377 224.178 200.436 224.207 200.48 224.229C201.751 224.619 203.059 224.612 204.368 223.994C204.456 223.958 204.537 223.913 204.61 223.869C205.764 223.215 206.859 222.142 207.697 220.753C210.188 216.616 209.409 213.955 207.249 212.647C205.103 211.354 202.42 211.831 199.885 216.042Z" fill="#361714"/>
<path d="M167.145 203.717C164.073 198.161 158.569 193.891 151.432 191.363C151.55 194.494 149.999 197.537 147.758 199.808C154.997 202.189 158.01 206.216 159.083 208.171C159.627 209.156 160.472 209.861 161.442 210.236C162.669 210.714 164.095 210.662 165.337 209.972C167.564 208.744 168.373 205.944 167.145 203.717Z" fill="#F0A94D"/>
<path d="M152.732 193.509C151.454 197.823 150.043 201.219 143.979 199.418C143.252 199.205 142.568 198.926 141.973 198.566C142.025 198.588 142.083 198.603 142.135 198.625C144.545 199.345 147.367 197.044 148.418 193.495C149.822 188.777 148.367 186.476 145.956 185.763C143.538 185.043 141.047 186.27 139.673 190.893C139.21 192.451 139.158 193.98 139.452 195.273C139.1 193.862 139.18 192.04 139.879 189.695C141.165 185.374 145.082 182.735 148.632 183.786C152.181 184.837 154.019 189.181 152.732 193.509Z" fill="#562520"/>
<path d="M148.418 193.48C147.36 197.03 144.545 199.33 142.135 198.61C142.083 198.595 142.025 198.58 141.973 198.551C140.827 197.875 139.952 196.905 139.526 195.516C139.496 195.428 139.474 195.339 139.452 195.251C139.158 193.958 139.21 192.422 139.673 190.871C141.047 186.241 143.539 185.021 145.956 185.741C148.367 186.469 149.815 188.769 148.418 193.48Z" fill="#361714"/>
<path d="M307.325 254.854L309.589 253.267C310.897 252.348 312.705 252.664 313.624 253.98L314.785 255.64C315.703 256.949 315.387 258.757 314.072 259.675C313.014 260.418 311.625 260.351 310.647 259.602C310.816 257.426 309.42 255.442 307.325 254.854Z" fill="#562520"/>
<path d="M292.2 256.677C290.877 255.619 290.723 253.642 291.928 252.392C292.979 251.305 294.728 251.275 295.911 252.223L302.526 257.566C302.82 257.801 303.231 257.809 303.54 257.596L307.34 254.854C309.434 255.442 310.823 257.426 310.662 259.602L305.083 263.512C303.672 264.46 301.806 264.379 300.475 263.328L292.2 256.677Z" fill="#F0A94D"/>
<path d="M313.646 232.056C314.623 234.026 315.263 236.209 315.468 238.538C316.336 248.519 308.95 257.316 298.969 258.183C288.989 259.05 280.192 251.672 279.325 241.684C279.222 240.523 279.236 239.376 279.354 238.259C279.464 237.142 279.685 236.04 279.993 234.989C280.015 234.908 280.038 234.827 280.067 234.746L313.543 231.829C313.572 231.902 313.609 231.976 313.646 232.056Z" fill="#FCBD6B"/>
<path d="M309.927 178.679C310.044 177.562 310.059 176.415 309.956 175.254C309.75 172.924 309.118 170.749 308.133 168.772C304.018 160.467 303.907 159.196 306.524 150.303C306.832 149.245 307.053 148.15 307.171 147.033C307.288 145.916 307.303 144.769 307.2 143.608C306.59 136.604 302.07 130.879 295.978 128.388C288.43 125.36 288.849 124.059 288.724 123.405H288.716C288.577 122.655 287.893 122.119 287.122 122.192C286.35 122.258 285.769 122.905 285.762 123.669H285.755C285.747 124.324 286.35 125.492 279.89 129.564C274.077 133.01 270.424 139.581 271.056 146.761C271.262 149.083 271.894 151.266 272.871 153.243C274.929 157.395 275.988 159.791 276.201 162.253C276.414 164.723 275.789 167.258 274.481 171.704C274.172 172.763 273.952 173.858 273.842 174.967C273.724 176.085 273.709 177.231 273.812 178.4C274.018 180.722 274.65 182.905 275.627 184.874C277.685 189.027 278.744 191.422 278.957 193.885C279.17 196.354 278.545 198.897 277.237 203.336C276.928 204.387 276.708 205.489 276.598 206.606C276.48 207.723 276.465 208.87 276.568 210.031C276.774 212.353 277.406 214.536 278.383 216.513C280.441 220.665 281.499 223.061 281.713 225.523C281.926 227.948 281.33 230.44 280.066 234.732C290.613 237.253 301.681 236.481 311.771 232.512L313.542 231.814C311.558 227.801 310.536 225.45 310.331 223.032C310.118 220.562 310.742 218.02 312.05 213.581C312.359 212.53 312.58 211.427 312.697 210.31C312.815 209.193 312.829 208.047 312.727 206.885C312.521 204.563 311.889 202.38 310.904 200.403C308.846 196.251 307.788 193.855 307.575 191.393C307.362 188.931 307.986 186.381 309.294 181.942C309.588 180.891 309.816 179.796 309.927 178.679Z" fill="#DFEDF0"/>
<path d="M300.968 144.108C302.041 156.396 289.018 160.893 289.018 160.893C289.018 160.893 275.414 158.718 274.341 146.423C273.702 139.073 279.14 132.591 286.489 131.952C293.853 131.313 300.328 136.758 300.968 144.108Z" fill="#FCBD6B"/>
<path d="M292.714 139.235C295.39 139 297.793 141.418 298.072 144.629C298.351 147.841 296.404 150.634 293.729 150.869C291.053 151.104 288.658 148.686 288.378 145.475C288.099 142.263 290.039 139.47 292.714 139.235Z" fill="white"/>
<path d="M292.906 141.432C294.574 141.285 296.066 142.792 296.242 144.791C296.419 146.79 295.206 148.524 293.538 148.671C291.869 148.818 290.385 147.312 290.208 145.313C290.032 143.321 291.245 141.579 292.906 141.432Z" fill="black"/>
<path d="M281.632 140.205C284.307 139.97 286.71 142.388 286.989 145.599C287.269 148.811 285.321 151.604 282.646 151.839C279.971 152.074 277.575 149.656 277.296 146.445C277.009 143.226 278.957 140.433 281.632 140.205Z" fill="white"/>
<path d="M281.823 142.402C283.491 142.255 284.983 143.762 285.159 145.761C285.336 147.76 284.123 149.495 282.455 149.642C280.786 149.789 279.302 148.282 279.126 146.283C278.949 144.284 280.154 142.549 281.823 142.402Z" fill="black"/>
<path d="M286.614 151.479C287.048 152.251 287.842 153.86 288.488 153.801C289.135 153.743 289.547 152.038 289.833 151.2L286.614 151.479Z" fill="#EA1D25"/>
<path d="M288.451 154.161C287.731 154.161 287.121 153.155 286.452 151.935L286.298 151.655C286.239 151.545 286.239 151.42 286.291 151.31C286.349 151.2 286.452 151.126 286.577 151.119L289.804 150.84C289.929 150.832 290.046 150.884 290.12 150.979C290.193 151.075 290.215 151.207 290.178 151.317C290.127 151.464 290.076 151.633 290.017 151.81C289.679 152.875 289.296 154.088 288.525 154.154C288.495 154.161 288.473 154.161 288.451 154.161ZM287.195 151.788C287.819 152.905 288.238 153.478 288.459 153.441C288.753 153.419 289.179 152.06 289.326 151.604L287.195 151.788Z" fill="#EA1D25"/>
<path d="M292.803 179.032C292.678 179.032 292.553 178.988 292.45 178.907C292.207 178.716 292.171 178.363 292.369 178.12L292.876 177.488C293.067 177.246 293.42 177.209 293.663 177.407C293.905 177.598 293.942 177.951 293.743 178.194L293.236 178.826C293.126 178.958 292.964 179.032 292.803 179.032Z" fill="#562520"/>
<path d="M298.403 175.761C298.315 175.761 298.234 175.739 298.153 175.702C297.874 175.563 297.764 175.225 297.903 174.953L298.271 174.225C298.41 173.946 298.748 173.843 299.02 173.975C299.3 174.115 299.41 174.453 299.27 174.725L298.903 175.453C298.8 175.651 298.609 175.761 298.403 175.761Z" fill="#562520"/>
<path d="M299.446 175.761C299.394 175.761 299.343 175.754 299.284 175.739C296.697 174.967 294.838 173.608 292.883 171.05C291.09 168.706 290.068 165.788 290.002 162.841C289.995 162.532 290.237 162.275 290.546 162.268C290.862 162.275 291.112 162.503 291.119 162.812C291.178 165.524 292.119 168.213 293.772 170.367C295.294 172.358 296.866 173.85 299.6 174.659C299.894 174.747 300.063 175.056 299.975 175.357C299.909 175.607 299.681 175.761 299.446 175.761Z" fill="#562520"/>
<path d="M293.861 179.384C293.751 179.384 293.634 179.347 293.538 179.281C288.621 175.739 285.954 169.345 286.909 163.355C286.96 163.047 287.247 162.841 287.548 162.892C287.857 162.944 288.063 163.23 288.011 163.532C287.122 169.11 289.606 175.07 294.192 178.37C294.442 178.554 294.501 178.899 294.317 179.149C294.207 179.303 294.03 179.384 293.861 179.384Z" fill="#562520"/>
<path d="M309.677 275.043C309.794 275.52 309.743 276.02 309.544 276.476L309.14 277.358C308.471 278.842 307.009 279.724 305.473 279.724C304.98 279.724 304.481 279.636 303.988 279.437C302.688 278.923 302.092 277.409 302.688 276.138L303.165 275.116C305.363 275.954 307.803 275.204 309.184 273.315C309.471 274.308 309.647 274.94 309.677 275.043Z" fill="#562520"/>
<path d="M302.687 250.849C302.687 250.849 307.589 267.76 309.184 273.316C307.803 275.204 305.363 275.954 303.165 275.116L303.18 275.087L296.793 252.48C296.338 250.856 297.293 249.173 298.917 248.718C300.549 248.269 302.232 249.217 302.687 250.849Z" fill="#FCBD6B"/>
<path d="M379.818 287.455L374.836 288.337C371.947 288.851 370.029 291.6 370.536 294.488L371.183 298.141C371.698 301.029 374.446 302.947 377.334 302.44C379.672 302.028 381.377 300.14 381.671 297.906C378.65 295.304 377.878 290.938 379.818 287.455Z" fill="#562520"/>
<path d="M401.741 270.199C402.087 267.12 399.72 264.356 396.545 264.305C393.775 264.261 391.482 266.488 391.173 269.244L389.549 284.729C389.475 285.412 388.954 285.956 388.285 286.081L379.819 287.455C377.871 290.931 378.65 295.304 381.671 297.898L393.951 295.723C397.008 295.113 399.316 292.6 399.676 289.506L401.741 270.199Z" fill="#F0A94D"/>
<path d="M417.821 241.948C421.731 260.219 409.921 278.151 391.592 281.767C373.263 285.383 355.521 273.286 352.199 254.905L346.981 226.706L347.525 226.603C353.772 216.116 364.59 208.502 377.202 205.709C388.718 203.166 400.705 204.871 410.604 210.361L417.821 241.948Z" fill="#FCBD6B"/>
<path d="M374.108 50.4557L410.604 210.369C400.705 204.871 388.718 203.174 377.202 205.717C364.583 208.509 353.772 216.123 347.526 226.611L346.982 226.713L316.475 61.8397C313.616 46.0535 323.956 30.8919 339.691 27.7905C341.609 27.4157 343.528 27.232 345.409 27.232C358.99 27.2173 371.161 36.6831 374.108 50.4557Z" fill="#562520"/>
<path d="M387.065 281.789C385.235 281.084 383.713 279.599 383.037 277.6C381.817 274.014 383.735 270.118 387.322 268.891C400.235 264.496 416.058 268.127 430.734 278.857C433.791 281.091 434.46 285.383 432.226 288.448C429.992 291.505 425.7 292.181 422.635 289.939C406.996 278.504 395.825 280.503 391.746 281.885C390.159 282.421 388.512 282.348 387.065 281.789Z" fill="#FCBD6B"/>
<path d="M420.812 276.255C417.895 282.296 416.05 287.448 424.538 291.549C425.552 292.041 426.581 292.423 427.61 292.622C427.529 292.6 427.449 292.556 427.375 292.519C423.994 290.887 423.193 285.53 425.597 280.554C428.779 273.955 432.689 272.874 436.069 274.498C439.457 276.137 440.979 279.981 437.848 286.463C436.797 288.638 435.32 290.38 433.695 291.512C435.503 290.314 437.238 288.227 438.825 284.942C441.743 278.886 440.075 272.051 435.099 269.648C430.124 267.252 423.73 270.199 420.812 276.255Z" fill="#562520"/>
<path d="M425.597 280.554C423.193 285.53 423.995 290.887 427.375 292.519C427.449 292.556 427.53 292.592 427.61 292.622C429.551 293.019 431.498 292.835 433.35 291.74C433.475 291.674 433.585 291.6 433.696 291.527C435.32 290.395 436.797 288.653 437.848 286.478C440.971 279.996 439.457 276.152 436.069 274.513C432.689 272.874 428.786 273.955 425.597 280.554Z" fill="#361714"/>
<path d="M357.014 42.1728C362.173 41.5555 367.406 46.0165 368.692 52.1531C369.978 58.2751 366.833 63.7503 361.674 64.3676C356.515 64.985 351.289 60.5239 350.003 54.402C348.717 48.2653 351.855 42.7901 357.014 42.1728Z" fill="white"/>
<path d="M357.734 45.5975C361.298 45.1713 364.914 48.2506 365.811 52.4911C366.7 56.7243 364.525 60.5092 360.96 60.9355C357.396 61.3617 353.78 58.275 352.891 54.0418C352.002 49.8087 354.17 46.0311 357.734 45.5975Z" fill="black"/>
<path d="M335.503 44.76C340.662 44.1426 345.894 48.6036 347.181 54.7403C348.467 60.8622 345.321 66.3374 340.162 66.9548C335.003 67.5721 329.778 63.1111 328.491 56.9892C327.205 50.8525 330.343 45.3773 335.503 44.76Z" fill="white"/>
<path d="M336.223 48.1844C339.788 47.7582 343.404 50.8375 344.3 55.0781C345.189 59.3112 343.014 63.0961 339.45 63.5224C335.885 63.9486 332.269 60.8619 331.38 56.6288C330.491 52.3956 332.659 48.6107 336.223 48.1844Z" fill="black"/>
<path d="M347.482 67.954C347.49 67.9834 347.482 68.0128 347.49 68.0496C347.931 70.1441 350.003 71.636 352.12 71.3862C354.236 71.1289 355.603 69.2255 355.162 67.1309C355.155 67.1015 355.14 67.0721 355.133 67.0427L347.482 67.954Z" fill="#EA1D25"/>
<path d="M351.657 72.1947C349.349 72.1947 347.203 70.5043 346.718 68.2114C346.711 68.1746 346.696 68.0864 346.696 68.0497C346.667 67.8365 346.725 67.6381 346.85 67.4691C346.975 67.3 347.174 67.2045 347.379 67.1751L355.037 66.2565C355.42 66.2197 355.78 66.4549 355.89 66.8223C355.905 66.8591 355.919 66.9105 355.934 66.9693C356.191 68.1967 355.949 69.424 355.236 70.4088C354.53 71.3936 353.457 72.0109 352.215 72.1653C352.032 72.18 351.848 72.1947 351.657 72.1947ZM348.497 68.6229C349.107 69.909 350.554 70.7836 352.032 70.6072C352.833 70.5117 353.516 70.1148 353.964 69.4975C354.295 69.0345 354.464 68.4833 354.464 67.91L348.497 68.6229Z" fill="#EA1D25"/>
<path d="M357.44 83.5861L344.116 92.7286C343.344 93.2578 342.205 92.758 342.006 91.81L339.397 79.3897C339.199 78.4416 340.081 77.6993 341.029 78.0227L357.44 83.5861Z" fill="#EA1D25"/>
<path d="M352.068 84.2327L368.479 89.8035C369.427 90.1268 370.309 89.3846 370.111 88.4365L367.502 76.0162C367.303 75.0682 366.164 74.5684 365.393 75.0976L352.068 84.2327Z" fill="#EA1D25"/>
<path d="M358.594 83.4466C358.058 80.8743 355.919 79.0003 353.832 79.2501C351.745 79.5 350.481 81.7856 351.025 84.3579C351.561 86.9301 353.7 88.8042 355.787 88.5543C357.874 88.3044 359.131 86.0188 358.594 83.4466Z" fill="#EA1D25"/>
<path d="M551.673 63.9784C551.335 65.4482 550.865 66.8446 550.277 68.1748C549.696 69.505 548.991 70.7617 548.19 71.9376C541.451 81.8151 541.083 83.4246 542.847 95.2569C543.266 98.0643 543.185 100.997 542.516 103.936C542.178 105.406 541.708 106.803 541.12 108.133C540.539 109.463 539.834 110.72 539.033 111.888C535.659 116.827 533.888 119.708 533.175 122.817C532.462 125.933 532.808 129.291 533.69 135.208C534.109 138.015 534.028 140.955 533.359 143.887C533.021 145.357 532.551 146.761 531.963 148.084C531.382 149.414 530.677 150.678 529.875 151.846C526.502 156.785 524.731 159.659 524.018 162.775C523.32 165.832 523.636 169.125 524.481 174.842L482.208 165.156C485.464 160.379 487.183 157.557 487.882 154.499C488.595 151.383 488.249 148.025 487.367 142.109C486.956 139.301 487.036 136.361 487.705 133.429C488.043 131.959 488.514 130.555 489.102 129.233C489.682 127.902 490.388 126.638 491.181 125.47C494.555 120.531 496.326 117.658 497.039 114.541C497.752 111.433 497.406 108.067 496.524 102.151C496.113 99.3431 496.194 96.4107 496.862 93.4784C497.201 92.0085 497.671 90.6048 498.259 89.2746C498.839 87.9517 499.538 86.695 500.339 85.5191C503.712 80.573 505.483 77.7068 506.196 74.5907C506.909 71.4746 506.564 68.116 505.682 62.1998C505.27 59.3924 505.351 56.4527 506.02 53.5203C508.908 40.9163 521.468 33.0379 534.072 35.9262C546.683 38.8071 554.562 51.3743 551.673 63.9784Z" fill="#562520"/>
<path d="M524.532 175.166C524.951 177.973 524.87 180.913 524.202 183.845C521.313 196.449 508.753 204.32 496.142 201.432C483.538 198.544 475.66 185.991 478.555 173.38C478.893 171.91 479.364 170.506 479.952 169.183C480.532 167.853 481.238 166.589 482.032 165.421C482.098 165.332 482.156 165.237 482.215 165.149L524.488 174.835C524.503 174.945 524.518 175.056 524.532 175.166Z" fill="#FCBD6B"/>
<path d="M524.341 76.8764C522.541 76.8764 520.726 76.6706 518.91 76.259C506.505 73.4149 503.932 61.3988 503.403 56.3645C503.352 55.8574 503.719 55.4091 504.219 55.3503C504.726 55.2915 505.174 55.6663 505.233 56.1661C505.726 60.8108 508.07 71.8862 519.322 74.4658C528.222 76.5089 537.328 72.9665 542.516 65.4482C542.803 65.0293 543.376 64.9264 543.795 65.2131C544.214 65.4997 544.317 66.0729 544.03 66.4918C539.466 73.1062 532.11 76.8764 524.341 76.8764Z" fill="black"/>
<path d="M518.807 77.4498C517.653 77.1853 516.507 76.8399 515.404 76.4136C514.324 75.9947 513.78 74.7821 514.199 73.7017C514.618 72.6214 515.838 72.0775 516.911 72.4964C518.66 73.1652 520.519 73.6062 522.386 73.7899C523.533 73.9001 524.385 74.929 524.268 76.0829C524.15 77.2367 523.128 78.0819 521.975 77.9643C520.909 77.8614 519.843 77.685 518.807 77.4498Z" fill="black"/>
<path d="M557.325 58.7824C557.039 60.0171 556.341 62.6629 555.562 65.2718C555.069 66.9107 553.842 68.1969 552.321 68.9612C551.828 69.2111 551.299 69.4095 550.763 69.5418C545.486 69.336 543.208 63.824 543.751 61.4429L543.884 60.8549C545.758 52.6825 541.627 46.3989 533.124 44.4513L519.102 41.2397C513.935 40.0565 509.776 42.2172 506.909 46.3475C506.909 46.3475 503.624 50.9261 504.418 59.7672C503.374 59.5247 503.183 58.7236 503.198 57.6433C503.249 53.1896 503.845 48.6625 504.315 46.6267C507.218 33.9713 520.05 25.6445 535.528 29.1942C538.32 29.8336 539.004 29.7822 541.671 30.7449C553.519 34.8752 560.228 46.1343 557.325 58.7824Z" fill="#5BCC1A"/>
<path d="M543.751 61.4501C543.207 63.8386 545.485 69.3432 550.762 69.549C549.638 69.843 548.44 69.8797 547.315 69.6225C543.45 68.7332 540.481 64.7572 541.363 60.8989L541.495 60.3109C543.273 52.5648 538.871 48.2949 532.58 46.8544L518.558 43.6428C512.259 42.2023 507.747 46.2665 506.373 52.2635C506.373 52.2635 505.674 56.1806 505.498 58.9587C505.491 59.0101 505.491 59.0542 505.476 59.1056C505.366 59.576 504.895 59.87 504.418 59.7671C503.624 50.9186 506.909 46.3473 506.909 46.3473C509.783 42.217 513.942 40.0563 519.102 41.2396L533.124 44.4512C541.627 46.3987 545.757 52.6897 543.883 60.8548L543.751 61.4501Z" fill="white"/>
<path d="M522.937 57.7314C521.975 61.9205 517.969 64.5809 513.986 63.6696C510.003 62.7583 507.555 58.6206 508.518 54.4315C509.481 50.2425 513.486 47.582 517.469 48.4933C521.453 49.4046 523.9 53.5423 522.937 57.7314Z" fill="white"/>
<path d="M519.931 57.0404C519.373 59.4804 517.035 61.0311 514.713 60.5019C512.391 59.9728 510.965 57.5622 511.523 55.1149C512.082 52.6749 514.419 51.1242 516.741 51.6534C519.064 52.1899 520.49 54.6004 519.931 57.0404Z" fill="black"/>
<path d="M538.866 61.4071C539.826 57.2175 537.378 53.0819 533.398 52.1701C529.418 51.2584 525.414 53.9156 524.454 58.1052C523.494 62.2948 525.942 66.4303 529.922 67.3421C533.902 68.2539 537.907 65.5967 538.866 61.4071Z" fill="white"/>
<path d="M535.894 60.7005C535.335 63.1405 532.998 64.6912 530.676 64.1621C528.354 63.6329 526.928 61.2223 527.486 58.775C528.045 56.3351 530.382 54.7844 532.704 55.3135C535.027 55.85 536.452 58.2606 535.894 60.7005Z" fill="black"/>
<path d="M526.965 67.8145C527.479 67.9321 527.678 68.5421 527.347 68.9463C527.156 69.1815 526.928 69.4093 526.671 69.6298L516.125 67.2486C515.985 66.9399 515.882 66.6386 515.809 66.3446C515.684 65.8375 516.125 65.3672 516.639 65.4848L526.965 67.8145Z" fill="white"/>
<path d="M516.125 67.2485L526.671 69.6297C525.26 70.8644 523.004 71.7243 520.77 71.2172C518.536 70.7174 516.867 68.9756 516.125 67.2485Z" fill="#EA1D25"/>
<path d="M473.999 136.494C478.732 126.55 474.594 114.269 472.955 110.198C472.632 109.39 471.75 108.971 470.912 109.228C466.723 110.529 454.582 115.048 449.842 124.999C445.109 134.943 449.246 147.224 450.885 151.295C451.209 152.104 452.091 152.522 452.928 152.265C457.125 150.964 469.266 146.445 473.999 136.494Z" fill="#AB571D"/>
<path d="M449.981 156.403C449.901 156.403 449.812 156.388 449.732 156.344C449.445 156.205 449.32 155.866 449.46 155.58L473.345 105.421C473.484 105.134 473.823 105.017 474.109 105.149C474.396 105.289 474.521 105.627 474.381 105.913L450.496 156.072C450.4 156.285 450.195 156.403 449.981 156.403Z" fill="#CC7D46"/>
<path d="M452.01 152.816C451.819 152.816 451.643 152.78 451.474 152.699C451.062 152.5 450.79 152.096 450.709 151.567C450.107 147.473 449.21 136.868 453.928 126.947C458.654 117.025 467.444 111.036 471.008 108.926C471.471 108.647 471.956 108.603 472.368 108.801C472.779 109 473.051 109.404 473.132 109.941C473.734 114.034 474.631 124.639 469.913 134.561C465.187 144.482 456.398 150.472 452.833 152.581C452.561 152.735 452.282 152.816 452.01 152.816ZM471.838 109.823C471.787 109.823 471.699 109.845 471.603 109.904C468.891 111.513 459.69 117.525 454.972 127.432C450.254 137.339 451.385 148.274 451.848 151.391C451.87 151.545 451.922 151.633 451.966 151.655C452.01 151.677 452.113 151.662 452.245 151.582C454.957 149.972 464.158 143.96 468.877 134.054C473.595 124.147 472.463 113.211 472 110.095C471.978 109.941 471.927 109.852 471.882 109.83C471.868 109.83 471.853 109.823 471.838 109.823Z" fill="#CC7D46"/>
<path d="M553.268 59.7889C553.517 58.7012 553.135 57.687 552.422 57.5254C551.71 57.3637 550.923 58.1133 550.673 59.201C550.423 60.2887 550.806 61.3029 551.518 61.4646C552.239 61.6262 553.018 60.8766 553.268 59.7889Z" fill="#562520"/>
<path d="M551.725 62.1851C551.607 62.1851 551.49 62.1704 551.365 62.1483C550.255 61.8911 549.652 60.5241 549.99 59.0396C550.328 57.555 551.468 56.5923 552.577 56.8421C553.687 57.0994 554.29 58.4663 553.952 59.9509C553.65 61.2738 552.71 62.1851 551.725 62.1851ZM552.224 58.2018C551.967 58.2018 551.534 58.6207 551.365 59.3482C551.188 60.1199 551.438 60.7152 551.681 60.774C551.923 60.8328 552.408 60.3992 552.585 59.6275C552.761 58.8559 552.511 58.2606 552.269 58.2018C552.254 58.2018 552.239 58.2018 552.224 58.2018Z" fill="white"/>
<path d="M528.707 40.5855C528.199 40.5855 527.773 40.1813 527.759 39.6742C527.707 38.3734 527.913 35.7865 528.053 34.2505C527.288 34.8237 525.884 36.1392 524.238 38.9099C523.966 39.3656 523.386 39.5125 522.93 39.2406C522.474 38.9687 522.327 38.3881 522.599 37.9324C525.466 33.104 527.781 32.1486 528.03 32.053C528.332 31.9428 529.008 31.7076 529.566 32.1045C529.75 32.2368 530.066 32.5454 530.066 33.1187C530.066 33.1481 530.066 33.1848 530.059 33.2142C530.051 33.2583 529.588 37.8443 529.655 39.5934C529.677 40.1225 529.265 40.5635 528.743 40.5855C528.736 40.5855 528.721 40.5855 528.707 40.5855Z" fill="white"/>
<path d="M528.353 38.6894C528.28 38.6894 528.214 38.682 528.14 38.6673L524.693 37.8736C524.179 37.756 523.863 37.2489 523.981 36.7345C524.098 36.22 524.605 35.904 525.12 36.0216L528.567 36.8153C529.081 36.9329 529.397 37.44 529.279 37.9545C529.184 38.3881 528.787 38.6894 528.353 38.6894Z" fill="white"/>
<path d="M493.474 190.305L456.412 183.661L455.537 195.089L492.188 199.455L493.474 190.305Z" fill="#FCBD6B"/>
<path d="M457.764 177.767C462.365 178.15 465.415 182.309 464.952 187.865C464.445 194.002 462.813 196.266 456.331 195.729C455.479 195.663 454.67 195.509 453.913 195.251C453.965 195.266 454.016 195.266 454.068 195.273C456.934 195.501 459.315 194.832 459.873 188.042C460.329 182.442 458.154 180.207 455.28 179.98C452.407 179.752 449.908 181.714 449.474 187.211C449.327 189.056 449.629 190.783 450.268 192.165C449.54 190.673 449.195 188.615 449.415 185.83C449.834 180.692 452.487 177.341 457.764 177.767Z" fill="#562520"/>
<path d="M455.295 179.987C458.161 180.215 460.344 182.441 459.888 188.049C459.329 194.84 456.948 195.509 454.082 195.281C454.031 195.273 453.979 195.273 453.928 195.259C452.473 194.781 451.245 193.906 450.437 192.451C450.385 192.356 450.334 192.267 450.29 192.172C449.658 190.79 449.349 189.071 449.496 187.219C449.922 181.721 452.414 179.759 455.295 179.987Z" fill="#361714"/>
<path d="M495.012 199.722L527.025 216.937L531.989 207.707L499.976 190.492L495.012 199.722Z" fill="#FCBD6B"/>
<path d="M534.174 204.195C530.749 202.358 526.685 203.894 524.466 208.031C522.011 212.603 522.129 214.947 526.95 217.541C527.582 217.887 528.229 218.151 528.875 218.313C528.831 218.298 528.795 218.276 528.758 218.254C526.626 217.1 525.252 215.535 527.971 210.479C530.22 206.312 532.778 205.738 534.909 206.892C537.048 208.046 537.908 210.582 535.695 214.668C534.953 216.042 533.946 217.123 532.866 217.806C534.064 217.086 535.247 215.792 536.372 213.72C538.437 209.898 538.099 206.312 534.174 204.195Z" fill="#562520"/>
<path d="M534.902 206.9C532.77 205.746 530.213 206.319 527.964 210.486C525.245 215.542 526.619 217.108 528.75 218.262C528.787 218.284 528.831 218.306 528.868 218.32C530.117 218.651 531.381 218.592 532.623 217.938C532.704 217.894 532.778 217.85 532.851 217.806C533.932 217.122 534.938 216.042 535.681 214.668C537.9 210.582 537.04 208.053 534.902 206.9Z" fill="#361714"/>
<path d="M441.632 147.062C441.485 147.062 441.345 146.974 441.287 146.827C438.788 140.22 438.641 132.893 440.875 126.19C440.941 125.999 441.147 125.889 441.338 125.955C441.529 126.021 441.632 126.227 441.573 126.418C439.39 132.959 439.53 140.11 441.977 146.562C442.051 146.753 441.955 146.966 441.764 147.033C441.72 147.055 441.676 147.062 441.632 147.062Z" fill="black"/>
<path d="M440.501 151.486C440.398 151.486 440.288 151.442 440.214 151.354C437.524 148.091 435.93 143.968 435.724 139.742C435.717 139.536 435.871 139.367 436.077 139.36C436.275 139.323 436.451 139.507 436.459 139.705C436.657 143.77 438.193 147.738 440.78 150.884C440.912 151.038 440.89 151.273 440.729 151.398C440.67 151.457 440.589 151.486 440.501 151.486Z" fill="black"/>
<path d="M253.514 243.742L236.383 358.075C236.192 359.353 234.994 360.243 233.708 360.044L209.345 356.392C208.059 356.201 207.177 355.003 207.368 353.724L224.499 239.391L253.514 243.742Z" fill="#FCA923"/>
<path d="M253.829 241.633L253.513 243.742L224.506 239.391L224.822 237.282C225.013 235.996 226.211 235.114 227.497 235.305L251.86 238.957C253.139 239.148 254.028 240.346 253.829 241.633Z" fill="#FF7700"/>
<path d="M226.314 290.153C224.8 289.925 223.757 288.514 223.984 287L224.785 281.657C225.013 280.143 226.424 279.099 227.938 279.327C229.452 279.555 230.496 280.966 230.268 282.48L229.467 287.823C229.246 289.337 227.835 290.38 226.314 290.153Z" fill="#D17D1B"/>
<path d="M220.67 327.84C219.156 327.612 218.112 326.201 218.34 324.687L219.141 319.344C219.369 317.83 220.78 316.787 222.294 317.014C223.808 317.242 224.851 318.653 224.623 320.167L223.822 325.51C223.595 327.024 222.183 328.068 220.67 327.84Z" fill="#D17D1B"/>
<path d="M234.934 310.709C233.42 310.481 232.377 309.07 232.604 307.556L233.406 302.213C233.633 300.699 235.044 299.655 236.558 299.883C238.072 300.111 239.116 301.522 238.888 303.036L238.087 308.379C237.859 309.893 236.448 310.937 234.934 310.709Z" fill="#D17D1B"/>
<path d="M229.291 348.403C227.777 348.175 226.733 346.764 226.961 345.25L227.762 339.907C227.99 338.393 229.401 337.35 230.915 337.578C232.429 337.805 233.472 339.216 233.245 340.73L232.443 346.073C232.216 347.58 230.805 348.624 229.291 348.403Z" fill="#D17D1B"/>
<path d="M232.4 247.879C235.237 248.335 237.17 250.996 236.714 253.832C236.266 256.662 233.598 258.595 230.761 258.139C227.925 257.683 225.992 255.023 226.447 252.194C226.903 249.357 229.564 247.431 232.4 247.879ZM234.179 253.428C234.407 251.995 233.429 250.643 231.996 250.415C230.563 250.187 229.211 251.165 228.983 252.598C228.755 254.031 229.733 255.376 231.166 255.604C232.606 255.831 233.951 254.861 234.179 253.428Z" fill="white"/>
<path d="M231.996 250.415C233.429 250.643 234.407 251.988 234.179 253.428C233.951 254.861 232.606 255.831 231.166 255.603C229.733 255.376 228.755 254.031 228.983 252.598C229.211 251.164 230.563 250.187 231.996 250.415Z" fill="black"/>
<path d="M244.276 249.776C247.113 250.231 249.046 252.892 248.59 255.728C248.142 258.558 245.474 260.491 242.637 260.035C239.801 259.579 237.868 256.919 238.323 254.09C238.779 251.253 241.439 249.32 244.276 249.776ZM246.055 255.324C246.283 253.891 245.305 252.539 243.872 252.311C242.439 252.083 241.087 253.061 240.859 254.494C240.631 255.927 241.608 257.272 243.042 257.5C244.482 257.727 245.827 256.75 246.055 255.324Z" fill="white"/>
<path d="M243.872 252.311C245.305 252.539 246.283 253.884 246.055 255.324C245.827 256.758 244.482 257.728 243.042 257.5C241.609 257.272 240.631 255.927 240.859 254.494C241.087 253.054 242.432 252.083 243.872 252.311Z" fill="black"/>
<path d="M234.119 258.801C233.98 258.779 233.84 258.881 233.825 259.021C233.605 261.461 234.406 263.511 235.751 263.725C237.088 263.938 238.492 262.24 239.043 259.852C239.073 259.712 238.977 259.572 238.838 259.55L234.119 258.801Z" fill="#EA1D25"/>
<path d="M240.087 248.343C239.969 248.343 239.852 248.276 239.8 248.159C239.727 247.997 239.793 247.813 239.955 247.74L244.32 245.719C244.482 245.645 244.666 245.711 244.739 245.873C244.813 246.035 244.746 246.219 244.585 246.292L240.219 248.313C240.175 248.335 240.131 248.343 240.087 248.343Z" fill="black"/>
<path d="M236.215 247.725C236.141 247.725 236.06 247.696 236.002 247.637L232.481 244.359C232.356 244.242 232.349 244.043 232.467 243.911C232.584 243.786 232.783 243.779 232.915 243.896L236.435 247.174C236.56 247.292 236.567 247.49 236.45 247.622C236.384 247.689 236.303 247.725 236.215 247.725Z" fill="black"/>
<path d="M238.081 248.468C238.067 248.468 238.045 248.468 238.03 248.46C237.861 248.431 237.743 248.269 237.765 248.1L237.854 247.527C237.883 247.358 238.045 247.233 238.214 247.262C238.383 247.292 238.5 247.453 238.478 247.622L238.39 248.196C238.368 248.357 238.236 248.468 238.081 248.468Z" fill="black"/>
<path d="M224.794 237.466C224.794 237.466 224.691 238.134 224.463 239.67C223.949 243.11 222.435 248.989 218.172 249.805C217.885 249.856 217.885 250.275 218.172 250.334C222.795 251.356 234.171 252.862 237.273 243.882C237.773 242.426 239.235 241.53 240.756 241.758L253.272 243.632" fill="#FF7700"/>
<path d="M228.02 361.507L227.057 368.151C226.94 368.944 226.521 369.613 225.926 370.054C225.33 370.495 224.566 370.715 223.78 370.598C222.192 370.37 221.097 368.9 221.325 367.313L222.273 360.757C222.493 359.236 223.838 358.067 225.374 358.192C227.065 358.339 228.255 359.861 228.02 361.507Z" fill="#E38D00"/>
<path d="M228.645 358.244L227.63 365.24C227.513 366.071 227.065 366.776 226.432 367.247C225.808 367.717 225.007 367.945 224.176 367.82C222.508 367.577 221.354 366.034 221.597 364.366L222.596 357.472C222.831 355.863 224.242 354.635 225.859 354.768C227.638 354.907 228.894 356.509 228.645 358.244Z" fill="#FCA923"/>
<path d="M220.075 356.679L217.488 371.054L210.918 369.834L214.409 355.628C214.695 354.062 216.202 353.026 217.768 353.32C219.333 353.614 220.369 355.113 220.075 356.679Z" fill="#FCA923"/>
<path d="M218.26 369.172L217.702 372.178C217.466 373.435 216.665 374.449 215.6 374.985C215.827 374.735 215.997 374.427 216.063 374.067L216.57 371.325C216.878 369.657 215.776 368.055 214.108 367.746L212.969 367.533C211.624 367.283 210.323 368.172 210.073 369.525L209.808 370.965C209.617 372.001 209.875 373.023 210.44 373.831C209.559 372.81 209.125 371.406 209.389 369.973L209.823 367.636C210.257 365.299 212.498 363.756 214.835 364.189C215.996 364.402 216.959 365.071 217.577 365.968C218.201 366.879 218.473 368.011 218.26 369.172Z" fill="#FCA923"/>
<path d="M216.57 371.325L216.063 374.067C215.997 374.419 215.835 374.735 215.6 374.985C214.85 375.367 213.976 375.514 213.086 375.353C212.013 375.154 211.095 374.596 210.441 373.831C209.875 373.03 209.618 372.009 209.809 370.965L210.073 369.525C210.323 368.18 211.624 367.283 212.969 367.533L214.108 367.746C215.776 368.055 216.879 369.657 216.57 371.325Z" fill="#E38D00"/>
<path d="M81.0783 285.434C80.1303 287.602 81.1444 290.137 83.2096 291.284L86.8842 293.32L93.6456 297.06C95.6593 298.178 96.3795 300.713 95.2624 302.719L92.2492 308.128C91.0366 310.311 91.8156 313.067 93.9983 314.28L96.6147 315.735C98.6651 316.874 101.311 316.389 102.656 314.471C103.942 312.634 103.67 310.26 102.252 308.753C102.252 308.753 102.84 307.702 103.677 306.196C106.955 300.323 104.839 292.908 98.9591 289.652L91.2644 285.39L87.4207 283.258C85.1131 281.987 82.166 282.942 81.0783 285.434Z" fill="#E38D00"/>
<path d="M89.4561 298.714C75.9849 301.235 62.7121 298.178 60.1398 284.714L29.4492 124.161C26.1641 106.986 39.1136 99.5267 56.3035 96.3224C65.9311 94.5292 86.4576 93.3165 88.5375 110.029L109.284 276.968C110.901 290.027 102.384 296.296 89.4561 298.714Z" fill="#FCA923"/>
<path d="M66.2507 149.885C69.8944 146.062 70.1712 140.412 66.8691 137.264C63.567 134.116 57.9363 134.663 54.2927 138.485C50.6491 142.307 50.3722 147.957 53.6743 151.105C56.9764 154.253 62.6071 153.707 66.2507 149.885Z" fill="white"/>
<path d="M65.8284 142.476C66.3281 145.46 64.2483 148.649 61.1763 149.597C58.1043 150.546 55.2086 148.899 54.7089 145.908C54.2091 142.924 56.289 139.735 59.361 138.787C62.433 137.839 65.3286 139.492 65.8284 142.476Z" fill="black"/>
<path d="M88.5515 135.45C89.3452 140.168 86.0528 145.21 81.2022 146.709C76.3517 148.208 71.7731 145.599 70.9794 140.881C70.1857 136.163 73.4781 131.121 78.3287 129.622C83.1792 128.123 87.7578 130.732 88.5515 135.45Z" fill="white"/>
<path d="M85.3244 136.449C85.8242 139.433 83.7444 142.623 80.6724 143.571C77.6004 144.519 74.7047 142.873 74.205 139.881C73.7052 136.898 75.7851 133.708 78.8571 132.76C81.9217 131.812 84.8173 133.466 85.3244 136.449Z" fill="black"/>
<path d="M83.2744 152.684C82.1352 156.322 79.3131 161.084 72.368 161.768C65.5846 162.436 62.6229 158.931 61.3809 156.432C68.5464 157.894 76.4101 156.557 83.2744 152.684Z" fill="#EA1D25"/>
<path d="M83.2742 152.684C76.41 156.55 68.5463 157.894 61.3807 156.425C61.028 155.719 60.8148 155.087 60.6899 154.653C60.6164 154.396 60.8883 154.132 61.1749 154.183C67.2675 155.425 78.7912 152.992 83.3698 149.083C83.6343 148.855 84.0165 148.994 83.9798 149.31C83.9063 150.097 83.7152 151.31 83.2742 152.684Z" fill="white"/>
<path d="M72.3847 130.842C72.2451 130.842 72.1055 130.79 71.9952 130.68C71.7894 130.467 71.7894 130.122 72.0026 129.916L81.7698 120.413C81.9829 120.207 82.3283 120.207 82.5341 120.421C82.7399 120.634 82.7399 120.979 82.5267 121.185L72.7595 130.687C72.6567 130.79 72.517 130.842 72.3847 130.842Z" fill="black"/>
<path d="M65.042 133.113C65.0273 133.113 65.02 133.113 65.0053 133.113L49.998 132.15C49.6967 132.128 49.4762 131.871 49.4909 131.577C49.513 131.283 49.7702 131.048 50.0642 131.07L65.0714 132.032C65.3727 132.054 65.5932 132.312 65.5785 132.606C65.5638 132.892 65.3286 133.113 65.042 133.113Z" fill="black"/>
<path d="M60.5274 121.725C74.6907 119.124 85.2412 111.945 84.0925 105.689C82.9438 99.4341 70.531 96.4715 56.3677 99.0723C42.2043 101.673 31.6538 108.852 32.8025 115.108C33.9512 121.363 46.364 124.326 60.5274 121.725Z" fill="#562520"/>
<path d="M70.4001 203.908C68.2174 204.232 66.042 202.446 65.5349 199.874L63.6608 190.371C63.1022 187.549 64.5501 184.932 66.9018 184.587C69.2536 184.242 71.5466 186.307 72.0096 189.144L73.5823 198.69C74.0159 201.27 72.5828 203.585 70.4001 203.908Z" fill="#D17D1B"/>
<path d="M79.4315 253.913C77.6824 254.17 76.0067 253.068 75.6834 251.429L74.5001 245.425C74.1547 243.661 75.3674 241.985 77.2267 241.713C79.0787 241.441 80.8279 242.683 81.1145 244.454L82.1066 250.481C82.3786 252.134 81.1806 253.656 79.4315 253.913Z" fill="#D17D1B"/>
<path d="M90.0884 229.52C88.1482 229.807 86.3623 228.403 86.0978 226.36L85.1203 218.835C84.8337 216.608 86.2741 214.528 88.3466 214.227C90.4191 213.918 92.2785 215.52 92.499 217.754L93.2413 225.317C93.4397 227.367 92.0286 229.234 90.0884 229.52Z" fill="#D17D1B"/>
<path d="M94.7327 270.353C93.1453 270.588 91.7122 269.684 91.5358 268.317L90.8891 263.335C90.698 261.872 91.9033 260.468 93.5789 260.226C95.2545 259.976 96.7317 260.983 96.8787 262.453L97.3711 267.458C97.5034 268.832 96.3202 270.118 94.7327 270.353Z" fill="#D17D1B"/>
<path d="M90.7561 283.736C88.4264 283.347 86.2143 284.942 85.6043 287.227L84.524 291.284L82.5396 298.751C81.9517 300.97 79.6661 302.293 77.4466 301.698L71.4643 300.096C69.0537 299.449 66.5697 300.882 65.9229 303.293L65.1439 306.188C64.5339 308.452 65.651 310.907 67.8411 311.744C69.9356 312.546 72.1698 311.708 73.2869 309.959C73.2869 309.959 74.4481 310.275 76.109 310.723C82.5984 312.472 89.2789 308.614 91.006 302.117L93.2696 293.614L94.4014 289.366C95.0775 286.808 93.4313 284.177 90.7561 283.736Z" fill="#FCA923"/>
<path d="M69.9433 118.598C58.3609 123.772 36.1807 123.963 27.4204 114.99C17.712 105.039 21.1809 85.6879 32.1313 76.6851C27.5086 82.4836 33.4321 89.1788 38.6354 91.4865C45.0954 94.3454 52.452 93.1915 59.2722 93.7795C65.2618 94.3013 72.2069 95.7123 75.47 101.423C78.8507 107.346 76.249 115.776 69.9433 118.598Z" fill="#562520"/>
<path d="M606.691 247.049C606.691 250.488 606 253.979 604.545 257.323L578.954 316.698C577.661 314.567 574.045 313.053 573.104 310.818C572.009 308.232 574.221 303.66 572.487 301.382C570.797 299.155 565.807 300.037 563.565 298.229C561.404 296.495 561.213 291.416 558.575 290.189C555.944 288.954 551.931 292.063 549.212 291.519C546.382 290.946 543.862 286.559 541.076 286.683C538.21 286.823 536.123 291.438 533.433 292.262C532.117 292.666 530.412 292.254 528.744 291.894L557.833 235.474C564.094 222.987 579.168 217.755 591.823 223.671C601.171 228.044 606.691 237.333 606.691 247.049Z" fill="#9C6036"/>
<path d="M578.954 316.698L575.272 325.245L570.664 335.931C569.753 333.417 565.674 331.639 564.741 329.155C563.712 326.443 566.042 321.894 564.351 319.52C562.69 317.175 557.634 317.874 555.378 315.992C553.188 314.177 552.982 309.062 550.292 307.805C547.595 306.541 543.538 309.664 540.738 309.15C537.85 308.621 535.153 304.292 532.286 304.52C529.376 304.74 527.377 309.451 524.636 310.399C523.173 310.906 521.211 310.444 519.337 310.142L528.744 291.894C530.412 292.254 532.117 292.666 533.433 292.261C536.123 291.438 538.21 286.823 541.076 286.683C543.861 286.558 546.382 290.946 549.212 291.519C551.931 292.063 555.944 288.954 558.575 290.189C561.213 291.416 561.404 296.495 563.565 298.229C565.806 300.037 570.797 299.155 572.487 301.382C574.221 303.66 572.009 308.231 573.104 310.818C574.045 313.052 577.661 314.566 578.954 316.698Z" fill="#FCF0E0"/>
<path d="M570.664 335.931L568.452 341.061C568.276 341.465 568.092 341.869 567.893 342.259C567.313 343.067 566.806 343.876 566.549 344.691C566.549 344.691 566.556 344.691 566.549 344.699C559.03 356.854 543.009 362.403 529.817 356.23C515.368 349.476 508.541 331.47 515.692 317.212L519.337 310.142C521.211 310.444 523.173 310.907 524.636 310.4C527.377 309.452 529.376 304.741 532.286 304.52C535.152 304.292 537.85 308.621 540.738 309.15C543.538 309.665 547.595 306.541 550.292 307.805C552.982 309.062 553.188 314.177 555.378 315.992C557.634 317.874 562.69 317.176 564.351 319.52C566.041 321.894 563.712 326.443 564.741 329.155C565.674 331.639 569.753 333.418 570.664 335.931Z" fill="#FCBD6B"/>
<path d="M567.894 342.259C567.49 343.097 567.041 343.912 566.549 344.691C566.806 343.876 567.313 343.067 567.894 342.259Z" fill="#FCF0E0"/>
<path d="M515.214 339.157L507.005 315.485C507.872 316.404 509.555 316.676 510.878 316.617C514.303 316.448 516.302 314.714 517.25 312.729L518.624 309.981L527.598 334.762C528.832 338.18 527.068 341.943 523.658 343.177C520.212 344.427 516.412 342.619 515.214 339.157Z" fill="#F0A94D"/>
<path d="M505.043 308.871C505.043 308.871 505.513 310.951 509.379 310.951C509.379 310.951 512.407 310.892 513.605 308.871C514.487 307.364 515.281 305.689 515.883 304.483C516.243 303.756 516.39 302.933 516.199 302.146C515.949 301.095 515.119 299.927 512.664 299.905C513.678 299.802 514.722 299.927 515.699 300.353C516.941 300.897 518.198 302.345 518.713 304.277C519.558 307.43 518.786 309.584 518.646 309.929L518.624 309.981L517.25 312.729C516.302 314.713 514.303 316.448 510.878 316.617C509.555 316.676 507.872 316.404 507.005 315.485L505.403 310.862C505.183 310.208 505.058 309.54 505.043 308.871Z" fill="#562520"/>
<path d="M512.598 299.912L512.605 299.905C512.627 299.905 512.649 299.905 512.664 299.905C512.642 299.905 512.62 299.905 512.598 299.912Z" fill="black"/>
<path d="M505.043 308.871C505.006 307.614 505.337 306.358 506.006 305.263L507.711 302.646C508.673 301.25 510.577 300.133 512.598 299.912C512.62 299.905 512.642 299.905 512.664 299.905C515.119 299.927 515.949 301.096 516.199 302.147C516.39 302.933 516.243 303.756 515.883 304.484C515.28 305.689 514.487 307.365 513.605 308.871C512.407 310.892 509.379 310.951 509.379 310.951C505.513 310.951 505.043 308.871 505.043 308.871Z" fill="#361714"/>
<path d="M539.069 336.232C540.304 339.65 538.54 343.412 535.13 344.647C531.683 345.897 527.884 344.089 526.686 340.627L518.477 316.955C519.344 317.874 521.027 318.146 522.35 318.087C525.774 317.918 527.773 316.183 528.721 314.199L530.096 311.45L539.069 336.232Z" fill="#F0A94D"/>
<path d="M527.671 303.616C527.421 302.565 526.591 301.397 524.136 301.375C525.15 301.272 526.194 301.397 527.171 301.823C528.413 302.367 529.662 303.815 530.184 305.747C531.029 308.9 530.258 311.054 530.118 311.399C530.103 311.436 530.096 311.451 530.096 311.451L528.722 314.199C527.774 316.183 525.775 317.918 522.35 318.087C521.027 318.146 519.344 317.874 518.477 316.955L516.875 312.332C516.654 311.678 516.529 311.01 516.515 310.341C516.515 310.341 516.985 312.421 520.851 312.421C520.851 312.421 523.879 312.362 525.077 310.341C525.958 308.834 526.752 307.159 527.355 305.953C527.715 305.226 527.862 304.403 527.671 303.616Z" fill="#562520"/>
<path d="M524.136 301.375C524.114 301.375 524.091 301.375 524.069 301.382L524.077 301.375C524.099 301.375 524.121 301.375 524.136 301.375Z" fill="black"/>
<path d="M520.851 312.421C516.985 312.421 516.514 310.341 516.514 310.341C516.478 309.084 516.808 307.827 517.477 306.732L519.182 304.116C520.145 302.72 522.048 301.603 524.07 301.382C524.092 301.375 524.114 301.375 524.136 301.375C526.59 301.397 527.421 302.565 527.671 303.616C527.862 304.403 527.715 305.226 527.355 305.953C526.752 307.159 525.958 308.834 525.076 310.341C523.878 312.362 520.851 312.421 520.851 312.421Z" fill="#361714"/>
<path d="M571.674 246.251C575.925 243.626 577.587 238.609 575.386 235.045C573.185 231.481 567.955 230.72 563.704 233.346C559.453 235.971 557.791 240.988 559.992 244.552C562.192 248.116 567.423 248.876 571.674 246.251Z" fill="white"/>
<path d="M570.469 244.303C573.436 242.471 574.596 238.97 573.06 236.484C571.525 233.998 567.876 233.467 564.909 235.299C561.943 237.131 560.783 240.631 562.318 243.118C563.854 245.604 567.503 246.135 570.469 244.303Z" fill="black"/>
<path d="M589.317 249.604C593.568 246.979 595.23 241.962 593.03 238.398C590.829 234.834 585.599 234.073 581.348 236.698C577.097 239.323 575.434 244.34 577.635 247.904C579.836 251.468 585.066 252.229 589.317 249.604Z" fill="white"/>
<path d="M591.044 244.219C589.891 247.255 586.414 249.224 583.284 248.629C580.146 248.034 578.536 245.087 579.69 242.059C580.844 239.023 584.32 237.054 587.451 237.649C590.582 238.244 592.191 241.191 591.044 244.219Z" fill="black"/>
<path d="M576.088 248.901C576.25 248.93 576.331 249.092 576.257 249.246C576.088 249.628 575.912 249.981 575.706 250.319L570.98 249.422C571.047 249.062 571.135 248.688 571.26 248.298C571.311 248.144 571.495 248.033 571.657 248.063L576.088 248.901Z" fill="white"/>
<path d="M570.987 249.423L575.713 250.319C574.669 252.09 573.251 253.23 572.156 253.016C571.061 252.811 570.635 251.326 570.987 249.423Z" fill="black"/>
<path d="M609.256 247.894C605.442 249.694 599.739 245.608 596.52 238.773C593.301 231.938 593.786 224.942 597.6 223.141C601.414 221.341 607.117 225.427 610.336 232.262C613.555 239.097 613.07 246.093 609.256 247.894Z" fill="#FCBD6B"/>
<path d="M604.184 236.664L603.023 234.195C602.927 233.996 603.016 233.769 603.214 233.673L610.556 230.219C611.431 229.807 612.482 230.182 612.893 231.057C613.305 231.931 612.93 232.982 612.055 233.394L604.713 236.848C604.515 236.943 604.28 236.863 604.184 236.664Z" fill="#FCBD6B"/>
<path d="M639.299 51.073C638.152 52.3371 636.057 52.315 636.057 52.315C636.057 52.315 635.83 50.2352 636.976 48.9638C638.123 47.6923 640.217 47.7217 640.217 47.7217C640.217 47.7217 640.445 49.8016 639.299 51.073Z" fill="#FF66AA"/>
<path d="M638.622 53.2705C636.932 53.028 635.778 51.2789 635.778 51.2789C635.778 51.2789 637.373 49.9193 639.071 50.1618C640.761 50.4043 641.915 52.1534 641.915 52.1534C641.915 52.1534 640.32 53.5131 638.622 53.2705Z" fill="#FF66AA"/>
<path d="M651.998 129.431L653.438 137.692C654.085 141.396 651.608 144.916 647.904 145.563C644.2 146.21 640.68 143.733 640.033 140.029L638.593 131.768L651.998 129.431Z" fill="#8F7353"/>
<path d="M635.132 32.8763L651.991 129.431L638.586 131.776L621.727 35.2207C621.08 31.5166 623.557 27.989 627.261 27.3423C629.113 27.0189 630.921 27.4819 632.346 28.4814C633.765 29.4735 634.808 31.0242 635.132 32.8763Z" fill="#873733"/>
<path d="M626.717 26.7838C620.022 27.9524 615.546 34.3242 616.715 41.0194C616.943 42.3276 617.376 43.5549 617.964 44.6646L623.785 43.6504L622.506 36.3379L633.251 34.4638L634.529 41.7764L641.019 40.6446C641.195 39.3952 641.188 38.1017 640.96 36.7862C639.784 30.0984 633.412 25.6153 626.717 26.7838Z" fill="#FF66AA"/>
<path d="M638.652 53.3366L625.35 55.659C624.968 55.7251 624.6 55.4679 624.534 55.0858L624.056 52.3665C623.99 51.9844 624.247 51.6169 624.629 51.5508L637.932 49.2284C638.314 49.1622 638.681 49.4195 638.747 49.8016L639.225 52.5209C639.299 52.903 639.041 53.2705 638.652 53.3366Z" fill="#FF66AA"/>
<path d="M631.399 38.8806C631.862 41.5337 634.39 43.3049 637.043 42.8419C639.696 42.3789 641.467 39.8507 641.004 37.1976C640.541 34.5446 638.013 32.7734 635.36 33.2364C632.707 33.7067 630.936 36.2275 631.399 38.8806Z" fill="black"/>
<path d="M621.044 40.6961C621.507 43.3492 624.035 45.1203 626.688 44.6573C629.342 44.1943 631.113 41.6662 630.65 39.0131C630.187 36.36 627.659 34.5888 625.006 35.0518C622.352 35.5222 620.581 38.043 621.044 40.6961Z" fill="black"/>
<path d="M631.969 38.2348L630.116 38.5596L630.313 39.6816L632.166 39.3569L631.969 38.2348Z" fill="black"/>
<path d="M627.482 36.757C625.755 35.9413 623.683 36.6468 622.823 38.3665C621.963 40.0789 622.647 42.1661 624.337 43.0554L627.482 36.757Z" fill="white"/>
<path d="M638.05 34.905C636.323 34.0892 634.25 34.7947 633.39 36.5145C632.531 38.2269 633.214 40.3141 634.904 41.2033L638.05 34.905Z" fill="white"/>
<path d="M632.075 44.9438L630.796 42.5479C630.715 42.4009 630.803 42.2172 630.972 42.1878L632.633 41.8938C632.802 41.8644 632.942 42.0041 632.92 42.1731L632.538 44.8556C632.501 45.0981 632.185 45.1496 632.075 44.9438Z" fill="black"/>
<path d="M632.288 45.2893C632.119 45.2893 631.965 45.2011 631.884 45.0468L630.605 42.6509C630.539 42.5186 630.532 42.3643 630.598 42.232C630.664 42.0997 630.789 42.0042 630.936 41.9821L632.597 41.6881C632.744 41.6587 632.891 41.7102 632.994 41.8131C633.097 41.916 633.148 42.0629 633.126 42.2099L632.744 44.8924C632.714 45.0909 632.567 45.2452 632.369 45.2819C632.34 45.2819 632.318 45.2893 632.288 45.2893ZM632.67 42.107L631.009 42.401L630.987 42.4525L632.266 44.8483C632.266 44.8557 632.273 44.8704 632.303 44.863L632.714 42.1511L632.67 42.107Z" fill="#EA1D25"/>
<path d="M646.781 142.601C645.965 142.439 645.171 142.969 645.01 143.784L644.723 145.217L643.959 149.098L643.768 150.068L643.672 150.553L643.65 150.671L643.635 150.737L643.606 150.862C643.518 151.2 643.334 151.494 643.099 151.751C642.636 152.265 641.916 152.53 641.232 152.456C641.129 152.449 640.71 152.368 640.409 152.317L639.439 152.14L637.491 151.788L636.08 151.53L634.669 151.273C633.854 151.126 633.067 151.67 632.92 152.486L632.729 153.522C632.582 154.338 633.126 155.124 633.942 155.271C634.603 155.389 635.242 155.058 635.544 154.492L636.955 154.749L638.902 155.102L639.873 155.279C640.211 155.337 640.483 155.404 640.916 155.448C642.533 155.631 644.216 154.999 645.304 153.801C645.855 153.206 646.274 152.486 646.494 151.707C646.604 151.288 646.663 150.979 646.722 150.656L646.913 149.686L647.677 145.805L647.964 144.372C648.126 143.557 647.597 142.763 646.781 142.601Z" fill="#8F7353"/>
<path d="M650.272 141.234C650.176 140.382 649.427 139.794 648.603 139.911C647.78 140.036 647.185 140.764 647.281 141.543C647.347 141.998 647.361 142.469 647.398 142.932C647.707 147.268 647.303 151.663 646.23 155.889C645.7 157.998 645.002 160.07 644.157 162.077L643.481 163.561C643.253 164.054 642.989 164.539 642.753 165.016C642.555 165.428 642.32 165.81 642.099 166.207C641.872 166.604 641.658 167.008 641.409 167.383C640.99 168.044 641.21 168.963 641.901 169.426L642.775 170.007C643.466 170.47 644.407 170.249 644.87 169.507C645.259 168.911 645.142 168.154 644.716 167.691C644.951 167.265 645.208 166.846 645.421 166.413C645.678 165.898 645.958 165.376 646.208 164.855L646.928 163.26C647.839 161.107 648.581 158.887 649.147 156.623C650.294 152.096 650.727 147.393 650.404 142.726C650.36 142.226 650.338 141.734 650.272 141.234Z" fill="#8F7353"/>
<path d="M104.728 346.455L98.3047 333.234C103.008 330.948 105.999 330.522 108.395 330.184C110.262 329.919 111.497 329.743 114.135 328.464C116.766 327.185 117.67 326.326 119.03 325.017C120.779 323.342 122.962 321.255 127.665 318.969C132.369 316.683 135.36 316.257 137.756 315.919C139.622 315.654 140.857 315.478 143.488 314.199C146.119 312.921 147.023 312.061 148.383 310.752C150.132 309.077 152.315 306.99 157.018 304.704C161.722 302.418 164.713 301.992 167.109 301.654C168.975 301.389 170.21 301.213 172.841 299.934L179.264 313.156C174.561 315.441 171.57 315.868 169.174 316.206C167.307 316.47 166.072 316.647 163.441 317.925C160.81 319.204 159.906 320.064 158.547 321.372C156.798 323.048 154.615 325.135 149.911 327.421C145.208 329.706 142.217 330.133 139.821 330.471C137.954 330.735 136.719 330.912 134.088 332.19C131.457 333.469 130.553 334.329 129.194 335.637C127.445 337.313 125.262 339.4 120.558 341.686C115.855 343.971 112.864 344.397 110.468 344.736C108.594 345 107.359 345.176 104.728 346.455Z" fill="#FF60FF"/>
<path d="M263.155 262.027C263.155 262.027 264.169 269.045 269.071 269.641C264.169 269.045 261.501 275.608 261.501 275.608C261.501 275.608 260.487 268.59 255.585 267.994C260.48 268.59 263.155 262.027 263.155 262.027Z" fill="#FFBB00"/>
<path d="M210.586 241.559C210.586 241.559 211.519 248.026 216.039 248.57C211.519 248.019 209.065 254.075 209.065 254.075C209.065 254.075 208.131 247.608 203.611 247.064C208.131 247.608 210.586 241.559 210.586 241.559Z" fill="#FFBB00"/>
<path d="M257.702 233.482C257.702 233.482 258.15 236.591 260.326 236.856C258.158 236.591 256.974 239.501 256.974 239.501C256.974 239.501 256.526 236.393 254.351 236.128C256.519 236.393 257.702 233.482 257.702 233.482Z" fill="#FFBB00"/>
<path d="M254.578 281.576C254.578 281.576 255.049 284.846 257.334 285.126C255.049 284.846 253.807 287.911 253.807 287.911C253.807 287.911 253.336 284.641 251.051 284.361C253.329 284.633 254.578 281.576 254.578 281.576Z" fill="#FFBB00"/>
<path d="M228.034 225.648C228.034 225.648 228.504 228.918 230.79 229.198C228.504 228.918 227.262 231.983 227.262 231.983C227.262 231.983 226.791 228.713 224.506 228.433C226.791 228.705 228.034 225.648 228.034 225.648Z" fill="#FFBB00"/>
<path d="M258.503 257.919C258.503 257.919 259.333 252.289 256.364 251.929C259.333 252.289 259.877 246.63 259.877 246.63C259.877 246.63 259.047 252.26 262.016 252.62C259.047 252.26 258.503 257.919 258.503 257.919Z" fill="#FFBB00"/>
<path d="M217.596 241.309C217.596 241.309 218.037 238.303 216.457 238.112C218.044 238.303 218.331 235.283 218.331 235.283C218.331 235.283 217.89 238.289 219.47 238.48C217.883 238.281 217.596 241.309 217.596 241.309Z" fill="#FFBB00"/>
<path d="M211.909 283.825C211.909 283.825 212.35 280.819 210.77 280.628C212.357 280.819 212.644 277.798 212.644 277.798C212.644 277.798 212.203 280.804 213.783 280.995C212.195 280.804 211.909 283.825 211.909 283.825Z" fill="#FFBB00"/>
<path d="M212.739 271.669C212.739 271.669 213.503 266.488 210.77 266.157C213.503 266.488 214.003 261.277 214.003 261.277C214.003 261.277 213.239 266.459 215.973 266.789C213.239 266.451 212.739 271.669 212.739 271.669Z" fill="#FFBB00"/>
<path d="M242.944 231.976C242.944 231.976 243.562 227.816 241.364 227.544C243.562 227.809 243.966 223.62 243.966 223.62C243.966 223.62 243.349 227.779 245.546 228.051C243.349 227.787 242.944 231.976 242.944 231.976Z" fill="#FFBB00"/>
<path d="M114.7 137.838C114.7 137.838 117.713 148.987 125.761 148.995C117.713 148.987 114.678 160.129 114.678 160.129C114.678 160.129 111.665 148.98 103.617 148.973C111.665 148.98 114.7 137.838 114.7 137.838Z" fill="#FFBB00"/>
<path d="M14.6903 134.854C14.6903 134.854 17.2111 144.195 23.9504 144.203C17.2111 144.195 14.6683 153.529 14.6683 153.529C14.6683 153.529 12.1475 144.188 5.4082 144.181C12.1475 144.195 14.6903 134.854 14.6903 134.854Z" fill="#FFBB00"/>
<path d="M104.843 110.396C104.843 110.396 106.453 116.357 110.752 116.364C106.453 116.357 104.829 122.317 104.829 122.317C104.829 122.317 103.219 116.357 98.9199 116.349C103.219 116.349 104.843 110.396 104.843 110.396Z" fill="#FFBB00"/>
<path d="M30.5946 178.818C30.5946 178.818 31.8734 183.544 35.2835 183.544C31.8734 183.544 30.5873 188.262 30.5873 188.262C30.5873 188.262 29.3085 183.536 25.8984 183.536C29.3085 183.544 30.5946 178.818 30.5946 178.818Z" fill="#FFBB00"/>
<path d="M109.481 170.484C109.481 170.484 110.76 175.209 114.17 175.209C110.76 175.209 109.474 179.928 109.474 179.928C109.474 179.928 108.195 175.202 104.785 175.202C108.195 175.202 109.481 170.484 109.481 170.484Z" fill="#FFBB00"/>
<path d="M52.4872 77.6553C52.4872 77.6553 53.766 82.3809 57.176 82.3809C53.766 82.3809 52.4799 87.0991 52.4799 87.0991C52.4799 87.0991 51.2011 82.3735 47.791 82.3735C51.2011 82.3735 52.4872 77.6553 52.4872 77.6553Z" fill="#FFBB00"/>
<path d="M88.6604 101.276C88.6604 101.276 88.8882 92.8537 84.4492 92.8463C88.8882 92.8537 88.6751 84.4314 88.6751 84.4314C88.6751 84.4314 88.4472 92.8537 92.8862 92.861C88.4472 92.8537 88.6604 101.276 88.6604 101.276Z" fill="#FFBB00"/>
<path d="M112.385 204.563C112.385 204.563 112.539 198.742 109.475 198.735C112.539 198.735 112.4 192.914 112.4 192.914C112.4 192.914 112.245 198.735 115.31 198.742C112.245 198.742 112.385 204.563 112.385 204.563Z" fill="#FFBB00"/>
<path d="M21.6434 126.668C21.6434 126.668 21.761 122.17 19.3945 122.17C21.761 122.17 21.6508 117.679 21.6508 117.679C21.6508 117.679 21.5332 122.177 23.8996 122.177C21.5332 122.177 21.6434 126.668 21.6434 126.668Z" fill="#FFBB00"/>
<path d="M37.5243 206.422C37.5243 206.422 37.6419 201.924 35.2754 201.924C37.6419 201.924 37.5316 197.434 37.5316 197.434C37.5316 197.434 37.414 201.931 39.7805 201.931C37.414 201.924 37.5243 206.422 37.5243 206.422Z" fill="#FFBB00"/>
<path d="M14.6753 178.892C14.6753 178.892 14.8811 171.138 10.7949 171.131C14.8811 171.138 14.69 163.377 14.69 163.377C14.69 163.377 14.4843 171.131 18.5705 171.138C14.4843 171.131 14.6753 178.892 14.6753 178.892Z" fill="#FFBB00"/>
<path d="M65.8934 79.6836C65.8934 79.6836 66.0625 73.4514 62.7773 73.4514C66.0625 73.4514 65.9081 67.2266 65.9081 67.2266C65.9081 67.2266 65.7391 73.4587 69.0242 73.4587C65.7391 73.4514 65.8934 79.6836 65.8934 79.6836Z" fill="#FFBB00"/>
<path d="M646.069 28.7533C645.988 28.7533 645.907 28.7239 645.833 28.6725C645.679 28.5402 645.657 28.3124 645.782 28.158L655.336 16.5168C655.468 16.3624 655.696 16.3404 655.85 16.4653C656.005 16.5976 656.027 16.8255 655.902 16.9798L646.348 28.621C646.282 28.7019 646.171 28.7533 646.069 28.7533Z" fill="black"/>
<path d="M648.251 33.9786C648.126 33.9786 648.009 33.9198 647.935 33.8022C647.825 33.6258 647.884 33.4054 648.053 33.2951L670.865 19.28C671.034 19.1698 671.262 19.2286 671.372 19.3976C671.475 19.574 671.423 19.7945 671.254 19.9047L648.442 33.9198C648.383 33.9565 648.317 33.9786 648.251 33.9786Z" fill="black"/>
<path d="M660.127 39.2994C660.119 39.2994 660.112 39.2994 660.112 39.2994L648.728 38.785C648.522 38.7776 648.368 38.6012 648.375 38.4028C648.383 38.197 648.559 38.0427 648.757 38.0501L660.141 38.5645C660.347 38.5719 660.502 38.7482 660.494 38.9467C660.48 39.1451 660.318 39.2994 660.127 39.2994Z" fill="black"/>
<path d="M610.358 36.639C610.27 36.639 610.174 36.6022 610.101 36.5361L599.231 26.1148C599.084 25.9752 599.077 25.74 599.224 25.593C599.363 25.446 599.599 25.4387 599.746 25.5783L610.615 35.9996C610.762 36.1392 610.77 36.3744 610.623 36.5214C610.556 36.6022 610.461 36.639 610.358 36.639Z" fill="black"/>
<path d="M610.527 42.2611C610.482 42.2611 610.438 42.2538 610.402 42.2391L584.584 32.6336C584.393 32.5601 584.297 32.3543 584.37 32.1632C584.444 31.9721 584.657 31.8766 584.841 31.9501L610.659 41.5556C610.85 41.6291 610.945 41.8349 610.872 42.0259C610.813 42.1656 610.674 42.2611 610.527 42.2611Z" fill="black"/>
<path d="M597.614 46.5017C597.415 46.5017 597.254 46.3474 597.246 46.1416C597.239 45.9358 597.401 45.7668 597.606 45.7668L609.137 45.4655C609.351 45.4434 609.512 45.6198 609.512 45.8256C609.52 46.0314 609.358 46.2004 609.152 46.2004L597.621 46.5017C597.621 46.5017 597.621 46.5017 597.614 46.5017Z" fill="black"/>
<path d="M666.139 56.9377C665.037 56.6437 663.927 56.8715 663.067 57.4521C662.612 56.5187 661.752 55.7765 660.657 55.4825C658.672 54.9534 656.644 56.1072 656.129 58.0474C655.152 61.7514 658.496 65.8009 659.826 67.2193C660.142 67.5574 660.62 67.6823 661.054 67.5427C662.913 66.9621 667.822 65.1027 668.807 61.3987C669.314 59.4658 668.124 57.4668 666.139 56.9377Z" fill="#EA1D25"/>
<path d="M608.601 53.8366C607.308 54.2261 606.323 55.1521 605.823 56.2766C604.78 55.6151 603.45 55.402 602.156 55.7915C599.819 56.497 598.489 58.9223 599.18 61.2079C600.502 65.5587 606.411 67.5651 608.645 68.1677C609.175 68.3147 609.733 68.1383 610.093 67.7267C611.607 65.9776 615.407 61.0315 614.084 56.6808C613.393 54.4025 610.938 53.1311 608.601 53.8366Z" fill="#EA1D25"/>
<path d="M597.585 74.5541C596.975 74.7966 596.527 75.2817 596.328 75.8549C595.792 75.5757 595.138 75.5242 594.52 75.7667C593.411 76.2077 592.859 77.435 593.286 78.5227C594.101 80.5879 597.063 81.3301 598.173 81.5359C598.438 81.5874 598.702 81.4771 598.856 81.264C599.525 80.3527 601.179 77.7951 600.363 75.73C599.937 74.6423 598.695 74.1205 597.585 74.5541Z" fill="#EA1D25"/>
<path d="M604.229 12.7027C603.839 12.9526 603.604 13.3494 603.545 13.7683C603.141 13.6508 602.685 13.7022 602.296 13.9594C601.598 14.4151 601.385 15.3337 601.833 16.0172C602.678 17.3254 604.809 17.4209 605.603 17.4136C605.787 17.4136 605.956 17.3033 606.037 17.1343C606.367 16.4141 607.154 14.4298 606.301 13.129C605.86 12.4381 604.927 12.247 604.229 12.7027Z" fill="#EA1D25"/>
<path d="M658.973 1.27442C658.187 1.03924 657.386 1.17888 656.754 1.58309C656.445 0.899605 655.843 0.348408 655.064 0.113231C653.645 -0.305678 652.168 0.473347 651.757 1.86236C650.97 4.50075 653.293 7.48456 654.219 8.54286C654.439 8.79273 654.777 8.89562 655.093 8.80008C656.438 8.42527 660.017 7.19059 660.796 4.54485C661.208 3.16318 660.392 1.70068 658.973 1.27442Z" fill="#EA1D25"/>
<path d="M653.902 49.5151C653.351 49.3535 652.793 49.449 652.352 49.7283C652.139 49.2506 651.712 48.8611 651.168 48.6994C650.176 48.4054 649.14 48.9492 648.853 49.9193C648.302 51.7714 649.926 53.8586 650.573 54.5935C650.728 54.7699 650.963 54.836 651.191 54.7772C652.131 54.5126 654.637 53.6528 655.181 51.8008C655.468 50.838 654.895 49.8091 653.902 49.5151Z" fill="#EA1D25"/>
<path d="M588.957 13.2244C588.186 13.2611 587.517 13.6874 587.083 14.3415C586.591 13.7315 585.885 13.3567 585.114 13.3934C583.717 13.4522 582.652 14.8118 582.718 16.4287C582.85 19.508 585.856 21.8377 587.01 22.6168C587.282 22.8005 587.62 22.7858 587.87 22.58C588.95 21.6981 591.735 19.1112 591.603 16.0318C591.544 14.4223 590.354 13.1656 588.957 13.2244Z" fill="#EA1D25"/>
<path d="M583.143 39.3141C582.644 39.5199 582.306 39.9609 582.166 40.4974C581.696 40.2107 581.144 40.1299 580.645 40.3357C579.741 40.7031 579.351 41.8496 579.785 42.9006C580.601 44.8996 583.129 45.7227 584.077 45.9652C584.297 46.024 584.518 45.9358 584.635 45.7374C585.142 44.8996 586.37 42.5405 585.554 40.5415C585.128 39.4905 584.047 38.9393 583.143 39.3141Z" fill="#EA1D25"/>
<path d="M630.355 9.41735C629.841 9.30711 629.319 9.47614 628.922 9.83626C628.702 9.34385 628.298 8.97639 627.783 8.86615C626.85 8.66772 625.909 9.3806 625.674 10.4609C625.233 12.5187 626.82 14.5839 627.445 15.3041C627.592 15.4731 627.82 15.5246 628.026 15.4291C628.893 15.0322 631.186 13.8049 631.627 11.7397C631.855 10.6594 631.289 9.61578 630.355 9.41735Z" fill="#EA1D25"/>
<path d="M683.924 26.1298C683.586 25.7256 683.072 25.5345 682.535 25.5712C682.667 25.0494 682.572 24.5129 682.234 24.1087C681.624 23.3738 680.441 23.3517 679.588 24.0646C677.971 25.4095 677.942 28.0112 677.993 28.9666C678.008 29.1944 678.155 29.3708 678.368 29.4222C679.294 29.6427 681.859 30.091 683.476 28.7461C684.343 28.0259 684.534 26.8573 683.924 26.1298Z" fill="#EA1D25"/>
<path d="M673.173 37.5282C672.739 37.2269 672.195 37.1755 671.688 37.3445C671.681 36.808 671.453 36.3083 671.019 36.0069C670.24 35.4557 669.094 35.7424 668.454 36.6463C667.234 38.3661 667.889 40.8869 668.183 41.7908C668.256 42.004 668.44 42.1362 668.668 42.1289C669.623 42.1068 672.21 41.879 673.43 40.1519C674.062 39.2553 673.952 38.0794 673.173 37.5282Z" fill="#EA1D25"/>
<path d="M667.197 77.9789C666.683 77.8686 666.161 78.0377 665.764 78.3978C665.544 77.9054 665.139 77.5379 664.625 77.4277C663.692 77.2292 662.751 77.9421 662.516 79.0225C662.075 81.0803 663.662 83.1454 664.287 83.8656C664.434 84.0347 664.662 84.0861 664.868 83.9906C665.735 83.5937 668.028 82.3664 668.469 80.3012C668.697 79.2209 668.131 78.1773 667.197 77.9789Z" fill="#EA1D25"/>
<path d="M178.221 72.0699L177.324 52.9691L169.196 58.5399L165.301 30.3186L174.98 24.2261L175.362 44.5909L184.651 38.2264L178.221 72.0699Z" fill="#FFBB00"/>
<path d="M243.643 30.6493V42.4669C242.93 42.3347 242.115 42.3787 241.299 42.6507C239.315 43.3048 238.095 45.0098 238.572 46.4576C239.05 47.9054 241.042 48.5448 243.026 47.8907C244.812 47.3028 245.973 45.8623 245.841 44.5247C245.848 44.488 245.855 44.4439 245.855 44.4071V30.6493C245.855 30.0393 245.363 29.5396 244.746 29.5396C244.136 29.5469 243.643 30.0393 243.643 30.6493Z" fill="#562520"/>
<path d="M251.565 139.11L240.034 142.711C239.454 142.895 238.976 143.285 238.668 143.784C238.513 143.953 238.403 144.174 238.374 144.424L238.337 144.755L237.911 148.437L236.852 157.528C236.132 157.3 235.279 157.256 234.405 157.432C232.266 157.873 230.796 159.49 231.12 161.048C231.443 162.606 233.435 163.51 235.566 163.076C237.484 162.679 238.866 161.327 238.888 159.931C238.895 159.887 238.91 159.85 238.917 159.806L240.233 148.495C240.292 148.003 240.637 147.584 241.107 147.437L249.456 144.828C249.912 144.688 250.368 145.063 250.309 145.534L249.361 153.728C248.618 153.478 247.737 153.419 246.833 153.61C244.701 154.051 243.224 155.668 243.547 157.226C243.871 158.784 245.855 159.688 247.994 159.255C249.647 158.917 250.897 157.866 251.235 156.682C251.323 156.543 251.389 156.381 251.404 156.205L252.844 143.77L253.065 141.896L253.226 140.477C253.337 139.559 252.455 138.831 251.565 139.11Z" fill="#562520"/>
<path d="M146.419 58.6723C146.493 58.1138 146.059 57.6361 145.515 57.6434C145.317 57.6434 145.067 57.3715 145.037 57.1877C145.001 56.9379 145.14 56.6292 145.442 56.2691C145.567 56.1221 145.706 55.9751 145.846 55.8281C146.14 55.5195 146.448 55.1961 146.698 54.7919C147.345 53.763 147.441 52.4401 146.956 51.2569C146.559 50.2941 145.78 49.4343 144.817 48.8684C144.817 48.861 144.729 48.8243 144.582 48.7655C143.803 48.4421 142.906 48.8243 142.59 49.6106L139.107 58.2754C138.614 57.9594 137.989 57.7463 137.299 57.7022C135.616 57.592 134.19 58.5033 134.109 59.7306C134.028 60.9579 135.329 62.0383 137.019 62.1485C138.533 62.244 139.841 61.5165 140.143 60.4729C140.158 60.4435 140.172 60.4141 140.187 60.3847L143.928 51.0731C144.038 50.8086 144.376 50.7424 144.582 50.9409C144.89 51.2348 145.126 51.5802 145.28 51.9404C145.545 52.5797 145.5 53.2853 145.17 53.8144C145.015 54.0643 144.788 54.2995 144.538 54.5567C144.376 54.7257 144.214 54.9021 144.06 55.0785C143.406 55.8502 143.134 56.6439 143.237 57.4229C143.354 58.2681 143.964 58.9883 144.729 59.297C144.935 59.3778 145.148 59.4293 145.368 59.4513C145.861 59.4954 146.353 59.172 146.419 58.6723Z" fill="#562520"/>
<path d="M171.195 88.6279L169.321 89.0321L167.719 81.6387L127.158 90.4432L128.76 97.8365L126.886 98.2407L125.181 90.3991C125.012 89.6127 125.512 88.8337 126.298 88.6573L167.756 79.6618C168.542 79.4927 169.321 79.9925 169.49 80.7789L171.195 88.6279Z" fill="#C0CBCF"/>
<path d="M165.566 82.6898L129.547 90.5094C129.268 90.5682 128.996 90.3918 128.937 90.1199L128.504 88.1209C128.445 87.8416 128.621 87.5697 128.893 87.5109L164.912 79.6912C165.191 79.6325 165.463 79.8088 165.522 80.0808L165.955 82.0798C166.022 82.359 165.845 82.631 165.566 82.6898Z" fill="#1F2121"/>
<path d="M165.763 108.001L127.981 116.202L123.902 97.4103C123.784 96.8591 124.13 96.3152 124.681 96.1976L161.464 88.209L165.763 108.001Z" fill="#C0CBCF"/>
<path d="M177.207 105.539L135.051 114.689L130.972 95.8964C130.855 95.3452 131.2 94.8014 131.751 94.6838L171.915 85.9675C172.466 85.8499 173.01 86.1954 173.128 86.7466L177.207 105.539Z" fill="#DCE9ED"/>
<path d="M144.412 111.005C147.415 110.353 149.202 106.844 148.404 103.168C147.606 99.4908 144.525 97.0384 141.523 97.6901C138.52 98.3418 136.733 101.851 137.531 105.528C138.329 109.204 141.41 111.657 144.412 111.005Z" fill="#1F2121"/>
<path d="M143.451 111.396C140.651 111.396 137.998 109 137.263 105.59C136.866 103.745 137.072 101.886 137.859 100.342C138.652 98.7844 139.938 97.7408 141.474 97.4101C143.01 97.0794 144.612 97.4909 145.979 98.5786C147.332 99.6516 148.294 101.261 148.699 103.106C149.529 106.935 147.64 110.602 144.488 111.286C144.142 111.359 143.797 111.396 143.451 111.396ZM142.518 97.8731C142.209 97.8731 141.901 97.9025 141.599 97.9686C140.232 98.2626 139.086 99.2033 138.373 100.6C137.645 102.018 137.454 103.745 137.829 105.465C138.593 108.985 141.533 111.337 144.37 110.727C147.214 110.11 148.904 106.744 148.147 103.231C147.773 101.518 146.883 100.026 145.634 99.0343C144.671 98.2699 143.591 97.8731 142.518 97.8731Z" fill="white"/>
<path d="M143.51 110.022C141.408 110.022 139.314 108.016 138.718 105.274C138.402 103.819 138.542 102.335 139.108 101.092C139.688 99.8284 140.629 98.9979 141.761 98.7554C144.069 98.2557 146.575 100.394 147.236 103.43C147.552 104.885 147.413 106.369 146.847 107.611C146.266 108.875 145.325 109.706 144.194 109.948C143.966 110 143.738 110.022 143.51 110.022ZM142.452 99.1376C142.253 99.1376 142.055 99.1596 141.857 99.2037C140.872 99.4168 140.041 100.159 139.527 101.284C138.998 102.437 138.873 103.819 139.167 105.179C139.769 107.971 142.026 109.948 144.098 109.5C145.083 109.287 145.913 108.545 146.428 107.42C146.957 106.266 147.082 104.885 146.788 103.525C146.237 100.997 144.341 99.1376 142.452 99.1376Z" fill="black"/>
<path d="M172.709 97.8957C173.51 101.57 171.716 105.083 168.718 105.73C165.712 106.384 162.633 103.929 161.832 100.255C161.031 96.5802 162.824 93.0672 165.822 92.4205C168.828 91.7664 171.915 94.221 172.709 97.8957Z" fill="#1F2121"/>
<path d="M167.741 106.127C164.941 106.127 162.288 103.731 161.553 100.321C160.723 96.4918 162.611 92.8245 165.764 92.1411C168.917 91.4576 172.158 94.0151 172.989 97.8367C173.819 101.666 171.93 105.333 168.778 106.016C168.432 106.09 168.087 106.127 167.741 106.127ZM166.801 92.6041C166.499 92.6041 166.191 92.6335 165.882 92.6996C163.038 93.3169 161.347 96.6829 162.104 100.196C162.869 103.716 165.808 106.068 168.645 105.458C171.489 104.841 173.18 101.475 172.423 97.9617C171.747 94.8162 169.336 92.6041 166.801 92.6041Z" fill="white"/>
<path d="M167.806 104.745C165.704 104.745 163.609 102.739 163.014 99.9974C162.353 96.9622 163.749 93.9784 166.057 93.4786C168.364 92.9715 170.871 95.1175 171.532 98.1528C172.193 101.188 170.797 104.172 168.489 104.672C168.262 104.723 168.034 104.745 167.806 104.745ZM166.748 93.8608C166.549 93.8608 166.351 93.8828 166.152 93.9269C164.087 94.3752 162.852 97.1092 163.462 99.9019C164.065 102.695 166.321 104.672 168.386 104.223C170.452 103.775 171.686 101.041 171.076 98.2483C170.532 95.7275 168.636 93.8608 166.748 93.8608Z" fill="black"/>
<path d="M172.326 89.6864L133.397 98.138C133.235 98.1748 133.081 98.0719 133.044 97.9102L132.662 96.139C132.625 95.9773 132.728 95.823 132.89 95.7863L171.819 87.3346C171.98 87.2979 172.135 87.4007 172.171 87.5624L172.554 89.3336C172.583 89.4953 172.487 89.6496 172.326 89.6864Z" fill="#1F2121"/>
<path d="M142.943 95.7348C142.907 95.7348 142.87 95.7054 142.863 95.6687L142.525 94.1033C142.517 94.0592 142.547 94.0077 142.591 94.0004C142.635 93.993 142.686 94.0224 142.694 94.0665L143.032 95.6319C143.039 95.676 143.01 95.7275 142.966 95.7348C142.958 95.7348 142.951 95.7348 142.943 95.7348Z" fill="white"/>
<path d="M162.604 91.4723C162.567 91.4723 162.53 91.4429 162.523 91.4062L162.185 89.8408C162.177 89.7967 162.207 89.7453 162.251 89.7379C162.295 89.7232 162.346 89.76 162.354 89.8041L162.692 91.3695C162.699 91.4135 162.67 91.465 162.626 91.4723C162.618 91.4723 162.611 91.4723 162.604 91.4723Z" fill="white"/>
<path d="M160.038 104.495L152.189 106.2C151.947 106.252 151.704 106.097 151.653 105.855L150.139 98.895C150.087 98.6524 150.242 98.4099 150.484 98.3585L158.333 96.6534C158.576 96.602 158.818 96.7563 158.87 96.9988L160.384 103.959C160.442 104.201 160.288 104.444 160.038 104.495Z" fill="#C0CBCF"/>
<path d="M158.678 102.636L152.659 103.944C152.527 103.973 152.387 103.885 152.358 103.753L151.594 100.233C151.564 100.1 151.652 99.9607 151.785 99.9313L157.804 98.6231C157.936 98.5937 158.076 98.6819 158.105 98.8142L158.869 102.334C158.899 102.467 158.811 102.606 158.678 102.636Z" fill="white"/>
<path d="M157.032 101.519L153.695 102.239C153.343 102.312 152.997 102.092 152.916 101.739C152.843 101.386 153.063 101.041 153.416 100.96L156.753 100.24C157.106 100.166 157.451 100.387 157.532 100.74C157.605 101.092 157.385 101.438 157.032 101.519Z" fill="#1F2121"/>
<path d="M153.557 102.18C153.292 102.18 153.05 101.996 152.991 101.725C152.961 101.57 152.983 101.416 153.072 101.284C153.152 101.151 153.285 101.063 153.439 101.034C153.748 100.968 154.064 101.166 154.13 101.475C154.196 101.791 153.998 102.099 153.682 102.166C153.638 102.18 153.593 102.18 153.557 102.18ZM153.557 101.254C153.535 101.254 153.505 101.254 153.483 101.262C153.388 101.284 153.314 101.335 153.263 101.416C153.211 101.497 153.197 101.592 153.219 101.68C153.263 101.872 153.454 101.989 153.638 101.952C153.829 101.908 153.946 101.725 153.909 101.533C153.865 101.364 153.718 101.254 153.557 101.254Z" fill="white"/>
<path d="M156.906 101.453C156.796 101.453 156.693 101.423 156.598 101.357C156.465 101.276 156.377 101.144 156.34 100.99C156.311 100.835 156.333 100.681 156.421 100.556C156.502 100.424 156.634 100.336 156.789 100.299C156.936 100.269 157.097 100.292 157.222 100.38C157.355 100.461 157.443 100.593 157.48 100.747C157.509 100.902 157.487 101.056 157.399 101.181C157.318 101.313 157.186 101.401 157.031 101.431C156.994 101.453 156.95 101.453 156.906 101.453ZM156.914 100.519C156.892 100.519 156.862 100.519 156.84 100.527C156.745 100.549 156.671 100.6 156.62 100.681C156.568 100.762 156.554 100.857 156.568 100.946C156.59 101.041 156.642 101.115 156.723 101.166C156.803 101.218 156.892 101.232 156.987 101.21C157.083 101.188 157.156 101.137 157.208 101.056C157.259 100.975 157.274 100.887 157.259 100.791C157.237 100.696 157.186 100.622 157.105 100.571C157.046 100.541 156.98 100.519 156.914 100.519Z" fill="white"/>
<path d="M128.569 99.7325C129.319 99.5709 130.105 100.276 130.333 101.313C130.554 102.342 130.135 103.319 129.385 103.481L127.945 103.797C128.687 103.635 129.113 102.665 128.885 101.629C128.658 100.592 127.871 99.8869 127.129 100.049L128.569 99.7325Z" fill="#1F2121"/>
<path d="M127.121 100.049C127.863 99.887 128.649 100.593 128.877 101.629C129.105 102.665 128.679 103.635 127.937 103.797C127.187 103.959 126.401 103.253 126.173 102.217C125.945 101.18 126.371 100.21 127.121 100.049Z" fill="black"/>
<path d="M129.683 104.818L128.699 105.031L130.981 115.546L131.965 115.332L129.683 104.818Z" fill="#1F2121"/>
<path d="M156.4 93.1404L156.047 91.5236C156.018 91.3987 156.099 91.2737 156.223 91.2443C156.348 91.2149 156.473 91.2958 156.503 91.4207L156.855 93.0375L156.4 93.1404Z" fill="#ED1C24"/>
<path d="M380.465 43.4223C380.391 43.4223 380.325 43.4003 380.259 43.3635C380.09 43.2533 380.046 43.0255 380.156 42.8564L389.96 28.1873C390.07 28.0183 390.298 27.9742 390.467 28.0844C390.636 28.1946 390.68 28.4225 390.57 28.5915L380.766 43.2607C380.7 43.3635 380.582 43.4223 380.465 43.4223Z" fill="black"/>
<path d="M382.67 52.0798C382.552 52.0798 382.435 52.021 382.361 51.9181C382.251 51.7491 382.295 51.5212 382.464 51.411L413.191 30.7522C413.361 30.6346 413.588 30.686 413.699 30.8551C413.809 31.0241 413.765 31.2519 413.596 31.3622L382.868 52.021C382.81 52.0651 382.736 52.0798 382.67 52.0798Z" fill="black"/>
<path d="M385.367 56.8715C385.183 56.8715 385.021 56.7319 384.999 56.5408C384.977 56.3424 385.124 56.1587 385.323 56.1366L405.46 53.9465C405.665 53.9245 405.842 54.0715 405.864 54.2699C405.886 54.4683 405.739 54.6521 405.541 54.6741L385.403 56.8642C385.389 56.8715 385.374 56.8715 385.367 56.8715Z" fill="black"/>
<path d="M308.626 50.2205C308.537 50.2205 308.449 50.1911 308.376 50.125L295.36 38.2118C295.213 38.0722 295.198 37.8443 295.338 37.69C295.478 37.543 295.706 37.5283 295.86 37.6679L308.875 49.5811C309.022 49.7208 309.037 49.9486 308.898 50.1029C308.824 50.1838 308.729 50.2205 308.626 50.2205Z" fill="black"/>
<path d="M308.544 59.1647C308.5 59.1647 308.456 59.1573 308.419 59.1426L273.657 46.399C273.466 46.3255 273.371 46.1197 273.437 45.9286C273.51 45.7376 273.716 45.642 273.907 45.7082L308.669 58.4518C308.86 58.5253 308.956 58.7311 308.89 58.9222C308.838 59.0691 308.699 59.1647 308.544 59.1647Z" fill="black"/>
<path d="M286.989 67.1237C286.806 67.1237 286.651 66.9914 286.622 66.8077C286.593 66.6093 286.739 66.4255 286.938 66.3961L307.016 63.7284C307.222 63.699 307.398 63.8459 307.428 64.0444C307.457 64.2428 307.31 64.4265 307.112 64.4559L287.033 67.1237C287.026 67.1237 287.011 67.1237 286.989 67.1237Z" fill="black"/>
</svg>
