<svg width="794" height="508" viewBox="0 0 794 508" fill="none" xmlns="http://www.w3.org/2000/svg">
<path d="M175.588 506.312V499.64H176.818C177.24 499.255 177.638 498.711 178.011 498.009C178.39 497.301 178.71 496.357 178.971 495.176C179.238 493.99 179.415 492.483 179.502 490.657L179.912 482.605H191.243V499.64H193.443V506.275H191.243V501.69H177.787V506.312H175.588ZM179.576 499.64H189.044V484.655H181.999L181.701 490.657C181.626 492.048 181.496 493.309 181.31 494.44C181.123 495.565 180.884 496.562 180.592 497.431C180.3 498.295 179.961 499.031 179.576 499.64Z" fill="#67251A"/>
<path d="M195.369 501.69V499.64H195.891C196.32 499.64 196.677 499.556 196.963 499.388C197.249 499.214 197.478 498.913 197.652 498.484C197.833 498.05 197.969 497.447 198.062 496.677C198.162 495.9 198.233 494.912 198.277 493.713L198.538 487.376H208.08V501.69H205.881V489.427H200.625L200.401 494.533C200.352 495.707 200.246 496.742 200.085 497.636C199.929 498.525 199.69 499.27 199.367 499.873C199.05 500.475 198.628 500.929 198.1 501.233C197.572 501.538 196.91 501.69 196.115 501.69H195.369Z" fill="#67251A"/>
<path d="M220.726 501.69V489.389H216.924C216.066 489.389 215.392 489.588 214.901 489.986C214.411 490.383 214.165 490.93 214.165 491.626C214.165 492.309 214.386 492.847 214.827 493.238C215.274 493.629 215.886 493.825 216.663 493.825H221.285V495.875H216.663C215.693 495.875 214.858 495.704 214.156 495.363C213.454 495.021 212.913 494.533 212.534 493.9C212.155 493.26 211.966 492.502 211.966 491.626C211.966 490.744 212.165 489.986 212.562 489.352C212.96 488.718 213.528 488.231 214.268 487.889C215.013 487.547 215.898 487.376 216.924 487.376H222.813V501.69H220.726ZM211.183 501.69L215.246 494.571H217.632L213.569 501.69H211.183Z" fill="#67251A"/>
<path d="M232.703 505.79V499.64H233.895C234.187 499.335 234.439 499.006 234.65 498.652C234.861 498.298 235.045 497.879 235.2 497.394C235.361 496.903 235.498 496.307 235.61 495.605C235.722 494.897 235.821 494.042 235.908 493.042L236.393 487.376H245.488V499.64H247.687V505.79H245.488V501.69H234.902V505.79H232.703ZM236.393 499.64H243.289V489.427H238.443L238.07 493.042C237.915 494.539 237.722 495.847 237.492 496.965C237.263 498.084 236.896 498.975 236.393 499.64Z" fill="#67251A"/>
<path d="M250.606 507.058V487.376H252.731V489.65H252.992C253.153 489.402 253.377 489.085 253.663 488.7C253.955 488.308 254.371 487.96 254.911 487.656C255.458 487.345 256.197 487.19 257.129 487.19C258.335 487.19 259.397 487.491 260.316 488.094C261.236 488.697 261.953 489.551 262.469 490.657C262.985 491.762 263.242 493.067 263.242 494.571C263.242 496.086 262.985 497.4 262.469 498.512C261.953 499.618 261.239 500.475 260.326 501.084C259.412 501.687 258.359 501.988 257.167 501.988C256.247 501.988 255.511 501.836 254.958 501.532C254.405 501.221 253.98 500.87 253.681 500.479C253.383 500.081 253.153 499.752 252.992 499.491H252.805V507.058H250.606ZM252.768 494.533C252.768 495.614 252.927 496.568 253.243 497.394C253.56 498.214 254.023 498.857 254.632 499.323C255.241 499.783 255.986 500.013 256.868 500.013C257.788 500.013 258.555 499.77 259.17 499.286C259.791 498.795 260.257 498.136 260.568 497.31C260.885 496.478 261.043 495.552 261.043 494.533C261.043 493.527 260.888 492.62 260.577 491.812C260.273 490.998 259.81 490.355 259.189 489.883C258.574 489.405 257.8 489.166 256.868 489.166C255.974 489.166 255.222 489.392 254.613 489.846C254.004 490.293 253.545 490.921 253.234 491.728C252.923 492.53 252.768 493.465 252.768 494.533Z" fill="#67251A"/>
<path d="M267.501 507.058C267.128 507.058 266.796 507.027 266.504 506.964C266.212 506.909 266.01 506.853 265.898 506.797L266.457 504.858C266.992 504.995 267.464 505.045 267.874 505.008C268.284 504.97 268.647 504.787 268.964 504.458C269.287 504.135 269.582 503.61 269.849 502.883L270.259 501.765L264.966 487.376H267.352L271.303 498.783H271.452L275.403 487.376H277.789L271.713 503.777C271.44 504.517 271.101 505.129 270.697 505.613C270.294 506.104 269.825 506.467 269.29 506.704C268.762 506.94 268.166 507.058 267.501 507.058Z" fill="#67251A"/>
<path d="M279.797 498.037H282.146C282.195 498.683 282.487 499.174 283.021 499.509C283.562 499.845 284.264 500.013 285.128 500.013C286.01 500.013 286.764 499.832 287.392 499.472C288.019 499.106 288.333 498.515 288.333 497.702C288.333 497.223 288.215 496.807 287.979 496.453C287.743 496.093 287.411 495.813 286.982 495.614C286.553 495.415 286.047 495.316 285.463 495.316H283.003V493.34H285.463C286.339 493.34 286.985 493.142 287.401 492.744C287.824 492.346 288.035 491.849 288.035 491.253C288.035 490.613 287.808 490.101 287.355 489.715C286.901 489.324 286.258 489.128 285.426 489.128C284.587 489.128 283.888 489.318 283.329 489.697C282.77 490.07 282.475 490.551 282.444 491.141H280.133C280.158 490.371 280.394 489.691 280.841 489.1C281.288 488.504 281.897 488.038 282.667 487.703C283.438 487.361 284.32 487.19 285.314 487.19C286.32 487.19 287.193 487.367 287.932 487.721C288.678 488.069 289.253 488.544 289.656 489.147C290.066 489.743 290.271 490.421 290.271 491.178C290.271 491.986 290.045 492.638 289.591 493.135C289.138 493.632 288.569 493.987 287.886 494.198V494.347C288.426 494.384 288.895 494.558 289.293 494.869C289.697 495.173 290.011 495.574 290.234 496.071C290.458 496.562 290.57 497.105 290.57 497.702C290.57 498.571 290.337 499.329 289.871 499.975C289.405 500.615 288.765 501.112 287.951 501.466C287.137 501.814 286.208 501.988 285.165 501.988C284.152 501.988 283.245 501.824 282.444 501.494C281.642 501.159 281.006 500.696 280.533 500.106C280.067 499.509 279.822 498.82 279.797 498.037Z" fill="#67251A"/>
<path d="M299.66 501.988C298.281 501.988 297.091 501.684 296.091 501.075C295.097 500.46 294.33 499.603 293.789 498.503C293.255 497.397 292.988 496.111 292.988 494.645C292.988 493.179 293.255 491.887 293.789 490.768C294.33 489.644 295.081 488.768 296.044 488.141C297.014 487.507 298.144 487.19 299.436 487.19C300.182 487.19 300.918 487.314 301.645 487.563C302.372 487.811 303.033 488.215 303.63 488.774C304.226 489.327 304.702 490.06 305.056 490.973C305.41 491.887 305.587 493.011 305.587 494.347V495.279H294.553V493.378H303.35C303.35 492.57 303.189 491.849 302.866 491.216C302.549 490.582 302.095 490.082 301.505 489.715C300.921 489.349 300.232 489.166 299.436 489.166C298.56 489.166 297.803 489.383 297.163 489.818C296.529 490.247 296.041 490.806 295.7 491.495C295.358 492.185 295.187 492.924 295.187 493.713V494.981C295.187 496.062 295.373 496.978 295.746 497.73C296.125 498.475 296.65 499.044 297.321 499.435C297.992 499.82 298.772 500.013 299.66 500.013C300.238 500.013 300.76 499.932 301.226 499.77C301.698 499.603 302.105 499.354 302.446 499.025C302.788 498.689 303.052 498.273 303.239 497.776L305.363 498.373C305.14 499.093 304.764 499.727 304.236 500.274C303.708 500.814 303.055 501.237 302.279 501.541C301.502 501.839 300.629 501.988 299.66 501.988Z" fill="#67251A"/>
<path d="M311.131 498.447L318.027 487.376H320.562V501.69H318.363V490.619L311.504 501.69H308.932V487.376H311.131V498.447ZM316.574 482.605H318.624C318.624 483.612 318.276 484.435 317.58 485.075C316.884 485.715 315.94 486.035 314.747 486.035C313.573 486.035 312.638 485.715 311.942 485.075C311.253 484.435 310.908 483.612 310.908 482.605H312.958C312.958 483.09 313.092 483.515 313.359 483.882C313.632 484.248 314.095 484.432 314.747 484.432C315.399 484.432 315.865 484.248 316.145 483.882C316.431 483.515 316.574 483.09 316.574 482.605Z" fill="#67251A"/>
<path d="M426.115 506.312V499.64H427.345C427.768 499.255 428.165 498.711 428.538 498.009C428.917 497.301 429.237 496.357 429.498 495.176C429.765 493.99 429.942 492.483 430.029 490.657L430.439 482.605H441.771V499.64H443.97V506.275H441.771V501.69H428.314V506.312H426.115ZM430.104 499.64H439.572V484.655H432.527L432.228 490.657C432.154 492.048 432.023 493.309 431.837 494.44C431.651 495.564 431.411 496.562 431.119 497.431C430.827 498.295 430.489 499.031 430.104 499.64Z" fill="#E52428"/>
<path d="M445.897 501.69V499.64H446.418C446.847 499.64 447.204 499.556 447.49 499.388C447.776 499.214 448.006 498.913 448.18 498.484C448.36 498.049 448.497 497.447 448.59 496.677C448.689 495.9 448.761 494.912 448.804 493.713L449.065 487.376H458.607V501.69H456.408V489.427H451.152L450.929 494.533C450.879 495.707 450.773 496.742 450.612 497.636C450.457 498.525 450.217 499.27 449.894 499.873C449.578 500.475 449.155 500.929 448.627 501.233C448.099 501.538 447.437 501.69 446.642 501.69H445.897Z" fill="#E52428"/>
<path d="M471.253 501.69V489.389H467.451C466.594 489.389 465.92 489.588 465.429 489.986C464.938 490.383 464.693 490.93 464.693 491.626C464.693 492.309 464.913 492.847 465.354 493.238C465.801 493.629 466.413 493.825 467.19 493.825H471.812V495.875H467.19C466.221 495.875 465.385 495.704 464.683 495.363C463.981 495.021 463.441 494.533 463.062 493.9C462.683 493.26 462.493 492.502 462.493 491.626C462.493 490.744 462.692 489.986 463.09 489.352C463.487 488.718 464.056 488.231 464.795 487.889C465.541 487.547 466.426 487.376 467.451 487.376H473.34V501.69H471.253ZM461.711 501.69L465.774 494.57H468.159L464.096 501.69H461.711Z" fill="#E52428"/>
<path d="M484.758 501.69V487.376H490.61C492.151 487.376 493.375 487.724 494.282 488.42C495.189 489.116 495.642 490.035 495.642 491.178C495.642 492.048 495.385 492.722 494.869 493.201C494.353 493.673 493.692 493.993 492.884 494.16C493.412 494.235 493.925 494.421 494.422 494.72C494.925 495.018 495.341 495.428 495.67 495.95C496 496.465 496.164 497.099 496.164 497.851C496.164 498.584 495.978 499.239 495.605 499.817C495.232 500.395 494.698 500.851 494.002 501.187C493.307 501.522 492.474 501.69 491.505 501.69H484.758ZM486.846 499.677H491.505C492.263 499.677 492.856 499.497 493.285 499.137C493.713 498.776 493.928 498.286 493.928 497.664C493.928 496.925 493.713 496.344 493.285 495.922C492.856 495.493 492.263 495.279 491.505 495.279H486.846V499.677ZM486.846 493.378H490.61C491.201 493.378 491.707 493.297 492.129 493.135C492.552 492.968 492.875 492.732 493.098 492.427C493.328 492.117 493.443 491.75 493.443 491.328C493.443 490.725 493.192 490.253 492.688 489.911C492.185 489.563 491.493 489.389 490.61 489.389H486.846V493.378Z" fill="#E52428"/>
<path d="M498.226 501.69V499.64H498.748C499.177 499.64 499.534 499.556 499.82 499.388C500.105 499.214 500.335 498.913 500.509 498.484C500.689 498.049 500.826 497.447 500.919 496.677C501.019 495.9 501.09 494.912 501.134 493.713L501.394 487.376H510.937V501.69H508.738V489.427H503.482L503.258 494.533C503.209 495.707 503.103 496.742 502.941 497.636C502.786 498.525 502.547 499.27 502.224 499.873C501.907 500.475 501.485 500.929 500.956 501.233C500.428 501.538 499.767 501.69 498.972 501.69H498.226Z" fill="#E52428"/>
<path d="M521.83 493.639V495.689H514.264V493.639H521.83ZM516.127 487.376V501.69H513.928V487.376H516.127ZM526.229 501.988C524.937 501.988 523.803 501.681 522.828 501.066C521.858 500.451 521.101 499.59 520.554 498.484C520.013 497.379 519.743 496.086 519.743 494.608C519.743 493.117 520.013 491.815 520.554 490.703C521.101 489.591 521.858 488.728 522.828 488.113C523.803 487.498 524.937 487.19 526.229 487.19C527.521 487.19 528.652 487.498 529.621 488.113C530.596 488.728 531.354 489.591 531.895 490.703C532.441 491.815 532.715 493.117 532.715 494.608C532.715 496.086 532.441 497.379 531.895 498.484C531.354 499.59 530.596 500.451 529.621 501.066C528.652 501.681 527.521 501.988 526.229 501.988ZM526.229 500.013C527.211 500.013 528.018 499.761 528.652 499.258C529.285 498.755 529.755 498.093 530.059 497.273C530.363 496.453 530.516 495.564 530.516 494.608C530.516 493.651 530.363 492.76 530.059 491.933C529.755 491.107 529.285 490.439 528.652 489.93C528.018 489.42 527.211 489.166 526.229 489.166C525.247 489.166 524.44 489.42 523.806 489.93C523.172 490.439 522.703 491.107 522.399 491.933C522.095 492.76 521.942 493.651 521.942 494.608C521.942 495.564 522.095 496.453 522.399 497.273C522.703 498.093 523.172 498.755 523.806 499.258C524.44 499.761 525.247 500.013 526.229 500.013Z" fill="#E52428"/>
<path d="M546.917 482.009L548.035 483.351C547.6 483.773 547.097 484.068 546.525 484.236C545.954 484.404 545.308 484.506 544.587 484.543C543.866 484.581 543.065 484.618 542.183 484.655C541.189 484.693 540.365 484.935 539.713 485.382C539.061 485.829 538.558 486.476 538.204 487.32C537.849 488.165 537.623 489.203 537.523 490.433H537.71C538.194 489.538 538.865 488.88 539.723 488.457C540.58 488.035 541.499 487.824 542.481 487.824C543.599 487.824 544.606 488.085 545.5 488.606C546.395 489.128 547.103 489.902 547.625 490.927C548.147 491.952 548.408 493.216 548.408 494.72C548.408 496.217 548.14 497.509 547.606 498.596C547.078 499.683 546.336 500.522 545.379 501.112C544.428 501.696 543.313 501.988 542.034 501.988C540.754 501.988 539.632 501.687 538.669 501.084C537.707 500.475 536.958 499.575 536.424 498.382C535.889 497.183 535.622 495.701 535.622 493.937V492.409C535.622 489.222 536.163 486.805 537.244 485.159C538.331 483.512 539.965 482.661 542.145 482.605C542.916 482.58 543.602 482.574 544.205 482.587C544.807 482.599 545.332 482.571 545.78 482.503C546.227 482.434 546.606 482.27 546.917 482.009ZM542.034 500.013C542.897 500.013 543.639 499.795 544.261 499.36C544.888 498.925 545.37 498.314 545.705 497.525C546.041 496.729 546.208 495.794 546.208 494.72C546.208 493.676 546.037 492.787 545.696 492.054C545.36 491.321 544.879 490.762 544.251 490.377C543.624 489.992 542.872 489.799 541.996 489.799C541.356 489.799 540.782 489.908 540.272 490.125C539.763 490.343 539.328 490.663 538.968 491.085C538.607 491.508 538.328 492.023 538.129 492.632C537.936 493.241 537.834 493.937 537.821 494.72C537.821 496.322 538.197 497.605 538.949 498.568C539.701 499.531 540.729 500.013 542.034 500.013Z" fill="#E52428"/>
<path d="M550.504 501.69V499.64H551.026C551.455 499.64 551.812 499.556 552.098 499.388C552.384 499.214 552.613 498.913 552.787 498.484C552.968 498.049 553.104 497.447 553.197 496.677C553.297 495.9 553.368 494.912 553.412 493.713L553.673 487.376H563.215V501.69H561.016V489.427H555.76L555.536 494.533C555.487 495.707 555.381 496.742 555.22 497.636C555.064 498.525 554.825 499.27 554.502 499.873C554.185 500.475 553.763 500.929 553.235 501.233C552.707 501.538 552.045 501.69 551.25 501.69H550.504Z" fill="#E52428"/>
<path d="M573.251 501.988C571.872 501.988 570.682 501.684 569.682 501.075C568.688 500.46 567.921 499.603 567.381 498.503C566.846 497.397 566.579 496.111 566.579 494.645C566.579 493.179 566.846 491.887 567.381 490.768C567.921 489.644 568.673 488.768 569.636 488.141C570.605 487.507 571.736 487.19 573.028 487.19C573.773 487.19 574.509 487.314 575.236 487.563C575.963 487.811 576.625 488.215 577.221 488.774C577.818 489.327 578.293 490.06 578.647 490.973C579.001 491.887 579.178 493.011 579.178 494.347V495.279H568.145V493.378H576.942C576.942 492.57 576.78 491.849 576.457 491.216C576.14 490.582 575.687 490.082 575.096 489.715C574.513 489.349 573.823 489.166 573.028 489.166C572.152 489.166 571.394 489.383 570.754 489.818C570.12 490.247 569.633 490.806 569.291 491.495C568.949 492.185 568.778 492.924 568.778 493.713V494.98C568.778 496.061 568.965 496.978 569.337 497.73C569.716 498.475 570.241 499.043 570.912 499.435C571.583 499.82 572.363 500.013 573.251 500.013C573.829 500.013 574.351 499.932 574.817 499.77C575.289 499.603 575.696 499.354 576.038 499.025C576.379 498.689 576.643 498.273 576.83 497.776L578.954 498.373C578.731 499.093 578.355 499.727 577.827 500.274C577.299 500.814 576.646 501.236 575.87 501.541C575.093 501.839 574.221 501.988 573.251 501.988ZM570.232 484.991C569.841 484.991 569.493 484.842 569.188 484.543C568.89 484.239 568.741 483.891 568.741 483.5C568.741 483.071 568.89 482.717 569.188 482.437C569.493 482.152 569.841 482.009 570.232 482.009C570.661 482.009 571.015 482.152 571.294 482.437C571.58 482.717 571.723 483.071 571.723 483.5C571.723 483.891 571.58 484.239 571.294 484.543C571.015 484.842 570.661 484.991 570.232 484.991ZM575.6 484.991C575.208 484.991 574.86 484.842 574.556 484.543C574.258 484.239 574.109 483.891 574.109 483.5C574.109 483.071 574.258 482.717 574.556 482.437C574.86 482.152 575.208 482.009 575.6 482.009C576.028 482.009 576.382 482.152 576.662 482.437C576.948 482.717 577.091 483.071 577.091 483.5C577.091 483.891 576.948 484.239 576.662 484.543C576.382 484.842 576.028 484.991 575.6 484.991Z" fill="#E52428"/>
<path d="M592.103 493.527V495.577H584.201V493.527H592.103ZM584.723 487.376V501.69H582.524V487.376H584.723ZM593.781 487.376V501.69H591.581V487.376H593.781Z" fill="#E52428"/>
<path d="M607.377 493.527V495.577H599.474V493.527H607.377ZM599.996 487.376V501.69H597.797V487.376H599.996ZM609.054 487.376V501.69H606.855V487.376H609.054Z" fill="#E52428"/>
<path d="M614.971 492.558H619.072C620.749 492.558 622.032 492.983 622.92 493.834C623.809 494.685 624.253 495.763 624.253 497.068C624.253 497.925 624.054 498.705 623.657 499.407C623.259 500.103 622.675 500.659 621.905 501.075C621.134 501.485 620.19 501.69 619.072 501.69H613.07V487.376H615.27V499.64H619.072C619.941 499.64 620.656 499.41 621.215 498.95C621.774 498.491 622.054 497.9 622.054 497.18C622.054 496.422 621.774 495.804 621.215 495.325C620.656 494.847 619.941 494.608 619.072 494.608H614.971V492.558ZM626.527 501.69V487.376H628.726V501.69H626.527Z" fill="#E52428"/>
<path d="M634.392 487.376L637.821 493.229L641.25 487.376H643.785L639.163 494.533L643.785 501.69H641.25L637.821 496.136L634.392 501.69H631.857L636.405 494.533L631.857 487.376H634.392Z" fill="#E52428"/>
<path d="M654.304 501.69V487.376H665.561V501.69H663.361V489.427H656.503V501.69H654.304Z" fill="#E52428"/>
<path d="M673.789 502.025C672.882 502.025 672.059 501.855 671.32 501.513C670.58 501.165 669.993 500.665 669.558 500.013C669.124 499.354 668.906 498.559 668.906 497.627C668.906 496.807 669.068 496.142 669.391 495.633C669.714 495.117 670.145 494.713 670.686 494.421C671.226 494.129 671.823 493.912 672.475 493.769C673.134 493.62 673.795 493.502 674.46 493.415C675.33 493.303 676.035 493.219 676.575 493.163C677.122 493.101 677.52 492.999 677.768 492.856C678.023 492.713 678.15 492.464 678.15 492.11V492.036C678.15 491.116 677.899 490.402 677.395 489.892C676.898 489.383 676.144 489.128 675.131 489.128C674.081 489.128 673.258 489.358 672.662 489.818C672.065 490.278 671.646 490.768 671.403 491.29L669.316 490.545C669.689 489.675 670.186 488.998 670.807 488.513C671.435 488.022 672.118 487.681 672.857 487.488C673.603 487.289 674.336 487.19 675.056 487.19C675.516 487.19 676.044 487.246 676.641 487.358C677.243 487.463 677.824 487.684 678.383 488.019C678.949 488.355 679.418 488.861 679.79 489.538C680.163 490.216 680.349 491.123 680.349 492.259V501.69H678.15V499.752H678.038C677.889 500.062 677.641 500.395 677.293 500.749C676.945 501.103 676.482 501.404 675.904 501.653C675.327 501.901 674.622 502.025 673.789 502.025ZM674.125 500.05C674.994 500.05 675.727 499.879 676.324 499.537C676.926 499.196 677.38 498.755 677.684 498.214C677.995 497.674 678.15 497.105 678.15 496.509V494.496C678.057 494.608 677.852 494.71 677.535 494.803C677.225 494.89 676.864 494.968 676.454 495.036C676.05 495.099 675.656 495.154 675.271 495.204C674.892 495.248 674.584 495.285 674.348 495.316C673.777 495.391 673.242 495.512 672.745 495.679C672.255 495.841 671.857 496.086 671.553 496.416C671.254 496.739 671.105 497.18 671.105 497.739C671.105 498.503 671.388 499.081 671.953 499.472C672.525 499.857 673.249 500.05 674.125 500.05Z" fill="#E52428"/>
<path d="M684.364 507.058V487.376H686.488V489.65H686.749C686.911 489.402 687.134 489.085 687.42 488.7C687.712 488.308 688.128 487.96 688.669 487.656C689.216 487.345 689.955 487.19 690.887 487.19C692.092 487.19 693.154 487.491 694.074 488.094C694.993 488.697 695.711 489.551 696.226 490.657C696.742 491.762 697 493.067 697 494.57C697 496.086 696.742 497.4 696.226 498.512C695.711 499.618 694.996 500.475 694.083 501.084C693.17 501.687 692.117 501.988 690.924 501.988C690.005 501.988 689.268 501.836 688.715 501.532C688.162 501.221 687.737 500.87 687.439 500.479C687.141 500.081 686.911 499.752 686.749 499.491H686.563V507.058H684.364ZM686.526 494.533C686.526 495.614 686.684 496.568 687.001 497.394C687.318 498.214 687.78 498.857 688.389 499.323C688.998 499.783 689.744 500.013 690.626 500.013C691.545 500.013 692.312 499.77 692.927 499.286C693.549 498.795 694.015 498.136 694.325 497.31C694.642 496.478 694.801 495.552 694.801 494.533C694.801 493.527 694.645 492.62 694.335 491.812C694.03 490.998 693.567 490.355 692.946 489.883C692.331 489.405 691.558 489.166 690.626 489.166C689.731 489.166 688.979 489.392 688.371 489.846C687.762 490.293 687.302 490.921 686.991 491.728C686.681 492.53 686.526 493.465 686.526 494.533Z" fill="#E52428"/>
<path d="M152.579 506.976C146.128 506.976 140.807 501.735 140.807 495.204C140.807 488.753 146.048 483.432 152.579 483.432C159.029 483.432 164.351 488.673 164.351 495.204C164.351 501.735 159.11 506.976 152.579 506.976Z" fill="#67251A"/>
<path d="M400.516 506.976C394.066 506.976 388.744 501.735 388.744 495.204C388.744 488.753 393.985 483.432 400.516 483.432C406.967 483.432 412.288 488.673 412.288 495.204C412.288 501.735 407.047 506.976 400.516 506.976Z" fill="#E52428"/>
<path d="M312.004 390.068L593.066 391.258C600.622 391.258 606.761 399.98 606.761 410.685C606.761 421.389 600.622 430.045 593.066 430.045L312.004 428.856V390.068Z" fill="#67251A"/>
<path d="M200.889 389.738L311.937 390.068V428.856L200.889 428.525C193.333 428.525 187.193 419.803 187.193 409.099C187.193 403.746 188.745 398.923 191.241 395.421C193.67 391.919 197.111 389.738 200.889 389.738Z" fill="#FABC6A"/>
<path fill-rule="evenodd" clip-rule="evenodd" d="M582.07 369.479H236.781V366.254H582.07V369.479Z" fill="#67251A"/>
<path d="M240.016 366.413L218.967 353.99H193.33L207.498 367.867L193.33 381.743H218.967L240.016 369.32V366.413Z" fill="#67251A"/>
<path d="M576.201 367.867L568.982 356.237L569.387 355.973L588.75 363.505C595.496 364.959 602.243 366.413 608.99 367.867C602.243 369.32 595.496 370.774 588.75 372.228L569.387 379.76L568.982 379.562L576.201 367.867Z" fill="#67251A"/>
<path d="M258.76 323.915V321.63H259.374C260.247 321.63 260.926 321.356 261.411 320.808C261.895 320.26 262.243 319.374 262.455 318.151C262.673 316.928 262.82 315.308 262.895 313.289L263.263 303.385H276.036V323.915H273.498V305.591H265.679L265.351 313.77C265.269 315.922 265.068 317.753 264.747 319.264C264.427 320.774 263.864 321.927 263.058 322.722C262.253 323.517 261.08 323.915 259.538 323.915H258.76Z" fill="#67251A"/>
<path d="M282.336 329.689C281.927 329.689 281.562 329.656 281.241 329.589C280.92 329.529 280.699 329.469 280.576 329.408L281.19 327.323C281.777 327.47 282.295 327.524 282.746 327.484C283.196 327.444 283.595 327.247 283.943 326.892C284.298 326.545 284.622 325.98 284.915 325.198L285.366 323.995L279.552 308.518H282.172L286.512 320.788H286.676L291.015 308.518H293.636L286.962 326.161C286.662 326.956 286.29 327.614 285.847 328.135C285.403 328.663 284.888 329.054 284.301 329.308C283.721 329.562 283.066 329.689 282.336 329.689Z" fill="#67251A"/>
<path d="M308.464 308.518V323.915H306.048V308.518H308.464ZM307.522 315.856V318.061C306.976 318.261 306.434 318.438 305.895 318.592C305.356 318.739 304.789 318.856 304.196 318.943C303.602 319.023 302.95 319.063 302.241 319.063C300.46 319.063 299.03 318.592 297.952 317.65C296.881 316.708 296.345 315.294 296.345 313.41V308.478H298.761V313.41C298.761 314.198 298.914 314.846 299.221 315.354C299.528 315.862 299.945 316.24 300.47 316.487C300.995 316.734 301.586 316.858 302.241 316.858C303.264 316.858 304.189 316.768 305.014 316.587C305.847 316.4 306.683 316.156 307.522 315.856Z" fill="#67251A"/>
<path d="M312.895 308.518H315.311V321.71H321.247V308.518H323.663V321.71H329.599V308.518H332.014V323.915H312.895V308.518Z" fill="#67251A"/>
<path d="M338.841 320.427L346.415 308.518H349.199V323.915H346.783V312.006L339.25 323.915H336.426V308.518H338.841V320.427Z" fill="#67251A"/>
<path d="M360.214 324.236C358.7 324.236 357.393 323.908 356.294 323.254C355.203 322.592 354.36 321.67 353.766 320.487C353.179 319.297 352.886 317.914 352.886 316.337C352.886 314.76 353.179 313.369 353.766 312.167C354.36 310.957 355.186 310.015 356.243 309.34C357.308 308.658 358.549 308.317 359.969 308.317C360.787 308.317 361.596 308.451 362.394 308.718C363.193 308.985 363.919 309.42 364.574 310.021C365.229 310.616 365.751 311.405 366.14 312.387C366.529 313.369 366.724 314.579 366.724 316.016V317.018H354.606V314.973H364.267C364.267 314.105 364.09 313.329 363.735 312.648C363.387 311.966 362.889 311.428 362.241 311.034C361.599 310.64 360.842 310.442 359.969 310.442C359.007 310.442 358.174 310.676 357.471 311.144C356.775 311.605 356.24 312.207 355.864 312.948C355.489 313.69 355.302 314.486 355.302 315.334V316.698C355.302 317.86 355.506 318.846 355.916 319.655C356.332 320.457 356.908 321.068 357.645 321.489C358.382 321.904 359.239 322.111 360.214 322.111C360.849 322.111 361.422 322.024 361.934 321.85C362.452 321.67 362.899 321.402 363.275 321.048C363.65 320.687 363.94 320.24 364.145 319.705L366.478 320.346C366.233 321.122 365.82 321.803 365.24 322.391C364.66 322.973 363.943 323.427 363.09 323.755C362.237 324.076 361.279 324.236 360.214 324.236Z" fill="#67251A"/>
<path d="M376.826 328.326V321.71H378.136C378.457 321.382 378.733 321.028 378.965 320.647C379.197 320.266 379.398 319.815 379.569 319.294C379.746 318.766 379.896 318.124 380.019 317.369C380.142 316.607 380.251 315.688 380.347 314.613L380.879 308.518H390.868V321.71H393.284V328.326H390.868V323.915H379.241V328.326H376.826ZM380.879 321.71H388.453V310.723H383.131L382.721 314.613C382.551 316.223 382.339 317.63 382.087 318.833C381.834 320.036 381.432 320.995 380.879 321.71Z" fill="#67251A"/>
<path d="M396.49 329.689V308.518H398.823V310.964H399.11C399.287 310.696 399.533 310.355 399.847 309.941C400.168 309.52 400.625 309.146 401.218 308.818C401.819 308.484 402.631 308.317 403.654 308.317C404.978 308.317 406.145 308.641 407.155 309.29C408.165 309.938 408.953 310.857 409.519 312.046C410.085 313.236 410.368 314.639 410.368 316.257C410.368 317.887 410.085 319.301 409.519 320.497C408.953 321.686 408.168 322.609 407.165 323.264C406.162 323.912 405.005 324.236 403.695 324.236C402.685 324.236 401.877 324.072 401.27 323.745C400.662 323.411 400.195 323.033 399.867 322.612C399.54 322.184 399.287 321.83 399.11 321.549H398.905V329.689H396.49ZM398.864 316.216C398.864 317.379 399.038 318.405 399.386 319.294C399.734 320.176 400.243 320.868 400.911 321.369C401.58 321.863 402.399 322.111 403.368 322.111C404.378 322.111 405.22 321.85 405.896 321.329C406.578 320.801 407.09 320.093 407.431 319.204C407.779 318.308 407.953 317.312 407.953 316.216C407.953 315.134 407.782 314.158 407.441 313.289C407.107 312.414 406.599 311.722 405.916 311.214C405.241 310.7 404.391 310.442 403.368 310.442C402.385 310.442 401.56 310.686 400.891 311.174C400.222 311.655 399.717 312.33 399.376 313.199C399.035 314.061 398.864 315.067 398.864 316.216Z" fill="#67251A"/>
<path d="M415.046 329.689C414.636 329.689 414.271 329.656 413.951 329.589C413.63 329.529 413.408 329.469 413.285 329.408L413.9 327.323C414.486 327.47 415.005 327.524 415.455 327.484C415.906 327.444 416.305 327.247 416.653 326.892C417.008 326.545 417.332 325.98 417.625 325.198L418.075 323.995L412.262 308.518H414.882L419.222 320.788H419.385L423.725 308.518H426.345L419.672 326.161C419.372 326.956 419 327.614 418.556 328.135C418.113 328.663 417.598 329.054 417.011 329.308C416.431 329.562 415.776 329.689 415.046 329.689Z" fill="#67251A"/>
<path d="M428.551 319.986H431.13C431.185 320.681 431.505 321.209 432.092 321.569C432.686 321.93 433.457 322.111 434.405 322.111C435.374 322.111 436.203 321.917 436.892 321.529C437.582 321.135 437.926 320.5 437.926 319.625C437.926 319.11 437.797 318.662 437.537 318.281C437.278 317.894 436.913 317.593 436.442 317.379C435.971 317.165 435.415 317.058 434.774 317.058H432.072V314.933H434.774C435.736 314.933 436.446 314.719 436.903 314.292C437.367 313.864 437.599 313.329 437.599 312.688C437.599 311.999 437.35 311.448 436.852 311.034C436.353 310.613 435.647 310.402 434.733 310.402C433.812 310.402 433.044 310.606 432.43 311.014C431.816 311.415 431.492 311.933 431.458 312.568H428.919C428.947 311.739 429.206 311.007 429.697 310.372C430.189 309.731 430.857 309.229 431.703 308.869C432.549 308.501 433.518 308.317 434.61 308.317C435.715 308.317 436.674 308.508 437.486 308.889C438.305 309.263 438.936 309.774 439.38 310.422C439.83 311.064 440.055 311.792 440.055 312.608C440.055 313.476 439.806 314.178 439.308 314.713C438.81 315.247 438.186 315.628 437.435 315.856V316.016C438.029 316.056 438.544 316.243 438.98 316.577C439.424 316.905 439.769 317.336 440.014 317.87C440.26 318.398 440.383 318.983 440.383 319.625C440.383 320.56 440.127 321.376 439.615 322.071C439.103 322.759 438.4 323.294 437.507 323.675C436.613 324.049 435.593 324.236 434.446 324.236C433.334 324.236 432.338 324.059 431.458 323.705C430.577 323.344 429.878 322.846 429.36 322.211C428.848 321.569 428.578 320.828 428.551 319.986Z" fill="#67251A"/>
<path d="M445.863 314.091H450.367C452.209 314.091 453.618 314.549 454.594 315.465C455.57 316.38 456.058 317.54 456.058 318.943C456.058 319.865 455.839 320.704 455.403 321.459C454.966 322.208 454.324 322.806 453.478 323.254C452.632 323.695 451.595 323.915 450.367 323.915H443.776V308.518H446.191V321.71H450.367C451.322 321.71 452.107 321.462 452.721 320.968C453.335 320.473 453.642 319.839 453.642 319.063C453.642 318.248 453.335 317.583 452.721 317.068C452.107 316.554 451.322 316.297 450.367 316.297H445.863V314.091Z" fill="#67251A"/>
<path d="M469.192 323.915V310.683H465.016C464.074 310.683 463.334 310.897 462.795 311.325C462.256 311.752 461.986 312.34 461.986 313.089C461.986 313.824 462.228 314.402 462.713 314.823C463.204 315.244 463.876 315.455 464.729 315.455H469.806V317.66H464.729C463.665 317.66 462.747 317.476 461.976 317.109C461.205 316.741 460.611 316.216 460.195 315.535C459.779 314.846 459.571 314.031 459.571 313.089C459.571 312.14 459.789 311.325 460.226 310.643C460.662 309.961 461.287 309.437 462.099 309.069C462.918 308.701 463.89 308.518 465.016 308.518H471.484V323.915H469.192ZM458.711 323.915L463.173 316.257H465.794L461.331 323.915H458.711Z" fill="#67251A"/>
<path d="M479.112 303.385L478.907 318.141H476.533L476.328 303.385H479.112ZM477.72 324.076C477.215 324.076 476.782 323.898 476.42 323.544C476.058 323.19 475.878 322.766 475.878 322.271C475.878 321.777 476.058 321.352 476.42 320.998C476.782 320.644 477.215 320.467 477.72 320.467C478.225 320.467 478.658 320.644 479.02 320.998C479.381 321.352 479.562 321.777 479.562 322.271C479.562 322.599 479.477 322.899 479.306 323.173C479.143 323.447 478.921 323.668 478.641 323.835C478.368 323.995 478.061 324.076 477.72 324.076Z" fill="#67251A"/>
<path d="M499.457 302.423L492.701 327.003H490.491L497.246 302.423H499.457Z" fill="#67251A"/>
<path d="M256.209 337.259H258.706V353.419H258.911L270.374 337.259H272.831V357.789H270.292V341.67H270.088L258.665 357.789H256.209V337.259Z" fill="#E52428"/>
<path d="M275.904 362.2V355.584H277.214C277.534 355.256 277.811 354.902 278.043 354.521C278.275 354.14 278.476 353.689 278.647 353.168C278.824 352.64 278.974 351.998 279.097 351.243C279.22 350.481 279.329 349.563 279.425 348.487L279.957 342.392H289.946V355.584H292.362V362.2H289.946V357.789H278.319V362.2H275.904ZM279.957 355.584H287.531V344.597H282.208L281.799 348.487C281.628 350.097 281.417 351.504 281.165 352.707C280.912 353.91 280.509 354.869 279.957 355.584Z" fill="#E52428"/>
<path d="M302.159 358.11C300.644 358.11 299.338 357.783 298.239 357.128C297.147 356.466 296.305 355.544 295.711 354.361C295.124 353.171 294.831 351.788 294.831 350.211C294.831 348.634 295.124 347.244 295.711 346.041C296.305 344.831 297.13 343.889 298.188 343.214C299.252 342.532 300.494 342.191 301.913 342.191C302.732 342.191 303.541 342.325 304.339 342.592C305.137 342.86 305.864 343.294 306.519 343.895C307.174 344.49 307.696 345.279 308.085 346.261C308.474 347.244 308.669 348.453 308.669 349.89V350.892H296.55V348.847H306.212C306.212 347.979 306.035 347.203 305.68 346.522C305.332 345.84 304.834 345.302 304.186 344.908C303.544 344.514 302.787 344.316 301.913 344.316C300.951 344.316 300.119 344.55 299.416 345.018C298.72 345.479 298.184 346.081 297.809 346.823C297.434 347.564 297.246 348.36 297.246 349.208V350.572C297.246 351.734 297.451 352.72 297.86 353.529C298.277 354.331 298.853 354.942 299.59 355.363C300.327 355.778 301.183 355.985 302.159 355.985C302.794 355.985 303.367 355.898 303.879 355.724C304.397 355.544 304.844 355.276 305.219 354.922C305.595 354.561 305.885 354.114 306.089 353.579L308.423 354.221C308.177 354.996 307.764 355.677 307.184 356.266C306.604 356.847 305.888 357.301 305.035 357.629C304.182 357.95 303.224 358.11 302.159 358.11Z" fill="#E52428"/>
<path d="M316.969 358.15C315.973 358.15 315.069 357.966 314.257 357.599C313.445 357.225 312.8 356.687 312.322 355.985C311.845 355.276 311.606 354.421 311.606 353.419C311.606 352.536 311.783 351.821 312.138 351.273C312.493 350.719 312.967 350.284 313.561 349.97C314.155 349.656 314.81 349.422 315.526 349.268C316.249 349.108 316.976 348.981 317.706 348.888C318.661 348.767 319.436 348.677 320.029 348.617C320.63 348.55 321.067 348.44 321.339 348.286C321.619 348.132 321.759 347.865 321.759 347.484V347.404C321.759 346.415 321.483 345.646 320.93 345.098C320.384 344.55 319.555 344.276 318.443 344.276C317.29 344.276 316.386 344.524 315.731 345.018C315.076 345.513 314.615 346.041 314.349 346.602L312.056 345.8C312.466 344.864 313.012 344.136 313.694 343.615C314.383 343.087 315.134 342.719 315.946 342.512C316.764 342.298 317.57 342.191 318.361 342.191C318.866 342.191 319.446 342.251 320.101 342.372C320.763 342.485 321.401 342.723 322.015 343.083C322.636 343.444 323.151 343.989 323.56 344.717C323.97 345.446 324.175 346.422 324.175 347.645V357.789H321.759V355.704H321.636C321.473 356.038 321.2 356.396 320.818 356.777C320.435 357.158 319.927 357.482 319.292 357.749C318.658 358.016 317.883 358.15 316.969 358.15ZM317.338 356.025C318.293 356.025 319.098 355.841 319.753 355.474C320.415 355.106 320.913 354.632 321.247 354.05C321.589 353.469 321.759 352.857 321.759 352.216V350.05C321.657 350.171 321.432 350.281 321.084 350.381C320.742 350.475 320.347 350.558 319.896 350.632C319.453 350.699 319.02 350.759 318.597 350.812C318.18 350.859 317.843 350.899 317.583 350.933C316.955 351.013 316.369 351.143 315.823 351.323C315.284 351.497 314.847 351.761 314.513 352.115C314.185 352.463 314.021 352.937 314.021 353.539C314.021 354.361 314.332 354.982 314.953 355.403C315.581 355.818 316.376 356.025 317.338 356.025Z" fill="#E52428"/>
<path d="M327.191 357.789V355.584H327.765C328.235 355.584 328.628 355.494 328.942 355.313C329.255 355.126 329.508 354.802 329.699 354.341C329.897 353.873 330.047 353.225 330.149 352.396C330.258 351.561 330.337 350.498 330.385 349.208L330.671 342.392H341.152V357.789H338.736V344.597H332.964L332.718 350.09C332.664 351.354 332.548 352.466 332.37 353.429C332.2 354.384 331.937 355.186 331.582 355.834C331.234 356.483 330.77 356.971 330.19 357.298C329.61 357.625 328.884 357.789 328.01 357.789H327.191Z" fill="#E52428"/>
<path d="M347.672 347.965H352.175C354.017 347.965 355.426 348.423 356.402 349.339C357.378 350.254 357.866 351.414 357.866 352.817C357.866 353.739 357.647 354.578 357.211 355.333C356.774 356.082 356.133 356.68 355.286 357.128C354.44 357.569 353.403 357.789 352.175 357.789H345.584V342.392H347.999V355.584H352.175C353.13 355.584 353.915 355.337 354.529 354.842C355.143 354.348 355.45 353.713 355.45 352.937C355.45 352.122 355.143 351.457 354.529 350.943C353.915 350.428 353.13 350.171 352.175 350.171H347.672V347.965Z" fill="#E52428"/>
<path d="M372.064 349.008V351.213H363.385V349.008H372.064ZM363.958 342.392V357.789H361.543V342.392H363.958ZM373.907 342.392V357.789H371.491V342.392H373.907Z" fill="#E52428"/>
<path d="M382.944 358.15C381.948 358.15 381.044 357.966 380.232 357.599C379.42 357.225 378.775 356.687 378.297 355.985C377.82 355.276 377.581 354.421 377.581 353.419C377.581 352.536 377.758 351.821 378.113 351.273C378.468 350.719 378.942 350.284 379.536 349.97C380.129 349.656 380.784 349.422 381.501 349.268C382.224 349.108 382.951 348.981 383.681 348.888C384.636 348.767 385.411 348.677 386.004 348.617C386.605 348.55 387.041 348.44 387.314 348.286C387.594 348.132 387.734 347.865 387.734 347.484V347.404C387.734 346.415 387.458 345.646 386.905 345.098C386.359 344.55 385.53 344.276 384.418 344.276C383.265 344.276 382.361 344.524 381.706 345.018C381.051 345.513 380.59 346.041 380.324 346.602L378.031 345.8C378.441 344.864 378.987 344.136 379.669 343.615C380.358 343.087 381.109 342.719 381.921 342.512C382.739 342.298 383.545 342.191 384.336 342.191C384.841 342.191 385.421 342.251 386.076 342.372C386.738 342.485 387.376 342.723 387.99 343.083C388.611 343.444 389.126 343.989 389.535 344.717C389.945 345.446 390.149 346.422 390.149 347.645V357.789H387.734V355.704H387.611C387.447 356.038 387.175 356.396 386.792 356.777C386.41 357.158 385.902 357.482 385.267 357.749C384.633 358.016 383.858 358.15 382.944 358.15ZM383.313 356.025C384.268 356.025 385.073 355.841 385.728 355.474C386.39 355.106 386.888 354.632 387.222 354.05C387.563 353.469 387.734 352.857 387.734 352.216V350.05C387.632 350.171 387.407 350.281 387.059 350.381C386.717 350.475 386.322 350.558 385.871 350.632C385.428 350.699 384.994 350.759 384.571 350.812C384.155 350.859 383.817 350.899 383.558 350.933C382.93 351.013 382.344 351.143 381.798 351.323C381.259 351.497 380.822 351.761 380.488 352.115C380.16 352.463 379.996 352.937 379.996 353.539C379.996 354.361 380.307 354.982 380.928 355.403C381.555 355.818 382.35 356.025 383.313 356.025Z" fill="#E52428"/>
<path d="M404.015 357.789V344.557H399.839C398.898 344.557 398.158 344.771 397.618 345.199C397.079 345.626 396.81 346.214 396.81 346.963C396.81 347.698 397.052 348.276 397.537 348.697C398.028 349.118 398.7 349.329 399.553 349.329H404.629V351.534H399.553C398.488 351.534 397.571 351.35 396.8 350.983C396.029 350.615 395.435 350.09 395.019 349.409C394.603 348.72 394.394 347.905 394.394 346.963C394.394 346.014 394.613 345.199 395.05 344.517C395.486 343.835 396.111 343.311 396.923 342.943C397.741 342.576 398.714 342.392 399.839 342.392H406.308V357.789H404.015ZM393.535 357.789L397.997 350.131H400.617L396.155 357.789H393.535Z" fill="#E52428"/>
<path d="M418.848 357.789V342.392H431.212V357.789H428.797V344.597H421.264V357.789H418.848Z" fill="#E52428"/>
<path d="M440.25 358.15C439.254 358.15 438.35 357.966 437.538 357.599C436.726 357.225 436.081 356.687 435.603 355.985C435.126 355.276 434.887 354.421 434.887 353.419C434.887 352.536 435.064 351.821 435.419 351.273C435.774 350.719 436.248 350.284 436.842 349.97C437.435 349.656 438.09 349.422 438.807 349.268C439.53 349.108 440.257 348.981 440.987 348.888C441.942 348.767 442.717 348.677 443.31 348.617C443.911 348.55 444.347 348.44 444.62 348.286C444.9 348.132 445.04 347.865 445.04 347.484V347.404C445.04 346.415 444.764 345.646 444.211 345.098C443.665 344.55 442.836 344.276 441.724 344.276C440.571 344.276 439.666 344.524 439.011 345.018C438.356 345.513 437.896 346.041 437.63 346.602L435.337 345.8C435.746 344.864 436.292 344.136 436.975 343.615C437.664 343.087 438.414 342.719 439.226 342.512C440.045 342.298 440.85 342.191 441.642 342.191C442.147 342.191 442.727 342.251 443.382 342.372C444.044 342.485 444.682 342.723 445.296 343.083C445.917 343.444 446.432 343.989 446.841 344.717C447.251 345.446 447.455 346.422 447.455 347.645V357.789H445.04V355.704H444.917C444.753 356.038 444.48 356.396 444.098 356.777C443.716 357.158 443.208 357.482 442.573 357.749C441.939 358.016 441.164 358.15 440.25 358.15ZM440.618 356.025C441.574 356.025 442.379 355.841 443.034 355.474C443.696 355.106 444.194 354.632 444.528 354.05C444.869 353.469 445.04 352.857 445.04 352.216V350.05C444.938 350.171 444.712 350.281 444.364 350.381C444.023 350.475 443.627 350.558 443.177 350.632C442.734 350.699 442.3 350.759 441.877 350.812C441.461 350.859 441.123 350.899 440.864 350.933C440.236 351.013 439.649 351.143 439.104 351.323C438.565 351.497 438.128 351.761 437.793 352.115C437.466 352.463 437.302 352.937 437.302 353.539C437.302 354.361 437.613 354.982 438.234 355.403C438.861 355.818 439.656 356.025 440.618 356.025Z" fill="#E52428"/>
<path d="M451.864 363.563V342.392H454.198V344.838H454.484C454.662 344.57 454.907 344.23 455.221 343.815C455.542 343.394 455.999 343.02 456.593 342.692C457.193 342.358 458.005 342.191 459.029 342.191C460.352 342.191 461.519 342.515 462.529 343.164C463.539 343.812 464.327 344.731 464.893 345.92C465.46 347.11 465.743 348.513 465.743 350.131C465.743 351.761 465.46 353.175 464.893 354.371C464.327 355.56 463.542 356.483 462.539 357.138C461.536 357.786 460.38 358.11 459.07 358.11C458.06 358.11 457.251 357.946 456.644 357.619C456.037 357.285 455.569 356.907 455.242 356.486C454.914 356.058 454.662 355.704 454.484 355.423H454.28V363.563H451.864ZM454.239 350.09C454.239 351.253 454.413 352.279 454.761 353.168C455.109 354.05 455.617 354.742 456.286 355.243C456.954 355.738 457.773 355.985 458.742 355.985C459.752 355.985 460.595 355.724 461.27 355.203C461.952 354.675 462.464 353.967 462.805 353.078C463.153 352.182 463.327 351.186 463.327 350.09C463.327 349.008 463.157 348.032 462.816 347.163C462.481 346.288 461.973 345.596 461.291 345.088C460.615 344.574 459.765 344.316 458.742 344.316C457.759 344.316 456.934 344.56 456.265 345.048C455.596 345.529 455.092 346.204 454.75 347.073C454.409 347.935 454.239 348.941 454.239 350.09Z" fill="#E52428"/>
<path d="M474.054 358.15C473.057 358.15 472.153 357.966 471.341 357.599C470.529 357.225 469.884 356.687 469.407 355.985C468.929 355.276 468.69 354.421 468.69 353.419C468.69 352.536 468.868 351.821 469.223 351.273C469.577 350.719 470.052 350.284 470.645 349.97C471.239 349.656 471.894 349.422 472.61 349.268C473.334 349.108 474.06 348.981 474.79 348.888C475.746 348.767 476.52 348.677 477.114 348.617C477.714 348.55 478.151 348.44 478.424 348.286C478.704 348.132 478.844 347.865 478.844 347.484V347.404C478.844 346.415 478.567 345.646 478.015 345.098C477.469 344.55 476.64 344.276 475.527 344.276C474.374 344.276 473.47 344.524 472.815 345.018C472.16 345.513 471.7 346.041 471.433 346.602L469.141 345.8C469.55 344.864 470.096 344.136 470.778 343.615C471.468 343.087 472.218 342.719 473.03 342.512C473.849 342.298 474.654 342.191 475.446 342.191C475.95 342.191 476.53 342.251 477.185 342.372C477.847 342.485 478.485 342.723 479.099 343.083C479.72 343.444 480.236 343.989 480.645 344.717C481.054 345.446 481.259 346.422 481.259 347.645V357.789H478.844V355.704H478.721C478.557 356.038 478.284 356.396 477.902 356.777C477.52 357.158 477.011 357.482 476.377 357.749C475.742 358.016 474.968 358.15 474.054 358.15ZM474.422 356.025C475.377 356.025 476.182 355.841 476.837 355.474C477.499 355.106 477.997 354.632 478.332 354.05C478.673 353.469 478.844 352.857 478.844 352.216V350.05C478.741 350.171 478.516 350.281 478.168 350.381C477.827 350.475 477.431 350.558 476.981 350.632C476.537 350.699 476.104 350.759 475.681 350.812C475.265 350.859 474.927 350.899 474.668 350.933C474.04 351.013 473.453 351.143 472.907 351.323C472.368 351.497 471.932 351.761 471.597 352.115C471.27 352.463 471.106 352.937 471.106 353.539C471.106 354.361 471.416 354.982 472.037 355.403C472.665 355.818 473.46 356.025 474.422 356.025Z" fill="#E52428"/>
<path d="M507.001 338.925C504.91 338.925 503.088 339.85 501.874 341.304C500.66 339.85 498.771 338.925 496.747 338.925C493.036 338.925 490 341.898 490 345.599C490 354.321 501.806 361.127 501.874 361.193C501.874 361.193 513.748 354.321 513.748 345.599C513.68 341.898 510.712 338.925 507.001 338.925Z" fill="#E52428"/>
<path d="M344.94 412.518L349.12 403.232H350.866L345.689 414.962H344.192L339.108 403.232H340.823L344.94 412.518ZM340.231 403.232V414.962H338.391V403.232H340.231ZM349.65 414.962V403.232H351.49V414.962H349.65Z" fill="white"/>
<path d="M359.88 415.206C358.726 415.206 357.731 414.957 356.894 414.458C356.062 413.954 355.42 413.251 354.968 412.35C354.521 411.444 354.297 410.39 354.297 409.188C354.297 407.987 354.521 406.928 354.968 406.011C355.42 405.09 356.049 404.372 356.855 403.858C357.666 403.339 358.612 403.079 359.693 403.079C360.317 403.079 360.933 403.181 361.541 403.384C362.149 403.588 362.703 403.919 363.202 404.377C363.701 404.83 364.098 405.431 364.395 406.179C364.691 406.928 364.839 407.849 364.839 408.944V409.708H355.607V408.15H362.968C362.968 407.488 362.833 406.897 362.562 406.378C362.297 405.859 361.918 405.449 361.424 405.148C360.935 404.848 360.358 404.698 359.693 404.698C358.96 404.698 358.326 404.876 357.79 405.232C357.26 405.584 356.852 406.042 356.566 406.607C356.28 407.172 356.137 407.778 356.137 408.425V409.463C356.137 410.349 356.293 411.1 356.605 411.716C356.922 412.327 357.361 412.793 357.923 413.114C358.484 413.429 359.137 413.587 359.88 413.587C360.363 413.587 360.8 413.521 361.19 413.389C361.585 413.251 361.925 413.047 362.211 412.778C362.497 412.503 362.718 412.162 362.874 411.754L364.652 412.243C364.465 412.834 364.15 413.353 363.708 413.801C363.267 414.244 362.721 414.59 362.071 414.84C361.421 415.084 360.691 415.206 359.88 415.206Z" fill="white"/>
<path d="M375.654 408.272V409.952H369.042V408.272H375.654ZM369.478 403.232V414.962H367.638V403.232H369.478ZM377.057 403.232V414.962H375.217V403.232H377.057Z" fill="white"/>
<path d="M385.439 415.206C384.285 415.206 383.29 414.957 382.453 414.458C381.621 413.954 380.979 413.251 380.527 412.35C380.08 411.444 379.857 410.39 379.857 409.188C379.857 407.987 380.08 406.928 380.527 406.011C380.979 405.09 381.608 404.372 382.414 403.858C383.225 403.339 384.171 403.079 385.252 403.079C385.876 403.079 386.492 403.181 387.1 403.384C387.708 403.588 388.262 403.919 388.761 404.377C389.26 404.83 389.658 405.431 389.954 406.179C390.25 406.928 390.399 407.849 390.399 408.944V409.708H381.167V408.15H388.527C388.527 407.488 388.392 406.897 388.122 406.378C387.857 405.859 387.477 405.449 386.983 405.148C386.495 404.848 385.918 404.698 385.252 404.698C384.519 404.698 383.885 404.876 383.35 405.232C382.82 405.584 382.412 406.042 382.126 406.607C381.84 407.172 381.697 407.778 381.697 408.425V409.463C381.697 410.349 381.853 411.1 382.165 411.716C382.482 412.327 382.921 412.793 383.482 413.114C384.044 413.429 384.696 413.587 385.439 413.587C385.923 413.587 386.36 413.521 386.749 413.389C387.144 413.251 387.485 413.047 387.771 412.778C388.057 412.503 388.278 412.162 388.434 411.754L390.211 412.243C390.024 412.834 389.71 413.353 389.268 413.801C388.826 414.244 388.28 414.59 387.631 414.84C386.981 415.084 386.25 415.206 385.439 415.206Z" fill="white"/>
<path d="M398.219 415.206C397.065 415.206 396.07 414.957 395.233 414.458C394.401 413.954 393.759 413.251 393.307 412.35C392.86 411.444 392.636 410.39 392.636 409.188C392.636 407.987 392.86 406.928 393.307 406.011C393.759 405.09 394.388 404.372 395.194 403.858C396.005 403.339 396.951 403.079 398.032 403.079C398.656 403.079 399.272 403.181 399.88 403.384C400.488 403.588 401.042 403.919 401.541 404.377C402.04 404.83 402.438 405.431 402.734 406.179C403.03 406.928 403.178 407.849 403.178 408.944V409.708H393.946V408.15H401.307C401.307 407.488 401.172 406.897 400.902 406.378C400.636 405.859 400.257 405.449 399.763 405.148C399.274 404.848 398.697 404.698 398.032 404.698C397.299 404.698 396.665 404.876 396.13 405.232C395.599 405.584 395.191 406.042 394.905 406.607C394.619 407.172 394.477 407.778 394.477 408.425V409.463C394.477 410.349 394.632 411.1 394.944 411.716C395.261 412.327 395.701 412.793 396.262 413.114C396.824 413.429 397.476 413.587 398.219 413.587C398.703 413.587 399.139 413.521 399.529 413.389C399.924 413.251 400.265 413.047 400.551 412.778C400.837 412.503 401.057 412.162 401.213 411.754L402.991 412.243C402.804 412.834 402.49 413.353 402.048 413.801C401.606 414.244 401.06 414.59 400.41 414.84C399.76 415.084 399.03 415.206 398.219 415.206Z" fill="white"/>
<path d="M417.736 399.322V414.962H415.802V401.307H415.709L411.81 403.843V401.918L415.802 399.322H417.736Z" fill="white"/>
<path d="M433.401 415.206C432.278 415.206 431.311 414.946 430.5 414.427C429.689 413.908 429.065 413.193 428.629 412.281C428.192 411.37 427.974 410.329 427.974 409.158C427.974 407.966 428.197 406.915 428.644 406.004C429.097 405.087 429.725 404.372 430.531 403.858C431.342 403.339 432.288 403.079 433.369 403.079C434.212 403.079 434.97 403.232 435.646 403.537C436.322 403.843 436.876 404.27 437.307 404.82C437.739 405.37 438.006 406.011 438.11 406.745H436.27C436.13 406.21 435.818 405.736 435.334 405.324C434.856 404.907 434.212 404.698 433.401 404.698C432.683 404.698 432.054 404.881 431.514 405.248C430.978 405.609 430.56 406.121 430.258 406.783C429.962 407.439 429.814 408.211 429.814 409.097C429.814 410.003 429.959 410.792 430.251 411.464C430.547 412.136 430.963 412.658 431.498 413.03C432.039 413.401 432.673 413.587 433.401 413.587C433.879 413.587 434.313 413.506 434.703 413.343C435.093 413.18 435.423 412.946 435.693 412.64C435.963 412.335 436.156 411.968 436.27 411.54H438.11C438.006 412.233 437.749 412.857 437.338 413.411C436.933 413.961 436.395 414.399 435.724 414.725C435.059 415.046 434.284 415.206 433.401 415.206Z" fill="white"/>
<path d="M447.35 412.518L451.529 403.232H453.276L448.099 414.962H446.601L441.518 403.232H443.233L447.35 412.518ZM442.64 403.232V414.962H440.8V403.232H442.64ZM452.06 414.962V403.232H453.9V414.962H452.06Z" fill="white"/>
<path d="M181.639 151.421V171.951H179.101V153.626H168.538V171.951H166V151.421H181.639Z" fill="#67251A"/>
<path d="M186.432 177.725V156.553H188.765V158.999H189.052C189.229 158.732 189.475 158.391 189.789 157.977C190.109 157.556 190.567 157.182 191.16 156.854C191.761 156.52 192.573 156.353 193.596 156.353C194.92 156.353 196.087 156.677 197.097 157.325C198.106 157.973 198.894 158.892 199.461 160.082C200.027 161.271 200.31 162.675 200.31 164.292C200.31 165.923 200.027 167.336 199.461 168.532C198.894 169.722 198.11 170.644 197.107 171.299C196.104 171.947 194.947 172.272 193.637 172.272C192.627 172.272 191.819 172.108 191.211 171.78C190.604 171.446 190.137 171.069 189.809 170.648C189.482 170.22 189.229 169.866 189.052 169.585H188.847V177.725H186.432ZM188.806 164.252C188.806 165.415 188.98 166.441 189.328 167.33C189.676 168.212 190.184 168.903 190.853 169.405C191.522 169.899 192.341 170.146 193.31 170.146C194.319 170.146 195.162 169.886 195.838 169.364C196.52 168.837 197.032 168.128 197.373 167.239C197.721 166.344 197.895 165.348 197.895 164.252C197.895 163.169 197.724 162.194 197.383 161.325C197.049 160.449 196.54 159.758 195.858 159.25C195.183 158.735 194.333 158.478 193.31 158.478C192.327 158.478 191.501 158.722 190.833 159.21C190.164 159.691 189.659 160.366 189.318 161.235C188.977 162.097 188.806 163.103 188.806 164.252Z" fill="#67251A"/>
<path d="M206.41 168.462L213.984 156.553H216.768V171.951H214.353V160.042L206.82 171.951H203.995V156.553H206.41V168.462Z" fill="#67251A"/>
<path d="M230.649 171.951V158.719H226.474C225.532 158.719 224.792 158.932 224.253 159.36C223.714 159.788 223.444 160.376 223.444 161.124C223.444 161.86 223.686 162.438 224.171 162.859C224.662 163.28 225.334 163.49 226.187 163.49H231.264V165.696H226.187C225.123 165.696 224.205 165.512 223.434 165.144C222.663 164.777 222.069 164.252 221.653 163.57C221.237 162.882 221.029 162.067 221.029 161.124C221.029 160.175 221.247 159.36 221.684 158.678C222.12 157.997 222.745 157.472 223.557 157.105C224.375 156.737 225.348 156.553 226.474 156.553H232.942V171.951H230.649ZM220.169 171.951L224.631 164.292H227.251L222.789 171.951H220.169Z" fill="#67251A"/>
<path d="M235.237 158.759V156.553H248.011V158.759H242.852V171.951H240.437V158.759H235.237Z" fill="#67251A"/>
<path d="M257.309 172.272C255.794 172.272 254.488 171.944 253.389 171.289C252.297 170.628 251.455 169.705 250.861 168.522C250.274 167.333 249.981 165.95 249.981 164.372C249.981 162.795 250.274 161.405 250.861 160.202C251.455 158.993 252.28 158.05 253.338 157.375C254.402 156.694 255.644 156.353 257.063 156.353C257.882 156.353 258.691 156.486 259.489 156.754C260.287 157.021 261.014 157.456 261.669 158.057C262.324 158.652 262.846 159.44 263.235 160.423C263.624 161.405 263.819 162.615 263.819 164.052V165.054H251.7V163.009H261.362C261.362 162.14 261.185 161.365 260.83 160.683C260.482 160.002 259.984 159.464 259.336 159.069C258.694 158.675 257.937 158.478 257.063 158.478C256.101 158.478 255.269 158.712 254.566 159.18C253.87 159.641 253.335 160.242 252.959 160.984C252.584 161.726 252.396 162.521 252.396 163.37V164.733C252.396 165.896 252.601 166.882 253.01 167.69C253.427 168.492 254.003 169.104 254.74 169.525C255.477 169.939 256.333 170.146 257.309 170.146C257.944 170.146 258.517 170.06 259.029 169.886C259.547 169.705 259.994 169.438 260.369 169.084C260.745 168.723 261.035 168.275 261.239 167.741L263.573 168.382C263.327 169.157 262.914 169.839 262.334 170.427C261.755 171.008 261.038 171.463 260.185 171.79C259.332 172.111 258.374 172.272 257.309 172.272Z" fill="#67251A"/>
<path d="M266.101 171.951V169.745H266.674C267.145 169.745 267.537 169.655 267.851 169.475C268.165 169.288 268.418 168.964 268.609 168.502C268.806 168.035 268.957 167.386 269.059 166.558C269.168 165.722 269.247 164.66 269.294 163.37L269.581 156.553H280.062V171.951H277.646V158.759H271.874L271.628 164.252C271.573 165.515 271.457 166.628 271.28 167.59C271.109 168.546 270.847 169.348 270.492 169.996C270.144 170.644 269.68 171.132 269.1 171.46C268.52 171.787 267.793 171.951 266.92 171.951H266.101Z" fill="#67251A"/>
<path d="M286.909 168.462L294.483 156.553H297.267V171.951H294.851V160.042L287.318 171.951H284.493V156.553H286.909V168.462Z" fill="#67251A"/>
<path d="M317.207 150.458L310.452 175.038H308.241L314.996 150.458H317.207Z" fill="#67251A"/>
<path d="M334.621 171.951V151.421H337.159V160.563H348.336V151.421H350.874V171.951H348.336V162.769H337.159V171.951H334.621Z" fill="#E52428"/>
<path d="M360.255 172.312C359.258 172.312 358.354 172.128 357.542 171.76C356.73 171.386 356.086 170.848 355.608 170.146C355.13 169.438 354.892 168.583 354.892 167.58C354.892 166.698 355.069 165.983 355.424 165.435C355.779 164.88 356.253 164.446 356.846 164.132C357.44 163.818 358.095 163.584 358.812 163.43C359.535 163.27 360.262 163.143 360.992 163.049C361.947 162.929 362.721 162.839 363.315 162.779C363.915 162.712 364.352 162.601 364.625 162.448C364.905 162.294 365.045 162.027 365.045 161.646V161.566C365.045 160.577 364.768 159.808 364.216 159.26C363.67 158.712 362.841 158.438 361.729 158.438C360.575 158.438 359.671 158.685 359.016 159.18C358.361 159.674 357.901 160.202 357.635 160.764L355.342 159.962C355.751 159.026 356.297 158.298 356.979 157.776C357.669 157.248 358.419 156.881 359.231 156.674C360.05 156.46 360.855 156.353 361.647 156.353C362.152 156.353 362.732 156.413 363.387 156.533C364.048 156.647 364.686 156.884 365.301 157.245C365.921 157.606 366.437 158.151 366.846 158.879C367.255 159.607 367.46 160.583 367.46 161.806V171.951H365.045V169.866H364.922C364.758 170.2 364.485 170.557 364.103 170.938C363.721 171.319 363.213 171.643 362.578 171.911C361.943 172.178 361.169 172.312 360.255 172.312ZM360.623 170.187C361.578 170.187 362.384 170.003 363.039 169.635C363.7 169.268 364.199 168.793 364.533 168.212C364.874 167.63 365.045 167.019 365.045 166.377V164.212C364.942 164.332 364.717 164.443 364.369 164.543C364.028 164.636 363.632 164.72 363.182 164.793C362.738 164.86 362.305 164.92 361.882 164.974C361.466 165.021 361.128 165.061 360.869 165.094C360.241 165.174 359.654 165.305 359.108 165.485C358.569 165.659 358.133 165.923 357.798 166.277C357.471 166.625 357.307 167.099 357.307 167.7C357.307 168.522 357.617 169.144 358.238 169.565C358.866 169.979 359.661 170.187 360.623 170.187Z" fill="#E52428"/>
<path d="M380.466 168.743L385.952 156.553H388.245L381.449 171.951H379.484L372.81 156.553H375.062L380.466 168.743ZM374.284 156.553V171.951H371.869V156.553H374.284ZM386.648 171.951V156.553H389.064V171.951H386.648Z" fill="#E52428"/>
<path d="M403.393 156.553L407.159 162.849L410.926 156.553H413.71L408.633 164.252L413.71 171.951H410.926L407.159 165.976L403.393 171.951H400.609L405.603 164.252L400.609 156.553H403.393Z" fill="#E52428"/>
<path d="M422.896 172.272C421.476 172.272 420.231 171.941 419.16 171.279C418.095 170.618 417.263 169.692 416.662 168.502C416.069 167.313 415.772 165.923 415.772 164.332C415.772 162.728 416.069 161.328 416.662 160.132C417.263 158.936 418.095 158.007 419.16 157.345C420.231 156.684 421.476 156.353 422.896 156.353C424.315 156.353 425.557 156.684 426.621 157.345C427.692 158.007 428.525 158.936 429.118 160.132C429.719 161.328 430.019 162.728 430.019 164.332C430.019 165.923 429.719 167.313 429.118 168.502C428.525 169.692 427.692 170.618 426.621 171.279C425.557 171.941 424.315 172.272 422.896 172.272ZM422.896 170.146C423.974 170.146 424.861 169.876 425.557 169.334C426.253 168.793 426.768 168.081 427.102 167.199C427.436 166.317 427.604 165.361 427.604 164.332C427.604 163.303 427.436 162.344 427.102 161.455C426.768 160.566 426.253 159.848 425.557 159.3C424.861 158.752 423.974 158.478 422.896 158.478C421.817 158.478 420.93 158.752 420.234 159.3C419.538 159.848 419.023 160.566 418.689 161.455C418.355 162.344 418.187 163.303 418.187 164.332C418.187 165.361 418.355 166.317 418.689 167.199C419.023 168.081 419.538 168.793 420.234 169.334C420.93 169.876 421.817 170.146 422.896 170.146Z" fill="#E52428"/>
<path d="M433.706 177.725V156.553H436.04V158.999H436.326C436.504 158.732 436.749 158.391 437.063 157.977C437.384 157.556 437.841 157.182 438.435 156.854C439.035 156.52 439.847 156.353 440.871 156.353C442.195 156.353 443.361 156.677 444.371 157.325C445.381 157.974 446.169 158.892 446.735 160.082C447.302 161.272 447.585 162.675 447.585 164.292C447.585 165.923 447.302 167.336 446.735 168.533C446.169 169.722 445.384 170.644 444.381 171.299C443.378 171.947 442.222 172.272 440.912 172.272C439.902 172.272 439.093 172.108 438.486 171.78C437.879 171.446 437.411 171.069 437.084 170.648C436.756 170.22 436.504 169.866 436.326 169.585H436.122V177.725H433.706ZM436.081 164.252C436.081 165.415 436.255 166.441 436.603 167.33C436.951 168.212 437.459 168.903 438.128 169.405C438.796 169.899 439.615 170.146 440.584 170.146C441.594 170.146 442.437 169.886 443.112 169.365C443.795 168.837 444.306 168.128 444.647 167.239C444.995 166.344 445.169 165.348 445.169 164.252C445.169 163.169 444.999 162.194 444.658 161.325C444.323 160.45 443.815 159.758 443.133 159.25C442.457 158.735 441.608 158.478 440.584 158.478C439.602 158.478 438.776 158.722 438.107 159.21C437.439 159.691 436.934 160.366 436.593 161.235C436.251 162.097 436.081 163.103 436.081 164.252Z" fill="#E52428"/>
<path d="M457.656 172.272C456.237 172.272 454.992 171.941 453.92 171.279C452.856 170.618 452.024 169.692 451.423 168.502C450.829 167.313 450.533 165.923 450.533 164.332C450.533 162.728 450.829 161.328 451.423 160.132C452.024 158.936 452.856 158.007 453.92 157.345C454.992 156.684 456.237 156.353 457.656 156.353C459.075 156.353 460.317 156.684 461.382 157.345C462.453 158.007 463.285 158.936 463.879 160.132C464.48 161.328 464.78 162.728 464.78 164.332C464.78 165.923 464.48 167.313 463.879 168.502C463.285 169.692 462.453 170.618 461.382 171.279C460.317 171.941 459.075 172.272 457.656 172.272ZM457.656 170.146C458.734 170.146 459.621 169.876 460.317 169.334C461.013 168.793 461.528 168.081 461.863 167.199C462.197 166.317 462.364 165.361 462.364 164.332C462.364 163.303 462.197 162.344 461.863 161.455C461.528 160.566 461.013 159.848 460.317 159.3C459.621 158.752 458.734 158.478 457.656 158.478C456.578 158.478 455.691 158.752 454.995 159.3C454.299 159.848 453.784 160.566 453.45 161.455C453.115 162.344 452.948 163.303 452.948 164.332C452.948 165.361 453.115 166.317 453.45 167.199C453.784 168.081 454.299 168.793 454.995 169.334C455.691 169.876 456.578 170.146 457.656 170.146Z" fill="#E52428"/>
<path d="M468.467 156.553H470.882V169.745H476.819V156.553H479.234V169.745H485.17V156.553H487.586V171.951H468.467V156.553Z" fill="#E52428"/>
<path d="M498.384 172.272C496.965 172.272 495.719 171.941 494.648 171.279C493.584 170.618 492.751 169.692 492.151 168.502C491.557 167.313 491.26 165.923 491.26 164.332C491.26 162.728 491.557 161.328 492.151 160.132C492.751 158.936 493.584 158.007 494.648 157.345C495.719 156.684 496.965 156.353 498.384 156.353C499.803 156.353 501.045 156.684 502.109 157.345C503.181 158.007 504.013 158.936 504.607 160.132C505.207 161.328 505.507 162.728 505.507 164.332C505.507 165.923 505.207 167.313 504.607 168.502C504.013 169.692 503.181 170.618 502.109 171.279C501.045 171.941 499.803 172.272 498.384 172.272ZM498.384 170.146C499.462 170.146 500.349 169.876 501.045 169.334C501.741 168.793 502.256 168.081 502.59 167.199C502.925 166.317 503.092 165.361 503.092 164.332C503.092 163.303 502.925 162.344 502.59 161.455C502.256 160.566 501.741 159.848 501.045 159.3C500.349 158.752 499.462 158.478 498.384 158.478C497.306 158.478 496.419 158.752 495.723 159.3C495.027 159.848 494.512 160.566 494.177 161.455C493.843 162.344 493.676 163.303 493.676 164.332C493.676 165.361 493.843 166.317 494.177 167.199C494.512 168.081 495.027 168.793 495.723 169.334C496.419 169.876 497.306 170.146 498.384 170.146Z" fill="#E52428"/>
<path d="M517.301 171.951V156.553H523.728C525.421 156.553 526.765 156.928 527.761 157.676C528.757 158.425 529.255 159.414 529.255 160.643C529.255 161.579 528.972 162.304 528.406 162.819C527.839 163.327 527.113 163.671 526.226 163.851C526.806 163.931 527.369 164.132 527.914 164.453C528.467 164.773 528.924 165.214 529.286 165.776C529.648 166.33 529.828 167.012 529.828 167.821C529.828 168.609 529.624 169.314 529.214 169.936C528.805 170.557 528.218 171.049 527.454 171.41C526.69 171.77 525.775 171.951 524.711 171.951H517.301ZM519.593 169.786H524.711C525.543 169.786 526.195 169.592 526.666 169.204C527.137 168.817 527.372 168.289 527.372 167.62C527.372 166.825 527.137 166.2 526.666 165.746C526.195 165.285 525.543 165.054 524.711 165.054H519.593V169.786ZM519.593 163.009H523.728C524.377 163.009 524.933 162.922 525.397 162.748C525.861 162.568 526.215 162.314 526.461 161.987C526.714 161.652 526.84 161.258 526.84 160.804C526.84 160.155 526.563 159.648 526.011 159.28C525.458 158.906 524.697 158.719 523.728 158.719H519.593V163.009Z" fill="#E52428"/>
<path d="M542.082 168.743L547.568 156.553H549.861L543.065 171.951H541.1L534.426 156.553H536.678L542.082 168.743ZM535.9 156.553V171.951H533.485V156.553H535.9ZM548.264 171.951V156.553H550.68V171.951H548.264Z" fill="#E52428"/>
<path d="M561.693 172.272C560.178 172.272 558.871 171.944 557.773 171.289C556.681 170.628 555.838 169.705 555.244 168.522C554.658 167.333 554.364 165.95 554.364 164.372C554.364 162.795 554.658 161.405 555.244 160.202C555.838 158.993 556.664 158.05 557.721 157.375C558.786 156.694 560.028 156.353 561.447 156.353C562.266 156.353 563.074 156.487 563.873 156.754C564.671 157.021 565.398 157.456 566.053 158.057C566.708 158.652 567.23 159.44 567.619 160.423C568.008 161.405 568.202 162.615 568.202 164.052V165.054H556.084V163.009H565.746C565.746 162.14 565.568 161.365 565.213 160.683C564.865 160.002 564.367 159.464 563.719 159.07C563.078 158.675 562.32 158.478 561.447 158.478C560.485 158.478 559.652 158.712 558.95 159.18C558.254 159.641 557.718 160.242 557.343 160.984C556.967 161.726 556.78 162.521 556.78 163.37V164.733C556.78 165.896 556.984 166.882 557.394 167.69C557.81 168.492 558.387 169.104 559.124 169.525C559.86 169.939 560.717 170.146 561.693 170.146C562.327 170.146 562.9 170.06 563.412 169.886C563.931 169.705 564.378 169.438 564.753 169.084C565.128 168.723 565.418 168.275 565.623 167.741L567.956 168.382C567.711 169.157 567.298 169.839 566.718 170.427C566.138 171.009 565.422 171.463 564.569 171.79C563.716 172.111 562.757 172.272 561.693 172.272Z" fill="#E52428"/>
<path d="M578.263 172.272C576.789 172.272 575.52 171.931 574.456 171.249C573.391 170.567 572.572 169.629 571.999 168.432C571.426 167.236 571.139 165.869 571.139 164.332C571.139 162.768 571.433 161.388 572.02 160.192C572.613 158.989 573.439 158.05 574.497 157.375C575.561 156.694 576.803 156.353 578.222 156.353C579.327 156.353 580.324 156.553 581.211 156.954C582.098 157.355 582.824 157.917 583.391 158.638C583.957 159.36 584.309 160.202 584.445 161.165H582.03C581.845 160.463 581.436 159.841 580.801 159.3C580.174 158.752 579.327 158.478 578.263 158.478C577.321 158.478 576.496 158.719 575.786 159.2C575.083 159.674 574.534 160.346 574.138 161.215C573.749 162.077 573.555 163.089 573.555 164.252C573.555 165.442 573.746 166.478 574.128 167.36C574.517 168.242 575.063 168.927 575.766 169.415C576.475 169.903 577.308 170.146 578.263 170.146C578.891 170.146 579.461 170.04 579.972 169.826C580.484 169.612 580.917 169.304 581.272 168.903C581.627 168.502 581.879 168.021 582.03 167.46H584.445C584.309 168.369 583.971 169.187 583.432 169.916C582.9 170.638 582.193 171.212 581.313 171.64C580.44 172.061 579.423 172.272 578.263 172.272Z" fill="#E52428"/>
<path d="M586.738 158.759V156.553H599.511V158.759H594.352V171.951H591.937V158.759H586.738Z" fill="#E52428"/>
<path d="M608.809 172.272C607.295 172.272 605.988 171.944 604.889 171.289C603.798 170.628 602.955 169.705 602.361 168.522C601.775 167.333 601.481 165.95 601.481 164.372C601.481 162.795 601.775 161.405 602.361 160.202C602.955 158.993 603.781 158.05 604.838 157.375C605.903 156.694 607.145 156.353 608.564 156.353C609.383 156.353 610.191 156.487 610.989 156.754C611.788 157.021 612.515 157.456 613.17 158.057C613.825 158.652 614.347 159.44 614.736 160.423C615.124 161.405 615.319 162.615 615.319 164.052V165.054H603.201V163.009H612.863C612.863 162.14 612.685 161.365 612.33 160.683C611.982 160.002 611.484 159.464 610.836 159.07C610.195 158.675 609.437 158.478 608.564 158.478C607.602 158.478 606.769 158.712 606.066 159.18C605.37 159.641 604.835 160.242 604.46 160.984C604.084 161.726 603.897 162.521 603.897 163.37V164.733C603.897 165.896 604.101 166.882 604.511 167.69C604.927 168.492 605.504 169.104 606.24 169.525C606.977 169.939 607.834 170.146 608.809 170.146C609.444 170.146 610.017 170.06 610.529 169.886C611.047 169.705 611.494 169.438 611.87 169.084C612.245 168.723 612.535 168.275 612.74 167.741L615.073 168.382C614.828 169.157 614.415 169.839 613.835 170.427C613.255 171.009 612.538 171.463 611.685 171.79C610.833 172.111 609.874 172.272 608.809 172.272Z" fill="#E52428"/>
<path fill-rule="evenodd" clip-rule="evenodd" d="M677.33 183.604H133.152V180.378H677.33V183.604Z" fill="#67251A"/>
<path d="M136.39 180.537L115.341 168.115H89.7715L103.939 181.991L89.7715 195.867H115.341L136.39 183.379V180.537Z" fill="#67251A"/>
<path d="M671.395 181.991L664.176 170.361L664.581 170.097L683.943 177.63C690.69 179.084 697.436 180.537 704.183 181.991C697.436 183.445 690.69 184.898 683.943 186.352L664.581 193.885L664.176 193.687L671.395 181.991Z" fill="#67251A"/>
<path d="M271.118 210.272L687.381 211.462C698.581 211.462 707.688 220.184 707.621 230.889C707.621 241.593 698.513 250.249 687.314 250.249L271.051 249.06L271.118 210.272Z" fill="#67251A"/>
<path d="M106.569 209.942L271.05 210.272L270.983 249.06L106.502 248.729C95.3025 248.729 86.1946 240.007 86.2621 229.303C86.2621 223.95 88.5559 219.127 92.1991 215.625C95.9097 212.122 100.97 209.942 106.569 209.942Z" fill="#FABC6A"/>
<path d="M349.311 221.236V236.877H347.377V223.222H347.283L343.385 225.757V223.833L347.377 221.236H349.311Z" fill="white"/>
<path d="M364.975 237.121C363.853 237.121 362.886 236.861 362.075 236.342C361.264 235.823 360.64 235.107 360.204 234.196C359.767 233.285 359.549 232.244 359.549 231.073C359.549 229.881 359.772 228.83 360.219 227.919C360.671 227.002 361.3 226.287 362.106 225.773C362.917 225.253 363.863 224.994 364.944 224.994C365.786 224.994 366.545 225.146 367.221 225.452C367.897 225.757 368.45 226.185 368.882 226.735C369.313 227.285 369.581 227.926 369.685 228.659H367.845C367.705 228.125 367.393 227.651 366.909 227.239C366.431 226.821 365.786 226.613 364.975 226.613C364.258 226.613 363.629 226.796 363.089 227.162C362.553 227.524 362.135 228.036 361.833 228.697C361.537 229.354 361.389 230.126 361.389 231.011C361.389 231.918 361.534 232.707 361.825 233.379C362.122 234.051 362.538 234.573 363.073 234.944C363.614 235.316 364.248 235.502 364.975 235.502C365.454 235.502 365.888 235.42 366.278 235.258C366.667 235.095 366.998 234.86 367.268 234.555C367.538 234.249 367.731 233.883 367.845 233.455H369.685C369.581 234.148 369.324 234.771 368.913 235.326C368.508 235.876 367.97 236.314 367.299 236.64C366.634 236.961 365.859 237.121 364.975 237.121Z" fill="white"/>
<path d="M378.925 234.433L383.104 225.146H384.851L379.673 236.877H378.176L373.092 225.146H374.808L378.925 234.433ZM374.215 225.146V236.877H372.375V225.146H374.215ZM383.634 236.877V225.146H385.475V236.877H383.634Z" fill="white"/>
<path d="M401.88 228.216V229.896H394.894V228.216H401.88Z" fill="white"/>
<path d="M416.658 237.09C415.629 237.09 414.711 236.917 413.905 236.571C413.105 236.225 412.468 235.744 411.995 235.128C411.527 234.507 411.273 233.786 411.231 232.966H413.196C413.237 233.47 413.414 233.906 413.726 234.272C414.038 234.634 414.446 234.914 414.95 235.112C415.454 235.311 416.013 235.41 416.627 235.41C417.313 235.41 417.921 235.293 418.451 235.059C418.981 234.825 419.397 234.499 419.699 234.081C420 233.664 420.151 233.18 420.151 232.63C420.151 232.055 420.005 231.549 419.714 231.111C419.423 230.668 418.997 230.322 418.436 230.072C417.874 229.823 417.188 229.698 416.377 229.698H415.098V228.018H416.377C417.011 228.018 417.568 227.906 418.046 227.682C418.529 227.458 418.906 227.142 419.176 226.735C419.452 226.328 419.59 225.849 419.59 225.299C419.59 224.77 419.47 224.309 419.231 223.917C418.992 223.525 418.654 223.219 418.217 223C417.786 222.781 417.276 222.672 416.689 222.672C416.138 222.672 415.618 222.771 415.13 222.97C414.646 223.163 414.251 223.446 413.944 223.818C413.638 224.184 413.471 224.627 413.445 225.146H411.574C411.605 224.327 411.857 223.609 412.33 222.993C412.803 222.372 413.422 221.888 414.186 221.542C414.955 221.196 415.8 221.022 416.72 221.022C417.708 221.022 418.555 221.218 419.262 221.61C419.969 221.997 420.512 222.509 420.892 223.145C421.271 223.782 421.461 224.469 421.461 225.207C421.461 226.088 421.224 226.839 420.751 227.46C420.284 228.081 419.647 228.512 418.841 228.751V228.873C419.85 229.036 420.637 229.456 421.204 230.133C421.77 230.805 422.054 231.638 422.054 232.63C422.054 233.481 421.817 234.244 421.344 234.921C420.876 235.594 420.237 236.123 419.426 236.51C418.615 236.897 417.692 237.09 416.658 237.09Z" fill="white"/>
<path d="M436.315 237.121C435.192 237.121 434.225 236.861 433.414 236.342C432.603 235.823 431.98 235.107 431.543 234.196C431.106 233.285 430.888 232.244 430.888 231.073C430.888 229.881 431.111 228.83 431.558 227.919C432.011 227.002 432.64 226.287 433.445 225.773C434.256 225.253 435.202 224.994 436.284 224.994C437.126 224.994 437.885 225.146 438.56 225.452C439.236 225.757 439.79 226.185 440.221 226.735C440.653 227.285 440.92 227.926 441.024 228.659H439.184C439.044 228.125 438.732 227.651 438.249 227.239C437.77 226.821 437.126 226.613 436.315 226.613C435.597 226.613 434.968 226.796 434.428 227.162C433.892 227.524 433.474 228.036 433.173 228.697C432.876 229.354 432.728 230.126 432.728 231.011C432.728 231.918 432.874 232.707 433.165 233.379C433.461 234.051 433.877 234.573 434.412 234.944C434.953 235.316 435.587 235.502 436.315 235.502C436.793 235.502 437.227 235.42 437.617 235.258C438.007 235.095 438.337 234.86 438.607 234.555C438.878 234.249 439.07 233.883 439.184 233.455H441.024C440.92 234.148 440.663 234.771 440.252 235.326C439.847 235.876 439.309 236.314 438.638 236.64C437.973 236.961 437.199 237.121 436.315 237.121Z" fill="white"/>
<path d="M450.264 234.433L454.444 225.146H456.19L451.013 236.877H449.516L444.432 225.146H446.147L450.264 234.433ZM445.555 225.146V236.877H443.714V225.146H445.555ZM454.974 236.877V225.146H456.814V236.877H454.974Z" fill="white"/>
<path d="M236.511 60.1445L767.196 61.4C781.498 61.4 793.035 70.3865 793.035 81.4214C793.035 92.4563 781.431 101.377 767.128 101.377L236.443 100.121L236.511 60.1445Z" fill="#67251A"/>
<path d="M26.7603 59.8142L236.511 60.1446L236.444 100.121L26.6929 99.7909C12.3901 99.7909 0.853516 90.8045 0.853516 79.7695C0.853516 74.2851 3.75453 69.2633 8.47713 65.629C13.1997 62.0608 19.609 59.8142 26.7603 59.8142Z" fill="#FABC6A"/>
<path d="M186.911 21.773C185.56 21.773 184.355 21.5457 183.298 21.0913C182.247 20.6369 181.411 20.0053 180.79 19.1967C180.176 18.3814 179.842 17.4357 179.787 16.3598H182.366C182.421 17.0214 182.653 17.5928 183.062 18.074C183.472 18.5485 184.007 18.916 184.669 19.1766C185.331 19.4373 186.065 19.5676 186.87 19.5676C187.77 19.5676 188.569 19.4139 189.265 19.1065C189.961 18.7991 190.507 18.3714 190.902 17.8234C191.298 17.2754 191.496 16.6405 191.496 15.9187C191.496 15.1636 191.305 14.4986 190.923 13.9239C190.541 13.3425 189.981 12.888 189.244 12.5606C188.507 12.2331 187.607 12.0694 186.542 12.0694H184.864V9.86399H186.542C187.375 9.86399 188.105 9.71697 188.733 9.42292C189.367 9.12887 189.862 8.71453 190.217 8.1799C190.578 7.64526 190.759 7.01707 190.759 6.29531C190.759 5.60029 190.602 4.99549 190.288 4.4809C189.974 3.96632 189.531 3.56534 188.958 3.27797C188.391 2.99061 187.723 2.84693 186.952 2.84693C186.228 2.84693 185.546 2.97724 184.905 3.23788C184.27 3.49183 183.751 3.86273 183.349 4.35058C182.946 4.83176 182.728 5.41317 182.694 6.09483H180.237C180.278 5.01888 180.609 4.07658 181.23 3.26795C181.851 2.45263 182.663 1.81776 183.666 1.36332C184.676 0.908879 185.785 0.681659 186.993 0.681659C188.289 0.681659 189.401 0.938952 190.329 1.45354C191.257 1.96144 191.97 2.63307 192.468 3.46844C192.966 4.3038 193.215 5.206 193.215 6.17502C193.215 7.33117 192.905 8.3169 192.284 9.13222C191.67 9.94753 190.834 10.5122 189.776 10.8263V10.9867C191.1 11.2006 192.134 11.7519 192.878 12.6407C193.621 13.5229 193.993 14.6156 193.993 15.9187C193.993 17.0348 193.683 18.0372 193.062 18.926C192.448 19.8082 191.609 20.5032 190.544 21.0111C189.48 21.519 188.269 21.773 186.911 21.773Z" fill="#67251A"/>
<path d="M208.742 12.7109V14.9163H200.063V12.7109H208.742ZM200.636 6.09483V21.4923H198.22V6.09483H200.636ZM210.584 6.09483V21.4923H208.169V6.09483H210.584Z" fill="#67251A"/>
<path d="M219.622 21.8532C218.626 21.8532 217.721 21.6694 216.91 21.3018C216.098 20.9276 215.453 20.3896 214.975 19.6879C214.497 18.9795 214.259 18.1241 214.259 17.1217C214.259 16.2395 214.436 15.5244 214.791 14.9764C215.146 14.4217 215.62 13.9874 216.214 13.6733C216.807 13.3592 217.462 13.1253 218.179 12.9716C218.902 12.8112 219.629 12.6842 220.359 12.5906C221.314 12.4703 222.088 12.3801 222.682 12.32C223.283 12.2531 223.719 12.1429 223.992 11.9892C224.272 11.8355 224.412 11.5681 224.412 11.1872V11.107C224.412 10.1179 224.135 9.34941 223.583 8.80141C223.037 8.25341 222.208 7.97941 221.096 7.97941C219.942 7.97941 219.038 8.22668 218.383 8.72122C217.728 9.21575 217.268 9.7437 217.002 10.3051L214.709 9.50312C215.118 8.56751 215.664 7.83907 216.347 7.3178C217.036 6.78985 217.786 6.42229 218.598 6.21512C219.417 6.00127 220.222 5.89434 221.014 5.89434C221.519 5.89434 222.099 5.95449 222.754 6.07478C223.416 6.18839 224.054 6.42563 224.668 6.78651C225.289 7.14739 225.804 7.69205 226.213 8.42048C226.623 9.14892 226.827 10.1246 226.827 11.3476V21.4923H224.412V19.4072H224.289C224.125 19.7414 223.852 20.0989 223.47 20.4798C223.088 20.8607 222.58 21.1849 221.945 21.4522C221.311 21.7195 220.536 21.8532 219.622 21.8532ZM219.99 19.728C220.946 19.728 221.751 19.5442 222.406 19.1766C223.068 18.8091 223.566 18.3346 223.9 17.7532C224.241 17.1718 224.412 16.5603 224.412 15.9187V13.7535C224.309 13.8737 224.084 13.984 223.736 14.0843C223.395 14.1778 222.999 14.2614 222.549 14.3349C222.105 14.4017 221.672 14.4618 221.249 14.5153C220.833 14.5621 220.495 14.6022 220.236 14.6356C219.608 14.7158 219.021 14.8461 218.475 15.0266C217.936 15.2003 217.5 15.4643 217.165 15.8185C216.838 16.166 216.674 16.6405 216.674 17.2419C216.674 18.0639 216.985 18.6855 217.605 19.1065C218.233 19.5208 219.028 19.728 219.99 19.728Z" fill="#67251A"/>
<path d="M231.236 21.4923V6.09483H233.651V12.7911H235.248L240.898 6.09483H244.009L237.664 13.5129L244.091 21.4923H240.98L235.821 14.9965H233.651V21.4923H231.236Z" fill="#67251A"/>
<path d="M252.456 21.8131C251.036 21.8131 249.791 21.4823 248.72 20.8206C247.655 20.159 246.823 19.2335 246.223 18.0439C245.629 16.8543 245.332 15.4643 245.332 13.8737C245.332 12.2698 245.629 10.8698 246.223 9.67353C246.823 8.47729 247.655 7.54836 248.72 6.88675C249.791 6.22514 251.036 5.89434 252.456 5.89434C253.875 5.89434 255.117 6.22514 256.181 6.88675C257.253 7.54836 258.085 8.47729 258.679 9.67353C259.279 10.8698 259.579 12.2698 259.579 13.8737C259.579 15.4643 259.279 16.8543 258.679 18.0439C258.085 19.2335 257.253 20.159 256.181 20.8206C255.117 21.4823 253.875 21.8131 252.456 21.8131ZM252.456 19.6879C253.534 19.6879 254.421 19.4172 255.117 18.8759C255.813 18.3346 256.328 17.6229 256.662 16.7407C256.997 15.8586 257.164 14.9029 257.164 13.8737C257.164 12.8446 256.997 11.8856 256.662 10.9968C256.328 10.1079 255.813 9.38951 255.117 8.84151C254.421 8.29351 253.534 8.01951 252.456 8.01951C251.378 8.01951 250.491 8.29351 249.795 8.84151C249.099 9.38951 248.583 10.1079 248.249 10.9968C247.915 11.8856 247.748 12.8446 247.748 13.8737C247.748 14.9029 247.915 15.8586 248.249 16.7407C248.583 17.6229 249.099 18.3346 249.795 18.8759C250.491 19.4172 251.378 19.6879 252.456 19.6879Z" fill="#67251A"/>
<path d="M271.864 18.2845L277.35 6.09483H279.642L272.846 21.4923H270.881L264.208 6.09483H266.46L271.864 18.2845ZM265.682 6.09483V21.4923H263.266V6.09483H265.682ZM278.046 21.4923V6.09483H280.461V21.4923H278.046Z" fill="#67251A"/>
<path d="M286.971 11.6684H291.474C293.316 11.6684 294.725 12.1262 295.701 13.0417C296.677 13.9573 297.165 15.1168 297.165 16.5202C297.165 17.4424 296.946 18.2811 296.51 19.0363C296.073 19.7848 295.432 20.3829 294.586 20.8307C293.739 21.2717 292.702 21.4923 291.474 21.4923H284.883V6.09483H287.298V19.2869H291.474C292.429 19.2869 293.214 19.0396 293.828 18.5451C294.442 18.0506 294.749 17.4157 294.749 16.6405C294.749 15.8252 294.442 15.1602 293.828 14.6456C293.214 14.131 292.429 13.8737 291.474 13.8737H286.971V11.6684ZM299.662 21.4923V6.09483H302.078V21.4923H299.662Z" fill="#67251A"/>
<path d="M313.09 21.8131C311.576 21.8131 310.269 21.4856 309.17 20.8307C308.079 20.1691 307.236 19.2468 306.642 18.0639C306.056 16.8744 305.762 15.491 305.762 13.9138C305.762 12.3367 306.056 10.9466 306.642 9.7437C307.236 8.53409 308.062 7.5918 309.119 6.91683C310.184 6.23517 311.426 5.89434 312.845 5.89434C313.664 5.89434 314.472 6.028 315.271 6.29531C316.069 6.56263 316.796 6.99702 317.451 7.59848C318.106 8.19326 318.628 8.98185 319.017 9.96424C319.405 10.9466 319.6 12.1562 319.6 13.5931V14.5955H307.482V12.5505H317.144C317.144 11.6818 316.966 10.9065 316.611 10.2249C316.263 9.54322 315.765 9.00524 315.117 8.61095C314.476 8.21665 313.718 8.01951 312.845 8.01951C311.883 8.01951 311.05 8.25341 310.347 8.72122C309.652 9.18234 309.116 9.7838 308.741 10.5256C308.365 11.2674 308.178 12.0627 308.178 12.9114V14.2747C308.178 15.4376 308.382 16.4233 308.792 17.2319C309.208 18.0339 309.785 18.6454 310.521 19.0664C311.258 19.4807 312.115 19.6879 313.09 19.6879C313.725 19.6879 314.298 19.601 314.81 19.4273C315.329 19.2468 315.775 18.9795 316.151 18.6253C316.526 18.2644 316.816 17.8167 317.021 17.282L319.354 17.9236C319.109 18.6988 318.696 19.3805 318.116 19.9686C317.536 20.55 316.819 21.0044 315.967 21.3319C315.114 21.6527 314.155 21.8131 313.09 21.8131Z" fill="#67251A"/>
<path d="M338.791 0L332.035 24.5798H329.825L336.58 0H338.791Z" fill="#67251A"/>
<path d="M354.876 21.4923H352.215L359.912 0.962324H362.532L370.228 21.4923H367.567L361.304 4.21022H361.14L354.876 21.4923ZM355.859 13.4728H366.585V15.6781H355.859V13.4728Z" fill="#E52428"/>
<path d="M389.869 18.2845L395.355 6.09481H397.648L390.852 21.4923H388.887L382.214 6.09481H384.465L389.869 18.2845ZM383.688 6.09481V21.4923H381.272V6.09481H383.688ZM396.051 21.4923V6.09481H398.467V21.4923H396.051Z" fill="#E52428"/>
<path d="M404.976 11.6684H409.48C411.322 11.6684 412.731 12.1261 413.707 13.0417C414.683 13.9573 415.17 15.1168 415.17 16.5202C415.17 17.4424 414.952 18.2811 414.515 19.0363C414.079 19.7848 413.437 20.3829 412.591 20.8307C411.745 21.2717 410.708 21.4923 409.48 21.4923H402.888V6.09481H405.304V19.2869H409.48C410.435 19.2869 411.22 19.0396 411.834 18.5451C412.448 18.0506 412.755 17.4157 412.755 16.6405C412.755 15.8251 412.448 15.1602 411.834 14.6456C411.22 14.131 410.435 13.8737 409.48 13.8737H404.976V11.6684ZM417.668 21.4923V6.09481H420.083V21.4923H417.668Z" fill="#E52428"/>
<path d="M431.71 8.30017V6.09481H444.483V8.30017H439.325V21.4923H436.91V8.30017H431.71Z" fill="#E52428"/>
<path d="M453.577 21.813C452.158 21.813 450.913 21.4822 449.842 20.8206C448.777 20.159 447.945 19.2334 447.344 18.0439C446.751 16.8543 446.454 15.4643 446.454 13.8737C446.454 12.2698 446.751 10.8698 447.344 9.67351C447.945 8.47727 448.777 7.54834 449.842 6.88674C450.913 6.22513 452.158 5.89432 453.577 5.89432C454.997 5.89432 456.238 6.22513 457.303 6.88674C458.374 7.54834 459.207 8.47727 459.8 9.67351C460.401 10.8698 460.701 12.2698 460.701 13.8737C460.701 15.4643 460.401 16.8543 459.8 18.0439C459.207 19.2334 458.374 20.159 457.303 20.8206C456.238 21.4822 454.997 21.813 453.577 21.813ZM453.577 19.6879C454.655 19.6879 455.542 19.4172 456.238 18.8759C456.934 18.3346 457.45 17.6229 457.784 16.7407C458.118 15.8586 458.285 14.9029 458.285 13.8737C458.285 12.8446 458.118 11.8856 457.784 10.9967C457.45 10.1079 456.934 9.38949 456.238 8.84149C455.542 8.29349 454.655 8.01949 453.577 8.01949C452.499 8.01949 451.612 8.29349 450.916 8.84149C450.22 9.38949 449.705 10.1079 449.371 10.9967C449.036 11.8856 448.869 12.8446 448.869 13.8737C448.869 14.9029 449.036 15.8586 449.371 16.7407C449.705 17.6229 450.22 18.3346 450.916 18.8759C451.612 19.4172 452.499 19.6879 453.577 19.6879Z" fill="#E52428"/>
<path d="M476.506 6.09481V21.4923H474.091V6.09481H476.506ZM475.565 13.4327V15.638C475.019 15.8385 474.476 16.0156 473.937 16.1693C473.398 16.3163 472.832 16.4333 472.238 16.5202C471.645 16.6004 470.993 16.6405 470.283 16.6405C468.503 16.6405 467.073 16.1693 465.995 15.227C464.924 14.2847 464.388 12.8713 464.388 10.9867V6.05471H466.804V10.9867C466.804 11.7753 466.957 12.4235 467.264 12.9314C467.571 13.4393 467.987 13.8169 468.513 14.0642C469.038 14.3115 469.628 14.4351 470.283 14.4351C471.307 14.4351 472.231 14.3449 473.057 14.1644C473.89 13.9773 474.725 13.7334 475.565 13.4327Z" fill="#E52428"/>
<path d="M491.46 12.7109V14.9163H482.78V12.7109H491.46ZM483.354 6.09481V21.4923H480.938V6.09481H483.354ZM493.302 6.09481V21.4923H490.886V6.09481H493.302Z" fill="#E52428"/>
<path d="M504.1 21.813C502.681 21.813 501.435 21.4822 500.364 20.8206C499.3 20.159 498.467 19.2334 497.867 18.0439C497.273 16.8543 496.976 15.4643 496.976 13.8737C496.976 12.2698 497.273 10.8698 497.867 9.67351C498.467 8.47727 499.3 7.54834 500.364 6.88674C501.435 6.22513 502.681 5.89432 504.1 5.89432C505.519 5.89432 506.761 6.22513 507.825 6.88674C508.897 7.54834 509.729 8.47727 510.323 9.67351C510.923 10.8698 511.223 12.2698 511.223 13.8737C511.223 15.4643 510.923 16.8543 510.323 18.0439C509.729 19.2334 508.897 20.159 507.825 20.8206C506.761 21.4822 505.519 21.813 504.1 21.813ZM504.1 19.6879C505.178 19.6879 506.065 19.4172 506.761 18.8759C507.457 18.3346 507.972 17.6229 508.306 16.7407C508.641 15.8586 508.808 14.9029 508.808 13.8737C508.808 12.8446 508.641 11.8856 508.306 10.9967C507.972 10.1079 507.457 9.38949 506.761 8.84149C506.065 8.29349 505.178 8.01949 504.1 8.01949C503.022 8.01949 502.135 8.29349 501.439 8.84149C500.743 9.38949 500.228 10.1079 499.893 10.9967C499.559 11.8856 499.392 12.8446 499.392 13.8737C499.392 14.9029 499.559 15.8586 499.893 16.7407C500.228 17.6229 500.743 18.3346 501.439 18.8759C502.135 19.4172 503.022 19.6879 504.1 19.6879Z" fill="#E52428"/>
<path d="M523.017 21.4923V6.09481H535.381V21.4923H532.965V8.30017H525.432V21.4923H523.017Z" fill="#E52428"/>
<path d="M544.418 21.8531C543.422 21.8531 542.518 21.6694 541.706 21.3018C540.894 20.9276 540.249 20.3896 539.771 19.6879C539.294 18.9795 539.055 18.1241 539.055 17.1216C539.055 16.2395 539.232 15.5244 539.587 14.9764C539.942 14.4217 540.416 13.9873 541.01 13.6732C541.604 13.3591 542.259 13.1252 542.975 12.9715C543.698 12.8111 544.425 12.6842 545.155 12.5906C546.11 12.4703 546.885 12.3801 547.478 12.32C548.079 12.2531 548.516 12.1429 548.788 11.9891C549.068 11.8354 549.208 11.5681 549.208 11.1872V11.107C549.208 10.1179 548.932 9.34939 548.379 8.80139C547.833 8.25339 547.004 7.97939 545.892 7.97939C544.739 7.97939 543.835 8.22666 543.18 8.7212C542.525 9.21573 542.064 9.74368 541.798 10.305L539.505 9.5031C539.915 8.56749 540.461 7.83905 541.143 7.31778C541.832 6.78983 542.583 6.42227 543.395 6.2151C544.213 6.00125 545.019 5.89432 545.81 5.89432C546.315 5.89432 546.895 5.95447 547.55 6.07476C548.212 6.18837 548.85 6.42561 549.464 6.78649C550.085 7.14737 550.6 7.69203 551.01 8.42047C551.419 9.1489 551.624 10.1246 551.624 11.3476V21.4923H549.208V19.4072H549.085C548.922 19.7413 548.649 20.0989 548.267 20.4798C547.884 20.8607 547.376 21.1848 546.742 21.4522C546.107 21.7195 545.332 21.8531 544.418 21.8531ZM544.787 19.728C545.742 19.728 546.547 19.5442 547.202 19.1766C547.864 18.8091 548.362 18.3346 548.696 17.7532C549.038 17.1718 549.208 16.5603 549.208 15.9187V13.7534C549.106 13.8737 548.881 13.984 548.533 14.0842C548.191 14.1778 547.796 14.2613 547.345 14.3349C546.902 14.4017 546.469 14.4618 546.046 14.5153C545.629 14.5621 545.292 14.6022 545.032 14.6356C544.405 14.7158 543.818 14.8461 543.272 15.0265C542.733 15.2003 542.296 15.4643 541.962 15.8185C541.634 16.166 541.47 16.6405 541.47 17.2419C541.47 18.0639 541.781 18.6854 542.402 19.1065C543.03 19.5208 543.825 19.728 544.787 19.728Z" fill="#E52428"/>
<path d="M556.032 27.2663V6.09481H558.366V8.54076H558.653C558.83 8.27344 559.076 7.93261 559.389 7.51827C559.71 7.09725 560.167 6.723 560.761 6.39554C561.361 6.06139 562.173 5.89432 563.197 5.89432C564.521 5.89432 565.687 6.21844 566.697 6.86669C567.707 7.51493 568.495 8.43383 569.062 9.62339C569.628 10.813 569.911 12.2164 569.911 13.8336C569.911 15.4643 569.628 16.8777 569.062 18.0739C568.495 19.2635 567.71 20.1858 566.707 20.8407C565.704 21.4889 564.548 21.813 563.238 21.813C562.228 21.813 561.419 21.6493 560.812 21.3219C560.205 20.9877 559.737 20.6101 559.41 20.1891C559.082 19.7614 558.83 19.4072 558.653 19.1265H558.448V27.2663H556.032ZM558.407 13.7935C558.407 14.9564 558.581 15.9822 558.929 16.871C559.277 17.7532 559.785 18.4449 560.454 18.9461C561.123 19.4406 561.941 19.6879 562.91 19.6879C563.92 19.6879 564.763 19.4272 565.438 18.906C566.121 18.378 566.632 17.6696 566.974 16.7808C567.322 15.8853 567.496 14.8895 567.496 13.7935C567.496 12.7109 567.325 11.7352 566.984 10.8664C566.649 9.99095 566.141 9.29927 565.459 8.79137C564.783 8.27678 563.934 8.01949 562.91 8.01949C561.928 8.01949 561.102 8.26342 560.433 8.75127C559.765 9.23244 559.26 9.90742 558.919 10.7762C558.577 11.6383 558.407 12.6441 558.407 13.7935Z" fill="#E52428"/>
<path d="M578.222 21.8531C577.226 21.8531 576.322 21.6694 575.51 21.3018C574.698 20.9276 574.053 20.3896 573.575 19.6879C573.098 18.9795 572.859 18.1241 572.859 17.1216C572.859 16.2395 573.036 15.5244 573.391 14.9764C573.746 14.4217 574.22 13.9873 574.814 13.6732C575.407 13.3591 576.062 13.1252 576.779 12.9715C577.502 12.8111 578.229 12.6842 578.959 12.5906C579.914 12.4703 580.688 12.3801 581.282 12.32C581.883 12.2531 582.319 12.1429 582.592 11.9891C582.872 11.8354 583.012 11.5681 583.012 11.1872V11.107C583.012 10.1179 582.735 9.34939 582.183 8.80139C581.637 8.25339 580.808 7.97939 579.696 7.97939C578.543 7.97939 577.638 8.22666 576.983 8.7212C576.328 9.21573 575.868 9.74368 575.602 10.305L573.309 9.5031C573.718 8.56749 574.264 7.83905 574.947 7.31778C575.636 6.78983 576.386 6.42227 577.198 6.2151C578.017 6.00125 578.822 5.89432 579.614 5.89432C580.119 5.89432 580.699 5.95447 581.354 6.07476C582.016 6.18837 582.654 6.42561 583.268 6.78649C583.889 7.14737 584.404 7.69203 584.813 8.42047C585.223 9.1489 585.427 10.1246 585.427 11.3476V21.4923H583.012V19.4072H582.889C582.725 19.7413 582.452 20.0989 582.07 20.4798C581.688 20.8607 581.18 21.1848 580.545 21.4522C579.911 21.7195 579.136 21.8531 578.222 21.8531ZM578.59 19.728C579.546 19.728 580.351 19.5442 581.006 19.1766C581.668 18.8091 582.166 18.3346 582.5 17.7532C582.841 17.1718 583.012 16.5603 583.012 15.9187V13.7534C582.909 13.8737 582.684 13.984 582.336 14.0842C581.995 14.1778 581.599 14.2613 581.149 14.3349C580.706 14.4017 580.272 14.4618 579.849 14.5153C579.433 14.5621 579.095 14.6022 578.836 14.6356C578.208 14.7158 577.621 14.8461 577.076 15.0265C576.536 15.2003 576.1 15.4643 575.765 15.8185C575.438 16.166 575.274 16.6405 575.274 17.2419C575.274 18.0639 575.585 18.6854 576.206 19.1065C576.833 19.5208 577.628 19.728 578.59 19.728Z" fill="#E52428"/>
<path d="M592.988 15.7182V15.5979C593.002 14.3215 593.139 13.3057 593.398 12.5505C593.657 11.7953 594.026 11.1839 594.503 10.7161C594.981 10.2482 595.554 9.8172 596.223 9.4229C596.625 9.18232 596.987 8.8983 597.308 8.57083C597.628 8.23669 597.881 7.85242 598.065 7.41803C598.256 6.98364 598.352 6.50247 598.352 5.97452C598.352 5.31959 598.195 4.75154 597.881 4.27037C597.567 3.7892 597.147 3.4183 596.622 3.15766C596.096 2.89703 595.513 2.76671 594.872 2.76671C594.312 2.76671 593.773 2.88032 593.255 3.10754C592.736 3.33476 592.303 3.6923 591.955 4.18015C591.607 4.668 591.405 5.30622 591.351 6.09481H588.772C588.826 4.95871 589.126 3.98635 589.672 3.17771C590.225 2.36908 590.952 1.75091 591.852 1.3232C592.76 0.895494 593.766 0.681641 594.872 0.681641C596.073 0.681641 597.117 0.915542 598.004 1.38335C598.897 1.85115 599.587 2.49271 600.071 3.30803C600.562 4.12335 600.808 5.05227 600.808 6.09481C600.808 6.82993 600.692 7.49488 600.46 8.08966C600.235 8.68444 599.907 9.21573 599.477 9.68354C599.054 10.1513 598.543 10.5657 597.942 10.9266C597.342 11.2941 596.861 11.6817 596.499 12.0894C596.137 12.4904 595.875 12.9682 595.711 13.5229C595.547 14.0776 595.458 14.7692 595.445 15.5979V15.7182H592.988ZM594.298 21.6527C593.794 21.6527 593.36 21.4756 592.999 21.1214C592.637 20.7672 592.456 20.3428 592.456 19.8483C592.456 19.3537 592.637 18.9294 592.999 18.5752C593.36 18.221 593.794 18.0439 594.298 18.0439C594.803 18.0439 595.237 18.221 595.598 18.5752C595.96 18.9294 596.141 19.3537 596.141 19.8483C596.141 20.1757 596.056 20.4765 595.885 20.7505C595.721 21.0245 595.499 21.245 595.22 21.4121C594.947 21.5725 594.64 21.6527 594.298 21.6527Z" fill="#E52428"/>
<path d="M327.738 85.368V69.7277H337.376V71.4078H329.672V76.2954H333.727C334.87 76.2954 335.834 76.4787 336.619 76.8453C337.41 77.2118 338.007 77.7286 338.413 78.3955C338.823 79.0625 339.029 79.8491 339.029 80.7553C339.029 81.6616 338.823 82.4609 338.413 83.1533C338.007 83.8457 337.41 84.3879 336.619 84.7799C335.834 85.172 334.87 85.368 333.727 85.368H327.738ZM329.672 83.7184H333.727C334.454 83.7184 335.07 83.5759 335.575 83.2908C336.084 83.0006 336.469 82.6289 336.729 82.1758C336.994 81.7176 337.126 81.2339 337.126 80.7248C337.126 79.9764 336.833 79.3323 336.245 78.7927C335.658 78.2479 334.818 77.9755 333.727 77.9755H329.672V83.7184Z" fill="white"/>
<path d="M346.828 85.6123C345.747 85.6123 344.798 85.3603 343.982 84.8563C343.171 84.3523 342.537 83.6471 342.079 82.7409C341.627 81.8347 341.401 80.7757 341.401 79.564C341.401 78.3421 341.627 77.2755 342.079 76.3641C342.537 75.4528 343.171 74.7451 343.982 74.2411C344.798 73.7371 345.747 73.4851 346.828 73.4851C347.909 73.4851 348.855 73.7371 349.666 74.2411C350.482 74.7451 351.117 75.4528 351.569 76.3641C352.026 77.2755 352.255 78.3421 352.255 79.564C352.255 80.7757 352.026 81.8347 351.569 82.7409C351.117 83.6471 350.482 84.3523 349.666 84.8563C348.855 85.3603 347.909 85.6123 346.828 85.6123ZM346.828 83.9933C347.649 83.9933 348.325 83.7871 348.855 83.3748C349.386 82.9624 349.778 82.4202 350.033 81.7481C350.287 81.0761 350.415 80.348 350.415 79.564C350.415 78.7799 350.287 78.0493 350.033 77.3722C349.778 76.6951 349.386 76.1478 348.855 75.7303C348.325 75.3128 347.649 75.1041 346.828 75.1041C346.007 75.1041 345.331 75.3128 344.801 75.7303C344.27 76.1478 343.878 76.6951 343.623 77.3722C343.369 78.0493 343.241 78.7799 343.241 79.564C343.241 80.348 343.369 81.0761 343.623 81.7481C343.878 82.4202 344.27 82.9624 344.801 83.3748C345.331 83.7871 346.007 83.9933 346.828 83.9933Z" fill="white"/>
<path d="M354.003 85.368V83.6879H354.44C354.799 83.6879 355.098 83.6191 355.337 83.4817C355.576 83.3391 355.768 83.0922 355.914 82.7409C356.065 82.3845 356.179 81.8907 356.257 81.2594C356.34 80.623 356.4 79.8134 356.436 78.8308L356.655 73.6378H364.639V85.368H362.799V75.3179H358.401L358.214 79.5029C358.172 80.4651 358.084 81.3128 357.949 82.0459C357.819 82.774 357.619 83.3849 357.348 83.8788C357.083 84.3726 356.73 84.7443 356.288 84.9938C355.846 85.2432 355.293 85.368 354.627 85.368H354.003Z" fill="white"/>
<path d="M373.037 85.6123C371.883 85.6123 370.887 85.3629 370.05 84.8639C369.219 84.3599 368.577 83.6573 368.124 82.7562C367.677 81.8499 367.454 80.7961 367.454 79.5945C367.454 78.393 367.677 77.334 368.124 76.4176C368.577 75.4961 369.206 74.7782 370.011 74.264C370.822 73.7447 371.768 73.4851 372.849 73.4851C373.473 73.4851 374.089 73.5869 374.697 73.7905C375.306 73.9942 375.859 74.3251 376.358 74.7833C376.857 75.2364 377.255 75.8372 377.551 76.5856C377.848 77.334 377.996 78.2555 377.996 79.3501V80.1138H368.764V78.5559H376.124C376.124 77.8941 375.989 77.3035 375.719 76.7842C375.454 76.2649 375.074 75.855 374.58 75.5546C374.092 75.2543 373.515 75.1041 372.849 75.1041C372.117 75.1041 371.482 75.2823 370.947 75.6387C370.417 75.9899 370.009 76.4482 369.723 77.0133C369.437 77.5784 369.294 78.1843 369.294 78.8308V79.8695C369.294 80.7553 369.45 81.5063 369.762 82.1223C370.079 82.7333 370.518 83.1991 371.08 83.5199C371.641 83.8355 372.293 83.9933 373.037 83.9933C373.52 83.9933 373.957 83.9272 374.347 83.7948C374.742 83.6573 375.082 83.4537 375.368 83.1838C375.654 82.9089 375.875 82.5678 376.031 82.1605L377.809 82.6493C377.621 83.2398 377.307 83.7591 376.865 84.2072C376.423 84.6501 375.877 84.9963 375.228 85.2458C374.578 85.4902 373.848 85.6123 373.037 85.6123Z" fill="white"/>
<path d="M385.816 85.6123C384.662 85.6123 383.667 85.3629 382.83 84.8639C381.998 84.3599 381.356 83.6573 380.904 82.7562C380.457 81.8499 380.234 80.7961 380.234 79.5945C380.234 78.393 380.457 77.334 380.904 76.4176C381.356 75.4961 381.985 74.7782 382.791 74.264C383.602 73.7447 384.548 73.4851 385.629 73.4851C386.253 73.4851 386.869 73.5869 387.477 73.7905C388.085 73.9942 388.639 74.3251 389.138 74.7833C389.637 75.2364 390.035 75.8372 390.331 76.5856C390.627 77.334 390.775 78.2555 390.775 79.3501V80.1138H381.543V78.5559H388.904C388.904 77.8941 388.769 77.3035 388.499 76.7842C388.234 76.2649 387.854 75.855 387.36 75.5546C386.872 75.2543 386.295 75.1041 385.629 75.1041C384.896 75.1041 384.262 75.2823 383.727 75.6387C383.197 75.9899 382.788 76.4482 382.503 77.0133C382.217 77.5784 382.074 78.1843 382.074 78.8308V79.8695C382.074 80.7553 382.23 81.5063 382.542 82.1223C382.859 82.7333 383.298 83.1991 383.859 83.5199C384.421 83.8355 385.073 83.9933 385.816 83.9933C386.3 83.9933 386.736 83.9272 387.126 83.7948C387.521 83.6573 387.862 83.4537 388.148 83.1838C388.434 82.9089 388.655 82.5678 388.811 82.1605L390.588 82.6493C390.401 83.2398 390.087 83.7591 389.645 84.2072C389.203 84.6501 388.657 84.9963 388.007 85.2458C387.358 85.4902 386.627 85.6123 385.816 85.6123Z" fill="white"/>
<path d="M405.115 85.5818C404.085 85.5818 403.168 85.4087 402.362 85.0625C401.562 84.7163 400.925 84.2352 400.452 83.6191C399.984 82.998 399.729 82.2776 399.688 81.4579H401.653C401.694 81.9619 401.871 82.3972 402.183 82.7638C402.495 83.1253 402.903 83.4053 403.407 83.6039C403.911 83.8024 404.47 83.9017 405.083 83.9017C405.77 83.9017 406.378 83.7846 406.908 83.5504C407.438 83.3162 407.854 82.9904 408.156 82.5729C408.457 82.1554 408.608 81.6717 408.608 81.1219C408.608 80.5466 408.462 80.04 408.171 79.6022C407.88 79.1592 407.454 78.813 406.892 78.5636C406.331 78.3141 405.645 78.1894 404.834 78.1894H403.555V76.5092H404.834C405.468 76.5092 406.024 76.3972 406.503 76.1732C406.986 75.9492 407.363 75.6336 407.633 75.2263C407.909 74.819 408.046 74.3404 408.046 73.7905C408.046 73.2611 407.927 72.8003 407.688 72.4083C407.449 72.0162 407.111 71.7108 406.674 71.4919C406.243 71.2729 405.733 71.1635 405.146 71.1635C404.595 71.1635 404.075 71.2627 403.586 71.4613C403.103 71.6548 402.708 71.9373 402.401 72.309C402.095 72.6756 401.928 73.1185 401.902 73.6378H400.031C400.062 72.8181 400.314 72.1003 400.787 71.4842C401.26 70.8631 401.879 70.3794 402.643 70.0332C403.412 69.687 404.257 69.5139 405.177 69.5139C406.165 69.5139 407.012 69.7099 407.719 70.102C408.426 70.4889 408.969 71.0006 409.349 71.637C409.728 72.2734 409.918 72.9607 409.918 73.6989C409.918 74.5797 409.681 75.3306 409.208 75.9518C408.74 76.5729 408.104 77.0031 407.298 77.2424V77.3646C408.306 77.5275 409.094 77.9475 409.661 78.6247C410.227 79.2967 410.51 80.1291 410.51 81.1219C410.51 81.9721 410.274 82.7358 409.801 83.4129C409.333 84.085 408.694 84.6145 407.883 85.0014C407.072 85.3883 406.149 85.5818 405.115 85.5818Z" fill="white"/>
<path d="M420.592 77.8228V79.5029H413.606V77.8228H420.592Z" fill="white"/>
<path d="M424.709 73.6378L427.579 78.4337L430.448 73.6378H432.569L428.701 79.5029L432.569 85.368H430.448L427.579 80.8164L424.709 85.368H422.588L426.393 79.5029L422.588 73.6378H424.709Z" fill="white"/>
<path d="M446.236 85.6123C445.113 85.6123 444.146 85.3527 443.335 84.8334C442.524 84.3141 441.9 83.5988 441.464 82.6874C441.027 81.7761 440.809 80.735 440.809 79.564C440.809 78.3726 441.032 77.3213 441.479 76.41C441.932 75.4936 442.561 74.7782 443.366 74.264C444.177 73.7447 445.123 73.4851 446.204 73.4851C447.047 73.4851 447.805 73.6378 448.481 73.9433C449.157 74.2487 449.711 74.6764 450.142 75.2263C450.574 75.7761 450.841 76.4176 450.945 77.1507H449.105C448.965 76.6162 448.653 76.1427 448.169 75.7303C447.691 75.3128 447.047 75.1041 446.236 75.1041C445.518 75.1041 444.889 75.2874 444.349 75.6539C443.813 76.0154 443.395 76.5271 443.093 77.1889C442.797 77.8457 442.649 78.617 442.649 79.5029C442.649 80.4091 442.794 81.1983 443.086 81.8703C443.382 82.5423 443.798 83.0642 444.333 83.4359C444.874 83.8075 445.508 83.9933 446.236 83.9933C446.714 83.9933 447.148 83.9119 447.538 83.749C447.928 83.586 448.258 83.3518 448.528 83.0464C448.798 82.7409 448.991 82.3743 449.105 81.9467H450.945C450.841 82.6391 450.584 83.2628 450.173 83.8177C449.768 84.3675 449.23 84.8054 448.559 85.1312C447.894 85.452 447.119 85.6123 446.236 85.6123Z" fill="white"/>
<path d="M460.185 82.9242L464.364 73.6378H466.111L460.934 85.368H459.436L454.353 73.6378H456.068L460.185 82.9242ZM455.475 73.6378V85.368H453.635V73.6378H455.475ZM464.895 85.368V73.6378H466.735V85.368H464.895Z" fill="white"/>
<path fill-rule="evenodd" clip-rule="evenodd" d="M766.183 34.3355H44.3008V31.1096H766.183V34.3355Z" fill="#67251A"/>
<path d="M47.5387 31.269L26.4894 18.8464H0.919922L15.0877 32.7227L0.919922 46.5989H26.4894L47.5387 34.1103V31.269Z" fill="#67251A"/>
<path d="M760.244 32.7228L753.025 21.0932L753.43 20.8289L772.793 28.3617C779.539 29.8154 786.286 31.2691 793.032 32.7228C786.286 34.1765 779.539 35.6302 772.793 37.0839L753.43 44.6167L753.025 44.4184L760.244 32.7228Z" fill="#67251A"/>
</svg>
