<svg width="51" height="16" viewBox="0 0 51 16" xmlns="http://www.w3.org/2000/svg">
<path d="M1 7C0.447715 7 4.82823e-08 7.44772 0 8C-4.82823e-08 8.55228 0.447715 9 1 9L1 7ZM50.7071 8.70711C51.0976 8.31659 51.0976 7.68342 50.7071 7.2929L44.3431 0.928936C43.9526 0.538412 43.3195 0.538412 42.9289 0.928936C42.5384 1.31946 42.5384 1.95263 42.9289 2.34315L48.5858 8L42.9289 13.6569C42.5384 14.0474 42.5384 14.6805 42.9289 15.0711C43.3195 15.4616 43.9526 15.4616 44.3431 15.0711L50.7071 8.70711ZM1 9L50 9L50 7L1 7L1 9Z" fill="currentColor"/>
</svg>
