<svg width="32" height="33" viewBox="0 0 32 33" xmlns="http://www.w3.org/2000/svg">
<path d="M17.92 23.8223C17.4933 23.929 16.8533 24.1423 16.0533 24.1423C14.6134 24.1423 13.2267 23.769 12.0533 22.9689C10.88 22.1689 9.97336 21.1556 9.33331 19.8756L2.50665 7.92896L2.02666 8.72894C0.693303 11.129 0 13.7956 0 16.729C0 20.729 1.33336 24.249 3.89332 27.2356C6.45335 30.169 9.75999 31.9823 13.6 32.5689L13.9733 32.6222L19.36 23.3956L17.92 23.8223ZM13.3866 31.3956C9.9733 30.8089 7.03997 29.1557 4.69331 26.4889C2.29328 23.7156 1.06667 20.4623 1.06667 16.729C1.06667 14.3289 1.54667 12.089 2.50665 10.1156L8.26664 20.3556C8.95994 21.7423 9.9733 22.9156 11.36 23.8222C12.7466 24.6756 14.2933 25.1556 15.9467 25.1556C16.3733 25.1556 16.7466 25.1023 17.0666 25.0489L13.3866 31.3956Z" fill="currentColor"/>
<path d="M8.80173 14.7557C9.17504 13.1557 10.0817 11.8224 11.4684 10.7557C12.7484 9.74232 14.2417 9.26232 16.0017 9.26232H30.1884L29.7084 8.46234C28.375 6.16899 26.5084 4.35564 23.9484 2.86235C21.5484 1.42231 18.8817 0.729004 16.0017 0.729004C13.5484 0.729004 11.1484 1.26231 9.01504 2.32898C6.7217 3.44897 4.74835 5.04901 3.36175 6.91567L3.14844 7.18235L8.48174 15.929L8.80173 14.7557ZM4.42842 7.28898C5.7084 5.63562 7.41507 4.30233 9.4951 3.28897C11.4684 2.27561 13.6551 1.79561 16.0018 1.79561C18.6684 1.79561 21.1751 2.48892 23.3617 3.82227C25.4951 5.04894 27.0417 6.48892 28.2684 8.24896H15.9484C13.975 8.24896 12.2684 8.78227 10.7751 9.95563C9.54841 10.9156 8.64174 12.0356 8.10843 13.369L4.42842 7.28898Z" fill="currentColor"/>
<path d="M30.8273 10.7023L30.6673 10.3823H20.0539L20.9606 11.289C22.5606 12.889 23.4139 14.809 23.4139 16.729C23.4139 18.2757 22.9872 19.7156 22.0806 20.9957L15.2539 32.729H16.1606C20.5339 32.6757 24.2672 31.0757 27.3605 27.9823C30.4539 24.889 32.0005 21.1024 32.0005 16.729C32.0006 15.129 31.7872 12.8357 30.8273 10.7023ZM26.6139 27.2357C23.9473 29.9023 20.8006 31.3424 17.1206 31.609L22.934 21.5823C23.9473 20.0889 24.4273 18.489 24.4273 16.729C24.4273 14.8623 23.7874 13.049 22.5074 11.449H29.974C30.774 13.3157 30.934 15.3423 30.934 16.729C30.9339 20.7823 29.4939 24.3023 26.6139 27.2357Z" fill="currentColor"/>
<path d="M9.60156 16.729C9.60156 20.1956 12.5349 23.1289 16.0015 23.1289C19.4682 23.1289 22.4015 20.1956 22.4015 16.729C22.4015 13.2623 19.4682 10.329 16.0015 10.329C12.5349 10.329 9.60156 13.2623 9.60156 16.729ZM16.0015 11.3957C18.8816 11.3957 21.3348 13.849 21.3348 16.729C21.3348 19.6089 18.8815 22.0623 16.0015 22.0623C13.1216 22.0623 10.6682 19.6089 10.6682 16.729C10.6682 13.849 13.1216 11.3957 16.0015 11.3957Z" fill="currentColor"/>
</svg>
