<svg width="24" height="25" viewBox="0 0 24 25" xmlns="http://www.w3.org/2000/svg">
<path fill-rule="evenodd" clip-rule="evenodd" d="M1.25 5.229C1.25 4.81479 1.58579 4.479 2 4.479H22C22.4142 4.479 22.75 4.81479 22.75 5.229V20.229C22.75 20.6432 22.4142 20.979 22 20.979H2C1.58579 20.979 1.25 20.6432 1.25 20.229V5.229ZM2.75 5.979V19.479H21.25V5.979H2.75Z" fill="currentColor"/>
<path fill-rule="evenodd" clip-rule="evenodd" d="M1.40004 4.77899C1.64857 4.44762 2.11867 4.38046 2.45004 4.62899L12 11.7915L21.55 4.62899C21.8814 4.38046 22.3515 4.44762 22.6 4.77899C22.8486 5.11036 22.7814 5.58046 22.45 5.82899L12.45 13.329C12.1834 13.529 11.8167 13.529 11.55 13.329L1.55004 5.82899C1.21867 5.58046 1.15152 5.11036 1.40004 4.77899Z" fill="currentColor"/>
<path fill-rule="evenodd" clip-rule="evenodd" d="M1.25 5.229C1.25 4.81479 1.58579 4.479 2 4.479H12C12.4142 4.479 12.75 4.81479 12.75 5.229C12.75 5.64322 12.4142 5.979 12 5.979H2.75V12.729C2.75 13.1432 2.41421 13.479 2 13.479C1.58579 13.479 1.25 13.1432 1.25 12.729V5.229Z" fill="currentColor"/>
<path fill-rule="evenodd" clip-rule="evenodd" d="M11.25 5.229C11.25 4.81479 11.5858 4.479 12 4.479H22C22.4142 4.479 22.75 4.81479 22.75 5.229V12.729C22.75 13.1432 22.4142 13.479 22 13.479C21.5858 13.479 21.25 13.1432 21.25 12.729V5.979H12C11.5858 5.979 11.25 5.64322 11.25 5.229Z" fill="currentColor"/>
</svg>
