<svg width="23" height="22" viewBox="0 0 23 22" xmlns="http://www.w3.org/2000/svg">
<path d="M14.3386 9.61889C14.3386 9.61889 15.4555 8.60488 14.3991 7.5485C13.3427 6.49212 12.2677 7.54797 12.2677 7.54797L10.4258 9.39003C8.57018 11.2464 8.34114 14.0362 10.1966 15.8909C12.0529 17.7473 14.9077 17.583 16.7626 15.7269L19.8702 12.6207C22.7246 9.76629 22.7246 5.12125 19.8702 2.26685L19.7453 2.14191C16.8894 -0.71397 12.2444 -0.71397 9.38987 2.14191L2.14137 9.3895C-0.71379 12.2439 -0.71379 16.8889 2.14137 19.7449L2.26631 19.8698C4.48898 22.0919 7.8312 22.6218 10.6521 21.2409C11.4094 20.8702 12.2324 20.1682 11.6892 19.1836C11.1144 18.1418 10.1048 18.3687 9.57094 18.6121C7.97788 19.2685 5.62936 19.0905 4.33723 17.7991L4.21229 17.6727C2.49899 15.9608 2.49899 13.1735 4.21229 11.4603L11.4608 4.21264C13.1741 2.49934 15.9613 2.49934 17.6732 4.21264L17.7996 4.33758C19.5114 6.05088 19.5114 8.8367 17.7996 10.55L14.6918 13.6561C13.9782 14.3697 12.9811 14.534 12.2675 13.8202C11.5538 13.1064 11.7831 12.1746 12.4967 11.4608L14.3386 9.61889Z" fill="currentColor"/>
</svg>
