<svg width="4" height="15" viewBox="0 0 4 15" xmlns="http://www.w3.org/2000/svg">
<path d="M3.07182 10.2545C3.31492 10.2545 3.46961 10.11 3.46961 9.88308L3.69061 4.02338V0.371389C3.69061 0.123796 3.53591 0 3.29282 0H0.685083C0.441989 0 0.309392 0.123796 0.309392 0.371389V4.02338L0.530387 9.88308C0.530387 10.11 0.662984 10.2545 0.906077 10.2545H3.07182ZM4 13.1637C4 12.0908 3.16022 11.3274 1.98895 11.3274C0.81768 11.3274 0 12.0908 0 13.1637C0 14.1953 0.81768 15 1.98895 15C3.16022 15 4 14.1953 4 13.1637Z" fill="currentColor"/>
</svg>
