<svg width="26" height="16" viewBox="0 0 26 16" xmlns="http://www.w3.org/2000/svg">
<path fill-rule="evenodd" clip-rule="evenodd" d="M12.7208 15.6662H14.2749C14.2749 15.6662 14.7443 15.6141 14.984 15.3528C15.2046 15.1129 15.1976 14.6625 15.1976 14.6625C15.1976 14.6625 15.1672 12.5536 16.135 12.243C17.0891 11.9371 18.3143 14.2812 19.6128 15.1825C20.5948 15.8647 21.341 15.7151 21.341 15.7151L24.8131 15.6662C24.8131 15.6662 26.6295 15.553 25.7682 14.1088C25.6976 13.9907 25.2667 13.0405 23.1866 11.0879C21.0095 9.04439 21.3011 9.37493 23.9236 5.84004C25.5208 3.68726 26.1593 2.37296 25.9599 1.81005C25.7697 1.27391 24.595 1.41562 24.595 1.41562L20.6855 1.44025C20.6855 1.44025 20.3957 1.40027 20.1808 1.5302C19.9707 1.65763 19.8356 1.95462 19.8356 1.95462C19.8356 1.95462 19.2168 3.62051 18.3916 5.03725C16.6507 8.02672 15.9547 8.18449 15.6702 7.99888C15.0084 7.56625 15.1736 6.26088 15.1736 5.33352C15.1736 2.4365 15.6081 1.22858 14.3275 0.915886C13.9025 0.812013 13.5898 0.743479 12.503 0.732413C11.1081 0.717778 9.92739 0.736696 9.25887 1.06795C8.81413 1.28819 8.47104 1.779 8.68 1.80719C8.93837 1.84218 9.52359 1.96675 9.83385 2.39402C10.2345 2.94516 10.2204 4.18307 10.2204 4.18307C10.2204 4.18307 10.4505 7.59338 9.68278 8.01708C9.1558 8.30764 8.43292 7.71439 6.88092 5.00227C6.08568 3.61301 5.48529 2.07741 5.48529 2.07741C5.48529 2.07741 5.36951 1.79042 5.16303 1.63693C4.91242 1.45096 4.56228 1.3917 4.56228 1.3917L0.847288 1.41633C0.847288 1.41633 0.289599 1.43204 0.0848775 1.67726C-0.097254 1.89536 0.0704057 2.34655 0.0704057 2.34655C0.0704057 2.34655 2.97886 9.22786 6.27205 12.6957C9.29169 15.875 12.7208 15.6662 12.7208 15.6662Z" fill="currentColor"/>
</svg>
