<svg width="28" height="20" viewBox="0 0 28 20" xmlns="http://www.w3.org/2000/svg">
<path d="M26.5556 2.55991C25.8059 1.22646 24.9924 0.981186 23.3359 0.887913C21.6812 0.77564 17.5202 0.729004 13.9154 0.729004C10.3037 0.729004 6.14093 0.77564 4.48793 0.886186C2.83493 0.981186 2.01966 1.22473 1.26311 2.55991C0.491023 3.89164 0.09375 6.18546 0.09375 10.2238C0.09375 10.2273 0.09375 10.229 0.09375 10.229C0.09375 10.2325 0.09375 10.2342 0.09375 10.2342V10.2376C0.09375 14.2587 0.491023 16.5698 1.26311 17.8877C2.01966 19.2212 2.8332 19.463 4.4862 19.5753C6.14093 19.672 10.3037 19.729 13.9154 19.729C17.5202 19.729 21.6812 19.672 23.3377 19.577C24.9941 19.4647 25.8077 19.2229 26.5573 17.8895C27.3363 16.5716 27.7301 14.2605 27.7301 10.2394C27.7301 10.2394 27.7301 10.2342 27.7301 10.2307C27.7301 10.2307 27.7301 10.2273 27.7301 10.2255C27.7301 6.18546 27.3363 3.89164 26.5556 2.55991ZM10.4574 15.4108V5.04719L19.0938 10.229L10.4574 15.4108Z" fill="currentColor"/>
</svg>
