<svg width="580" height="92" viewBox="0 0 580 92" fill="none" xmlns="http://www.w3.org/2000/svg">
<path d="M199.299 0C199.299 0 202.487 11.7531 210.968 11.7531C202.487 11.7531 199.299 23.5061 199.299 23.5061C199.299 23.5061 196.11 11.7531 187.629 11.7531C196.107 11.7531 199.299 0 199.299 0Z" fill="#FFEC00"/>
<path d="M234.708 21.9104C234.708 21.9104 236.095 27.0256 239.786 27.0256C236.095 27.0256 234.708 32.1409 234.708 32.1409C234.708 32.1409 233.321 27.0256 229.629 27.0256C233.321 27.023 234.708 21.9104 234.708 21.9104Z" fill="#FFEC00"/>
<path d="M3.74707 30.9104C3.74707 30.9104 4.59961 34.0494 6.86523 34.0494C4.59961 34.0494 3.74707 37.1884 3.74707 37.1884C3.74707 37.1884 2.89453 34.0494 0.628906 34.0494C2.89713 34.0494 3.74707 30.9104 3.74707 30.9104Z" fill="#FFEC00"/>
<path d="M234.007 76.9104C234.007 76.9104 236.023 84.3408 241.385 84.3408C236.023 84.3408 234.007 91.7712 234.007 91.7712C234.007 91.7712 231.992 84.3408 226.629 84.3408C231.992 84.3408 234.007 76.9104 234.007 76.9104Z" fill="#FFEC00"/>
<path d="M40.0072 64.9104C40.0072 64.9104 42.0225 72.3408 47.3854 72.3408C42.0225 72.3408 40.0072 79.7712 40.0072 79.7712C40.0072 79.7712 37.9918 72.3408 32.6289 72.3408C37.9918 72.3408 40.0072 64.9104 40.0072 64.9104Z" fill="#FFEC00"/>
<path d="M572.007 28.9104C572.007 28.9104 574.023 36.3408 579.385 36.3408C574.023 36.3408 572.007 43.7712 572.007 43.7712C572.007 43.7712 569.992 36.3408 564.629 36.3408C569.992 36.3408 572.007 28.9104 572.007 28.9104Z" fill="#FFEC00"/>
<path d="M406.007 68.9104C406.007 68.9104 408.022 76.3408 413.385 76.3408C408.022 76.3408 406.007 83.7712 406.007 83.7712C406.007 83.7712 403.992 76.3408 398.629 76.3408C403.992 76.3434 406.007 68.9104 406.007 68.9104Z" fill="#FFEC00"/>
</svg>
