<svg width="41" height="74" viewBox="0 0 41 74" fill="none" xmlns="http://www.w3.org/2000/svg">
<path d="M10.296 25.6528L12.098 14.5228C14.8893 12.8974 18.352 12.0848 22.486 12.0848C26.1253 12.0848 29.2523 13.1271 31.867 15.2118C34.4463 17.2611 35.736 20.1584 35.736 23.9038C35.736 26.4831 34.994 28.8681 33.51 31.0588C32.0613 33.2141 29.6763 35.5108 26.355 37.9488L22.963 40.4398H35.153L33.669 49.9268H6.056L7.381 41.8178L17.769 33.4968C20.313 31.3768 22.009 29.8221 22.857 28.8328C23.7403 27.8081 24.182 26.7658 24.182 25.7058C24.182 24.6458 23.811 23.8154 23.069 23.2148C22.327 22.6141 21.2493 22.3138 19.836 22.3138C16.8327 22.3138 13.6527 23.4268 10.296 25.6528Z" fill="#B1B1B1"/>
<path d="M8.296 21.6528L10.098 10.5228C12.8893 8.89742 16.352 8.08476 20.486 8.08476C24.1253 8.08476 27.2523 9.12709 29.867 11.2118C32.4463 13.2611 33.736 16.1584 33.736 19.9038C33.736 22.4831 32.994 24.8681 31.51 27.0588C30.0613 29.2141 27.6763 31.5108 24.355 33.9488L20.963 36.4398H33.153L31.669 45.9268H4.056L5.381 37.8178L15.769 29.4968C18.313 27.3768 20.009 25.8221 20.857 24.8328C21.7403 23.8081 22.182 22.7658 22.182 21.7058C22.182 20.6458 21.811 19.8154 21.069 19.2148C20.327 18.6141 19.2493 18.3138 17.836 18.3138C14.8327 18.3138 11.6527 19.4268 8.296 21.6528Z" fill="#D00000"/>
<path d="M6.296 19.6528L4.32171 19.3331L3.59098 23.8464L7.40135 21.3196L6.296 19.6528ZM8.098 8.52276L7.09162 6.7944L6.27478 7.27003L6.12371 8.20311L8.098 8.52276ZM27.867 9.21176L26.6202 10.7756L26.6228 10.7777L27.867 9.21176ZM29.51 25.0588L27.8542 23.9371L27.8501 23.9431L29.51 25.0588ZM22.355 31.9488L21.1715 30.3365L21.1712 30.3367L22.355 31.9488ZM18.963 34.4398L17.7792 32.8277L12.8607 36.4398H18.963V34.4398ZM31.153 34.4398L33.129 34.7488L33.4902 32.4398H31.153V34.4398ZM29.669 43.9268V45.9268H31.3805L31.645 44.2358L29.669 43.9268ZM2.056 43.9268L0.0821761 43.6042L-0.297321 45.9268H2.056V43.9268ZM3.381 35.8178L2.13064 34.2568L1.53106 34.7371L1.40718 35.4952L3.381 35.8178ZM13.769 27.4968L15.0194 29.0577L15.0345 29.0456L15.0494 29.0332L13.769 27.4968ZM18.857 22.8328L17.3422 21.5269L17.3385 21.5312L18.857 22.8328ZM19.069 17.2148L17.8106 18.7692L19.069 17.2148ZM8.27029 19.9724L10.0723 8.8424L6.12371 8.20311L4.32171 19.3331L8.27029 19.9724ZM9.10438 10.2511C11.516 8.84689 14.6085 8.08476 18.486 8.08476V4.08476C14.0955 4.08476 10.2627 4.94795 7.09162 6.7944L9.10438 10.2511ZM18.486 8.08476C21.715 8.08476 24.3917 8.9988 26.6202 10.7756L29.1138 7.64796C26.1129 5.25538 22.5357 4.08476 18.486 4.08476V8.08476ZM26.6228 10.7777C28.6553 12.3925 29.736 14.6739 29.736 17.9038H33.736C33.736 13.643 32.2374 10.1297 29.1112 7.64584L26.6228 10.7777ZM29.736 17.9038C29.736 20.0723 29.12 22.0684 27.8542 23.9371L31.1658 26.1805C32.868 23.6678 33.736 20.8938 33.736 17.9038H29.736ZM27.8501 23.9431C26.5833 25.8278 24.4027 27.9647 21.1715 30.3365L23.5385 33.561C26.95 31.0568 29.5393 28.6004 31.1699 26.1744L27.8501 23.9431ZM21.1712 30.3367L17.7792 32.8277L20.1468 36.0518L23.5388 33.5608L21.1712 30.3367ZM18.963 36.4398H31.153V32.4398H18.963V36.4398ZM29.177 34.1307L27.693 43.6177L31.645 44.2358L33.129 34.7488L29.177 34.1307ZM29.669 41.9268H2.056V45.9268H29.669V41.9268ZM4.02982 44.2493L5.35482 36.1403L1.40718 35.4952L0.0821761 43.6042L4.02982 44.2493ZM4.63136 37.3787L15.0194 29.0577L12.5186 25.9358L2.13064 34.2568L4.63136 37.3787ZM15.0494 29.0332C17.5878 26.9178 19.4051 25.2665 20.3755 24.1343L17.3385 21.5312C16.6129 22.3777 15.0382 23.8357 12.4886 25.9603L15.0494 29.0332ZM20.3718 24.1386C21.4794 22.8538 22.182 21.3655 22.182 19.7058H18.182C18.182 20.166 18.0013 20.7623 17.3422 21.5269L20.3718 24.1386ZM22.182 19.7058C22.182 18.1178 21.5942 16.6858 20.3274 15.6603L17.8106 18.7692C18.0278 18.945 18.182 19.1737 18.182 19.7058H22.182ZM20.3274 15.6603C19.0935 14.6614 17.4952 14.3138 15.836 14.3138V18.3138C17.0035 18.3138 17.5605 18.5668 17.8106 18.7692L20.3274 15.6603ZM15.836 14.3138C12.3262 14.3138 8.76575 15.6151 5.19065 17.986L7.40135 21.3196C10.5396 19.2384 13.3392 18.3138 15.836 18.3138V14.3138Z" fill="#FFEC00"/>
</svg>
