<svg width="41" height="74" viewBox="0 0 41 74" fill="none" xmlns="http://www.w3.org/2000/svg">
<path d="M36.743 21.2713L29.535 26.6773C31.3723 27.596 32.8563 28.8856 33.987 30.5463C35.153 32.207 35.736 34.1856 35.736 36.4823C35.736 40.793 34.2343 44.238 31.231 46.8173C28.1923 49.432 24.288 50.7393 19.518 50.7393C16.9387 50.7393 14.4653 50.4213 12.098 49.7853C9.766 49.114 7.92867 48.3013 6.586 47.3473L8.282 37.0653C11.2147 39.6093 14.695 40.8813 18.723 40.8813C20.419 40.8813 21.8147 40.528 22.91 39.8213C24.0053 39.1146 24.553 38.1076 24.553 36.8003C24.553 35.8463 24.1467 35.0513 23.334 34.4153C22.5567 33.7793 21.4083 33.4613 19.889 33.4613C17.5923 33.4613 15.596 33.85 13.9 34.6273L15.013 27.8433L22.857 22.3843H11.568L13.158 12.8973H38.121L36.743 21.2713Z" fill="#B1B1B1"/>
<path d="M34.743 17.2713L27.535 22.6773C29.3723 23.596 30.8563 24.8856 31.987 26.5463C33.153 28.207 33.736 30.1856 33.736 32.4823C33.736 36.793 32.2343 40.238 29.231 42.8173C26.1923 45.432 22.288 46.7393 17.518 46.7393C14.9387 46.7393 12.4653 46.4213 10.098 45.7853C7.766 45.114 5.92867 44.3013 4.586 43.3473L6.282 33.0653C9.21467 35.6093 12.695 36.8813 16.723 36.8813C18.419 36.8813 19.8147 36.528 20.91 35.8213C22.0053 35.1146 22.553 34.1076 22.553 32.8003C22.553 31.8463 22.1467 31.0513 21.334 30.4153C20.5567 29.7793 19.4083 29.4613 17.889 29.4613C15.5923 29.4613 13.596 29.85 11.9 30.6273L13.013 23.8433L20.857 18.3843H9.568L11.158 8.89731H36.121L34.743 17.2713Z" fill="#D00000"/>
<path d="M32.743 15.2713L33.943 16.8713L34.586 16.3891L34.7165 15.5961L32.743 15.2713ZM25.535 20.6773L24.335 19.0773L21.7461 21.019L24.6406 22.4662L25.535 20.6773ZM29.987 24.5463L28.3338 25.6719L28.3419 25.6838L28.3502 25.6956L29.987 24.5463ZM27.231 40.8173L25.9279 39.3001L25.9265 39.3013L27.231 40.8173ZM8.098 43.7853L7.54471 45.7073L7.56186 45.7122L7.57909 45.7168L8.098 43.7853ZM2.586 41.3473L0.612665 41.0218L0.409383 42.2542L1.42759 42.9777L2.586 41.3473ZM4.282 31.0653L5.59255 29.5545L2.89077 27.2108L2.30867 30.7398L4.282 31.0653ZM18.91 33.8213L19.9943 35.5019L18.91 33.8213ZM19.334 28.4153L18.0675 29.9632L18.0843 29.977L18.1014 29.9903L19.334 28.4153ZM9.9 28.6273L7.92639 28.3035L7.31817 32.0107L10.7333 30.4454L9.9 28.6273ZM11.013 21.8433L9.87055 20.2017L9.17632 20.6849L9.03939 21.5195L11.013 21.8433ZM18.857 16.3843L19.9995 18.0259L25.232 14.3843H18.857V16.3843ZM7.568 16.3843L5.59551 16.0537L5.20491 18.3843H7.568V16.3843ZM9.158 6.89731V4.89731H7.4653L7.18551 6.56673L9.158 6.89731ZM34.121 6.89731L36.0945 7.22206L36.477 4.89731H34.121V6.89731ZM31.543 13.6713L24.335 19.0773L26.735 22.2773L33.943 16.8713L31.543 13.6713ZM24.6406 22.4662C26.1797 23.2357 27.3998 24.3 28.3338 25.6719L31.6402 23.4207C30.3129 21.4713 28.565 19.9562 26.4294 18.8885L24.6406 22.4662ZM28.3502 25.6956C29.2494 26.9763 29.736 28.5406 29.736 30.4823H33.736C33.736 27.8307 33.0566 25.4377 31.6238 23.3971L28.3502 25.6956ZM29.736 30.4823C29.736 34.2684 28.4463 37.1372 25.9279 39.3001L28.5341 42.3346C32.0224 39.3387 33.736 35.3176 33.736 30.4823H29.736ZM25.9265 39.3013C23.3171 41.5466 19.9047 42.7393 15.518 42.7393V46.7393C20.6713 46.7393 25.0676 45.3173 28.5355 42.3333L25.9265 39.3013ZM15.518 42.7393C13.1047 42.7393 10.8064 42.442 8.61691 41.8538L7.57909 45.7168C10.1243 46.4006 12.7726 46.7393 15.518 46.7393V42.7393ZM8.65129 41.8634C6.44319 41.2277 4.83828 40.4942 3.74441 39.717L1.42759 42.9777C3.01906 44.1085 5.08881 45.0003 7.54471 45.7073L8.65129 41.8634ZM4.55933 41.6728L6.25534 31.3908L2.30867 30.7398L0.612665 41.0218L4.55933 41.6728ZM2.97145 32.5761C6.28248 35.4483 10.2332 36.8813 14.723 36.8813V32.8813C11.1568 32.8813 8.14686 31.7703 5.59255 29.5545L2.97145 32.5761ZM14.723 36.8813C16.6895 36.8813 18.4916 36.4713 19.9943 35.5019L17.8257 32.1407C17.1377 32.5846 16.1485 32.8813 14.723 32.8813V36.8813ZM19.9943 35.5019C21.6625 34.4256 22.553 32.7846 22.553 30.8003H18.553C18.553 31.4307 18.3482 31.8037 17.8257 32.1407L19.9943 35.5019ZM22.553 30.8003C22.553 29.1756 21.8181 27.8197 20.5666 26.8403L18.1014 29.9903C18.4752 30.2829 18.553 30.517 18.553 30.8003H22.553ZM20.6005 26.8674C19.3228 25.8221 17.6434 25.4613 15.889 25.4613V29.4613C17.1733 29.4613 17.7905 29.7366 18.0675 29.9632L20.6005 26.8674ZM15.889 25.4613C13.3696 25.4613 11.0773 25.8876 9.06669 26.8092L10.7333 30.4454C12.1147 29.8123 13.8151 29.4613 15.889 29.4613V25.4613ZM11.8736 28.9511L12.9866 22.1671L9.03939 21.5195L7.92639 28.3035L11.8736 28.9511ZM12.1555 23.4849L19.9995 18.0259L17.7145 14.7427L9.87055 20.2017L12.1555 23.4849ZM18.857 14.3843H7.568V18.3843H18.857V14.3843ZM9.54049 16.7149L11.1305 7.2279L7.18551 6.56673L5.59551 16.0537L9.54049 16.7149ZM9.158 8.89731H34.121V4.89731H9.158V8.89731ZM32.1475 6.57257L30.7695 14.9466L34.7165 15.5961L36.0945 7.22206L32.1475 6.57257Z" fill="#FFEC00"/>
</svg>
