<svg width="45" height="74" viewBox="0 0 45 74" fill="none" xmlns="http://www.w3.org/2000/svg">
<path d="M27.705 49.3916H16.575L20.55 24.1636L12.706 27.1846L14.455 16.4256L23.783 12.2916H33.588L27.705 49.3916Z" fill="#B1B1B1"/>
<path d="M23.705 47.3916H12.575L16.55 22.1636L8.706 25.1846L10.455 14.4256L19.783 10.2916H29.588L23.705 47.3916Z" fill="#D00000"/>
<path d="M19.705 43.3916V45.3916H21.4128L21.6803 43.7048L19.705 43.3916ZM8.575 43.3916L6.59937 43.0803L6.2352 45.3916H8.575V43.3916ZM12.55 18.1636L14.5256 18.4749L15.065 15.0518L11.8312 16.2972L12.55 18.1636ZM4.706 21.1846L2.73191 20.8637L2.17274 24.3034L5.4248 23.051L4.706 21.1846ZM6.455 10.4256L5.64465 8.59712L4.65466 9.03586L4.48091 10.1047L6.455 10.4256ZM15.783 6.2916V4.2916H15.3597L14.9727 4.46312L15.783 6.2916ZM25.588 6.2916L27.5633 6.60483L27.9301 4.2916H25.588V6.2916ZM19.705 41.3916H8.575V45.3916H19.705V41.3916ZM10.5506 43.7029L14.5256 18.4749L10.5744 17.8523L6.59937 43.0803L10.5506 43.7029ZM11.8312 16.2972L3.9872 19.3182L5.4248 23.051L13.2688 20.03L11.8312 16.2972ZM6.68009 21.5055L8.42909 10.7465L4.48091 10.1047L2.73191 20.8637L6.68009 21.5055ZM7.26535 12.2541L16.5933 8.12008L14.9727 4.46312L5.64465 8.59712L7.26535 12.2541ZM15.783 8.2916H25.588V4.2916H15.783V8.2916ZM23.6127 5.97837L17.7297 43.0784L21.6803 43.7048L27.5633 6.60483L23.6127 5.97837Z" fill="#FFEC00"/>
</svg>
