<svg width="234" height="354" viewBox="0 0 234 354" fill="none" xmlns="http://www.w3.org/2000/svg">
<path d="M157.463 351.125L59.1055 9.25171L75.6061 4.50443L173.964 346.377L157.463 351.125Z" fill="#D17D1B"/>
<path d="M75.6451 4.53627C74.9736 2.17664 70.7225 1.33306 66.1617 2.65001C61.6009 3.96697 58.4595 6.93323 59.1335 9.27937C59.805 11.639 64.056 12.4827 68.6034 11.1632C73.1777 9.84875 76.3191 6.88241 75.6451 4.53627Z" fill="#D17D1B"/>
<path d="M70.121 33.8216C69.1906 34.0927 68.2157 33.4901 67.9303 32.4873L66.1097 26.1568C65.8244 25.1539 66.3377 24.1343 67.2681 23.8631C68.1985 23.592 69.1734 24.1945 69.4588 25.1974L71.2793 31.528C71.5647 32.5308 71.0488 33.564 70.121 33.8216Z" fill="#B06917"/>
<path d="M79.9588 68.013C79.0284 68.2841 78.0535 67.6815 77.7656 66.6921L75.9452 60.3616C75.6598 59.3588 76.173 58.3391 77.1034 58.068C78.0337 57.7969 79.0087 58.3995 79.2966 59.3888L81.1171 65.7193C81.4025 66.7222 80.8866 67.7553 79.9588 68.013Z" fill="#B06917"/>
<path d="M89.7968 102.205C88.8664 102.476 87.8915 101.873 87.6061 100.871L85.7855 94.5401C85.5001 93.5373 86.0135 92.5175 86.9439 92.2464C87.8742 91.9753 88.8492 92.5779 89.1371 93.5673L90.9577 99.8978C91.2405 100.914 90.7272 101.934 89.7968 102.205Z" fill="#B06917"/>
<path d="M99.6367 136.397C98.7063 136.668 97.7314 136.066 97.4435 135.076L95.6229 128.746C95.3375 127.743 95.8509 126.723 96.7812 126.452C97.7116 126.181 98.6865 126.783 98.9719 127.786L100.792 134.117C101.08 135.106 100.554 136.123 99.6367 136.397Z" fill="#B06917"/>
<path d="M109.478 170.576C108.548 170.847 107.573 170.244 107.288 169.241L105.467 162.911C105.182 161.908 105.695 160.888 106.625 160.617C107.556 160.346 108.531 160.949 108.819 161.938L110.639 168.269C110.909 169.282 110.393 170.316 109.478 170.576Z" fill="#B06917"/>
<path d="M119.299 204.764C118.368 205.035 117.393 204.433 117.108 203.43L115.287 197.1C115.002 196.097 115.515 195.077 116.446 194.806C117.376 194.535 118.351 195.137 118.636 196.14L120.457 202.471C120.742 203.474 120.227 204.507 119.299 204.764Z" fill="#B06917"/>
<path d="M129.139 238.957C128.208 239.228 127.233 238.625 126.948 237.623L125.127 231.292C124.842 230.289 125.355 229.27 126.286 228.999C127.216 228.727 128.191 229.33 128.479 230.319L130.299 236.65C130.582 237.666 130.069 238.686 129.139 238.957Z" fill="#B06917"/>
<path d="M138.978 273.149C138.048 273.42 137.073 272.817 136.788 271.815L134.967 265.484C134.682 264.481 135.195 263.462 136.125 263.19C137.056 262.919 138.031 263.522 138.316 264.525L140.137 270.855C140.422 271.858 139.909 272.878 138.978 273.149Z" fill="#B06917"/>
<path d="M148.818 307.327C147.888 307.598 146.913 306.996 146.625 306.006L144.805 299.676C144.519 298.673 145.032 297.653 145.963 297.382C146.893 297.111 147.868 297.714 148.156 298.703L149.977 305.034C150.262 306.036 149.746 307.07 148.818 307.327Z" fill="#B06917"/>
<path d="M158.656 341.519C157.726 341.79 156.751 341.188 156.463 340.198L154.642 333.868C154.357 332.865 154.87 331.845 155.801 331.574C156.731 331.303 157.706 331.906 157.994 332.895L159.814 339.225C160.086 340.226 159.571 341.259 158.656 341.519Z" fill="#B06917"/>
<path d="M83.9394 50.3839C83.009 50.655 82.0341 50.0524 81.7487 49.0495L79.9281 42.719C79.6427 41.7162 80.1561 40.6965 81.0864 40.4254C82.0168 40.1543 82.9918 40.7568 83.2771 41.7596L85.0975 48.0902C85.3829 49.0931 84.8697 50.1127 83.9394 50.3839Z" fill="#B06917"/>
<path d="M93.7771 84.5758C92.8467 84.847 91.8718 84.2444 91.5864 83.2416L89.766 76.911C89.4807 75.9082 89.9938 74.8885 90.9242 74.6174C91.8546 74.3463 92.8295 74.9488 93.1174 75.9382L94.938 82.2687C95.2208 83.2851 94.7075 84.3047 93.7771 84.5758Z" fill="#B06917"/>
<path d="M113.457 152.946C112.527 153.217 111.552 152.614 111.264 151.625L109.443 145.295C109.158 144.292 109.671 143.272 110.602 143.001C111.532 142.73 112.507 143.332 112.795 144.322L114.615 150.652C114.901 151.655 114.385 152.688 113.457 152.946Z" fill="#B06917"/>
<path d="M123.295 187.138C122.364 187.409 121.39 186.806 121.104 185.803L119.284 179.473C118.998 178.47 119.512 177.45 120.442 177.179C121.372 176.908 122.347 177.511 122.633 178.513L124.453 184.844C124.739 185.847 124.209 186.877 123.295 187.138Z" fill="#B06917"/>
<path d="M133.131 221.329C132.2 221.6 131.225 220.998 130.94 219.995L129.119 213.665C128.834 212.662 129.347 211.642 130.278 211.371C131.208 211.1 132.183 211.702 132.469 212.705L134.289 219.036C134.561 220.036 134.048 221.056 133.131 221.329Z" fill="#B06917"/>
<path d="M142.957 255.519C142.027 255.79 141.052 255.188 140.766 254.185L138.946 247.854C138.66 246.852 139.174 245.832 140.104 245.561C141.034 245.29 142.009 245.892 142.297 246.882L144.118 253.212C144.4 254.228 143.887 255.248 142.957 255.519Z" fill="#B06917"/>
<path d="M152.799 289.698C151.868 289.969 150.893 289.366 150.608 288.364L148.787 282.033C148.502 281.03 149.015 280.01 149.946 279.739C150.876 279.468 151.851 280.071 152.136 281.074L153.957 287.404C154.242 288.407 153.727 289.44 152.799 289.698Z" fill="#B06917"/>
<path d="M162.635 323.889C161.704 324.16 160.729 323.558 160.442 322.568L158.621 316.238C158.336 315.235 158.849 314.215 159.779 313.944C160.71 313.673 161.685 314.276 161.97 315.279L163.791 321.609C164.078 322.598 163.563 323.632 162.635 323.889Z" fill="#B06917"/>
</svg>
