<svg width="356" height="286" viewBox="0 0 356 286" fill="none" xmlns="http://www.w3.org/2000/svg">
<path d="M287.535 274.213L238.165 211.19L229.098 218.302L278.469 281.325C280.435 283.827 284.047 284.272 286.561 282.312C287.808 281.334 288.548 279.941 288.719 278.474C288.897 276.995 288.525 275.467 287.535 274.213Z" fill="#FCBD6B"/>
<path d="M238.459 213.267C239.158 212.726 239.315 211.719 238.786 210.995C234.094 204.458 236.051 202.258 230.476 195.133C224.553 187.584 221.995 189.598 216.072 182.05C210.149 174.502 212.726 172.483 206.815 164.941C200.892 157.393 198.322 159.4 192.411 151.858C186.488 144.31 189.065 142.291 183.148 134.73C177.225 127.182 174.667 129.196 168.744 121.648C162.821 114.1 165.398 112.08 159.487 104.539C153.564 96.9905 151.006 99.0043 145.083 91.4561C139.16 83.9079 141.737 81.8886 135.814 74.3404C129.897 66.7801 127.32 68.7995 121.409 61.2578C115.486 53.7096 118.063 51.6902 112.147 44.13C106.224 36.5818 103.654 38.5891 97.7427 31.0474C91.8263 23.4871 94.3966 21.4798 88.4802 13.9196C84.0297 8.23051 74.5108 0.495453 69.074 4.73954C64.3615 8.42469 68.8961 20.0874 73.3466 25.7765C79.263 33.3367 81.8399 31.3174 87.7564 38.8777C93.6793 46.4259 91.1024 48.4452 97.0188 56.0055C102.942 63.5537 105.512 61.5464 111.423 69.0881C117.346 76.6363 114.769 78.6557 120.692 86.2039C126.615 93.7521 129.185 91.7448 135.096 99.2864C141.019 106.835 138.442 108.854 144.353 116.396C150.276 123.944 152.835 121.93 158.757 129.478C164.68 137.026 162.104 139.046 168.02 146.606C173.943 154.154 176.501 152.14 182.424 159.689C188.347 167.237 185.77 169.256 191.681 176.798C197.598 184.358 200.162 182.332 206.085 189.88C212.008 197.429 209.431 199.448 215.342 206.99C220.912 214.096 223.522 212.735 228.744 218.842C229.317 219.512 230.327 219.607 231.026 219.065L238.459 213.267Z" fill="#401B17"/>
<path d="M225.597 206.403C224.932 205.558 223.703 205.407 222.859 206.073C222.015 206.738 221.863 207.967 222.529 208.811C223.194 209.655 224.423 209.807 225.267 209.141C226.111 208.476 226.263 207.247 225.597 206.403Z" fill="#FCBD6B"/>
<path d="M209.132 176.058C208.467 175.214 207.239 175.063 206.394 175.728C205.55 176.394 205.399 177.622 206.064 178.466C206.729 179.311 207.958 179.462 208.802 178.797C209.647 178.131 209.798 176.903 209.132 176.058Z" fill="#FCBD6B"/>
<path d="M183.609 152.811C182.944 151.967 181.715 151.816 180.871 152.481C180.026 153.147 179.875 154.375 180.541 155.219C181.206 156.064 182.434 156.215 183.279 155.55C184.123 154.884 184.268 153.668 183.609 152.811Z" fill="#FCBD6B"/>
<path d="M167.158 122.472C166.492 121.628 165.264 121.477 164.42 122.142C163.575 122.808 163.424 124.036 164.089 124.88C164.755 125.725 165.983 125.876 166.828 125.211C167.672 124.545 167.823 123.317 167.158 122.472Z" fill="#FCBD6B"/>
<path d="M141.632 99.2278C140.967 98.3834 139.739 98.2321 138.894 98.8976C138.05 99.563 137.899 100.791 138.564 101.636C139.229 102.48 140.458 102.631 141.302 101.966C142.147 101.301 142.291 100.084 141.632 99.2278Z" fill="#FCBD6B"/>
<path d="M125.17 68.8811C124.504 68.0367 123.276 67.8855 122.431 68.5509C121.587 69.2163 121.436 70.4448 122.101 71.2892C122.767 72.1335 123.995 72.2848 124.839 71.6194C125.684 70.9539 125.835 69.7255 125.17 68.8811Z" fill="#FCBD6B"/>
<path d="M99.6383 45.6485C98.9729 44.8041 97.7445 44.6528 96.9001 45.3183C96.0557 45.9837 95.9045 47.2121 96.5699 48.0565C97.2353 48.9009 98.4637 49.0521 99.3081 48.3867C100.152 47.7213 100.304 46.4928 99.6383 45.6485Z" fill="#FCBD6B"/>
<path d="M83.193 15.2967C82.5276 14.4523 81.2991 14.301 80.4548 14.9665C79.6104 15.6319 79.4591 16.8603 80.1246 17.7047C80.79 18.5491 82.0184 18.7003 82.8628 18.0349C83.7072 17.3695 83.8519 16.1531 83.193 15.2967Z" fill="#FCBD6B"/>
</svg>
