<svg width="180" height="353" viewBox="0 0 180 353" fill="none" xmlns="http://www.w3.org/2000/svg">
<path d="M2.31191 26.6651L41.0433 98.4717L51.3787 92.8964L12.6471 21.0898C11.1062 18.2424 7.5393 17.1689 4.69191 18.7098C3.27407 19.4725 2.28798 20.7573 1.84997 22.2019C1.42555 23.6447 1.54921 25.2473 2.31191 26.6651Z" fill="#FCBD6B"/>
<path d="M41.123 96.3427C40.3236 96.7711 40.0024 97.7567 40.4036 98.5598C43.9945 105.943 41.6496 107.816 46.0166 115.909C50.662 124.517 53.5872 122.938 58.2309 131.532C62.8745 140.127 59.9376 141.722 64.5812 150.316C69.2267 158.924 72.1519 157.345 76.7955 165.94C81.441 174.548 78.5022 176.129 83.1458 184.724C87.7913 193.332 90.7165 191.753 95.3601 200.348C100.006 208.956 97.0668 210.537 101.71 219.132C106.356 227.74 109.281 226.161 113.925 234.755C118.57 243.363 115.631 244.945 120.275 253.539C124.921 262.147 127.846 260.568 132.489 269.163C137.135 277.771 134.196 279.352 138.842 287.96C143.487 296.569 146.412 294.989 151.056 303.584C155.701 312.192 152.763 313.773 157.408 322.382C160.903 328.864 169.134 338.28 175.307 334.953C180.681 332.053 178.133 319.571 174.638 313.089C169.993 304.481 167.068 306.06 162.422 297.452C157.777 288.843 160.715 287.262 156.07 278.654C151.424 270.046 148.499 271.625 143.856 263.03C139.21 254.422 142.149 252.841 137.503 244.233C132.858 235.624 129.933 237.204 125.289 228.609C120.644 220.001 123.582 218.42 118.939 209.825C114.293 201.217 111.368 202.796 106.724 194.201C102.079 185.593 105.018 184.012 100.374 175.417C95.7285 166.809 92.8033 168.388 88.1597 159.794C83.5142 151.186 86.453 149.604 81.8094 141.01C77.1639 132.402 74.2387 133.981 69.5951 125.386C64.9514 116.792 67.8884 115.197 63.2447 106.602C58.876 98.4957 56.0143 99.4294 51.8185 92.379C51.3512 91.5989 50.3594 91.3339 49.5601 91.7623L41.123 96.3427Z" fill="#DFEDF0"/>
<path d="M52.8572 105.457C53.3778 106.423 54.5765 106.784 55.5431 106.264C56.5097 105.743 56.8708 104.544 56.3502 103.578C55.8295 102.611 54.6308 102.25 53.6642 102.771C52.6976 103.291 52.3365 104.49 52.8572 105.457Z" fill="#562520"/>
<path d="M64.156 138.774C64.6766 139.74 65.8753 140.101 66.8419 139.581C67.8085 139.06 68.1698 137.861 67.6491 136.895C67.1285 135.928 65.9298 135.567 64.9632 136.088C63.9966 136.608 63.6353 137.807 64.156 138.774Z" fill="#562520"/>
<path d="M85.7868 166.516C86.3075 167.482 87.5063 167.843 88.4729 167.323C89.4396 166.802 89.8006 165.603 89.28 164.637C88.7594 163.67 87.5607 163.309 86.594 163.83C85.6274 164.35 85.2662 165.549 85.7868 166.516Z" fill="#562520"/>
<path d="M97.1033 199.831C97.6239 200.797 98.8226 201.158 99.7892 200.638C100.756 200.117 101.117 198.918 100.596 197.952C100.076 196.985 98.8769 196.624 97.9103 197.145C96.9418 197.652 96.5826 198.864 97.1033 199.831Z" fill="#562520"/>
<path d="M118.736 227.573C119.257 228.539 120.455 228.9 121.422 228.38C122.389 227.859 122.75 226.66 122.229 225.694C121.708 224.727 120.51 224.366 119.543 224.887C118.575 225.394 118.215 226.606 118.736 227.573Z" fill="#562520"/>
<path d="M130.035 260.89C130.556 261.856 131.754 262.218 132.721 261.697C133.687 261.176 134.049 259.978 133.528 259.011C133.007 258.044 131.809 257.683 130.842 258.204C129.873 258.711 129.514 259.923 130.035 260.89Z" fill="#562520"/>
<path d="M151.67 288.631C152.19 289.598 153.389 289.959 154.356 289.438C155.322 288.918 155.683 287.719 155.163 286.752C154.642 285.786 153.443 285.424 152.477 285.945C151.508 286.452 151.149 287.664 151.67 288.631Z" fill="#562520"/>
<path d="M162.968 321.935C163.489 322.902 164.688 323.263 165.654 322.742C166.621 322.221 166.982 321.023 166.461 320.056C165.941 319.09 164.742 318.728 163.776 319.249C162.809 319.77 162.45 320.982 162.968 321.935Z" fill="#562520"/>
</svg>
