<svg width="272" height="297" viewBox="0 0 272 297" fill="none" xmlns="http://www.w3.org/2000/svg">
<path d="M46.1105 293.516L90.4419 226.849L80.8429 220.473L36.5117 287.139C34.7583 289.79 35.4711 293.36 38.1231 295.127C39.449 296.01 41.007 296.267 42.4476 295.972C43.9019 295.675 45.227 294.842 46.1105 293.516Z" fill="#FCBD6B"/>
<path d="M88.5621 227.773C89.2946 228.267 90.2943 228.088 90.8196 227.379C95.5584 220.871 98.2658 222.035 103.266 214.508C108.577 206.523 105.849 204.711 111.174 196.725C116.484 188.74 119.21 190.538 124.521 182.553C129.831 174.568 127.104 172.756 132.428 164.77C137.739 156.785 140.465 158.583 145.775 150.598C151.086 142.614 148.372 140.8 153.683 132.815C158.994 124.83 161.721 126.642 167.03 118.644C172.341 110.659 169.627 108.845 174.938 100.86C180.249 92.8751 182.974 94.6735 188.285 86.6886C193.596 78.7037 190.882 76.8899 196.193 68.9051C201.503 60.9202 204.229 62.7186 209.54 54.7337C214.851 46.7488 212.137 44.935 217.448 36.9501C222.758 28.9653 225.484 30.7636 230.795 22.7788C234.784 16.7616 239.159 5.29237 233.414 1.47299C228.431 -1.84208 218.785 6.13019 214.794 12.1338C209.483 20.1187 212.197 21.9325 206.888 29.931C201.577 37.9158 198.852 36.1175 193.541 44.1023C188.23 52.0872 190.944 53.901 185.633 61.8859C180.322 69.8708 177.597 68.0724 172.286 76.0572C166.975 84.0421 169.689 85.8559 164.378 93.8408C159.068 101.826 156.34 100.014 151.031 108.012C145.721 115.997 148.448 117.809 143.137 125.794C137.826 133.779 135.101 131.98 129.79 139.965C124.48 147.95 127.193 149.764 121.882 157.749C116.572 165.734 113.846 163.935 108.536 171.92C103.225 179.905 105.939 181.719 100.628 189.704C95.317 197.689 92.5896 195.877 87.2807 203.875C82.2807 211.402 84.4018 213.436 80.2274 220.323C79.7639 221.079 79.9973 222.071 80.7299 222.565L88.5621 227.773Z" fill="#401B17"/>
<path d="M91.0409 213.394C91.6371 212.495 91.3873 211.283 90.4885 210.687C89.5897 210.091 88.3782 210.341 87.7937 211.224C87.1975 212.123 87.4473 213.335 88.3325 213.933C89.2332 214.542 90.4448 214.293 91.0409 213.394Z" fill="#FCBD6B"/>
<path d="M114.684 188.24C115.28 187.341 115.031 186.13 114.145 185.532C113.247 184.936 112.035 185.185 111.451 186.069C110.854 186.967 111.104 188.179 111.989 188.777C112.876 189.389 114.088 189.139 114.684 188.24Z" fill="#FCBD6B"/>
<path d="M128.728 156.709C129.325 155.811 129.075 154.599 128.176 154.003C127.277 153.407 126.066 153.657 125.468 154.542C124.871 155.441 125.121 156.652 126.006 157.25C126.921 157.858 128.132 157.608 128.728 156.709Z" fill="#FCBD6B"/>
<path d="M152.376 131.555C152.972 130.656 152.722 129.445 151.837 128.847C150.938 128.25 149.726 128.5 149.142 129.384C148.546 130.282 148.796 131.494 149.681 132.092C150.568 132.704 151.779 132.454 152.376 131.555Z" fill="#FCBD6B"/>
<path d="M166.421 100.024C167.017 99.1256 166.767 97.914 165.884 97.3296C164.985 96.7334 163.773 96.9832 163.175 97.8684C162.579 98.7672 162.829 99.9788 163.714 100.577C164.613 101.173 165.824 100.923 166.421 100.024Z" fill="#FCBD6B"/>
<path d="M190.065 74.8705C190.661 73.9717 190.411 72.7601 189.526 72.1621C188.627 71.5659 187.416 71.8157 186.831 72.6991C186.235 73.5979 186.485 74.8094 187.37 75.4075C188.257 76.0191 189.469 75.7693 190.065 74.8705Z" fill="#FCBD6B"/>
<path d="M204.108 43.3402C204.704 42.4414 204.454 41.2299 203.569 40.6318C202.67 40.0356 201.459 40.2854 200.861 41.1707C200.265 42.0695 200.514 43.281 201.4 43.8791C202.3 44.4888 203.512 44.2391 204.108 43.3402Z" fill="#FCBD6B"/>
<path d="M227.754 18.1855C228.35 17.2867 228.1 16.0752 227.201 15.479C226.303 14.8828 225.091 15.1326 224.493 16.0178C223.897 16.9166 224.147 18.1282 225.032 18.7262C225.946 19.3341 227.158 19.0843 227.754 18.1855Z" fill="#FCBD6B"/>
</svg>
