<svg width="324" height="343" viewBox="0 0 324 343" fill="none" xmlns="http://www.w3.org/2000/svg">
<path d="M106.825 335.91L135.614 259.572L124.626 255.428L95.8366 331.766C94.6983 334.797 96.228 338.194 99.2588 339.332C100.765 339.902 102.381 339.803 103.759 339.186C105.126 338.56 106.255 337.415 106.825 335.91Z" fill="#FCBD6B"/>
<path d="M133.956 260.908C134.804 261.231 135.759 260.827 136.101 259.997C139.318 252.444 142.27 252.985 145.514 244.38C148.963 235.226 145.853 234.055 149.293 224.912C152.734 215.769 155.864 216.939 159.305 207.797C162.755 198.643 159.644 197.471 163.085 188.329C166.534 179.175 169.656 180.356 173.096 171.213C176.546 162.06 173.435 160.888 176.876 151.745C180.326 142.592 183.447 143.773 186.888 134.63C190.337 125.477 187.227 124.305 190.667 115.162C194.117 106.009 197.238 107.19 200.679 98.0469C204.129 88.8937 201.018 87.7218 204.459 78.5789C207.908 69.4257 211.03 70.6066 214.479 61.4534C217.929 52.3002 214.818 51.1283 218.259 41.9854C221.709 32.8322 224.83 34.0131 228.28 24.8598C230.88 17.9698 232.587 5.58005 226.026 3.10359C220.313 0.949425 212.563 11.0611 209.963 17.9512C206.513 27.1044 209.624 28.2763 206.174 37.4295C202.724 46.5827 199.603 45.4019 196.154 54.5551C192.704 63.7084 195.815 64.8801 192.374 74.023C188.924 83.1762 185.803 81.9955 182.353 91.1487C178.903 100.302 182.014 101.474 178.573 110.617C175.124 119.77 172.003 118.589 168.562 127.732C165.112 136.885 168.223 138.057 164.782 147.2C161.333 156.353 158.211 155.172 154.771 164.315C151.321 173.468 154.432 174.64 150.991 183.783C147.541 192.936 144.42 191.755 140.979 200.898C137.53 210.052 140.64 211.223 137.2 220.366C133.759 229.509 130.629 228.339 127.188 237.482C123.935 246.097 126.517 247.644 123.948 255.436C123.666 256.3 124.117 257.223 124.964 257.545L133.956 260.908Z" fill="#DFEDF0"/>
<path d="M133.136 246.073C133.525 245.046 133.011 243.904 131.984 243.516C130.957 243.128 129.815 243.642 129.427 244.669C129.039 245.696 129.553 246.838 130.58 247.226C131.607 247.614 132.748 247.1 133.136 246.073Z" fill="#562520"/>
<path d="M150.871 215.689C151.259 214.662 150.745 213.52 149.718 213.132C148.691 212.744 147.549 213.258 147.161 214.285C146.773 215.312 147.287 216.453 148.314 216.842C149.341 217.23 150.483 216.716 150.871 215.689Z" fill="#562520"/>
<path d="M157.619 181.164C158.007 180.137 157.493 178.995 156.466 178.607C155.439 178.219 154.297 178.733 153.909 179.76C153.521 180.787 154.035 181.929 155.062 182.317C156.089 182.705 157.231 182.191 157.619 181.164Z" fill="#562520"/>
<path d="M175.342 150.768C175.73 149.741 175.216 148.6 174.189 148.212C173.162 147.824 172.02 148.338 171.632 149.365C171.244 150.392 171.758 151.533 172.785 151.921C173.803 152.32 174.954 151.796 175.342 150.768Z" fill="#562520"/>
<path d="M182.09 116.242C182.478 115.215 181.964 114.073 180.937 113.685C179.91 113.297 178.768 113.811 178.38 114.838C177.992 115.865 178.506 117.007 179.533 117.395C180.551 117.793 181.702 117.269 182.09 116.242Z" fill="#562520"/>
<path d="M199.824 85.8583C200.212 84.8313 199.698 83.6896 198.671 83.3016C197.644 82.9136 196.502 83.4274 196.114 84.4545C195.726 85.4815 196.24 86.6231 197.267 87.0112C198.285 87.4095 199.436 86.8854 199.824 85.8583Z" fill="#562520"/>
<path d="M206.568 51.3301C206.956 50.3031 206.442 49.1614 205.415 48.7734C204.388 48.3854 203.247 48.8992 202.859 49.9263C202.471 50.9533 202.984 52.0949 204.011 52.483C205.029 52.8813 206.18 52.3572 206.568 51.3301Z" fill="#562520"/>
<path d="M224.295 20.9559C224.683 19.9288 224.169 18.7872 223.142 18.3991C222.115 18.0111 220.973 18.5249 220.585 19.552C220.197 20.579 220.711 21.7207 221.738 22.1087C222.765 22.4967 223.916 21.9726 224.295 20.9559Z" fill="#562520"/>
</svg>
