<svg width="340" height="201" viewBox="0 0 340 201" fill="none" xmlns="http://www.w3.org/2000/svg">
<path d="M327.288 15.2875L23.1055 199.744L14.2026 185.063L318.385 0.606056L327.288 15.2875Z" fill="#D17D1B"/>
<path d="M14.2223 185.018C12.1209 186.284 12.4201 190.607 14.8855 194.664C17.3509 198.721 21.0363 200.976 23.124 199.711C25.2255 198.445 24.9264 194.121 22.4621 190.078C19.9956 186.008 16.3101 183.753 14.2223 185.018Z" fill="#D17D1B"/>
<path d="M43.9337 182.679C44.439 183.506 44.1128 184.605 43.2196 185.143L37.5868 188.558C36.6937 189.096 35.5752 188.867 35.0699 188.041C34.5646 187.214 34.8908 186.115 35.7839 185.577L41.4168 182.162C42.3099 181.624 43.4421 181.851 43.9337 182.679Z" fill="#B06917"/>
<path d="M74.3553 164.231C74.8606 165.058 74.5344 166.157 73.6549 166.694L68.0221 170.108C67.129 170.647 66.0105 170.418 65.5052 169.591C64.9999 168.765 65.3262 167.666 66.2056 167.129L71.8384 163.714C72.7315 163.176 73.8637 163.403 74.3553 164.231Z" fill="#B06917"/>
<path d="M104.777 145.782C105.283 146.609 104.957 147.707 104.063 148.245L98.4307 151.66C97.5376 152.198 96.419 151.97 95.9137 151.143C95.4084 150.316 95.7346 149.218 96.614 148.681L102.247 145.266C103.154 144.727 104.272 144.955 104.777 145.782Z" fill="#B06917"/>
<path d="M135.199 127.331C135.704 128.158 135.378 129.256 134.499 129.793L128.866 133.208C127.973 133.746 126.854 133.518 126.349 132.691C125.844 131.864 126.17 130.765 127.063 130.227L132.696 126.812C133.575 126.276 134.695 126.517 135.199 127.331Z" fill="#B06917"/>
<path d="M165.608 108.882C166.113 109.708 165.787 110.807 164.894 111.345L159.261 114.76C158.368 115.298 157.249 115.07 156.744 114.243C156.238 113.416 156.565 112.317 157.444 111.78L163.077 108.365C163.985 107.84 165.117 108.067 165.608 108.882Z" fill="#B06917"/>
<path d="M196.031 90.4498C196.537 91.2767 196.21 92.3754 195.317 92.9134L189.685 96.3283C188.791 96.8664 187.673 96.638 187.168 95.8111C186.662 94.9842 186.989 93.8855 187.882 93.3474L193.514 89.9325C194.408 89.3945 195.54 89.6218 196.031 90.4498Z" fill="#B06917"/>
<path d="M226.453 71.9986C226.959 72.8255 226.632 73.9242 225.739 74.4622L220.106 77.8772C219.213 78.4152 218.095 78.1868 217.589 77.3599C217.084 76.533 217.41 75.4343 218.29 74.8974L223.923 71.4826C224.829 70.9435 225.948 71.1717 226.453 71.9986Z" fill="#B06917"/>
<path d="M256.875 53.5485C257.38 54.3754 257.054 55.4741 256.161 56.0122L250.528 59.4269C249.635 59.965 248.517 59.7367 248.011 58.9098C247.506 58.083 247.832 56.9842 248.725 56.4462L254.358 53.0313C255.251 52.4932 256.37 52.7216 256.875 53.5485Z" fill="#B06917"/>
<path d="M287.283 35.1014C287.788 35.9283 287.462 37.027 286.583 37.564L280.95 40.9789C280.057 41.5169 278.938 41.2885 278.433 40.4616C277.928 39.6347 278.254 38.536 279.133 37.9991L284.766 34.5842C285.659 34.0461 286.791 34.2734 287.283 35.1014Z" fill="#B06917"/>
<path d="M317.705 16.6522C318.21 17.4791 317.884 18.5778 317.005 19.1147L311.372 22.5297C310.479 23.0677 309.36 22.8393 308.855 22.0124C308.349 21.1855 308.676 20.0868 309.555 19.5499L315.188 16.1351C316.082 15.6107 317.214 15.8379 317.705 16.6522Z" fill="#B06917"/>
<path d="M56.2989 165.005C56.8042 165.832 56.478 166.931 55.5849 167.469L49.9521 170.884C49.059 171.422 47.9405 171.193 47.4352 170.367C46.9299 169.54 47.256 168.441 48.1491 167.903L53.782 164.488C54.6751 163.95 55.7936 164.178 56.2989 165.005Z" fill="#B06917"/>
<path d="M86.7208 146.556C87.2261 147.383 86.8999 148.482 86.0068 149.02L80.3739 152.434C79.4808 152.973 78.3623 152.744 77.857 151.917C77.3517 151.091 77.678 149.992 78.5574 149.455L84.1902 146.04C85.097 145.501 86.2155 145.729 86.7208 146.556Z" fill="#B06917"/>
<path d="M147.551 109.659C148.056 110.485 147.73 111.584 146.85 112.121L141.217 115.536C140.324 116.074 139.206 115.846 138.701 115.019C138.195 114.192 138.521 113.093 139.401 112.556L145.034 109.141C145.927 108.603 147.059 108.831 147.551 109.659Z" fill="#B06917"/>
<path d="M177.973 91.2103C178.478 92.0372 178.152 93.1359 177.259 93.6739L171.626 97.0888C170.733 97.6269 169.614 97.3985 169.109 96.5716C168.604 95.7447 168.93 94.646 169.823 94.1079L175.456 90.693C176.349 90.155 177.482 90.396 177.973 91.2103Z" fill="#B06917"/>
<path d="M208.395 72.762C208.9 73.5889 208.574 74.6876 207.681 75.2257L202.048 78.6406C201.155 79.1786 200.036 78.9502 199.531 78.1233C199.026 77.2964 199.352 76.1977 200.245 75.6597L205.878 72.2448C206.772 71.7204 207.89 71.9488 208.395 72.762Z" fill="#B06917"/>
<path d="M238.818 54.3255C239.324 55.1524 238.998 56.2511 238.104 56.7891L232.472 60.2041C231.579 60.7421 230.46 60.5137 229.955 59.6868C229.449 58.8599 229.776 57.7612 230.655 57.2243L236.288 53.8095C237.195 53.2704 238.313 53.4986 238.818 54.3255Z" fill="#B06917"/>
<path d="M269.227 35.8765C269.732 36.7034 269.406 37.8021 268.513 38.3402L262.88 41.7551C261.987 42.2931 260.868 42.0647 260.363 41.2378C259.858 40.4109 260.184 39.3122 261.077 38.7742L266.71 35.3593C267.603 34.8212 268.735 35.0485 269.227 35.8765Z" fill="#B06917"/>
<path d="M299.648 17.4293C300.154 18.2562 299.827 19.3549 298.948 19.8918L293.315 23.3068C292.422 23.8448 291.303 23.6164 290.798 22.7895C290.293 21.9626 290.619 20.8639 291.512 20.3259L297.145 16.911C298.024 16.374 299.157 16.6013 299.648 17.4293Z" fill="#B06917"/>
</svg>
