<svg width="371" height="299" viewBox="0 0 371 299" fill="none" xmlns="http://www.w3.org/2000/svg">
<path d="M68.7651 285.102L287.074 4.224L300.631 14.7608L82.3218 295.639L68.7651 285.102Z" fill="#D17D1B"/>
<path d="M300.626 14.8104C302.138 12.8777 300.315 8.94565 296.564 6.03607C292.813 3.12649 288.565 2.33553 287.067 4.26228C285.555 6.19492 287.378 10.127 291.123 13.0242C294.88 15.9462 299.128 16.7371 300.626 14.8104Z" fill="#D17D1B"/>
<path d="M273.709 27.599C272.942 27.0069 272.854 25.8641 273.496 25.0427L277.539 19.8422C278.182 19.0209 279.308 18.835 280.075 19.4271C280.842 20.0191 280.93 21.1619 280.287 21.9833L276.245 27.1838C275.602 28.0052 274.464 28.1969 273.709 27.599Z" fill="#B06917"/>
<path d="M251.875 55.6903C251.108 55.0983 251.02 53.9555 251.65 53.14L255.693 47.9397C256.335 47.1183 257.462 46.9323 258.229 47.5243C258.996 48.1164 259.083 49.2592 258.454 50.0747L254.411 55.2752C253.768 56.0965 252.63 56.2883 251.875 55.6903Z" fill="#B06917"/>
<path d="M230.043 83.783C229.276 83.1909 229.188 82.0482 229.83 81.2268L233.873 76.0263C234.515 75.2049 235.642 75.019 236.409 75.6111C237.176 76.2032 237.264 77.3459 236.634 78.1614L232.591 83.3619C231.936 84.1892 230.81 84.3751 230.043 83.783Z" fill="#B06917"/>
<path d="M208.211 111.877C207.444 111.285 207.356 110.142 207.986 109.327L212.029 104.126C212.671 103.305 213.798 103.119 214.565 103.711C215.332 104.303 215.42 105.446 214.777 106.267L210.734 111.468C210.104 112.283 208.972 112.457 208.211 111.877Z" fill="#B06917"/>
<path d="M186.39 139.965C185.623 139.372 185.536 138.23 186.178 137.408L190.221 132.208C190.863 131.387 191.99 131.201 192.757 131.793C193.524 132.385 193.611 133.527 192.981 134.343L188.939 139.543C188.278 140.358 187.139 140.55 186.39 139.965Z" fill="#B06917"/>
<path d="M164.549 168.041C163.781 167.449 163.694 166.306 164.336 165.485L168.379 160.284C169.021 159.463 170.148 159.277 170.915 159.869C171.682 160.461 171.77 161.604 171.127 162.425L167.084 167.626C166.442 168.447 165.303 168.639 164.549 168.041Z" fill="#B06917"/>
<path d="M142.717 196.136C141.949 195.543 141.862 194.401 142.504 193.579L146.547 188.379C147.189 187.557 148.316 187.372 149.083 187.964C149.85 188.556 149.938 189.698 149.308 190.514L145.265 195.714C144.61 196.542 143.484 196.728 142.717 196.136Z" fill="#B06917"/>
<path d="M120.883 224.229C120.115 223.637 120.028 222.494 120.67 221.673L124.713 216.472C125.355 215.651 126.482 215.465 127.249 216.057C128.016 216.649 128.103 217.792 127.461 218.613L123.418 223.814C122.776 224.635 121.65 224.821 120.883 224.229Z" fill="#B06917"/>
<path d="M99.0625 252.314C98.2954 251.722 98.2079 250.58 98.8377 249.764L102.881 244.564C103.523 243.742 104.649 243.556 105.416 244.148C106.184 244.741 106.271 245.883 105.641 246.699L101.598 251.899C100.956 252.721 99.8173 252.912 99.0625 252.314Z" fill="#B06917"/>
<path d="M77.2285 280.407C76.4614 279.815 76.374 278.672 77.0038 277.857L81.0467 272.656C81.689 271.835 82.8154 271.649 83.5825 272.241C84.3497 272.833 84.4371 273.976 83.8073 274.791L79.7643 279.992C79.1162 280.801 77.9774 280.993 77.2285 280.407Z" fill="#B06917"/>
<path d="M268.467 48.5224C267.699 47.9304 267.612 46.7876 268.254 45.9662L272.297 40.7657C272.939 39.9443 274.066 39.7585 274.833 40.3505C275.6 40.9426 275.688 42.0854 275.045 42.9067L271.002 48.1071C270.36 48.9285 269.234 49.1145 268.467 48.5224Z" fill="#B06917"/>
<path d="M246.633 76.6148C245.865 76.0227 245.778 74.8799 246.42 74.0586L250.463 68.8582C251.105 68.0368 252.232 67.8508 252.999 68.4429C253.766 69.0349 253.853 70.1777 253.224 70.9932L249.181 76.1937C248.526 77.021 247.4 77.2069 246.633 76.6148Z" fill="#B06917"/>
<path d="M202.979 132.794C202.211 132.202 202.124 131.059 202.754 130.244L206.797 125.043C207.439 124.222 208.565 124.036 209.332 124.628C210.1 125.22 210.187 126.363 209.557 127.178L205.514 132.379C204.872 133.2 203.733 133.392 202.979 132.794Z" fill="#B06917"/>
<path d="M181.146 160.885C180.379 160.293 180.292 159.151 180.934 158.329L184.977 153.129C185.619 152.307 186.745 152.121 187.513 152.713C188.28 153.306 188.367 154.448 187.725 155.27L183.682 160.47C183.04 161.292 181.895 161.471 181.146 160.885Z" fill="#B06917"/>
<path d="M159.312 188.977C158.545 188.385 158.458 187.242 159.1 186.421L163.143 181.22C163.785 180.399 164.911 180.213 165.679 180.805C166.446 181.397 166.533 182.54 165.891 183.361L161.848 188.562C161.2 189.371 160.074 189.557 159.312 188.977Z" fill="#B06917"/>
<path d="M137.472 217.058C136.705 216.466 136.618 215.323 137.26 214.502L141.303 209.301C141.945 208.48 143.072 208.294 143.839 208.886C144.606 209.478 144.693 210.621 144.064 211.437L140.021 216.637C139.366 217.464 138.24 217.65 137.472 217.058Z" fill="#B06917"/>
<path d="M115.652 245.146C114.885 244.553 114.797 243.411 115.44 242.589L119.483 237.389C120.125 236.567 121.251 236.382 122.018 236.974C122.786 237.566 122.873 238.708 122.231 239.53L118.188 244.73C117.546 245.552 116.407 245.743 115.652 245.146Z" fill="#B06917"/>
<path d="M93.8184 273.236C93.0512 272.644 92.9638 271.501 93.5936 270.686L97.6366 265.485C98.2788 264.664 99.4052 264.478 100.172 265.07C100.94 265.662 101.027 266.805 100.385 267.626L96.3418 272.827C95.7119 273.642 94.5732 273.834 93.8184 273.236Z" fill="#B06917"/>
</svg>
