<svg width="346" height="204" viewBox="0 0 346 204" fill="none" xmlns="http://www.w3.org/2000/svg">
<path d="M27.994 11.4955L94.5167 56.0379L100.922 46.4585L34.399 1.91613C31.7519 0.150338 28.1806 0.850757 26.4013 3.49538C25.5197 4.81218 25.2499 6.36609 25.5433 7.81374C25.8342 9.27488 26.6637 10.6114 27.994 11.4955Z" fill="#FCBD6B"/>
<path d="M93.5927 54.1548C93.0966 54.8868 93.2615 55.8928 93.9885 56.4159C100.481 61.1701 99.3056 63.8691 106.82 68.9074C114.797 74.2391 116.602 71.5295 124.579 76.8612C132.556 82.193 130.735 84.9136 138.698 90.2429C146.675 95.5746 148.493 92.8675 156.457 98.1968C164.433 103.529 162.612 106.249 170.587 111.594C178.564 116.926 180.369 114.216 188.345 119.548C196.322 124.88 194.501 127.6 202.465 132.93C210.441 138.262 212.246 135.552 220.223 140.884C228.2 146.215 226.379 148.936 234.356 154.268C242.33 159.613 244.151 156.892 252.115 162.222C260.091 167.553 258.27 170.274 266.245 175.619C274.221 180.951 276.04 178.244 284.003 183.573C291.978 188.918 290.159 191.626 298.133 196.971C304.133 200.994 315.585 205.384 319.432 199.66C322.765 194.692 314.828 185.018 308.829 180.995C300.854 175.65 299.033 178.371 291.059 173.025C283.082 167.694 284.903 164.973 276.929 159.628C268.952 154.296 267.134 157.003 259.17 151.674C251.193 146.342 253.014 143.621 245.038 138.29C237.061 132.958 235.242 135.665 227.279 130.336C219.302 125.004 221.123 122.283 213.16 116.954C205.183 111.622 203.378 114.332 195.401 109C187.424 103.669 189.246 100.948 181.271 95.6026C173.294 90.2709 171.489 92.9807 163.512 87.6489C155.536 82.3172 157.357 79.5965 149.393 74.2672C141.419 68.922 139.612 71.6451 131.635 66.3134C123.658 60.9816 125.479 58.261 117.516 52.9317C110.012 47.9094 107.955 50.0153 101.092 45.8349C100.339 45.3768 99.3504 45.6006 98.8543 46.3326L93.5927 54.1548Z" fill="#401B17"/>
<path d="M107.951 56.6789C108.846 57.2745 110.06 57.0362 110.656 56.1411C111.252 55.2461 111.013 54.0316 110.118 53.436C109.223 52.8404 108.009 53.0788 107.413 53.9738C106.817 54.8688 107.056 56.0834 107.951 56.6789Z" fill="#FCBD6B"/>
<path d="M133.037 80.3978C133.932 80.9934 135.146 80.755 135.742 79.86C136.337 78.965 136.099 77.7504 135.204 77.1549C134.309 76.5593 133.094 76.7976 132.499 77.6927C131.903 78.5877 132.142 79.8023 133.037 80.3978Z" fill="#FCBD6B"/>
<path d="M164.523 94.5539C165.418 95.1495 166.633 94.9112 167.228 94.0161C167.824 93.1211 167.585 91.9066 166.69 91.311C165.795 90.7154 164.581 90.9538 163.985 91.8488C163.39 92.7438 163.63 93.9449 164.523 94.5539Z" fill="#FCBD6B"/>
<path d="M189.595 118.271C190.49 118.867 191.705 118.629 192.301 117.734C192.896 116.839 192.658 115.624 191.763 115.028C190.868 114.433 189.653 114.671 189.058 115.566C188.462 116.461 188.7 117.676 189.595 118.271Z" fill="#FCBD6B"/>
<path d="M221.084 132.425C221.979 133.02 223.193 132.782 223.789 131.887C224.384 130.992 224.146 129.777 223.251 129.182C222.356 128.586 221.141 128.825 220.546 129.72C219.95 130.615 220.191 131.816 221.084 132.425Z" fill="#FCBD6B"/>
<path d="M246.17 156.146C247.065 156.742 248.279 156.503 248.875 155.608C249.47 154.713 249.232 153.499 248.337 152.903C247.442 152.308 246.227 152.546 245.632 153.441C245.036 154.336 245.274 155.551 246.17 156.146Z" fill="#FCBD6B"/>
<path d="M277.66 170.286C278.555 170.882 279.769 170.643 280.365 169.748C280.96 168.853 280.722 167.639 279.827 167.043C278.932 166.448 277.718 166.686 277.122 167.581C276.526 168.476 276.765 169.69 277.66 170.286Z" fill="#FCBD6B"/>
<path d="M302.728 194.018C303.623 194.613 304.838 194.375 305.433 193.48C306.029 192.585 305.79 191.37 304.895 190.775C304 190.179 302.786 190.418 302.19 191.313C301.595 192.208 301.836 193.409 302.728 194.018Z" fill="#FCBD6B"/>
</svg>
