<svg width="324" height="343" viewBox="0 0 324 343" fill="none" xmlns="http://www.w3.org/2000/svg">
<path d="M106.317 336.161L135.106 259.823L124.118 255.679L95.3288 332.017C94.1905 335.048 95.7201 338.445 98.751 339.583C100.257 340.153 101.873 340.054 103.251 339.437C104.618 338.811 105.747 337.666 106.317 336.161Z" fill="#FCBD6B"/>
<path d="M133.448 261.159C134.296 261.482 135.251 261.078 135.594 260.248C138.81 252.694 141.762 253.236 145.006 244.631C148.456 235.477 145.345 234.306 148.786 225.163C152.226 216.02 155.356 217.19 158.797 208.048C162.247 198.894 159.136 197.722 162.577 188.58C166.027 179.426 169.148 180.607 172.589 171.464C176.038 162.311 172.927 161.139 176.368 151.996C179.818 142.843 182.939 144.024 186.38 134.881C189.83 125.728 186.719 124.556 190.16 115.413C193.609 106.26 196.73 107.441 200.171 98.2979C203.621 89.1447 200.51 87.9728 203.951 78.8299C207.401 69.6767 210.522 70.8576 213.972 61.7044C217.421 52.5511 214.31 51.3793 217.751 42.2364C221.201 33.0832 224.322 34.264 227.772 25.1108C230.372 18.2207 232.079 5.83103 225.518 3.35457C219.805 1.2004 212.055 11.3121 209.455 18.2022C206.005 27.3554 209.116 28.5272 205.666 37.6805C202.217 46.8337 199.096 45.6529 195.646 54.8061C192.196 63.9593 195.307 65.1311 191.866 74.274C188.416 83.4272 185.295 82.2464 181.845 91.3997C178.396 100.553 181.506 101.725 178.066 110.868C174.616 120.021 171.495 118.84 168.054 127.983C164.604 137.136 167.715 138.308 164.274 147.451C160.825 156.604 157.704 155.423 154.263 164.566C150.813 173.719 153.924 174.891 150.483 184.034C147.033 193.187 143.912 192.006 140.471 201.149C137.022 210.302 140.133 211.474 136.692 220.617C133.251 229.76 130.121 228.59 126.68 237.732C123.428 246.348 126.01 247.895 123.441 255.687C123.158 256.551 123.609 257.474 124.457 257.796L133.448 261.159Z" fill="#DFEDF0"/>
<path d="M132.629 246.324C133.017 245.297 132.503 244.155 131.476 243.767C130.449 243.379 129.307 243.893 128.919 244.92C128.531 245.947 129.045 247.089 130.072 247.477C131.099 247.865 132.241 247.351 132.629 246.324Z" fill="#562520"/>
<path d="M150.363 215.94C150.751 214.913 150.237 213.771 149.21 213.383C148.183 212.995 147.041 213.509 146.653 214.536C146.265 215.563 146.779 216.704 147.806 217.092C148.833 217.481 149.975 216.967 150.363 215.94Z" fill="#562520"/>
<path d="M157.111 181.415C157.499 180.388 156.985 179.246 155.958 178.858C154.931 178.47 153.79 178.984 153.401 180.011C153.013 181.038 153.527 182.18 154.554 182.568C155.581 182.956 156.723 182.442 157.111 181.415Z" fill="#562520"/>
<path d="M174.834 151.019C175.222 149.992 174.708 148.851 173.681 148.463C172.654 148.075 171.512 148.589 171.124 149.616C170.736 150.643 171.25 151.784 172.277 152.172C173.295 152.571 174.446 152.047 174.834 151.019Z" fill="#562520"/>
<path d="M181.582 116.493C181.97 115.466 181.456 114.324 180.429 113.936C179.402 113.548 178.26 114.062 177.872 115.089C177.484 116.116 177.998 117.258 179.025 117.646C180.043 118.044 181.194 117.52 181.582 116.493Z" fill="#562520"/>
<path d="M199.316 86.1093C199.704 85.0822 199.19 83.9406 198.163 83.5526C197.136 83.1646 195.995 83.6784 195.607 84.7055C195.219 85.7325 195.732 86.8741 196.759 87.2621C197.778 87.6605 198.928 87.1364 199.316 86.1093Z" fill="#562520"/>
<path d="M206.06 51.5811C206.448 50.554 205.935 49.4124 204.907 49.0244C203.88 48.6364 202.739 49.1502 202.351 50.1773C201.963 51.2043 202.477 52.3459 203.504 52.7339C204.522 53.1323 205.672 52.6082 206.06 51.5811Z" fill="#562520"/>
<path d="M223.787 21.2068C224.175 20.1798 223.661 19.0382 222.634 18.6501C221.607 18.2621 220.465 18.7759 220.077 19.803C219.689 20.83 220.203 21.9716 221.23 22.3597C222.257 22.7477 223.408 22.2236 223.787 21.2068Z" fill="#562520"/>
</svg>
