<svg width="231" height="363" viewBox="0 0 231 363" fill="none" xmlns="http://www.w3.org/2000/svg">
<path d="M227.691 313.795L177.176 249.729L167.955 257.001L218.47 321.067C220.479 323.606 224.177 324.05 226.717 322.042C227.982 321.046 228.732 319.611 228.915 318.112C229.085 316.618 228.687 315.061 227.691 313.795Z" fill="#FCBD6B"/>
<path d="M177.463 251.84C178.177 251.28 178.324 250.254 177.79 249.532C172.982 242.878 174.969 240.629 169.274 233.409C163.216 225.729 160.607 227.788 154.553 220.121C148.499 212.454 151.117 210.378 145.063 202.711C139.005 195.031 136.395 197.09 130.341 189.424C124.283 181.744 126.906 179.68 120.852 172.013C114.794 164.333 112.184 166.393 106.13 158.726C100.072 151.046 102.695 148.982 96.6408 141.316C90.5827 133.636 87.973 135.695 81.919 128.028C75.8609 120.348 78.4836 118.285 72.4296 110.618C66.3715 102.938 63.7618 104.997 57.7079 97.3305C51.6497 89.6506 54.2724 87.5871 48.2142 79.9072C42.1561 72.2273 39.5465 74.2866 33.4925 66.6197C27.4343 58.9398 30.057 56.8763 23.9988 49.1964C19.4403 43.4124 9.71067 35.5541 4.20255 39.8948C-0.591906 43.6758 4.0673 55.533 8.62581 61.3169C14.684 68.9969 17.2936 66.9376 23.3518 74.6175C29.4099 82.2974 26.7874 84.3608 32.8455 92.0407C38.9037 99.7206 41.5132 97.6614 47.5671 105.328C53.6253 113.008 51.0028 115.072 57.0609 122.752C63.1191 130.431 65.7286 128.372 71.7825 136.039C77.8407 143.719 75.2181 145.782 81.2721 153.449C87.3303 161.129 89.9399 159.07 95.9939 166.737C102.052 174.417 99.4293 176.48 105.483 184.147C111.541 191.827 114.151 189.768 120.205 197.434C126.263 205.114 123.641 207.178 129.695 214.845C135.753 222.525 138.362 220.465 144.416 228.132C150.47 235.799 147.852 237.876 153.906 245.542C159.605 252.776 162.263 251.363 167.61 257.586C168.205 258.274 169.227 258.364 169.941 257.805L177.463 251.84Z" fill="#DFEDF0"/>
<path d="M164.336 244.883C163.657 244.02 162.414 243.871 161.551 244.55C160.689 245.229 160.539 246.472 161.219 247.335C161.898 248.197 163.141 248.347 164.004 247.667C164.866 246.988 165.015 245.745 164.336 244.883Z" fill="#562520"/>
<path d="M147.469 214.008C146.79 213.146 145.547 212.996 144.684 213.676C143.822 214.355 143.672 215.598 144.351 216.46C145.031 217.323 146.274 217.472 147.136 216.793C147.999 216.114 148.148 214.871 147.469 214.008Z" fill="#562520"/>
<path d="M121.385 190.405C120.706 189.542 119.463 189.393 118.6 190.072C117.737 190.751 117.588 191.994 118.267 192.857C118.947 193.72 120.19 193.869 121.052 193.19C121.915 192.51 122.064 191.267 121.385 190.405Z" fill="#562520"/>
<path d="M104.502 159.535C103.823 158.673 102.58 158.523 101.717 159.203C100.855 159.882 100.705 161.125 101.385 161.987C102.064 162.85 103.307 162.999 104.17 162.32C105.036 161.654 105.181 160.398 104.502 159.535Z" fill="#562520"/>
<path d="M78.4162 135.932C77.7369 135.069 76.4939 134.92 75.6314 135.599C74.7688 136.279 74.6195 137.522 75.2988 138.384C75.9781 139.247 77.221 139.396 78.0836 138.717C78.9503 138.051 79.0955 136.795 78.4162 135.932Z" fill="#562520"/>
<path d="M61.5509 105.057C60.8717 104.195 59.6287 104.046 58.7661 104.725C57.9036 105.404 57.7543 106.647 58.4336 107.51C59.1129 108.372 60.3558 108.522 61.2184 107.842C62.0851 107.176 62.2302 105.92 61.5509 105.057Z" fill="#562520"/>
<path d="M35.4611 81.4553C34.7818 80.5927 33.5389 80.4434 32.6763 81.1227C31.8137 81.8019 31.6645 83.0449 32.3437 83.9075C33.023 84.77 34.266 84.9193 35.1285 84.2401C35.9953 83.5738 36.1404 82.3178 35.4611 81.4553Z" fill="#562520"/>
<path d="M18.5978 50.5937C17.9185 49.7311 16.6756 49.5818 15.813 50.2611C14.9505 50.9404 14.8012 52.1833 15.4804 53.0459C16.1597 53.9084 17.4027 54.0578 18.2652 53.3785C19.1278 52.6992 19.2729 51.4432 18.5978 50.5937Z" fill="#562520"/>
</svg>
