<svg width="241" height="355" viewBox="0 0 241 355" fill="none" xmlns="http://www.w3.org/2000/svg">
<path d="M228.444 45.1816L175.628 105.346L184.293 112.942L237.109 52.7781C239.204 50.3832 238.974 46.7511 236.584 44.643C235.393 43.5975 233.887 43.128 232.414 43.2306C230.927 43.329 229.494 43.9776 228.444 45.1816Z" fill="#FCBD6B"/>
<path d="M177.616 104.674C176.955 104.087 175.936 104.119 175.322 104.772C169.764 110.592 167.241 109.075 161.268 115.87C154.944 123.086 157.396 125.228 151.072 132.443C144.748 139.659 142.287 137.5 135.968 144.702C129.644 151.918 132.091 154.073 125.772 161.275C119.448 168.491 116.987 166.332 110.65 173.543C104.326 180.759 106.778 182.901 100.454 190.116C94.13 197.332 91.6693 195.172 85.3496 202.375C79.0256 209.59 81.4774 211.733 75.1535 218.948C68.8295 226.164 66.3688 224.004 60.0449 231.22C53.7079 238.431 56.1685 240.591 49.8488 247.793C43.5248 255.009 41.0641 252.849 34.7271 260.061C28.4032 267.276 30.8508 269.432 24.531 276.634C18.194 283.845 15.7464 281.69 9.40937 288.902C4.64052 294.327 -1.20269 305.111 3.97281 309.67C8.46517 313.62 19.0894 307.009 23.8582 301.584C30.1952 294.373 27.7346 292.213 34.0716 285.002C40.3955 277.786 42.8562 279.946 49.1932 272.734C55.5172 265.519 53.0696 263.364 59.3893 256.161C65.7133 248.945 68.174 251.105 74.4979 243.889C80.8219 236.674 78.3742 234.519 84.694 227.316C91.018 220.1 93.4786 222.26 99.7984 215.057C106.122 207.842 103.671 205.7 109.995 198.484C116.318 191.268 118.779 193.428 125.116 186.217C131.44 179.001 128.988 176.859 135.312 169.643C141.636 162.428 144.097 164.587 150.416 157.384C156.753 150.173 154.289 148.027 160.613 140.811C166.937 133.596 169.397 135.755 175.717 128.553C181.673 121.766 179.852 119.452 184.89 113.192C185.442 112.505 185.348 111.495 184.687 110.908L177.616 104.674Z" fill="#401B17"/>
<path d="M173.245 118.582C172.538 119.392 172.616 120.627 173.426 121.334C174.236 122.041 175.471 121.962 176.178 121.152C176.885 120.342 176.807 119.107 175.997 118.4C175.187 117.693 173.952 117.772 173.245 118.582Z" fill="#FCBD6B"/>
<path d="M146.466 140.37C145.759 141.179 145.837 142.415 146.647 143.122C147.457 143.829 148.692 143.75 149.399 142.94C150.106 142.13 150.028 140.895 149.218 140.188C148.408 139.481 147.173 139.56 146.466 140.37Z" fill="#FCBD6B"/>
<path d="M128.335 169.748C127.628 170.558 127.706 171.793 128.516 172.5C129.326 173.207 130.561 173.129 131.268 172.319C131.975 171.509 131.897 170.274 131.087 169.567C130.277 168.86 129.055 168.942 128.335 169.748Z" fill="#FCBD6B"/>
<path d="M101.557 191.523C100.85 192.333 100.929 193.568 101.739 194.275C102.549 194.982 103.784 194.903 104.491 194.093C105.198 193.283 105.119 192.048 104.309 191.341C103.5 190.634 102.264 190.713 101.557 191.523Z" fill="#FCBD6B"/>
<path d="M83.4285 220.902C82.7216 221.712 82.7999 222.948 83.6098 223.655C84.4198 224.362 85.6551 224.283 86.362 223.473C87.0689 222.663 86.9905 221.428 86.1806 220.721C85.3706 220.014 84.1484 220.097 83.4285 220.902Z" fill="#FCBD6B"/>
<path d="M56.6453 242.689C55.9384 243.499 56.0167 244.734 56.8267 245.441C57.6366 246.148 58.8719 246.07 59.5788 245.26C60.2857 244.45 60.2073 243.214 59.3974 242.507C58.5874 241.801 57.3522 241.879 56.6453 242.689Z" fill="#FCBD6B"/>
<path d="M38.53 272.073C37.8231 272.883 37.9015 274.118 38.7114 274.825C39.5214 275.532 40.7566 275.454 41.4635 274.644C42.1704 273.834 42.0921 272.599 41.2821 271.892C40.4722 271.185 39.237 271.263 38.53 272.073Z" fill="#FCBD6B"/>
<path d="M11.739 293.843C11.0321 294.653 11.1104 295.888 11.9204 296.595C12.7304 297.302 13.9656 297.223 14.6725 296.413C15.3794 295.603 15.3011 294.368 14.4911 293.661C13.6812 292.954 12.459 293.037 11.739 293.843Z" fill="#FCBD6B"/>
</svg>
