<svg width="276" height="318" viewBox="0 0 276 318" fill="none" xmlns="http://www.w3.org/2000/svg">
<path d="M222.373 2.85601L237.051 11.7659L52.449 315.869L37.7714 306.959L222.373 2.85601Z" fill="#D17D1B"/>
<path d="M237.03 11.7987C238.306 9.69895 236.04 6.01002 231.991 3.54927C227.943 1.08852 223.625 0.796716 222.347 2.88289C221.072 4.98266 223.338 8.67159 227.387 11.1323C231.449 13.5912 235.769 13.8966 237.03 11.7987Z" fill="#D17D1B"/>
<path d="M211.754 27.6118C210.924 27.1168 210.7 25.9849 211.241 25.0936L214.661 19.4593C215.202 18.568 216.308 18.2499 217.125 18.7603C217.943 19.2707 218.18 20.3872 217.638 21.2785L214.219 26.9127C213.689 27.7885 212.584 28.1068 211.754 27.6118Z" fill="#B06917"/>
<path d="M193.304 58.0178C192.475 57.5228 192.25 56.3909 192.791 55.4996L196.211 49.8653C196.753 48.974 197.858 48.6557 198.676 49.1662C199.505 49.6611 199.73 50.7931 199.188 51.6844L195.769 57.3186C195.225 58.1964 194.12 58.5146 193.304 58.0178Z" fill="#B06917"/>
<path d="M174.839 88.426C174.023 87.9291 173.785 86.7991 174.327 85.9078L177.746 80.2735C178.288 79.3822 179.393 79.064 180.211 79.5744C181.04 80.0693 181.265 81.2012 180.723 82.0926L177.304 87.7268C176.762 88.6182 175.655 88.9228 174.839 88.426Z" fill="#B06917"/>
<path d="M156.377 118.834C155.548 118.339 155.323 117.207 155.864 116.315L159.284 110.681C159.825 109.79 160.931 109.472 161.749 109.982C162.564 110.479 162.803 111.609 162.261 112.5L158.842 118.134C158.3 119.026 157.208 119.342 156.377 118.834Z" fill="#B06917"/>
<path d="M137.915 149.255C137.099 148.758 136.861 147.628 137.403 146.737L140.822 141.103C141.364 140.212 142.469 139.893 143.287 140.404C144.116 140.899 144.341 142.031 143.8 142.922L140.378 148.543C139.85 149.432 138.745 149.75 137.915 149.255Z" fill="#B06917"/>
<path d="M119.466 179.661C118.637 179.166 118.412 178.034 118.954 177.143L122.373 171.509C122.915 170.618 124.02 170.299 124.838 170.81C125.667 171.305 125.892 172.437 125.35 173.328L121.929 178.949C121.387 179.84 120.282 180.158 119.466 179.661Z" fill="#B06917"/>
<path d="M101.003 210.069C100.187 209.572 99.9488 208.442 100.491 207.551L103.91 201.917C104.452 201.025 105.557 200.707 106.375 201.218C107.204 201.713 107.429 202.845 106.887 203.736L103.468 209.37C102.926 210.261 101.819 210.566 101.003 210.069Z" fill="#B06917"/>
<path d="M82.5384 240.477C81.7089 239.982 81.484 238.851 82.0258 237.959L85.4451 232.325C85.9869 231.434 87.0921 231.115 87.9099 231.626C88.7394 232.121 88.9644 233.253 88.4226 234.144L85.0033 239.778C84.4614 240.67 83.3698 240.986 82.5384 240.477Z" fill="#B06917"/>
<path d="M64.0756 270.899C63.246 270.404 63.0211 269.272 63.5629 268.381L66.9822 262.746C67.524 261.855 68.6292 261.537 69.447 262.047C70.2765 262.542 70.5015 263.674 69.9597 264.566L66.5404 270.2C66.0103 271.076 64.9051 271.394 64.0756 270.899Z" fill="#B06917"/>
<path d="M45.6263 301.305C44.8104 300.808 44.5718 299.678 45.1137 298.786L48.533 293.152C49.0748 292.261 50.18 291.943 50.9978 292.453C51.8273 292.948 52.0523 294.08 51.5105 294.971L48.0893 300.592C47.5474 301.483 46.4423 301.801 45.6263 301.305Z" fill="#B06917"/>
<path d="M208.953 48.9979C208.123 48.5029 207.898 47.371 208.44 46.4797L211.859 40.8455C212.401 39.9542 213.506 39.636 214.324 40.1464C215.153 40.6414 215.378 41.7733 214.837 42.6646L211.417 48.2987C210.887 49.1746 209.782 49.4929 208.953 48.9979Z" fill="#B06917"/>
<path d="M190.501 79.4041C189.685 78.9073 189.447 77.7773 189.989 76.8859L193.408 71.2518C193.95 70.3604 195.055 70.0422 195.873 70.5526C196.702 71.0476 196.927 72.1795 196.385 73.0708L192.966 78.705C192.422 79.5828 191.317 79.901 190.501 79.4041Z" fill="#B06917"/>
<path d="M153.578 140.233C152.748 139.738 152.523 138.606 153.065 137.715L156.484 132.081C157.026 131.19 158.131 130.871 158.949 131.382C159.778 131.877 160.003 133.009 159.462 133.9L156.042 139.534C155.512 140.41 154.407 140.728 153.578 140.233Z" fill="#B06917"/>
<path d="M135.114 170.641C134.284 170.146 134.059 169.014 134.601 168.123L138.022 162.503C138.564 161.611 139.669 161.293 140.485 161.79C141.301 162.287 141.54 163.417 140.998 164.308L137.579 169.942C137.049 170.818 135.943 171.136 135.114 170.641Z" fill="#B06917"/>
<path d="M116.661 201.048C115.832 200.553 115.607 199.421 116.149 198.53L119.568 192.895C120.11 192.004 121.215 191.686 122.033 192.196C122.862 192.691 123.087 193.823 122.546 194.714L119.126 200.349C118.583 201.226 117.477 201.545 116.661 201.048Z" fill="#B06917"/>
<path d="M98.1988 231.455C97.3828 230.959 97.1441 229.829 97.6859 228.937L101.105 223.303C101.647 222.412 102.752 222.093 103.57 222.604C104.4 223.099 104.625 224.231 104.083 225.122L100.662 230.743C100.122 231.648 99.0147 231.952 98.1988 231.455Z" fill="#B06917"/>
<path d="M79.7377 261.863C78.9081 261.368 78.6832 260.236 79.225 259.345L82.6443 253.711C83.1862 252.819 84.2913 252.501 85.1091 253.012C85.9387 253.507 86.1636 254.638 85.6218 255.53L82.2027 261.164C81.6744 262.054 80.569 262.372 79.7377 261.863Z" fill="#B06917"/>
<path d="M61.2884 292.283C60.4589 291.788 60.234 290.656 60.7758 289.765L64.1951 284.131C64.7369 283.24 65.8421 282.921 66.6599 283.432C67.4894 283.927 67.7144 285.059 67.1726 285.95L63.7514 291.571C63.2096 292.462 62.1044 292.78 61.2884 292.283Z" fill="#B06917"/>
</svg>
