<svg width="279" height="100" viewBox="0 0 279 100" fill="none" xmlns="http://www.w3.org/2000/svg">
<path d="M19.6544 0C19.6544 0 24.7899 18.9294 38.4494 18.9294C24.7899 18.9294 19.6544 37.8588 19.6544 37.8588C19.6544 37.8588 14.5189 18.9294 0.859375 18.9294C14.5147 18.9294 19.6544 0 19.6544 0Z" fill="#FFEC00"/>
<path d="M258.365 60.105C258.365 60.105 263.501 79.0344 277.16 79.0344C263.501 79.0344 258.365 97.9638 258.365 97.9638C258.365 97.9638 253.23 79.0344 239.57 79.0344C253.23 79.0302 258.365 60.105 258.365 60.105Z" fill="#FFEC00"/>
<path d="M30.6681 34.0374C30.6681 34.0374 32.902 42.2759 38.8478 42.2759C32.902 42.2759 30.6681 50.5145 30.6681 50.5145C30.6681 50.5145 28.4342 42.2759 22.4883 42.2759C28.4342 42.2717 30.6681 34.0374 30.6681 34.0374Z" fill="#FFEC00"/>
<path d="M269.957 37.4031C269.957 37.4031 272.191 45.6416 278.137 45.6416C272.191 45.6416 269.957 53.876 269.957 53.876C269.957 53.876 267.723 45.6416 261.777 45.6416C267.719 45.6374 269.957 37.4031 269.957 37.4031Z" fill="#FFEC00"/>
<path d="M252.242 0.359375C252.242 0.359375 254.476 8.59797 260.422 8.59797C254.476 8.59797 252.242 16.8323 252.242 16.8323C252.242 16.8323 250.008 8.59797 244.062 8.59797C250.004 8.59377 252.242 0.359375 252.242 0.359375Z" fill="#FFEC00"/>
<path d="M59.3697 67.0063C59.3697 67.0063 60.7428 72.062 64.3918 72.062C60.7428 72.062 59.3697 77.1177 59.3697 77.1177C59.3697 77.1177 57.9966 72.062 54.3477 72.062C58.0008 72.062 59.3697 67.0063 59.3697 67.0063Z" fill="#FFEC00"/>
<path d="M14.106 42.2715C14.106 42.2715 17.3519 54.2388 25.9894 54.2388C17.3519 54.2388 14.106 66.2062 14.106 66.2062C14.106 66.2062 10.8601 54.2388 2.22266 54.2388C10.8601 54.2388 14.106 42.2715 14.106 42.2715Z" fill="#FFEC00"/>
<path d="M64.3951 75.3374C64.3951 75.3374 67.641 87.3047 76.2784 87.3047C67.641 87.3047 64.3951 99.2721 64.3951 99.2721C64.3951 99.2721 61.1492 87.3047 52.5117 87.3047C61.1492 87.3047 64.3951 75.3374 64.3951 75.3374Z" fill="#FFEC00"/>
<path d="M220.516 74.4463C220.516 74.4463 223.762 86.4136 232.4 86.4136C223.762 86.4136 220.516 98.381 220.516 98.381C220.516 98.381 217.27 86.4136 208.633 86.4136C217.27 86.4178 220.516 74.4463 220.516 74.4463Z" fill="#FFEC00"/>
</svg>
