<svg width="197" height="62" viewBox="0 0 197 62" fill="none" xmlns="http://www.w3.org/2000/svg">
<path d="M99.599 25.0628L102.004 16.9436C104.966 6.95406 101.765 1.51416 91.9549 1.51416H81.165C79.9965 1.527 78.9565 1.86084 78.1005 2.51996C77.3686 3.09349 76.8593 3.83821 76.5511 4.73273L59.7734 61.2889H69.5832L75.7508 40.4966H80.3903C90.2044 40.4923 96.6372 35.0524 99.599 25.0628ZM92.3786 16.3273L89.6009 25.692C88.2784 30.1475 86.1598 31.577 83.0396 31.577H78.4001L84.6703 10.4423H89.3098C92.4343 10.4337 93.7011 11.859 92.3786 16.3273Z" fill="white"/>
<path d="M121.552 34.4785L124.197 25.5632H113.407L117.842 10.4376H130.335L132.98 1.51807H114.272C113.133 1.53519 112.115 1.86903 111.276 2.51103C110.531 3.10595 110.009 3.86352 109.709 4.77944L94.2928 56.7474C93.929 58.2069 93.9804 59.1913 94.678 60.0259C95.5683 61.0873 96.1718 61.2757 97.9651 61.2757L97.8795 61.2799H115.252L117.897 52.3647H105.404L110.767 34.4742L121.552 34.4785Z" fill="white"/>
<path d="M40.1498 25.0628L42.5551 16.9436C45.5212 6.95406 42.3198 1.51416 32.5057 1.51416H21.72C20.5473 1.527 19.5115 1.86084 18.6512 2.51996C17.9194 3.09349 17.41 3.83821 17.1019 4.73273L0.324219 61.2889H10.134L16.3058 40.4966H20.9411C30.7551 40.4923 37.188 35.0524 40.1498 25.0628ZM32.9337 16.3273L30.1559 25.692C28.8334 30.1475 26.7148 31.577 23.5947 31.577H18.9551L25.2254 10.4423H29.8649C32.9807 10.4337 34.2562 11.859 32.9337 16.3273Z" fill="white"/>
<path d="M62.1048 34.4785L64.7499 25.5632H53.9599L58.394 10.4376H70.8874L73.5367 1.51807H54.8288C53.686 1.53519 52.6717 1.86903 51.8328 2.51103C51.088 3.10595 50.5659 3.86352 50.262 4.77944L34.8497 56.7474C34.4816 58.2069 34.5372 59.1913 35.2306 60.0259C36.1251 61.0873 36.7243 61.2757 38.5176 61.2757L38.432 61.2799H55.8089L58.454 52.3647H45.9649L51.3234 34.4742L62.1048 34.4785Z" fill="white"/>
<path d="M160.854 20.7867L162.309 15.8775C165.169 6.2432 162.198 1.51807 152.033 1.51807H140.944C139.754 1.51807 138.697 1.85619 137.828 2.52387C137.057 3.12735 136.522 3.91488 136.227 4.86932L119.492 61.2799H129.302L136.052 38.5274H139.441C143.901 38.5274 145.228 40.6717 143.512 46.4625L141.389 53.6059C139.882 58.6948 139.946 59.6749 140.006 61.2757H149.996C149.701 58.9559 150.274 56.726 151.173 53.6958L153.24 46.7279C155.17 40.218 154.969 35.4886 150.668 33.4427C155.654 31.3969 158.945 27.1982 160.854 20.7867ZM152.722 14.8204L150.895 20.975C149.414 25.9698 146.709 27.5748 143.054 27.5748H139.215L144.903 8.40033H149.632C153.112 8.40033 154.045 10.3649 152.722 14.8204Z" fill="white"/>
<path d="M185.565 0.799072C175.934 0.799072 168.975 6.50434 166.013 16.4982L157.171 46.3042C154.205 56.2938 157.779 61.999 167.409 61.999C177.043 61.999 183.998 56.2938 186.964 46.3042L195.802 16.4982C198.768 6.50862 195.199 0.799072 185.565 0.799072ZM186.177 15.8776L176.966 46.9291C175.639 51.3846 173.178 53.0838 170.058 53.0838C166.934 53.0838 165.474 51.3889 166.797 46.9291L176.007 15.8776C177.33 11.4135 179.795 9.72291 182.919 9.72291C186.04 9.72291 187.499 11.4135 186.177 15.8776Z" fill="white"/>
</svg>
