<svg width="226" height="81" viewBox="0 0 226 81" fill="none" xmlns="http://www.w3.org/2000/svg">
<path d="M111.636 27.6998L113.592 21.0973C116.001 12.9738 113.397 8.55005 105.42 8.55005H96.6456C95.6954 8.56049 94.8497 8.83197 94.1536 9.36797C93.5584 9.83436 93.1442 10.44 92.8936 11.1674L79.25 57.1589H87.2273L92.2428 40.2506H96.0156C103.996 40.2471 109.228 35.8233 111.636 27.6998ZM105.765 20.5961L103.506 28.2115C102.43 31.8347 100.707 32.9972 98.1701 32.9972H94.3972L99.4961 15.8104H103.269C105.81 15.8034 106.84 16.9624 105.765 20.5961Z" fill="white"/>
<path d="M129.489 35.3566L131.64 28.1067H122.866L126.471 15.8066H136.631L138.782 8.55322H123.569C122.643 8.56714 121.814 8.83862 121.132 9.3607C120.527 9.84449 120.102 10.4605 119.858 11.2054L107.322 53.4658C107.026 54.6526 107.068 55.4531 107.635 56.1318C108.359 56.995 108.85 57.1481 110.308 57.1481L110.238 57.1516H124.366L126.517 49.9017H116.357L120.718 35.3532L129.489 35.3566Z" fill="white"/>
<path d="M63.2924 27.6998L65.2485 21.0973C67.6605 12.9738 65.057 8.55005 57.0762 8.55005H48.3053C47.3517 8.56049 46.5094 8.83197 45.8098 9.36797C45.2146 9.83436 44.8005 10.44 44.5499 11.1674L30.9062 57.1589H38.8836L43.9025 40.2506H47.6719C55.6527 40.2471 60.8839 35.8233 63.2924 27.6998ZM57.4243 20.5961L55.1654 28.2115C54.0899 31.8347 52.3671 32.9972 49.8298 32.9972H46.0569L51.1559 15.8104H54.9287C57.4626 15.8034 58.4998 16.9624 57.4243 20.5961Z" fill="white"/>
<path d="M81.1474 35.3566L83.2983 28.1067H74.524L78.1298 15.8066H88.2894L90.4438 8.55322H75.2305C74.3012 8.56714 73.4763 8.83862 72.7942 9.3607C72.1885 9.84449 71.7639 10.4605 71.5168 11.2054L58.9835 53.4658C58.6841 54.6526 58.7294 55.4531 59.2932 56.1318C60.0207 56.995 60.5079 57.1481 61.9663 57.1481L61.8967 57.1516H76.0275L78.1785 49.9017H68.0224L72.38 35.3532L81.1474 35.3566Z" fill="white"/>
<path d="M161.448 24.2225L162.632 20.2303C164.957 12.3957 162.541 8.55322 154.275 8.55322H145.257C144.289 8.55322 143.43 8.82818 142.723 9.37114C142.097 9.8619 141.661 10.5023 141.421 11.2785L127.812 57.1516H135.79L141.279 38.6492H144.035C147.662 38.6492 148.741 40.393 147.345 45.1021L145.619 50.9111C144.394 55.0494 144.446 55.8464 144.495 57.1481H152.618C152.378 55.2617 152.844 53.4484 153.575 50.9841L155.256 45.3179C156.826 40.024 156.662 36.178 153.165 34.5144C157.219 32.8507 159.896 29.4363 161.448 24.2225ZM154.835 19.3707L153.349 24.3756C152.145 28.4374 149.945 29.7426 146.973 29.7426H143.851L148.476 14.1499H152.322C155.152 14.1499 155.911 15.7474 154.835 19.3707Z" fill="white"/>
<path d="M181.544 7.96851C173.713 7.96851 168.053 12.608 165.645 20.735L158.454 44.9733C156.042 53.0968 158.948 57.7364 166.779 57.7364C174.614 57.7364 180.27 53.0968 182.682 44.9733L189.869 20.735C192.281 12.6115 189.378 7.96851 181.544 7.96851ZM182.041 20.2304L174.551 45.4815C173.472 49.1047 171.471 50.4864 168.934 50.4864C166.393 50.4864 165.206 49.1082 166.282 45.4815L173.772 20.2304C174.847 16.6002 176.852 15.2254 179.393 15.2254C181.93 15.2254 183.117 16.6002 182.041 20.2304Z" fill="white"/>
<path d="M15.2841 0C15.2841 0 19.4603 15.3934 30.5682 15.3934C19.4603 15.3934 15.2841 30.7868 15.2841 30.7868C15.2841 30.7868 11.108 15.3934 0 15.3934C11.1046 15.3934 15.2841 0 15.2841 0Z" fill="#FFEC00"/>
<path d="M209.405 48.8774C209.405 48.8774 213.581 64.2708 224.689 64.2708C213.581 64.2708 209.405 79.6642 209.405 79.6642C209.405 79.6642 205.229 64.2708 194.121 64.2708C205.229 64.2674 209.405 48.8774 209.405 48.8774Z" fill="#FFEC00"/>
<path d="M24.2416 27.6792C24.2416 27.6792 26.0583 34.3788 30.8934 34.3788C26.0583 34.3788 24.2416 41.0784 24.2416 41.0784C24.2416 41.0784 22.425 34.3788 17.5898 34.3788C22.425 34.3754 24.2416 27.6792 24.2416 27.6792Z" fill="#FFEC00"/>
<path d="M218.831 30.4163C218.831 30.4163 220.648 37.1159 225.483 37.1159C220.648 37.1159 218.831 43.8121 218.831 43.8121C218.831 43.8121 217.015 37.1159 212.18 37.1159C217.011 37.1125 218.831 30.4163 218.831 30.4163Z" fill="#FFEC00"/>
<path d="M204.425 0.292236C204.425 0.292236 206.242 6.99186 211.077 6.99186C206.242 6.99186 204.425 13.6881 204.425 13.6881C204.425 13.6881 202.609 6.99186 197.773 6.99186C202.605 6.98845 204.425 0.292236 204.425 0.292236Z" fill="#FFEC00"/>
<path d="M47.5801 54.4895C47.5801 54.4895 48.6967 58.6008 51.664 58.6008C48.6967 58.6008 47.5801 62.7121 47.5801 62.7121C47.5801 62.7121 46.4635 58.6008 43.4961 58.6008C46.4669 58.6008 47.5801 54.4895 47.5801 54.4895Z" fill="#FFEC00"/>
<path d="M10.7729 34.3752C10.7729 34.3752 13.4125 44.1071 20.4365 44.1071C13.4125 44.1071 10.7729 53.8389 10.7729 53.8389C10.7729 53.8389 8.13338 44.1071 1.10938 44.1071C8.13338 44.1071 10.7729 34.3752 10.7729 34.3752Z" fill="#FFEC00"/>
<path d="M51.6675 61.2644C51.6675 61.2644 54.307 70.9963 61.331 70.9963C54.307 70.9963 51.6675 80.7281 51.6675 80.7281C51.6675 80.7281 49.0279 70.9963 42.0039 70.9963C49.0279 70.9963 51.6675 61.2644 51.6675 61.2644Z" fill="#FFEC00"/>
<path d="M178.625 60.5398C178.625 60.5398 181.264 70.2716 188.288 70.2716C181.264 70.2716 178.625 80.0035 178.625 80.0035C178.625 80.0035 175.985 70.2716 168.961 70.2716C175.985 70.2751 178.625 60.5398 178.625 60.5398Z" fill="#FFEC00"/>
</svg>
