<svg width="183" height="213" viewBox="0 0 183 213" fill="none" xmlns="http://www.w3.org/2000/svg">
<path d="M71.2251 169.945C70.202 173.083 68.5984 176.083 66.3752 178.779C56.8327 190.368 39.7056 192.02 28.117 182.478C16.5283 172.935 14.8756 155.818 24.4082 144.229C25.5198 142.882 26.7397 141.662 28.0284 140.59C29.327 139.507 30.7042 138.563 32.1405 137.766C32.2487 137.707 32.3569 137.638 32.475 137.579L71.3333 169.571C71.3038 169.699 71.2645 169.817 71.2251 169.945Z" fill="#FCBD6B"/>
<path d="M123.236 108.962C124.535 107.889 125.754 106.679 126.856 105.322C129.079 102.617 130.683 99.6161 131.706 96.4878C136.015 83.2858 137.235 81.8102 149.355 75.0518C150.791 74.2451 152.178 73.3105 153.477 72.2284C154.775 71.1561 155.995 69.9461 157.097 68.5885C163.796 60.4528 164.967 49.5922 161.071 40.5416C156.172 29.3859 157.982 28.4316 158.543 27.6052L158.533 27.5954C159.163 26.651 158.995 25.3623 158.1 24.6245C157.205 23.8867 155.906 23.9654 155.1 24.772L155.09 24.7622C154.401 25.4508 153.821 27.3396 142.636 24.9196C132.808 22.4996 122.016 25.6968 115.149 34.039C112.926 36.7345 111.323 39.7448 110.29 42.8731C108.135 49.4741 106.758 53.1337 104.397 56.0063C102.036 58.869 98.7109 60.925 92.6412 64.3091C91.2049 65.1158 89.8276 66.0602 88.5291 67.1325C87.2305 68.2048 86.0107 69.4148 84.899 70.7724C82.6757 73.4679 81.0722 76.4684 80.0491 79.5967C77.8947 86.1977 76.5076 89.8671 74.1564 92.7298C71.7954 95.5926 68.4703 97.6584 62.4006 101.033C60.9643 101.839 59.587 102.784 58.2885 103.856C56.9899 104.928 55.7701 106.138 54.6683 107.496C52.445 110.191 50.8415 113.202 49.8085 116.33C47.6541 122.931 46.2768 126.591 43.9158 129.463C41.604 132.277 38.3477 134.313 32.4944 137.579L71.3527 169.571C73.4383 163.196 74.8156 159.615 77.1274 156.802C79.4884 153.939 82.8135 151.873 88.8832 148.499C90.3195 147.692 91.7066 146.758 93.0052 145.676C94.3037 144.603 95.5236 143.393 96.6254 142.036C98.8487 139.34 100.452 136.33 101.475 133.202C103.63 126.601 105.007 122.941 107.368 120.068C109.719 117.206 113.054 115.14 119.124 111.765C120.56 110.978 121.937 110.044 123.236 108.962Z" fill="#DFEDF0"/>
<path d="M6.94571 189.325C4.99787 188.528 2.68604 189.049 1.27927 190.761C-0.452138 192.866 -0.147182 195.985 1.94822 197.716L4.62406 199.92C6.7293 201.651 9.84781 201.356 11.5792 199.251L14.5797 195.611L6.94571 189.325Z" fill="#562520"/>
<path d="M24.6632 167.81L6.9458 189.325L14.5797 195.611L32.2972 174.096C34.0384 171.991 33.7236 168.863 31.6184 167.131C29.5132 165.4 26.3946 165.705 24.6632 167.81Z" fill="#FCBD6B"/>
<path d="M25.4707 204.573C26.6217 206.334 26.5528 208.704 25.146 210.416C23.4146 212.521 20.2961 212.817 18.1909 211.085L15.5151 208.882C13.4099 207.15 13.1049 204.022 14.8363 201.926L17.8368 198.286L25.4707 204.573Z" fill="#562520"/>
<path d="M43.1883 183.058L25.4709 204.573L17.8369 198.287L35.5544 176.772C37.2956 174.667 40.4141 174.362 42.5193 176.093C44.6245 177.834 44.9197 180.953 43.1883 183.058Z" fill="#FCBD6B"/>
<path d="M151.491 64.1418C139.745 78.4062 121.103 69.5623 121.103 69.5623C121.103 69.5623 108.836 52.9663 120.592 38.7019C127.616 30.1727 140.237 28.943 148.766 35.9769C157.305 42.9911 158.525 55.6028 151.491 64.1418Z" fill="#FCBD6B"/>
<path d="M134.905 39.6758C138.013 42.2335 138.053 47.3294 134.974 51.0677C131.904 54.7961 126.887 55.7405 123.778 53.1827C120.68 50.625 120.65 45.5291 123.719 41.8007C126.799 38.0723 131.806 37.118 134.905 39.6758ZM132.947 49.3953C134.915 47.0048 134.885 43.7485 132.908 42.1155C130.921 40.4726 127.723 41.0826 125.756 43.4731C123.788 45.8538 123.808 49.1198 125.795 50.7529C127.782 52.3859 130.989 51.7858 132.947 49.3953Z" fill="white"/>
<path d="M132.907 42.1155C134.894 43.7485 134.914 47.0048 132.947 49.3953C130.979 51.776 127.782 52.3859 125.795 50.7529C123.808 49.11 123.788 45.8538 125.755 43.4731C127.723 41.0826 130.91 40.4726 132.907 42.1155Z" fill="black"/>
<path d="M147.772 50.271C150.881 52.8288 150.92 57.9246 147.841 61.6629C144.772 65.3913 139.755 66.3357 136.646 63.778C133.547 61.2202 133.518 56.1243 136.587 52.3959C139.666 48.6675 144.674 47.7132 147.772 50.271ZM145.815 59.9905C147.782 57.6 147.753 54.3437 145.775 52.7107C143.788 51.0678 140.591 51.6778 138.623 54.0683C136.656 56.449 136.676 59.715 138.663 61.3481C140.65 62.9811 143.857 62.381 145.815 59.9905Z" fill="white"/>
<path d="M145.775 52.7108C147.762 54.3438 147.782 57.6001 145.814 59.9906C143.847 62.3713 140.65 62.9812 138.662 61.3482C136.675 59.7053 136.656 56.4491 138.623 54.0684C140.591 51.6779 143.788 51.0778 145.775 52.7108Z" fill="black"/>
<path d="M116.528 80.5114C116.469 86.0893 116.38 93.9102 116.38 93.9102C116.38 93.9102 116.459 86.0795 116.528 80.5114ZM116.528 80.5114C116.587 74.9335 116.636 70.4181 116.636 70.4181C116.636 70.4181 116.587 74.9335 116.528 80.5114Z" stroke="#562520" stroke-width="1.7024" stroke-miterlimit="10" stroke-linecap="round" stroke-linejoin="round"/>
<path d="M115.8 91.5294L117.01 91.5393" stroke="#562520" stroke-width="1.7024" stroke-miterlimit="10" stroke-linecap="round" stroke-linejoin="round"/>
<path d="M121.262 84.2006C121.34 89.7785 121.439 97.5994 121.439 97.5994C121.439 97.5994 121.33 89.7785 121.262 84.2006ZM121.262 84.2006C121.183 78.6227 121.124 74.1073 121.124 74.1073C121.124 74.1073 121.183 78.6326 121.262 84.2006Z" stroke="#562520" stroke-width="1.7024" stroke-miterlimit="10" stroke-linecap="round" stroke-linejoin="round"/>
<path d="M120.798 95.2383L122.008 95.2285" stroke="#562520" stroke-width="1.7024" stroke-miterlimit="10" stroke-linecap="round" stroke-linejoin="round"/>
<path d="M135.171 65.0959L133.321 65.7551" stroke="#EA1D25" stroke-width="0.681" stroke-miterlimit="10" stroke-linecap="round" stroke-linejoin="round"/>
<path d="M136.607 66.2764L134.758 66.9355" stroke="#EA1D25" stroke-width="0.681" stroke-miterlimit="10" stroke-linecap="round" stroke-linejoin="round"/>
<path d="M138.043 67.4569L136.193 68.1259" stroke="#EA1D25" stroke-width="0.681" stroke-miterlimit="10" stroke-linecap="round" stroke-linejoin="round"/>
<path d="M120.109 52.6908L118.26 53.3598" stroke="#EA1D25" stroke-width="0.681" stroke-miterlimit="10" stroke-linecap="round" stroke-linejoin="round"/>
<path d="M121.546 53.8712L119.696 54.5402" stroke="#EA1D25" stroke-width="0.681" stroke-miterlimit="10" stroke-linecap="round" stroke-linejoin="round"/>
<path d="M122.981 55.0615L121.132 55.7206" stroke="#EA1D25" stroke-width="0.681" stroke-miterlimit="10" stroke-linecap="round" stroke-linejoin="round"/>
<path d="M130.222 58.4853C129.641 58.0131 128.785 58.0918 128.313 58.6722L127.32 59.8822C126.847 60.4626 126.926 61.3185 127.506 61.7907C128.087 62.2629 128.943 62.1842 129.415 61.6038L130.409 60.3938C130.891 59.8134 130.802 58.9575 130.222 58.4853Z" fill="#EA1D25"/>
<path d="M146.268 11.3534C145.491 14.8359 144.586 18.8988 144.586 18.8988" stroke="black" stroke-width="0.8" stroke-miterlimit="10" stroke-linecap="round" stroke-linejoin="round"/>
<path d="M139.076 0.817261C138.85 7.35923 138.457 18.8397 138.457 18.8397" stroke="black" stroke-width="0.8" stroke-miterlimit="10" stroke-linecap="round" stroke-linejoin="round"/>
<path d="M130.744 10.1433C131.885 14.1177 133.548 19.9218 133.548 19.9218" stroke="black" stroke-width="0.8" stroke-miterlimit="10" stroke-linecap="round" stroke-linejoin="round"/>
<path d="M169.996 77.1665C166.966 75.2875 163.424 73.0938 163.424 73.0938" stroke="black" stroke-width="0.8" stroke-miterlimit="10" stroke-linecap="round" stroke-linejoin="round"/>
<path d="M182.313 73.8512C176.213 71.4803 165.5 67.3289 165.5 67.3289" stroke="black" stroke-width="0.8" stroke-miterlimit="10" stroke-linecap="round" stroke-linejoin="round"/>
<path d="M176.253 62.9118C172.121 62.6757 166.1 62.3314 166.1 62.3314" stroke="black" stroke-width="0.8" stroke-miterlimit="10" stroke-linecap="round" stroke-linejoin="round"/>
</svg>
