<svg width="184" height="381" viewBox="0 0 184 381" fill="none" xmlns="http://www.w3.org/2000/svg">
<path d="M68.2642 333.345C69.7125 336.657 68.1632 340.53 65.0084 342.281L59.3949 345.391L49.066 351.106C45.9897 352.812 44.8895 356.686 46.596 359.751L51.1991 368.014C53.0515 371.348 51.8615 375.559 48.527 377.411L44.5302 379.634C41.3978 381.374 37.3561 380.633 35.3015 377.703C33.3368 374.896 33.7522 371.27 35.919 368.968C35.919 368.968 35.0208 367.363 33.7409 365.061C28.7337 356.091 31.967 344.763 40.9487 339.789L52.7035 333.277L58.5753 330.021C62.1006 328.079 66.6026 329.55 68.2642 333.345Z" fill="#E38D00"/>
<path d="M55.4743 353.643C76.0536 357.494 96.3297 352.824 100.259 332.256L147.132 86.9886C152.151 60.7509 132.369 49.3554 106.109 44.4604C91.4011 41.721 60.0438 39.8685 56.8665 65.3989L25.1724 320.422C22.7025 340.373 35.7146 349.949 55.4743 353.643Z" fill="#FCA923"/>
<path d="M90.9371 126.271C85.3709 120.432 84.948 111.801 89.9925 106.992C95.037 102.183 103.639 103.018 109.205 108.857C114.771 114.695 115.194 123.327 110.149 128.136C105.105 132.945 96.5033 132.11 90.9371 126.271Z" fill="white"/>
<path d="M91.5564 114.966C90.793 119.525 93.9703 124.397 98.6632 125.846C103.356 127.294 107.78 124.779 108.543 120.21C109.306 115.651 106.129 110.779 101.436 109.33C96.7546 107.882 92.3199 110.408 91.5564 114.966Z" fill="black"/>
<path d="M56.8448 104.234C55.6323 111.441 60.6621 119.143 68.0719 121.433C75.4818 123.724 82.4763 119.738 83.6888 112.53C84.9013 105.323 79.8716 97.6208 72.4617 95.3304C65.0518 93.0401 58.0574 97.0257 56.8448 104.234Z" fill="white"/>
<path d="M61.7732 105.76C61.0098 110.319 64.187 115.191 68.8799 116.639C73.5728 118.088 77.9964 115.573 78.7598 111.003C79.5233 106.445 76.346 101.573 71.653 100.124C66.9713 98.6761 62.5479 101.202 61.7732 105.76Z" fill="black"/>
<path d="M64.9041 130.561C66.6443 136.118 70.9556 143.393 81.5652 144.438C91.9278 145.459 96.4522 140.104 98.3496 136.287C87.4032 138.521 75.3902 136.466 64.9041 130.561Z" fill="#EA1D25"/>
<path d="M64.9025 130.561C75.3886 136.466 87.4015 138.521 98.3479 136.276C98.8868 135.198 99.2124 134.232 99.4033 133.57C99.5156 133.177 99.1002 132.773 98.6623 132.851C89.3551 134.749 71.751 131.032 64.7453 125.06C64.3411 124.712 63.7573 124.925 63.8134 125.408C63.9369 126.598 64.2289 128.461 64.9025 130.561Z" fill="white"/>
<path d="M81.5554 97.1939C81.7687 97.1939 81.982 97.1153 82.1504 96.9469C82.4647 96.6213 82.4647 96.0936 82.1391 95.7793L67.2184 81.2626C66.8928 80.9483 66.3651 80.9483 66.0508 81.2739C65.7364 81.5995 65.7364 82.1271 66.0619 82.4415L80.9828 96.9581C81.14 97.1153 81.3421 97.1939 81.5554 97.1939Z" fill="black"/>
<path d="M92.76 100.652C92.7825 100.652 92.7937 100.652 92.8161 100.652L115.742 99.1811C116.202 99.1475 116.539 98.7545 116.517 98.3054C116.483 97.8563 116.09 97.4971 115.641 97.5308L92.7151 99.0015C92.2548 99.0352 91.918 99.4281 91.9405 99.8772C91.9629 100.326 92.3222 100.652 92.76 100.652Z" fill="black"/>
<path d="M99.7033 83.2787C78.0668 79.3056 61.9494 68.3381 63.7042 58.7821C65.4589 49.2262 84.4213 44.7004 106.058 48.6735C127.694 52.6466 143.812 63.6141 142.057 73.1701C140.302 82.726 121.34 87.2518 99.7033 83.2787Z" fill="#562520"/>
<path d="M84.5862 208.814C87.9206 209.308 91.2439 206.58 92.0186 202.65L94.8815 188.134C95.7347 183.822 93.523 179.826 89.9303 179.298C86.3376 178.77 82.8348 181.925 82.1275 186.259L79.7249 200.843C79.0625 204.783 81.2405 208.32 84.5862 208.814Z" fill="#D17D1B"/>
<path d="M70.7753 285.203C73.4474 285.596 76.0072 283.912 76.5012 281.408L78.3087 272.236C78.8364 269.541 76.9839 266.981 74.1434 266.566C71.3142 266.151 68.6422 268.048 68.2043 270.754L66.6887 279.96C66.2733 282.475 68.1033 284.81 70.7753 285.203Z" fill="#D17D1B"/>
<path d="M54.5073 247.94C57.4713 248.378 60.1995 246.234 60.6036 243.113L62.0968 231.616C62.5347 228.214 60.3342 225.037 57.1681 224.577C54.0021 224.105 51.1617 226.553 50.8249 229.966L49.6909 241.518C49.3766 244.639 51.5321 247.502 54.5073 247.94Z" fill="#D17D1B"/>
<path d="M47.4024 310.307C49.8275 310.666 52.0168 309.285 52.2863 307.197L53.2743 299.585C53.5662 297.351 51.7249 295.206 49.1651 294.836C46.6053 294.454 44.3487 295.992 44.1242 298.238L43.372 305.883C43.1699 307.983 44.9774 309.948 47.4024 310.307Z" fill="#D17D1B"/>
<path d="M53.4745 330.751C57.0335 330.156 60.4128 332.592 61.3447 336.084L62.995 342.281L66.0264 353.688C66.9245 357.079 70.4162 359.1 73.8067 358.19L82.9456 355.743C86.6281 354.755 90.4228 356.944 91.4108 360.626L92.6009 365.05C93.5327 368.508 91.8262 372.258 88.4806 373.538C85.2808 374.761 81.8678 373.481 80.1613 370.809C80.1613 370.809 78.3874 371.292 75.8501 371.977C65.9366 374.649 55.7311 368.755 53.0927 358.83L49.6348 345.84L47.9058 339.351C46.8729 335.444 49.3991 331.436 53.4745 330.751Z" fill="#FCA923"/>
<path d="M85.2717 78.4785C102.966 86.3824 136.849 86.6743 150.232 72.966C165.063 57.7645 159.763 28.2036 143.035 14.4504C150.097 23.3086 141.048 33.5365 133.099 37.0618C123.23 41.4291 111.992 39.6665 101.573 40.5647C92.4233 41.3618 81.8137 43.5174 76.8289 52.2408C71.6644 61.3011 75.6388 74.1786 85.2717 78.4785Z" fill="#562520"/>
<path d="M16.8977 107.882C16.8977 107.882 12.2946 124.914 0.000896454 124.925C12.2946 124.914 16.9314 141.934 16.9314 141.934C16.9314 141.934 21.5345 124.902 33.8281 124.891C21.5345 124.902 16.8977 107.882 16.8977 107.882Z" fill="#FFBB00"/>
<path d="M169.676 103.324C169.676 103.324 165.825 117.594 155.529 117.605C165.825 117.594 169.709 131.852 169.709 131.852C169.709 131.852 173.56 117.583 183.855 117.571C173.56 117.583 169.676 103.324 169.676 103.324Z" fill="#FFBB00"/>
<path d="M31.9529 65.9491C31.9529 65.9491 29.4941 75.0543 22.9263 75.0655C29.4941 75.0543 31.9753 84.1594 31.9753 84.1594C31.9753 84.1594 34.4341 75.0543 41.002 75.043C34.4341 75.0543 31.9529 65.9491 31.9529 65.9491Z" fill="#FFBB00"/>
<path d="M145.381 170.484C145.381 170.484 143.427 177.704 138.218 177.704C143.427 177.704 145.392 184.911 145.392 184.911C145.392 184.911 147.345 177.692 152.555 177.692C147.345 177.703 145.381 170.484 145.381 170.484Z" fill="#FFBB00"/>
<path d="M24.8689 157.742C24.8689 157.742 22.9154 164.961 17.706 164.961C22.9154 164.961 24.8801 172.169 24.8801 172.169C24.8801 172.169 26.8336 164.95 32.043 164.95C26.8336 164.961 24.8689 157.742 24.8689 157.742Z" fill="#FFBB00"/>
<path d="M111.937 15.9324C111.937 15.9324 109.984 23.1514 104.774 23.1514C109.984 23.1514 111.949 30.3593 111.949 30.3593C111.949 30.3593 113.902 23.1402 119.111 23.1402C113.902 23.1515 111.937 15.9324 111.937 15.9324Z" fill="#FFBB00"/>
<path d="M56.6762 52.0163C56.6762 52.0163 56.3282 39.1501 63.1094 39.1388C56.3282 39.1501 56.6538 26.2838 56.6538 26.2838C56.6538 26.2838 57.0018 39.1501 50.2206 39.1613C57.0018 39.1501 56.6762 52.0163 56.6762 52.0163Z" fill="#FFBB00"/>
<path d="M20.435 209.813C20.435 209.813 20.1992 200.921 24.8809 200.91C20.1992 200.91 20.4125 192.018 20.4125 192.018C20.4125 192.018 20.6482 200.91 15.9665 200.921C20.6482 200.921 20.435 209.813 20.435 209.813Z" fill="#FFBB00"/>
<path d="M159.057 90.8172C159.057 90.8172 158.877 83.9462 162.492 83.9462C158.877 83.9462 159.045 77.0864 159.045 77.0864C159.045 77.0864 159.225 83.9574 155.61 83.9574C159.225 83.9462 159.057 90.8172 159.057 90.8172Z" fill="#FFBB00"/>
<path d="M134.791 212.642C134.791 212.642 134.611 205.771 138.227 205.771C134.611 205.771 134.78 198.911 134.78 198.911C134.78 198.911 134.959 205.782 131.344 205.782C134.959 205.782 134.791 212.642 134.791 212.642Z" fill="#FFBB00"/>
<path d="M169.699 170.597C169.699 170.597 169.385 158.752 175.627 158.741C169.385 158.752 169.677 146.896 169.677 146.896C169.677 146.896 169.991 158.741 163.749 158.752C169.991 158.741 169.699 170.597 169.699 170.597Z" fill="#FFBB00"/>
<path d="M91.4546 19.0311C91.4546 19.0311 91.1963 9.51057 96.2148 9.51057C91.1963 9.51057 91.4321 0.0012207 91.4321 0.0012207C91.4321 0.0012207 91.6903 9.52179 86.6718 9.52179C91.6903 9.51056 91.4546 19.0311 91.4546 19.0311Z" fill="#FFBB00"/>
</svg>
