<svg width="304" height="470" viewBox="0 0 304 470" fill="none" xmlns="http://www.w3.org/2000/svg">
<path d="M150.243 369.135L149.562 372.249C145.468 390.954 126.821 402.888 108.136 398.799C89.4503 394.71 77.4927 376.078 81.5861 357.374L82.2676 354.259L150.243 369.135Z" fill="#FCBD6B"/>
<path d="M194.883 165.151L150.247 369.116L82.2718 354.24L126.908 150.275C130.997 131.589 149.648 119.636 168.333 123.725C177.695 125.774 185.336 131.455 190.161 138.957C194.958 146.493 196.928 155.808 194.883 165.151Z" fill="#562520"/>
<g opacity="0.2">
<path opacity="0.2" d="M161.552 451.402C162.352 447.75 138.72 439.476 108.75 432.917C78.799 426.363 53.8521 424.006 53.0528 427.658C52.2535 431.311 75.8854 439.585 105.855 446.143C135.821 452.721 160.749 455.074 161.552 451.402Z" fill="black"/>
</g>
<path d="M89.0105 422.977C86.0103 423.247 83.4003 425.416 82.723 428.511C81.89 432.317 84.3036 436.109 88.1292 436.946L92.9544 438.002C96.7799 438.839 100.556 436.402 101.389 432.596L102.832 426.002L89.0105 422.977Z" fill="#562520"/>
<path d="M97.5541 384.014L89.0074 422.977L102.829 426.001L111.372 387.058C112.209 383.233 109.787 379.479 105.962 378.642C102.159 377.79 98.3871 380.208 97.5541 384.014Z" fill="#FCBD6B"/>
<path d="M132.935 401.466L139.231 399.48C142.888 398.326 146.754 400.361 147.912 403.999L149.361 408.607C150.515 412.263 148.48 416.129 144.843 417.287C141.881 418.21 138.787 417.07 137.101 414.646L132.935 401.466Z" fill="#562520"/>
<path d="M121.594 390.524L123.517 396.646L125.488 402.919C125.631 403.373 126.101 403.617 126.536 403.471L132.918 401.463L137.061 414.658L124.581 418.574C120.427 419.881 115.986 417.62 114.617 413.473L108.266 394.356C107.054 390.505 109.39 386.363 113.447 385.498C117.007 384.786 120.498 387.061 121.594 390.524Z" fill="#FCBD6B"/>
<path d="M166.655 153.857C172.095 155.047 175.282 161.566 173.776 168.449C172.274 175.311 166.637 179.9 161.215 178.713C155.775 177.523 152.589 171.004 154.091 164.141C155.597 157.258 161.215 152.666 166.655 153.857Z" fill="white"/>
<path d="M165.819 157.682C169.568 158.503 171.783 163.016 170.744 167.765C169.704 172.513 165.806 175.689 162.058 174.868C158.309 174.048 156.094 169.534 157.133 164.786C158.172 160.038 162.07 156.862 165.819 157.682Z" fill="black"/>
<path d="M132.658 169.019C132.37 168.956 132.115 168.739 131.997 168.451C131.835 167.993 132.068 167.48 132.531 167.299L147.911 161.821L136.225 150.42C135.875 150.082 135.859 149.514 136.22 149.15C136.559 148.801 137.126 148.785 137.49 149.146L150.186 161.554C150.402 161.762 150.493 162.084 150.43 162.373C150.362 162.68 150.149 162.916 149.866 163.015L133.149 168.985C132.993 169.052 132.831 169.057 132.658 169.019Z" fill="black"/>
<path d="M154.2 175.969C154.469 176.028 154.649 176.309 154.548 176.589C154.372 177.115 154.143 177.609 153.904 178.06L144.503 176.003C144.474 175.492 144.491 174.952 144.532 174.397C144.572 174.124 144.838 173.92 145.107 173.979L154.2 175.969Z" fill="white"/>
<path d="M144.502 176.003L153.902 178.06C152.538 180.702 150.279 182.283 148.164 181.82C146.03 181.353 144.657 178.978 144.502 176.003Z" fill="#EA1D25"/>
<path d="M83.2171 131.407C78.9674 131.403 75.1932 133.277 72.6391 136.203C70.0981 133.27 66.295 131.41 62.0645 131.411C54.4102 131.408 48.1864 137.479 48.1977 144.975C48.1947 159.257 64.1313 170.661 70.2568 174.52C71.707 175.442 73.5639 175.425 75.0124 174.513C81.1537 170.66 97.0849 159.26 97.088 144.978C97.1 137.466 90.8714 131.41 83.2171 131.407Z" fill="#EA1D25"/>
<path d="M264.155 201.099C261.496 199.349 258.361 198.945 255.549 199.74C255.172 196.857 253.554 194.126 250.919 192.361C246.131 189.198 239.717 190.433 236.637 195.118C230.732 204.059 235.989 217.779 238.25 222.726C238.781 223.89 239.941 224.667 241.226 224.687C246.658 224.808 261.344 224.255 267.249 215.313C270.329 210.629 268.961 204.266 264.155 201.099Z" fill="#EA1D25"/>
<path d="M43.186 283.117C41.2767 283.465 39.7116 284.633 38.8116 286.169C37.4227 285.059 35.5641 284.532 33.6356 284.875C30.1734 285.507 27.8872 288.774 28.4979 292.151C29.6862 298.595 37.8159 302.409 40.9085 303.65C41.6288 303.949 42.4693 303.79 43.0502 303.252C45.4955 301.008 51.7458 294.539 50.5575 288.095C49.951 284.699 46.6482 282.485 43.186 283.117Z" fill="#EA1D25"/>
<path d="M195.902 294.722C194.796 293.976 193.502 293.814 192.327 294.121C192.186 292.921 191.512 291.767 190.422 291.045C188.439 289.704 185.77 290.208 184.461 292.137C181.978 295.844 184.11 301.569 185.045 303.647C185.26 304.137 185.733 304.462 186.273 304.479C188.533 304.551 194.659 304.361 197.138 300.673C198.431 298.72 197.885 296.062 195.902 294.722Z" fill="#EA1D25"/>
<path d="M112.156 89.937C110.204 89.0062 107.97 89.182 106.033 90.2085C105.64 88.0476 104.372 86.1989 102.444 85.2532C98.9272 83.5569 94.4767 85.4838 92.5155 89.567C88.7582 97.3464 93.0948 107.078 94.8968 110.535C95.322 111.353 96.1793 111.762 97.0816 111.597C100.913 110.844 111.224 108.185 114.982 100.406C116.943 96.3228 115.692 91.6374 112.156 89.937Z" fill="#EA1D25"/>
<path d="M231.275 121.384C230.358 120.881 229.284 120.908 228.323 121.342C228.192 120.286 227.649 119.361 226.731 118.859C225.076 117.952 222.889 118.743 221.824 120.665C219.797 124.311 221.625 129.123 222.396 130.843C222.571 131.243 222.983 131.475 223.421 131.409C225.29 131.153 230.326 130.14 232.348 126.514C233.414 124.591 232.926 122.309 231.275 121.384Z" fill="#EA1D25"/>
<path d="M228.164 246.244C227.247 245.741 226.173 245.768 225.212 246.202C225.08 245.146 224.537 244.221 223.62 243.718C221.965 242.812 219.778 243.603 218.712 245.525C216.686 249.171 218.513 253.982 219.285 255.702C219.459 256.103 219.872 256.334 220.309 256.269C222.178 256.013 227.21 255.019 229.237 251.374C230.283 249.447 229.819 247.15 228.164 246.244Z" fill="#EA1D25"/>
<path d="M30.3307 185.101C29.2914 185.156 28.3775 185.742 27.8019 186.623C27.1376 185.793 26.1776 185.3 25.1382 185.355C23.2645 185.449 21.8147 187.287 21.9221 189.466C22.1212 193.619 26.1868 196.765 27.7505 197.812C28.1205 198.054 28.5687 198.031 28.9094 197.763C30.3591 196.57 34.1279 193.064 33.9288 188.91C33.8257 186.712 32.2003 185.027 30.3307 185.101Z" fill="#EA1D25"/>
<path d="M124.542 207.491C115.103 206.715 106.348 210.177 100.156 216.195C95.051 209.236 86.9627 204.404 77.5237 203.628C60.5416 202.248 45.9155 204.003 44.4705 220.548C44.4705 220.548 44.3133 244.646 44.9096 248.181C49.2513 275.38 76.1528 293.475 87.6319 302.05C90.6745 304.348 94.7633 304.719 98.1577 302.923C110.813 296.366 141.322 280.581 150.151 254.593C151.344 251.168 152.596 244.069 152.902 240.369L153.643 226.027C154.99 209.38 141.581 208.883 124.542 207.491Z" fill="#961218"/>
<path d="M125.161 195.54C115.722 194.764 106.966 198.226 100.775 204.244C95.6699 197.285 87.5816 192.453 78.1426 191.677C61.1605 190.297 46.2992 202.516 44.8541 219.06L44.8313 219.257C44.5144 222.914 44.6841 226.557 45.2803 230.092C49.622 257.291 77.035 280.412 88.5141 288.988C91.5567 291.286 95.6454 291.657 99.0399 289.861C111.695 283.304 142.328 265.109 151.177 239.125C152.37 235.7 153.191 232.133 153.497 228.433L153.52 228.236C154.89 211.574 142.2 196.932 125.161 195.54Z" fill="#EA1D25"/>
<path d="M109.49 182.968L96.4727 181.829L85.3208 309.254L98.3378 310.393L109.49 182.968Z" fill="white"/>
<path d="M95.6343 306.972L106.229 185.918L99.2103 185.304L88.616 306.358L95.6343 306.972Z" fill="#FFC823"/>
<path d="M46.8121 257.542L33.5025 220.142L163.779 231.549L148.083 264.978L149.499 243.411L45.7681 234.328L46.8121 257.542Z" fill="white"/>
<path d="M45.2919 257.955L36.2349 223.399L160.503 234.277L149.734 263.97L151.43 240.571L43.5683 231.128L45.2919 257.955Z" fill="#FFC823"/>
<path d="M71.2059 217.576C68.8744 217.368 66.6949 217.938 65.0403 219.147C63.3425 220.186 62.1761 221.925 62.0054 223.902L62.5304 217.913C62.697 215.955 63.859 214.235 65.5652 213.158C67.2114 211.988 69.3994 211.379 71.731 211.587C74.6945 211.853 78.2423 213.958 81.4867 216.622C87.4272 221.327 92.5854 227.673 92.5854 227.673L92.0604 233.662C92.0604 233.662 86.9023 227.316 80.9618 222.611C77.7131 219.967 74.1694 217.841 71.2059 217.576Z" fill="#FFC823"/>
<path d="M71.8985 209.629C80.2189 210.362 92.7529 225.715 92.7529 225.715L92.5863 227.673C92.5863 227.673 87.4281 221.327 81.4877 216.623C78.2432 213.959 74.6954 211.853 71.7319 211.587C69.4004 211.379 67.2124 211.988 65.5662 213.158C63.8792 214.24 62.7022 215.936 62.5314 217.913L62.6979 215.955C63.0227 212.078 67.1736 209.219 71.8985 209.629Z" fill="white"/>
<path d="M80.9655 222.612C86.906 227.316 92.0642 233.663 92.0642 233.663L91.8766 235.717C91.8766 235.717 86.7184 229.37 80.7779 224.666C77.5335 222.002 73.9855 219.896 71.022 219.63C68.6905 219.422 66.5026 220.031 64.8564 221.202C63.1694 222.283 61.9923 223.979 61.8215 225.957L62.0091 223.903C62.1757 221.945 63.3462 220.186 65.044 219.148C66.7028 217.919 68.8781 217.368 71.2096 217.576C74.1731 217.842 77.7168 219.967 80.9655 222.612Z" fill="white"/>
<path d="M91.8726 235.716C91.8726 235.716 74.4995 234.19 69.7746 233.781C65.0496 233.371 61.4693 229.848 61.8175 225.956C61.9841 223.998 63.1462 222.278 64.8525 221.201C66.4986 220.03 68.6866 219.421 71.0181 219.629C73.9816 219.895 77.5295 222.001 80.774 224.665C86.7144 229.37 91.8726 235.716 91.8726 235.716Z" fill="white"/>
<path d="M69.8382 233.029C65.5104 232.646 62.2515 229.495 62.5498 226.015C62.6917 224.354 63.6687 222.835 65.2386 221.829C66.8337 220.708 68.8428 220.181 70.9352 220.377C73.4055 220.595 76.7131 222.326 80.2849 225.243C84.4407 228.529 88.2448 232.686 90.098 234.804L69.8382 233.029Z" fill="#C7990E"/>
<path d="M127.343 222.428C129.675 222.636 131.727 223.568 133.155 225.049C134.641 226.361 135.486 228.299 135.319 230.257L135.844 224.268C136.011 222.31 135.172 220.434 133.68 219.06C132.263 217.622 130.2 216.647 127.868 216.439C124.905 216.173 121.037 217.643 117.383 219.704C110.714 223.301 104.526 228.655 104.526 228.655L104.001 234.644C104.001 234.644 110.189 229.29 116.858 225.693C120.512 223.632 124.375 222.181 127.343 222.428Z" fill="#FFC823"/>
<path d="M128.034 214.481C119.714 213.748 104.693 226.697 104.693 226.697L104.526 228.655C104.526 228.655 110.714 223.301 117.383 219.704C121.037 217.643 124.9 216.192 127.868 216.439C130.199 216.647 132.243 217.618 133.68 219.06C135.157 220.411 136.015 222.291 135.844 224.268L136.011 222.31C136.335 218.433 132.755 214.909 128.034 214.481Z" fill="white"/>
<path d="M116.855 225.692C110.186 229.289 103.998 234.643 103.998 234.643L103.811 236.697C103.811 236.697 109.999 231.343 116.668 227.746C120.322 225.685 124.185 224.234 127.152 224.481C129.484 224.689 131.528 225.66 132.965 227.102C134.442 228.453 135.295 230.352 135.129 232.31L135.316 230.256C135.483 228.298 134.638 226.361 133.152 225.048C131.724 223.567 129.672 222.635 127.34 222.427C124.372 222.18 120.509 223.631 116.855 225.692Z" fill="white"/>
<path d="M103.831 236.701C103.831 236.701 121.204 238.227 125.929 238.636C130.654 239.046 134.801 236.207 135.13 232.31C135.296 230.352 134.458 228.477 132.966 227.103C131.548 225.664 129.485 224.689 127.154 224.481C124.19 224.215 120.323 225.685 116.669 227.746C110 231.343 103.831 236.701 103.831 236.701Z" fill="white"/>
<path d="M125.993 237.885C130.321 238.268 134.08 235.726 134.378 232.246C134.52 230.585 133.817 228.92 132.461 227.657C131.093 226.27 129.205 225.413 127.09 225.232C124.619 225.014 121.048 226.146 117.051 228.394C112.393 230.9 107.915 234.331 105.737 236.091L125.993 237.885Z" fill="#C7990E"/>
<path d="M106.308 233.194L106.093 235.746C105.913 237.761 104.076 239.253 102.061 239.074L93.5204 238.333C91.5048 238.153 89.9623 236.365 90.1415 234.35L90.3574 231.799C90.1782 233.814 91.7274 235.664 93.7471 235.824L102.287 236.565C104.284 236.74 106.133 235.191 106.308 233.194Z" fill="#C7990E"/>
<path d="M106.833 227.206L106.308 233.194C106.129 235.21 104.279 236.759 102.283 236.584L93.7425 235.843C91.727 235.664 90.1778 233.814 90.3528 231.818L90.8778 225.829C91.0696 223.756 92.9069 222.264 94.9032 222.439L103.443 223.18C105.463 223.34 107.006 225.128 106.833 227.206Z" fill="#FFC823"/>
<path d="M23.1509 239.915C21.8599 240.015 20.7436 240.697 20.0316 241.649C19.1859 240.82 17.9634 240.33 16.6681 240.45C14.3294 240.643 12.5792 242.657 12.7616 244.953C13.1151 249.322 18.2777 252.426 20.2704 253.446C20.7407 253.69 21.2934 253.649 21.7277 253.322C23.5121 251.98 28.1101 248.091 27.7566 243.723C27.5549 241.422 25.4897 239.721 23.1509 239.915Z" fill="#EA1D25"/>
<path d="M187.024 32.4872C185.488 32.091 183.918 32.5318 182.663 33.559C182.063 32.0581 180.911 30.8982 179.375 30.5021C176.605 29.7743 173.673 31.7814 172.842 35.0127C171.24 41.1432 175.729 47.5254 177.529 49.7634C177.943 50.2895 178.616 50.4704 179.241 50.2113C181.907 49.136 188.941 45.7552 190.543 39.6248C191.374 36.3934 189.807 33.1977 187.024 32.4872Z" fill="#EA1D25"/>
</svg>
