<svg width="164" height="493" viewBox="0 0 164 493" fill="none" xmlns="http://www.w3.org/2000/svg">
<path d="M55.1406 376.595L55.9502 381.419C60.9427 410.228 89.0759 429.853 118.558 424.963C147.973 420.074 168.011 392.52 163.018 363.71L162.209 358.886L55.1406 376.595Z" fill="#FABD6C"/>
<path d="M0.761008 62.0011L55.1383 376.595L162.206 358.886L107.829 44.2924C102.837 15.4827 74.7034 -4.14227 45.2883 0.747446C30.5808 3.1923 18.2346 11.3198 10.1387 22.4208C2.04286 33.4557 -1.73522 47.5962 0.761008 62.0011Z" fill="#562520"/>
<path d="M135.625 470.821C140.28 472.275 143.653 476.504 143.653 481.46C143.653 487.605 138.526 492.627 132.251 492.627H124.29C118.016 492.627 112.889 487.605 112.889 481.46V470.821H135.625Z" fill="#562520"/>
<path d="M135.626 407.783L135.693 470.821H112.89L112.822 407.783C112.822 401.572 117.95 396.616 124.224 396.616C130.498 396.616 135.626 401.638 135.626 407.783Z" fill="#FABD6C"/>
<path d="M74.502 422.783L65.2592 417.629C59.9294 414.655 53.1154 416.44 50.012 421.66L46.1664 428.267C43.1305 433.487 44.9521 440.161 50.2818 443.201C54.5996 445.646 59.9294 444.919 63.3702 441.747L74.502 422.783Z" fill="#562520"/>
<path d="M96.1573 409.7L91.0299 418.488L85.7676 427.54C85.3628 428.201 84.5532 428.399 83.946 428.003L74.5683 422.717L63.5039 441.681L81.7871 451.923C87.859 455.359 95.685 453.311 99.2607 447.43L115.857 420.074C119.096 414.523 116.802 407.387 110.73 404.678C105.333 402.431 99.0583 404.744 96.1573 409.7Z" fill="#FABD6C"/>
<path d="M72.2744 39.3366C75.985 42.1119 78.8186 46.6051 79.8305 51.9574C80.7751 57.3097 79.6956 62.4637 77.1319 66.3622C76.3223 66.6926 75.5127 66.9569 74.6357 67.1552C68.159 68.2785 61.7497 62.9923 60.4004 55.3273C59.0511 47.6624 63.1665 40.5921 69.7107 39.4688C70.5877 39.2706 71.4648 39.2706 72.2744 39.3366Z" fill="#020203"/>
<path d="M72.2745 39.3367C71.3975 39.2706 70.5204 39.2706 69.6433 39.4688C63.1666 40.5921 58.9838 47.7285 60.3331 55.3274C61.6824 62.9923 68.0916 68.2785 74.5683 67.1552C75.4454 67.0231 76.255 66.7587 77.0646 66.3623C74.8382 69.7322 71.5324 72.1771 67.5519 72.8378C58.9838 74.2915 50.618 67.3534 48.7965 57.3097C46.9749 47.2659 52.5071 37.883 61.0077 36.4293C65.0557 35.7024 69.0362 36.8918 72.2745 39.3367Z" fill="white"/>
<path d="M36.6533 45.4156C40.3639 48.1908 43.1975 52.6841 44.2094 58.0363C45.154 63.3886 44.0745 68.5426 41.5108 72.4412C40.7012 72.7716 39.8916 73.0359 39.0146 73.2341C32.5379 74.3574 26.1287 69.0712 24.7793 61.4063C23.43 53.7413 27.5454 46.671 34.0896 45.5477C34.8992 45.4156 35.7762 45.3495 36.6533 45.4156Z" fill="#020203"/>
<path d="M36.6516 45.4158C35.7745 45.3497 34.8974 45.3497 34.0204 45.5479C27.5437 46.6712 23.3608 53.8076 24.7101 61.4065C26.0595 69.0714 32.4687 74.3576 38.9454 73.2343C39.8224 73.1021 40.632 72.8378 41.4416 72.4414C39.2152 75.8113 35.9094 78.2562 31.8615 78.9169C23.2934 80.3706 14.9276 73.4325 13.106 63.3888C11.2845 53.345 16.7492 43.9621 25.3173 42.5084C29.3653 41.8476 33.3457 42.9709 36.6516 45.4158Z" fill="white"/>
<path d="M43.9395 79.974C43.9395 80.0401 43.9395 80.1062 43.9395 80.1062C44.5466 83.5422 47.9199 85.8549 51.4281 85.2602C54.9363 84.6655 57.2976 81.3616 56.6905 77.9256C56.6905 77.8595 56.6905 77.8595 56.623 77.7935L43.9395 79.974Z" fill="#E52428"/>
<path d="M52.7087 85.5908C52.3714 85.7229 51.9666 85.789 51.5618 85.8551C49.6727 86.1855 47.8512 85.789 46.2995 84.7317C44.7478 83.6745 43.7358 82.0887 43.3984 80.2385C43.3984 80.2385 43.3984 80.1064 43.3984 80.0403C43.3984 79.776 43.6008 79.4456 43.8707 79.3795L56.5542 77.1989C56.8916 77.1329 57.1614 77.3311 57.2289 77.6615C57.2289 77.7276 57.2964 77.7936 57.2964 77.8597C57.8361 81.2297 55.8796 84.4674 52.7087 85.5908ZM44.6128 80.5028C44.9501 81.8243 45.7597 83.0137 46.9066 83.8067C48.1885 84.6657 49.7402 84.9961 51.2919 84.7317C52.8436 84.4674 54.1929 83.6084 55.07 82.353C55.8796 81.2297 56.2169 79.842 56.082 78.4544L44.6128 80.5028Z" fill="#E52528"/>
<path d="M59.5917 105.084L37.1256 121.405C35.8438 122.33 33.9547 121.603 33.6849 120.083L30.0417 99.6653C29.7719 98.0795 31.2561 96.824 32.8078 97.2865L59.5917 105.084Z" fill="#E52428"/>
<path d="M50.6875 106.67L77.5388 114.533C79.0905 114.995 80.5748 113.674 80.3049 112.154L76.6618 91.7361C76.3919 90.1502 74.5029 89.4233 73.221 90.4145L50.6875 106.67Z" fill="#E52428"/>
<path d="M61.4805 104.753C60.7383 100.524 57.2976 97.6167 53.8568 98.2114C50.4161 98.8061 48.1897 102.705 48.9318 106.934C49.674 111.163 53.1147 114.07 56.5555 113.475C59.9962 112.881 62.2226 108.982 61.4805 104.753Z" fill="#E52428"/>
</svg>
