<svg width="226" height="497" viewBox="0 0 226 497" fill="none" xmlns="http://www.w3.org/2000/svg">
<path d="M181.423 323.341C176.7 357.503 144.586 381.489 109.707 376.864C74.827 372.239 50.3369 340.786 55.0595 306.624C55.8016 301.205 57.2184 296.118 59.2424 291.294C77.593 282.572 101.139 280.391 124.212 285.281C147.555 290.237 168.267 301.998 181.22 317.659H181.962C181.827 319.575 181.692 321.425 181.423 323.341Z" fill="#FABD6C"/>
<path d="M181.896 317.725H181.154C168.2 302.064 147.488 290.303 124.145 285.347C101.072 280.457 77.5264 282.638 59.1758 291.36C61.8069 285.149 65.3826 279.466 69.7004 274.444C83.9357 258.123 84.9477 253.762 81.0347 234.732C80.9672 234.533 80.9672 234.269 80.8997 234.071C80.8997 234.005 80.8322 233.873 80.8322 233.807C79.5504 227.595 79.2805 221.12 80.1576 214.446C81.9117 201.825 87.7137 190.658 96.0795 182.134C110.787 167.135 111.934 162.047 107.144 144.008C105.255 137.334 104.715 130.198 105.727 122.929C105.929 121.541 106.199 120.154 106.469 118.766C108.291 110.639 112.001 103.238 116.994 97.0928C116.994 97.0928 116.994 97.0267 117.061 97.0267C117.129 96.9607 117.196 96.8285 117.264 96.7624C128.058 83.4809 128.733 80.3753 126.304 65.1114C126.237 64.9132 126.237 64.6489 126.169 64.4506V64.3846C125.427 59.8252 125.36 55.1338 126.034 50.3101C129.745 23.681 154.775 4.98111 181.963 8.54928C209.152 12.1835 228.245 36.6982 224.602 63.3273C223.522 70.9262 220.756 77.9304 216.641 83.8774C212.458 90.0886 210.096 94.0533 209.152 98.1501C208.072 102.908 208.95 107.996 211.311 117.048C212.93 123.392 213.402 130.131 212.458 137.003C211.041 146.981 206.926 155.968 200.854 163.236C194.984 170.306 191.678 175.13 190.464 180.35C189.182 186.165 190.599 192.508 194.309 202.949C197.278 211.274 198.425 220.459 197.143 229.842C195.794 239.82 191.881 248.872 186.146 256.405C180.546 264.004 177.308 268.96 176.161 274.246C174.812 280.193 176.094 286.602 179.332 297.637C181.356 304.047 182.233 310.787 181.896 317.725Z" fill="#E0EEF1"/>
<path d="M197.076 48.7241C192.151 80.309 158.081 89.2955 158.081 89.2955C158.081 89.2955 126.709 81.102 131.634 49.517C134.602 30.6189 151.604 15.1569 169.685 14.8926C187.833 14.6943 200.044 29.826 197.076 48.7241Z" fill="#FABD6C"/>
<path d="M168.203 52.9532C168.068 52.9532 167.866 52.9532 167.731 52.8871C166.651 52.6228 166.044 51.6316 166.314 50.5744C166.719 48.8564 170.901 33.5264 180.954 33.3943C183.248 33.3943 185.272 34.1872 186.891 35.8391C190.264 39.2752 191.141 45.8829 190.804 50.9048C190.736 51.962 189.792 52.821 188.712 52.6888C187.633 52.6228 186.823 51.6977 186.891 50.6405C187.161 46.2794 186.419 40.861 184.057 38.4162C183.18 37.5572 182.371 37.1607 181.021 37.1607C175.624 37.2268 171.576 45.7507 170.159 51.4334C169.889 52.3585 169.147 52.9532 168.203 52.9532Z" fill="#020203"/>
<path d="M139.664 53.2836C139.529 53.2836 139.326 53.2836 139.192 53.2175C138.112 52.9532 137.505 51.9621 137.775 50.9048C138.18 49.1868 142.362 33.8569 152.415 33.7247C154.776 33.6587 156.733 34.5177 158.352 36.1696C161.725 39.6056 162.602 46.2133 162.265 51.2352C162.197 52.2924 161.253 53.1514 160.173 53.0193C159.094 52.9532 158.284 52.0281 158.352 50.9709C158.622 46.6098 157.88 41.1915 155.518 38.7466C154.641 37.8876 153.629 37.4911 152.482 37.4911C147.085 37.5572 143.037 46.0812 141.62 51.7638C141.35 52.6889 140.541 53.2836 139.664 53.2836Z" fill="#020203"/>
<path d="M158.349 58.2396C158.349 58.3057 158.349 58.3717 158.281 58.4378C157.876 61.2131 159.293 65.7063 161.924 65.6402C164.556 65.6402 167.389 61.0809 167.794 58.3056C167.794 58.2396 167.794 58.1735 167.794 58.1074L158.349 58.2396Z" fill="#E52629"/>
<path d="M161.858 66.499C160.913 66.499 159.969 66.0365 159.226 65.2436C157.675 63.5256 157.067 60.3538 157.405 58.3715L157.472 58.1733C157.54 57.7768 157.877 57.5125 158.282 57.5125L167.795 57.3804C167.997 57.4464 168.267 57.4464 168.402 57.6447C168.537 57.8429 168.672 58.0411 168.604 58.3054V58.5037C168.199 61.2129 165.231 66.433 161.858 66.499ZM159.091 59.0984C158.957 60.8825 159.564 63.063 160.576 64.1203C160.981 64.5828 161.52 64.781 161.925 64.8471C163.679 64.8471 166.04 61.6093 166.783 59.0323L159.091 59.0984Z" fill="#E52528"/>
<path d="M175.687 144.867C175.35 144.867 175.08 144.8 174.742 144.602C167.186 139.845 161.317 132.642 158.213 124.383C155.11 116.123 154.84 106.938 157.404 98.4803C157.674 97.6213 158.618 97.0927 159.495 97.357C160.372 97.6213 160.912 98.5464 160.642 99.4054C158.281 107.136 158.551 115.594 161.384 123.193C164.218 130.792 169.615 137.4 176.564 141.761C177.374 142.29 177.576 143.281 177.104 144.074C176.834 144.602 176.294 144.867 175.687 144.867Z" fill="#562520"/>
<path d="M161.25 149.162C160.98 149.162 160.643 149.096 160.373 148.897C142.629 138.589 136.22 116.453 145.935 98.5465C146.34 97.7536 147.419 97.4232 148.229 97.8857C149.038 98.2822 149.376 99.3394 148.903 100.132C140.065 116.453 145.868 136.607 162.059 146.056C162.869 146.519 163.139 147.576 162.667 148.303C162.397 148.897 161.857 149.162 161.25 149.162Z" fill="#562520"/>
<path d="M170.158 143.149C169.753 143.149 169.348 143.016 169.078 142.752C168.404 142.157 168.269 141.1 168.876 140.439L171.237 137.796C171.845 137.136 172.924 137.003 173.599 137.598C174.341 138.193 174.408 139.25 173.801 139.911L171.44 142.554C171.102 142.95 170.63 143.149 170.158 143.149Z" fill="#562520"/>
<path d="M154.774 146.783C154.369 146.783 153.964 146.651 153.694 146.386C152.952 145.792 152.885 144.734 153.492 144.074L155.853 141.431C156.46 140.77 157.54 140.638 158.215 141.232C158.889 141.827 159.024 142.884 158.417 143.545L156.056 146.188C155.718 146.585 155.246 146.783 154.774 146.783Z" fill="#562520"/>
<path d="M148.636 382.943L160.172 384.066C166.851 384.727 171.709 390.542 171.034 397.084L170.157 405.343C169.483 411.885 163.546 416.643 156.867 415.982C151.469 415.453 147.286 411.555 146.207 406.599L148.636 382.943Z" fill="#562520"/>
<path d="M129.409 356.512L130.151 368.01L130.286 370.388L130.421 371.578C130.556 372.239 130.691 372.965 130.893 373.626C131.298 374.948 131.973 376.203 132.85 377.327C134.536 379.573 137.033 381.225 139.731 381.886C140.136 381.952 140.541 382.084 140.945 382.15L141.553 382.282L142.902 382.414L148.637 383.009L146.208 406.665L140.473 406.07L138.989 405.938L137.167 405.674C135.953 405.542 134.739 405.211 133.592 404.947C125.563 402.898 118.277 398.141 113.352 391.599C110.856 388.361 108.967 384.661 107.685 380.829C107.078 378.912 106.606 376.93 106.336 374.882L106.066 371.908L105.931 369.529L105.189 358.032C104.784 351.49 109.844 345.874 116.523 345.477C123.27 345.015 129.004 349.971 129.409 356.512Z" fill="#FABD6C"/>
<path d="M31.3132 377.723C28.2098 378.978 25.1064 380.432 22.1379 381.952C17.0105 384.529 10.5339 382.547 6.75578 377.26L1.83075 370.587C-2.01479 365.234 0.414006 357.239 7.0931 353.869C12.4904 351.094 18.5623 352.283 21.9355 356.05L31.3132 377.723Z" fill="#562520"/>
<path d="M94.5952 369.133C91.2219 368.869 87.8486 368.274 84.4753 368.208C69.8353 367.481 54.9254 369.529 40.7576 374.221C37.5867 375.344 34.3483 376.401 31.2449 377.723L21.8672 356.05C25.5103 354.464 29.3559 353.142 33.134 351.887C49.9329 346.336 67.8788 343.825 85.7572 344.684C89.8726 344.816 93.988 345.477 98.1034 345.874C105.12 347.063 109.438 353.407 107.751 359.684C106.064 365.895 100.195 370.058 94.5952 369.133Z" fill="#FABD6C"/>
<path d="M200.449 15.025C200.449 15.025 191.813 10.0692 189.587 2.53635C188.71 -0.437127 186.619 -0.833591 184.797 1.54519C179.602 8.15292 169.617 8.4833 169.617 8.4833" fill="#E0EEF1"/>
<path d="M104.58 487.015C103.77 487.015 103.096 486.42 103.028 485.627L96.9563 416.973C96.8888 416.114 97.496 415.387 98.373 415.321C99.1826 415.189 99.9922 415.849 100.06 416.708L106.132 485.363C106.199 486.222 105.592 486.949 104.715 487.015C104.647 487.015 104.647 487.015 104.58 487.015Z" fill="#020203"/>
<path d="M113.618 496.001C112.741 496.001 112.066 495.274 112.066 494.481L112.674 428.14C112.674 427.281 113.348 426.62 114.225 426.62C115.102 426.62 115.777 427.347 115.777 428.14L115.17 494.481C115.17 495.34 114.495 496.001 113.618 496.001Z" fill="#020203"/>
<path d="M126.303 475.914C126.235 475.914 126.236 475.914 126.168 475.914C125.291 475.848 124.684 475.121 124.751 474.262L129.609 414.198C129.676 413.339 130.486 412.744 131.295 412.81C132.172 412.876 132.78 413.603 132.712 414.462L127.855 474.526C127.787 475.319 127.113 475.914 126.303 475.914Z" fill="#020203"/>
</svg>
