<svg width="0" height="0" class="hidden">
  <symbol xmlns="http://www.w3.org/2000/svg" viewBox="0 0 19 33" id="ic_arr_hor">
    <path fill-rule="evenodd" clip-rule="evenodd" d="M17.5563 0.585787C16.7753 -0.195262 15.509 -0.195262 14.7279 0.585786L0.585786 14.7279C-0.170116 15.4838 -0.194453 16.6943 0.512778 17.4794C0.536348 17.5056 0.56073 17.5313 0.585926 17.5565L14.7281 31.6986C15.5091 32.4797 16.7754 32.4797 17.5565 31.6986C18.3375 30.9176 18.3375 29.6513 17.5565 28.8702L4.82842 16.1421L17.5563 3.41421C18.3374 2.63317 18.3374 1.36684 17.5563 0.585787Z" fill="currentColor"></path>
  </symbol>
  <symbol xmlns="http://www.w3.org/2000/svg" viewBox="0 0 17 13" id="ic_arrow_hor">
    <path d="M16 5.8814L11.7812 11.2594M1 5.8814H16H1ZM16 5.8814L11.7812 1L16 5.8814Z" stroke="currentColor" stroke-width="1.5" stroke-linecap="round" stroke-linejoin="round" fill="none"></path>
  </symbol>
  <symbol xmlns="http://www.w3.org/2000/svg" viewBox="0 0 51 16" id="ic_arrow_hor2">
    <path d="M1 7C0.447715 7 4.82823e-08 7.44772 0 8C-4.82823e-08 8.55228 0.447715 9 1 9L1 7ZM50.7071 8.70711C51.0976 8.31659 51.0976 7.68342 50.7071 7.2929L44.3431 0.928936C43.9526 0.538412 43.3195 0.538412 42.9289 0.928936C42.5384 1.31946 42.5384 1.95263 42.9289 2.34315L48.5858 8L42.9289 13.6569C42.5384 14.0474 42.5384 14.6805 42.9289 15.0711C43.3195 15.4616 43.9526 15.4616 44.3431 15.0711L50.7071 8.70711ZM1 9L50 9L50 7L1 7L1 9Z" fill="currentColor"></path>
  </symbol>
  <symbol xmlns="http://www.w3.org/2000/svg" viewBox="0 0 32 33" id="ic_chrome">
    <path d="M17.92 23.8223C17.4933 23.929 16.8533 24.1423 16.0533 24.1423C14.6134 24.1423 13.2267 23.769 12.0533 22.9689C10.88 22.1689 9.97336 21.1556 9.33331 19.8756L2.50665 7.92896L2.02666 8.72894C0.693303 11.129 0 13.7956 0 16.729C0 20.729 1.33336 24.249 3.89332 27.2356C6.45335 30.169 9.75999 31.9823 13.6 32.5689L13.9733 32.6222L19.36 23.3956L17.92 23.8223ZM13.3866 31.3956C9.9733 30.8089 7.03997 29.1557 4.69331 26.4889C2.29328 23.7156 1.06667 20.4623 1.06667 16.729C1.06667 14.3289 1.54667 12.089 2.50665 10.1156L8.26664 20.3556C8.95994 21.7423 9.9733 22.9156 11.36 23.8222C12.7466 24.6756 14.2933 25.1556 15.9467 25.1556C16.3733 25.1556 16.7466 25.1023 17.0666 25.0489L13.3866 31.3956Z" fill="currentColor"></path>
    <path d="M8.80173 14.7557C9.17504 13.1557 10.0817 11.8224 11.4684 10.7557C12.7484 9.74232 14.2417 9.26232 16.0017 9.26232H30.1884L29.7084 8.46234C28.375 6.16899 26.5084 4.35564 23.9484 2.86235C21.5484 1.42231 18.8817 0.729004 16.0017 0.729004C13.5484 0.729004 11.1484 1.26231 9.01504 2.32898C6.7217 3.44897 4.74835 5.04901 3.36175 6.91567L3.14844 7.18235L8.48174 15.929L8.80173 14.7557ZM4.42842 7.28898C5.7084 5.63562 7.41507 4.30233 9.4951 3.28897C11.4684 2.27561 13.6551 1.79561 16.0018 1.79561C18.6684 1.79561 21.1751 2.48892 23.3617 3.82227C25.4951 5.04894 27.0417 6.48892 28.2684 8.24896H15.9484C13.975 8.24896 12.2684 8.78227 10.7751 9.95563C9.54841 10.9156 8.64174 12.0356 8.10843 13.369L4.42842 7.28898Z" fill="currentColor"></path>
    <path d="M30.8273 10.7023L30.6673 10.3823H20.0539L20.9606 11.289C22.5606 12.889 23.4139 14.809 23.4139 16.729C23.4139 18.2757 22.9872 19.7156 22.0806 20.9957L15.2539 32.729H16.1606C20.5339 32.6757 24.2672 31.0757 27.3605 27.9823C30.4539 24.889 32.0005 21.1024 32.0005 16.729C32.0006 15.129 31.7872 12.8357 30.8273 10.7023ZM26.6139 27.2357C23.9473 29.9023 20.8006 31.3424 17.1206 31.609L22.934 21.5823C23.9473 20.0889 24.4273 18.489 24.4273 16.729C24.4273 14.8623 23.7874 13.049 22.5074 11.449H29.974C30.774 13.3157 30.934 15.3423 30.934 16.729C30.9339 20.7823 29.4939 24.3023 26.6139 27.2357Z" fill="currentColor"></path>
    <path d="M9.60156 16.729C9.60156 20.1956 12.5349 23.1289 16.0015 23.1289C19.4682 23.1289 22.4015 20.1956 22.4015 16.729C22.4015 13.2623 19.4682 10.329 16.0015 10.329C12.5349 10.329 9.60156 13.2623 9.60156 16.729ZM16.0015 11.3957C18.8816 11.3957 21.3348 13.849 21.3348 16.729C21.3348 19.6089 18.8815 22.0623 16.0015 22.0623C13.1216 22.0623 10.6682 19.6089 10.6682 16.729C10.6682 13.849 13.1216 11.3957 16.0015 11.3957Z" fill="currentColor"></path>
  </symbol>
  <symbol xmlns="http://www.w3.org/2000/svg" viewBox="0 0 24 25" id="ic_email">
    <path fill-rule="evenodd" clip-rule="evenodd" d="M1.25 5.229C1.25 4.81479 1.58579 4.479 2 4.479H22C22.4142 4.479 22.75 4.81479 22.75 5.229V20.229C22.75 20.6432 22.4142 20.979 22 20.979H2C1.58579 20.979 1.25 20.6432 1.25 20.229V5.229ZM2.75 5.979V19.479H21.25V5.979H2.75Z" fill="currentColor"></path>
    <path fill-rule="evenodd" clip-rule="evenodd" d="M1.40004 4.77899C1.64857 4.44762 2.11867 4.38046 2.45004 4.62899L12 11.7915L21.55 4.62899C21.8814 4.38046 22.3515 4.44762 22.6 4.77899C22.8486 5.11036 22.7814 5.58046 22.45 5.82899L12.45 13.329C12.1834 13.529 11.8167 13.529 11.55 13.329L1.55004 5.82899C1.21867 5.58046 1.15152 5.11036 1.40004 4.77899Z" fill="currentColor"></path>
    <path fill-rule="evenodd" clip-rule="evenodd" d="M1.25 5.229C1.25 4.81479 1.58579 4.479 2 4.479H12C12.4142 4.479 12.75 4.81479 12.75 5.229C12.75 5.64322 12.4142 5.979 12 5.979H2.75V12.729C2.75 13.1432 2.41421 13.479 2 13.479C1.58579 13.479 1.25 13.1432 1.25 12.729V5.229Z" fill="currentColor"></path>
    <path fill-rule="evenodd" clip-rule="evenodd" d="M11.25 5.229C11.25 4.81479 11.5858 4.479 12 4.479H22C22.4142 4.479 22.75 4.81479 22.75 5.229V12.729C22.75 13.1432 22.4142 13.479 22 13.479C21.5858 13.479 21.25 13.1432 21.25 12.729V5.979H12C11.5858 5.979 11.25 5.64322 11.25 5.229Z" fill="currentColor"></path>
  </symbol>
  <symbol xmlns="http://www.w3.org/2000/svg" viewBox="0 0 23 22" id="ic_file">
    <path d="M14.3386 9.61889C14.3386 9.61889 15.4555 8.60488 14.3991 7.5485C13.3427 6.49212 12.2677 7.54797 12.2677 7.54797L10.4258 9.39003C8.57018 11.2464 8.34114 14.0362 10.1966 15.8909C12.0529 17.7473 14.9077 17.583 16.7626 15.7269L19.8702 12.6207C22.7246 9.76629 22.7246 5.12125 19.8702 2.26685L19.7453 2.14191C16.8894 -0.71397 12.2444 -0.71397 9.38987 2.14191L2.14137 9.3895C-0.71379 12.2439 -0.71379 16.8889 2.14137 19.7449L2.26631 19.8698C4.48898 22.0919 7.8312 22.6218 10.6521 21.2409C11.4094 20.8702 12.2324 20.1682 11.6892 19.1836C11.1144 18.1418 10.1048 18.3687 9.57094 18.6121C7.97788 19.2685 5.62936 19.0905 4.33723 17.7991L4.21229 17.6727C2.49899 15.9608 2.49899 13.1735 4.21229 11.4603L11.4608 4.21264C13.1741 2.49934 15.9613 2.49934 17.6732 4.21264L17.7996 4.33758C19.5114 6.05088 19.5114 8.8367 17.7996 10.55L14.6918 13.6561C13.9782 14.3697 12.9811 14.534 12.2675 13.8202C11.5538 13.1064 11.7831 12.1746 12.4967 11.4608L14.3386 9.61889Z" fill="currentColor"></path>
  </symbol>
  <symbol xmlns="http://www.w3.org/2000/svg" viewBox="0 0 4 15" id="ic_notice">
    <path d="M3.07182 10.2545C3.31492 10.2545 3.46961 10.11 3.46961 9.88308L3.69061 4.02338V0.371389C3.69061 0.123796 3.53591 0 3.29282 0H0.685083C0.441989 0 0.309392 0.123796 0.309392 0.371389V4.02338L0.530387 9.88308C0.530387 10.11 0.662984 10.2545 0.906077 10.2545H3.07182ZM4 13.1637C4 12.0908 3.16022 11.3274 1.98895 11.3274C0.81768 11.3274 0 12.0908 0 13.1637C0 14.1953 0.81768 15 1.98895 15C3.16022 15 4 14.1953 4 13.1637Z" fill="currentColor"></path>
  </symbol>
  <symbol xmlns="http://www.w3.org/2000/svg" viewBox="0 0 24 25" id="ic_phone">
    <path id="Stroke 1" d="M14.3535 3.229C18.0545 3.64 20.9785 6.56 21.3935 10.261" stroke="currentColor" stroke-width="1.5" stroke-linecap="round" stroke-linejoin="round" fill="none"></path>
    <path id="Stroke 3" d="M14.3535 6.77203C16.1245 7.11603 17.5085 8.50103 17.8535 10.272" stroke="currentColor" stroke-width="1.5" stroke-linecap="round" stroke-linejoin="round" fill="none"></path>
    <path id="Stroke 5" fill-rule="evenodd" clip-rule="evenodd" d="M11.0315 13.2014C15.0205 17.1894 15.9254 12.5757 18.4653 15.1138C20.9138 17.5618 22.3222 18.0522 19.2188 21.1537C18.8302 21.466 16.3613 25.2233 7.68447 16.5487C-0.993406 7.873 2.76157 5.40145 3.07394 5.01295C6.18377 1.90285 6.66682 3.31839 9.11539 5.76633C11.6541 8.3055 7.04254 9.21342 11.0315 13.2014Z" stroke="currentColor" stroke-width="1.5" stroke-linecap="round" stroke-linejoin="round" fill="none"></path>
  </symbol>
  <symbol xmlns="http://www.w3.org/2000/svg" viewBox="0 0 26 16" id="ic_vk">
    <path fill-rule="evenodd" clip-rule="evenodd" d="M12.7208 15.6662H14.2749C14.2749 15.6662 14.7443 15.6141 14.984 15.3528C15.2046 15.1129 15.1976 14.6625 15.1976 14.6625C15.1976 14.6625 15.1672 12.5536 16.135 12.243C17.0891 11.9371 18.3143 14.2812 19.6128 15.1825C20.5948 15.8647 21.341 15.7151 21.341 15.7151L24.8131 15.6662C24.8131 15.6662 26.6295 15.553 25.7682 14.1088C25.6976 13.9907 25.2667 13.0405 23.1866 11.0879C21.0095 9.04439 21.3011 9.37493 23.9236 5.84004C25.5208 3.68726 26.1593 2.37296 25.9599 1.81005C25.7697 1.27391 24.595 1.41562 24.595 1.41562L20.6855 1.44025C20.6855 1.44025 20.3957 1.40027 20.1808 1.5302C19.9707 1.65763 19.8356 1.95462 19.8356 1.95462C19.8356 1.95462 19.2168 3.62051 18.3916 5.03725C16.6507 8.02672 15.9547 8.18449 15.6702 7.99888C15.0084 7.56625 15.1736 6.26088 15.1736 5.33352C15.1736 2.4365 15.6081 1.22858 14.3275 0.915886C13.9025 0.812013 13.5898 0.743479 12.503 0.732413C11.1081 0.717778 9.92739 0.736696 9.25887 1.06795C8.81413 1.28819 8.47104 1.779 8.68 1.80719C8.93837 1.84218 9.52359 1.96675 9.83385 2.39402C10.2345 2.94516 10.2204 4.18307 10.2204 4.18307C10.2204 4.18307 10.4505 7.59338 9.68278 8.01708C9.1558 8.30764 8.43292 7.71439 6.88092 5.00227C6.08568 3.61301 5.48529 2.07741 5.48529 2.07741C5.48529 2.07741 5.36951 1.79042 5.16303 1.63693C4.91242 1.45096 4.56228 1.3917 4.56228 1.3917L0.847288 1.41633C0.847288 1.41633 0.289599 1.43204 0.0848775 1.67726C-0.097254 1.89536 0.0704057 2.34655 0.0704057 2.34655C0.0704057 2.34655 2.97886 9.22786 6.27205 12.6957C9.29169 15.875 12.7208 15.6662 12.7208 15.6662Z" fill="currentColor"></path>
  </symbol>
  <symbol xmlns="http://www.w3.org/2000/svg" viewBox="0 0 17 20" id="ic_video_play">
    <path d="M15.5 7.40192C17.5 8.55663 17.5 11.4434 15.5 12.5981L5 18.6603C3 19.815 0.500001 18.3716 0.500001 16.0622L0.500002 3.93782C0.500002 1.62842 3 0.185045 5 1.33975L15.5 7.40192Z" fill="currentColor"></path>
  </symbol>
  <symbol xmlns="http://www.w3.org/2000/svg" viewBox="0 0 28 20" id="ic_youtube">
    <path d="M26.5556 2.55991C25.8059 1.22646 24.9924 0.981186 23.3359 0.887913C21.6812 0.77564 17.5202 0.729004 13.9154 0.729004C10.3037 0.729004 6.14093 0.77564 4.48793 0.886186C2.83493 0.981186 2.01966 1.22473 1.26311 2.55991C0.491023 3.89164 0.09375 6.18546 0.09375 10.2238C0.09375 10.2273 0.09375 10.229 0.09375 10.229C0.09375 10.2325 0.09375 10.2342 0.09375 10.2342V10.2376C0.09375 14.2587 0.491023 16.5698 1.26311 17.8877C2.01966 19.2212 2.8332 19.463 4.4862 19.5753C6.14093 19.672 10.3037 19.729 13.9154 19.729C17.5202 19.729 21.6812 19.672 23.3377 19.577C24.9941 19.4647 25.8077 19.2229 26.5573 17.8895C27.3363 16.5716 27.7301 14.2605 27.7301 10.2394C27.7301 10.2394 27.7301 10.2342 27.7301 10.2307C27.7301 10.2307 27.7301 10.2273 27.7301 10.2255C27.7301 6.18546 27.3363 3.89164 26.5556 2.55991ZM10.4574 15.4108V5.04719L19.0938 10.229L10.4574 15.4108Z" fill="currentColor"></path>
  </symbol>
</svg>