<svg width="57" height="151" viewBox="0 0 57 151" fill="none" xmlns="http://www.w3.org/2000/svg">
<path d="M5.32324 32.2128C5.32324 33.769 5.47126 35.2862 5.75701 36.7602C6.0366 38.2342 6.45804 39.6589 6.99049 41.0301C11.4947 52.5302 11.4947 54.2324 6.99049 65.7387C5.91942 68.4708 5.32324 71.4394 5.32324 74.556C5.32324 76.1102 5.47126 77.6294 5.75701 79.1034C6.0366 80.5774 6.45804 82.0021 6.99049 83.3651C9.2457 89.1151 10.3682 92.4229 10.3682 95.7204C10.3682 99.022 9.24775 102.326 6.99049 108.076C5.91942 110.808 5.32324 113.783 5.32324 116.893C5.32324 118.449 5.47126 119.973 5.75701 121.44C6.0366 122.914 6.45804 124.347 6.99049 125.71C9.2457 131.46 10.3682 134.762 10.3682 138.066C10.3682 141.306 9.29093 144.548 7.1159 150.104H51.9117C49.7367 144.548 48.6594 141.306 48.6594 138.066C48.6594 134.764 49.7798 131.46 52.035 125.71C53.0999 122.978 53.6961 120.003 53.6961 116.893C53.6961 115.339 53.5481 113.813 53.2623 112.346C52.9828 110.872 52.5675 109.439 52.035 108.076C49.7798 102.326 48.6594 99.0241 48.6594 95.7204C48.6594 92.425 49.7798 89.1151 52.035 83.3651C53.0999 80.6329 53.6961 77.6643 53.6961 74.5539C53.6961 72.9936 53.5481 71.4743 53.2623 70.0003C52.9828 68.5325 52.5675 67.1078 52.035 65.7387C49.7798 59.9824 48.6594 56.687 48.6594 53.3833C48.6594 50.0817 49.7798 46.7781 52.035 41.028C53.0999 38.2959 53.6961 35.3211 53.6961 32.2107C53.6961 18.8521 42.8723 8.02222 29.5138 8.02222C16.1552 8.02222 5.32324 18.8542 5.32324 32.2128Z" fill="#562520"/>
<path d="M35.4713 52.1377C25.254 52.1377 16.2126 46.0032 12.4382 36.5075C12.2449 36.0202 12.4834 35.4672 12.9706 35.274C13.4579 35.0787 14.0109 35.3171 14.2041 35.8064C17.6887 44.5723 26.0373 50.2381 35.4713 50.2381C47.3908 50.2381 52.3124 39.6281 53.8769 35.0663C54.0475 34.5709 54.5861 34.3057 55.0836 34.4763C55.5791 34.647 55.8443 35.1856 55.6736 35.6831C53.9776 40.6293 48.6161 52.1377 35.4713 52.1377Z" fill="black"/>
<path d="M35.3068 53.3567C36.53 53.3567 37.7614 53.2704 38.9702 53.0977C40.1564 52.9291 40.9808 51.8313 40.8122 50.6451C40.6436 49.4589 39.5397 48.6345 38.3596 48.8031C36.4457 49.0745 34.4721 49.0889 32.552 48.8442C31.3699 48.6942 30.2783 49.5329 30.1262 50.7212C29.9741 51.9094 30.8149 52.9949 32.0031 53.147C33.0947 53.2868 34.2049 53.3567 35.3068 53.3567Z" fill="black"/>
<path d="M53.8643 38.8757C56.7074 30.1591 54.4543 24.7935 54.4543 24.7935C52.5177 19.9706 48.8255 16.8396 43.353 16.8396H28.4957C19.4811 16.8396 13.877 22.2176 13.877 30.8725V31.4871C13.877 34.0158 10.2999 39.0463 4.94043 38.0266C6.00739 38.5817 7.20592 38.8962 8.40445 38.8962C12.4996 38.8962 16.4118 35.5761 16.4118 31.4851V30.8704C16.4118 22.6554 21.8247 19.3703 28.4957 19.3703H43.353C50.024 19.3703 53.6299 24.5098 53.6299 30.8704C53.6299 30.8704 53.4264 34.9779 52.9618 37.8149C52.9556 37.8683 52.9494 37.9156 52.9494 37.9691C52.9515 38.4645 53.3565 38.8757 53.8643 38.8757Z" fill="white"/>
<path d="M54.4545 24.7935C54.4545 24.7935 56.7077 30.1591 53.8645 38.8757C54.9726 38.8757 55.3488 38.1068 55.5811 37.0214C56.5597 32.5315 56.9996 27.8278 56.9996 25.6754C56.9996 12.2737 45.9991 0.921593 29.5938 0.921593C26.6376 0.921593 25.9571 0.7119 23.0481 1.07166C10.1768 2.484 0.829102 12.2737 0.829102 25.6754C0.829102 26.9932 0.923671 29.8076 1.10869 32.6158C1.22793 34.3858 2.16332 35.9544 3.51809 37.081C3.95391 37.4449 4.43497 37.7656 4.94275 38.0287C10.3022 39.0484 13.8793 34.0158 13.8793 31.4892V30.8745C13.8793 22.2176 19.4834 16.8417 28.4981 16.8417H43.3553C48.8258 16.8417 52.5159 19.9706 54.4545 24.7935Z" fill="#5BCC1A"/>
<path d="M40.4073 42.3335C38.9868 44.0378 36.9371 45.0143 34.7847 45.0143C32.6323 45.0143 30.5827 44.0378 29.1621 42.3335H40.4073Z" fill="#EA1D25"/>
<path d="M34.7849 45.5898C32.4598 45.5898 30.2498 44.5372 28.7203 42.7014C28.5784 42.5308 28.5476 42.2923 28.6422 42.0888C28.7367 41.8873 28.9403 41.7578 29.1623 41.7578H40.4095C40.6336 41.7578 40.8351 41.8873 40.9297 42.0888C41.0242 42.2903 40.9934 42.5287 40.8515 42.7014C39.32 44.5372 37.11 45.5898 34.7849 45.5898ZM30.5541 42.9091C31.7546 43.8938 33.241 44.4386 34.7849 44.4386C36.3288 44.4386 37.8151 43.8917 39.0157 42.9091H30.5541Z" fill="#EA1D25"/>
<path d="M35.6924 32.5542C35.6924 36.9968 39.1132 40.5965 43.3317 40.5965C47.5502 40.5965 50.9711 36.9968 50.9711 32.5542C50.9711 28.1137 47.5502 24.512 43.3317 24.512C39.1112 24.512 35.6924 28.1117 35.6924 32.5542Z" fill="white"/>
<path d="M38.3848 32.554C38.3848 35.4301 40.5989 37.7613 43.3331 37.7613C46.0673 37.7613 48.2814 35.4301 48.2814 32.554C48.2814 29.6779 46.0652 27.3467 43.3331 27.3467C40.6009 27.3467 38.3848 29.6779 38.3848 32.554Z" fill="black"/>
<path d="M18.7783 32.5542C18.7783 36.9968 22.1992 40.5965 26.4177 40.5965C30.6382 40.5965 34.057 36.9968 34.057 32.5542C34.057 28.1137 30.6362 24.512 26.4177 24.512C22.1992 24.512 18.7783 28.1117 18.7783 32.5542Z" fill="white"/>
<path d="M21.4707 32.554C21.4707 35.4301 23.6848 37.7613 26.419 37.7613C29.1512 37.7613 31.3673 35.4301 31.3673 32.554C31.3673 29.6779 29.1532 27.3467 26.419 27.3467C23.6848 27.3467 21.4707 29.6779 21.4707 32.554Z" fill="black"/>
<path d="M8.06978 27.6242C8.06978 26.4709 7.4551 25.5376 6.69651 25.5376C5.93792 25.5376 5.32324 26.4709 5.32324 27.6242C5.32324 28.7775 5.93792 29.7109 6.69651 29.7109C7.4551 29.7109 8.06978 28.7775 8.06978 27.6242Z" fill="#562520"/>
<path d="M6.69662 30.4367C5.52071 30.4367 4.59766 29.2011 4.59766 27.6243C4.59766 26.0475 5.51865 24.812 6.69662 24.812C7.87459 24.812 8.79559 26.0475 8.79559 27.6243C8.79559 29.2011 7.87459 30.4367 6.69662 30.4367ZM6.69662 26.2634C6.43759 26.2634 6.04905 26.8061 6.04905 27.6243C6.04905 28.4425 6.43965 28.9853 6.69662 28.9853C6.9536 28.9853 7.3442 28.4425 7.3442 27.6243C7.3442 26.8061 6.95565 26.2634 6.69662 26.2634Z" fill="white"/>
<path d="M39.6624 13.9841C39.2472 13.9841 38.8607 13.7189 38.7271 13.3015C37.7136 10.1438 36.6096 8.49715 35.962 7.7324C35.7482 9.31125 35.3597 11.9612 35.0081 13.2584C34.8663 13.7826 34.3256 14.093 33.8014 13.9491C33.2771 13.8073 32.9667 13.2666 33.1086 12.7424C33.5814 10.9991 34.1673 6.27484 34.1735 6.22755C34.1776 6.19466 34.1837 6.16177 34.1899 6.12888C34.3235 5.54503 34.708 5.30861 34.9259 5.21816C35.5796 4.9509 36.2087 5.34768 36.476 5.51831C36.7206 5.67866 38.8278 7.17733 40.5999 12.6992C40.7664 13.2173 40.4807 13.7703 39.9646 13.9368C39.8639 13.9697 39.7611 13.9841 39.6624 13.9841Z" fill="white"/>
<path d="M38.5079 12.1525H34.8547C34.312 12.1525 33.8721 11.7125 33.8721 11.1698C33.8721 10.6271 34.312 10.1851 34.8547 10.1851H38.5079C39.0506 10.1851 39.4906 10.625 39.4906 11.1698C39.4906 11.7146 39.0506 12.1525 38.5079 12.1525Z" fill="white"/>
</svg>
