<svg width="151" height="225" viewBox="0 0 151 225" fill="none" xmlns="http://www.w3.org/2000/svg">
<path d="M73.0967 32.7278L100.974 187.544C101.287 189.276 100.132 190.945 98.3877 191.251L65.3973 197.189C63.6565 197.505 61.9966 196.346 61.6842 194.615L33.8064 39.7982L73.0967 32.7278Z" fill="#FCA923"/>
<path d="M72.5817 29.8716L73.096 32.7277L33.8152 39.7949L33.3009 36.9389C32.9852 35.198 34.1436 33.5382 35.8844 33.2225L68.8748 27.2849C70.6062 26.9724 72.2755 28.1276 72.5817 29.8716Z" fill="#FF7700"/>
<path d="M58.3239 104.418C56.2734 104.786 54.3121 103.423 53.9442 101.373L52.6421 94.1377C52.2742 92.0873 53.6366 90.1259 55.6871 89.7581C57.7375 89.3902 59.6988 90.7526 60.0667 92.803L61.3688 100.038C61.7462 102.085 60.3838 104.047 58.3239 104.418Z" fill="#D17D1B"/>
<path d="M67.5163 155.448C65.4658 155.816 63.5045 154.454 63.1366 152.403L61.8345 145.168C61.4666 143.118 62.829 141.156 64.8795 140.789C66.9299 140.421 68.8912 141.783 69.2591 143.834L70.5612 151.069C70.9291 153.119 69.5667 155.08 67.5163 155.448Z" fill="#D17D1B"/>
<path d="M78.4137 127.14C76.3633 127.508 74.402 126.146 74.0341 124.095L72.732 116.86C72.3641 114.81 73.7264 112.848 75.7769 112.48C77.8273 112.113 79.7887 113.475 80.1565 115.525L81.4587 122.76C81.8265 124.811 80.4642 126.772 78.4137 127.14Z" fill="#D17D1B"/>
<path d="M87.61 178.18C85.5596 178.548 83.5982 177.186 83.2303 175.135L81.9282 167.9C81.5604 165.85 82.9227 163.888 84.9732 163.521C87.0237 163.153 88.985 164.515 89.3529 166.565L90.655 173.8C91.0196 175.841 89.6573 177.803 87.61 178.18Z" fill="#D17D1B"/>
<path d="M47.6963 47.2848C51.5509 46.6325 55.204 49.2163 55.8563 53.071C56.5148 56.913 53.9216 60.5693 50.0669 61.2216C46.2122 61.8739 42.5591 59.2901 41.91 55.4449C41.2578 51.5902 43.8448 47.9466 47.6963 47.2848ZM52.4124 53.6579C52.0798 51.7117 50.2294 50.3961 48.2832 50.7287C46.3369 51.0613 45.0214 52.9117 45.3539 54.8579C45.6865 56.8042 47.5337 58.1102 49.4799 57.7777C51.4357 57.4419 52.7449 55.6042 52.4124 53.6579Z" fill="white"/>
<path d="M48.2835 50.7287C50.2298 50.3961 52.077 51.7021 52.4128 53.6579C52.7453 55.6042 51.4361 57.4419 49.4803 57.7776C47.534 58.1102 45.6868 56.8042 45.3543 54.8579C45.0217 52.9116 46.3372 51.0612 48.2835 50.7287Z" fill="black"/>
<path d="M63.8288 44.5393C67.6835 43.887 71.3366 46.4708 71.9889 50.3255C72.6475 54.1675 70.0542 57.8238 66.1995 58.4761C62.3448 59.1283 58.6917 56.5445 58.0426 52.6993C57.3904 48.8446 59.9742 45.1916 63.8288 44.5393ZM68.545 50.9124C68.2124 48.9661 66.362 47.6506 64.4158 47.9832C62.4695 48.3158 61.154 50.1662 61.4865 52.1124C61.8191 54.0587 63.6663 55.3647 65.6126 55.0322C67.5683 54.6964 68.8743 52.8492 68.545 50.9124Z" fill="white"/>
<path d="M64.4154 47.9833C66.3617 47.6507 68.2089 48.9567 68.5447 50.9125C68.8772 52.8588 67.568 54.6965 65.6122 55.0323C63.6659 55.3648 61.8188 54.0588 61.4862 52.1125C61.1504 50.1568 62.4597 48.3191 64.4154 47.9833Z" fill="black"/>
<path d="M54.6838 60.6066C54.4942 60.6392 54.3592 60.8328 54.4013 61.0192C55.1832 64.2597 57.1114 66.5519 58.9376 66.239C60.7543 65.9292 61.8214 63.1282 61.4881 59.8095C61.465 59.6167 61.2809 59.4785 61.0913 59.5111L54.6838 60.6066Z" fill="#EA1D25"/>
<path d="M57.8045 44.5228C57.653 44.5742 57.4726 44.5404 57.3549 44.4113C57.1895 44.2351 57.1945 43.9694 57.3708 43.8041L62.1132 39.2924C62.2894 39.127 62.5551 39.132 62.7204 39.3082C62.8858 39.4845 62.8808 39.7501 62.7046 39.9155L57.9621 44.4272C57.915 44.4749 57.8613 44.5036 57.8045 44.5228Z" fill="black"/>
<path d="M52.5439 45.4194C52.4492 45.4515 52.3322 45.4489 52.2307 45.3989L46.2623 42.7131C46.0499 42.6162 45.9538 42.3637 46.0475 42.1418C46.1444 41.9294 46.3969 41.8333 46.6188 41.927L52.5872 44.6128C52.7996 44.7097 52.8957 44.9622 52.802 45.1841C52.7457 45.2982 52.6575 45.3808 52.5439 45.4194Z" fill="black"/>
<path d="M55.2731 45.5603C55.2542 45.5667 55.2257 45.5764 55.2036 45.5733C54.9729 45.6093 54.7508 45.4523 54.7053 45.2249L54.5685 44.4476C54.5325 44.217 54.6863 43.9854 54.917 43.9494C55.1476 43.9134 55.3698 44.0704 55.4153 44.2978L55.5521 45.0751C55.5943 45.293 55.472 45.4929 55.2731 45.5603Z" fill="black"/>
<path d="M33.3441 37.1885C33.3441 37.1885 33.5037 38.0953 33.8812 40.1741C34.721 44.8311 35.3389 53.0689 30.2024 55.9825C29.8556 56.174 30.0386 56.7139 30.4336 56.6644C36.8369 55.9611 52.1554 52.9319 52.2281 40.004C52.2363 37.9105 53.7292 36.1161 55.7891 35.745L72.7361 32.6917" fill="#FF7700"/>
<path d="M91.6965 195.621L93.3586 204.603C93.5539 205.677 93.3062 206.722 92.7318 207.551C92.1573 208.379 91.2688 208.997 90.204 209.189C88.0589 209.589 86.0056 208.173 85.6056 206.028L83.9631 197.166C83.5825 195.11 84.8051 193.016 86.839 192.506C89.0814 191.957 91.2803 193.397 91.6965 195.621Z" fill="#E38D00"/>
<path d="M91.0754 191.143L92.8254 200.602C93.0367 201.724 92.7672 202.829 92.1583 203.711C91.5588 204.59 90.6261 205.234 89.5013 205.436C87.2456 205.852 85.0844 204.367 84.668 202.112L82.9441 192.792C82.5439 190.615 83.826 188.417 85.9673 187.881C88.3202 187.284 90.6396 188.799 91.0754 191.143Z" fill="#FCA923"/>
<path d="M79.349 192.87L82.2961 212.525L73.2964 213.823L71.5881 193.992C71.2735 191.849 72.7622 189.855 74.9078 189.55C77.0535 189.245 79.0438 190.724 79.349 192.87Z" fill="#FCA923"/>
<path d="M82.4685 209.763L83.062 213.881C83.3081 215.603 82.7189 217.26 81.5801 218.417C81.7645 217.995 81.8474 217.524 81.7753 217.031L81.2311 213.277C80.9 210.992 78.7794 209.409 76.4948 209.74L74.9337 209.963C73.0914 210.229 71.8037 211.943 72.0725 213.795L72.3609 215.767C72.5675 217.185 73.3453 218.389 74.4277 219.184C72.8449 218.253 71.6728 216.633 71.3876 214.671L70.9253 211.47C70.463 208.269 72.6771 205.301 75.8782 204.839C77.4676 204.606 79.0005 205.047 80.1877 205.933C81.3909 206.834 82.2358 208.174 82.4685 209.763Z" fill="#FCA923"/>
<path d="M81.2312 213.277L81.7754 217.031C81.8443 217.514 81.7741 217.992 81.5802 218.417C80.7812 219.237 79.7184 219.808 78.5018 219.988C77.0325 220.202 75.6046 219.883 74.4278 219.184C73.3486 218.399 72.5708 217.195 72.361 215.767L72.0726 213.795C71.807 211.953 73.0915 210.229 74.9338 209.963L76.4949 209.74C78.7795 209.409 80.9001 210.992 81.2312 213.277Z" fill="#E38D00"/>
<path d="M93.5104 52.0777C93.5104 52.0777 97.8838 60.6788 104.461 59.3042C97.8838 60.6788 97.3135 70.3016 97.3135 70.3016C97.3135 70.3016 92.9401 61.7004 86.3632 63.075C92.9306 61.7036 93.5104 52.0777 93.5104 52.0777Z" fill="#FFBB00"/>
<path d="M16.8253 48.6705C16.8253 48.6705 20.8538 56.5968 26.9157 55.3228C20.8506 56.5873 20.3333 65.4634 20.3333 65.4634C20.3333 65.4634 16.3049 57.5372 10.2429 58.8111C16.3049 57.5372 16.8253 48.6705 16.8253 48.6705Z" fill="#FFBB00"/>
<path d="M74.0119 17.6769C74.0119 17.6769 75.9478 21.487 78.8667 20.8775C75.9573 21.4838 75.7041 25.7511 75.7041 25.7511C75.7041 25.7511 73.7682 21.9409 70.8493 22.5505C73.7587 21.9441 74.0119 17.6769 74.0119 17.6769Z" fill="#FFBB00"/>
<path d="M90.9999 81.0161C90.9999 81.0161 93.0349 85.025 96.1023 84.3862C93.0349 85.025 92.7734 89.5168 92.7734 89.5168C92.7734 89.5168 90.7384 85.5079 87.6711 86.1467C90.7257 85.5017 90.9999 81.0161 90.9999 81.0161Z" fill="#FFBB00"/>
<path d="M32.3564 20.5442C32.3564 20.5442 34.3914 24.553 37.4587 23.9143C34.3914 24.553 34.1298 29.0449 34.1298 29.0449C34.1298 29.0449 32.0948 25.036 29.0275 25.6747C32.0916 25.0265 32.3564 20.5442 32.3564 20.5442Z" fill="#FFBB00"/>
<path d="M85.7202 48.8161C85.7202 48.8161 84.3308 41.1989 80.3473 42.032C84.3308 41.1989 82.5591 33.669 82.5591 33.669C82.5591 33.669 83.9486 41.2862 87.932 40.453C83.9486 41.2862 85.7202 48.8161 85.7202 48.8161Z" fill="#FFBB00"/>
<path d="M25.7513 45.2852C25.7513 45.2852 25.0063 41.2191 22.8866 41.6632C25.0157 41.2159 24.0653 37.1983 24.0653 37.1983C24.0653 37.1983 24.8104 41.2644 26.93 40.8202C24.7977 41.2581 25.7513 45.2852 25.7513 45.2852Z" fill="#FFBB00"/>
<path d="M36.9965 102.557C36.9965 102.557 36.2514 98.4911 34.1317 98.9352C36.2608 98.4879 35.3105 94.4703 35.3105 94.4703C35.3105 94.4703 36.0555 98.5363 38.1752 98.0922C36.0461 98.5396 36.9965 102.557 36.9965 102.557Z" fill="#FFBB00"/>
<path d="M32.7562 86.5302C32.7562 86.5302 31.4773 79.5196 27.8098 80.2879C31.4773 79.5196 29.8448 72.5867 29.8448 72.5867C29.8448 72.5867 31.1236 79.5973 34.7911 78.829C31.1204 79.5878 32.7562 86.5302 32.7562 86.5302Z" fill="#FFBB00"/>
<path d="M54.3365 22.183C54.3365 22.183 53.3146 16.553 50.3641 17.1627C53.3113 16.5435 52.002 10.9688 52.002 10.9688C52.002 10.9688 53.0239 16.5988 55.9743 15.9891C53.0271 16.6082 54.3365 22.183 54.3365 22.183Z" fill="#FFBB00"/>
</svg>
