<svg width="168" height="195" viewBox="0 0 168 195" fill="none" xmlns="http://www.w3.org/2000/svg">
<path d="M65.2215 156.211C64.2826 159.091 62.811 161.844 60.7707 164.318C52.0134 174.953 36.2956 176.47 25.6606 167.712C15.0255 158.955 13.5088 143.246 22.257 132.611C23.2771 131.374 24.3966 130.255 25.5793 129.271C26.771 128.278 28.0349 127.411 29.353 126.68C29.4523 126.626 29.5517 126.562 29.66 126.508L65.3208 155.868C65.2937 155.985 65.2576 156.093 65.2215 156.211Z" fill="#FCBD6B"/>
<path d="M112.953 100.246C114.144 99.2615 115.264 98.1511 116.275 96.9052C118.315 94.4225 119.787 91.6689 120.726 88.798C124.68 76.6823 125.8 75.3281 136.922 69.1259C138.24 68.3856 139.513 67.5279 140.705 66.5348C141.897 65.5507 143.016 64.4403 144.027 63.1944C150.175 55.7282 151.25 45.7612 147.675 37.4554C143.179 27.2176 144.84 26.3419 145.354 25.5835L145.345 25.5745C145.923 24.7078 145.77 23.5251 144.948 22.848C144.127 22.1709 142.935 22.2431 142.194 22.9834L142.185 22.9744C141.554 23.6064 141.021 25.3398 130.756 23.1189C121.737 20.8979 111.833 23.8321 105.532 31.4879C103.491 33.9616 102.02 36.7241 101.072 39.5951C99.0945 45.6529 97.8306 49.0113 95.6639 51.6475C93.4971 54.2747 90.4456 56.1616 84.8753 59.2672C83.5572 60.0075 82.2933 60.8742 81.1016 61.8583C79.9099 62.8423 78.7904 63.9528 77.7702 65.1987C75.7299 67.6723 74.2583 70.4259 73.3194 73.2968C71.3423 79.3547 70.0693 82.7221 67.9116 85.3493C65.7449 87.9764 62.6934 89.8723 57.1231 92.969C55.805 93.7093 54.541 94.576 53.3493 95.56C52.1576 96.5441 51.0382 97.6545 50.027 98.9004C47.9867 101.374 46.5151 104.137 45.5672 107.008C43.59 113.065 42.3261 116.424 40.1594 119.06C38.0378 121.642 35.0494 123.511 29.6777 126.508L65.3386 155.867C67.2525 150.017 68.5165 146.731 70.6381 144.149C72.8048 141.522 75.8563 139.626 81.4266 136.529C82.7447 135.789 84.0176 134.931 85.2094 133.938C86.4011 132.954 87.5205 131.844 88.5317 130.598C90.572 128.124 92.0436 125.362 92.9826 122.491C94.9597 116.433 96.2236 113.074 98.3904 110.438C100.548 107.811 103.609 105.915 109.179 102.819C110.497 102.096 111.761 101.239 112.953 100.246Z" fill="#DFEDF0"/>
<path d="M6.23146 173.996C4.4439 173.265 2.3223 173.743 1.03128 175.314C-0.557655 177.246 -0.277791 180.108 1.64519 181.697L4.10085 183.719C6.03285 185.308 8.89476 185.037 10.4837 183.105L13.2372 179.765L6.23146 173.996Z" fill="#562520"/>
<path d="M22.491 154.252L6.23145 173.996L13.2372 179.765L29.4968 160.021C31.0947 158.089 30.8058 155.218 28.8738 153.629C26.9418 152.04 24.0799 152.32 22.491 154.252Z" fill="#FCBD6B"/>
<path d="M23.2322 187.989C24.2885 189.605 24.2253 191.781 22.9343 193.352C21.3454 195.284 18.4835 195.555 16.5515 193.966L14.0959 191.944C12.1638 190.355 11.884 187.484 13.4729 185.561L16.2265 182.22L23.2322 187.989Z" fill="#562520"/>
<path d="M39.4919 168.245L23.2323 187.99L16.2266 182.221L32.4861 162.476C34.0841 160.544 36.9459 160.264 38.8779 161.853C40.8099 163.451 41.0808 166.313 39.4919 168.245Z" fill="#FCBD6B"/>
<path d="M138.883 59.1138C128.103 72.2045 110.995 64.0883 110.995 64.0883C110.995 64.0883 99.7372 48.8579 110.526 35.7672C116.972 27.9399 128.555 26.8114 136.382 33.2665C144.218 39.7035 145.338 51.2774 138.883 59.1138Z" fill="#FCBD6B"/>
<path d="M123.661 36.6609C126.514 39.0082 126.55 43.6847 123.725 47.1154C120.908 50.537 116.304 51.4037 113.451 49.0564C110.607 46.7091 110.58 42.0326 113.397 38.6109C116.222 35.1893 120.818 34.3136 123.661 36.6609ZM121.865 45.5806C123.67 43.3868 123.643 40.3985 121.829 38.8998C120.005 37.3921 117.071 37.9519 115.265 40.1457C113.46 42.3305 113.478 45.3278 115.301 46.8265C117.125 48.3251 120.068 47.7744 121.865 45.5806Z" fill="white"/>
<path d="M121.828 38.8997C123.652 40.3983 123.67 43.3866 121.864 45.5804C120.059 47.7652 117.125 48.325 115.301 46.8263C113.477 45.3186 113.459 42.3303 115.265 40.1455C117.07 37.9517 119.996 37.392 121.828 38.8997Z" fill="black"/>
<path d="M135.47 46.3843C138.323 48.7315 138.359 53.4081 135.533 56.8387C132.716 60.2604 128.112 61.1271 125.259 58.7798C122.415 56.4325 122.388 51.7559 125.205 48.3343C128.031 44.9127 132.626 44.037 135.47 46.3843ZM133.673 55.304C135.479 53.1101 135.452 50.1219 133.637 48.6232C131.814 47.1155 128.879 47.6753 127.074 49.8691C125.268 52.0539 125.286 55.0512 127.11 56.5498C128.934 58.0485 131.877 57.4978 133.673 55.304Z" fill="white"/>
<path d="M133.637 48.6232C135.461 50.1219 135.479 53.1102 133.673 55.304C131.867 57.4888 128.933 58.0485 127.11 56.5499C125.286 55.0422 125.268 52.0539 127.073 49.8691C128.879 47.6753 131.813 47.1246 133.637 48.6232Z" fill="black"/>
<path d="M106.797 74.1363C106.742 79.2552 106.661 86.4326 106.661 86.4326C106.661 86.4326 106.733 79.2462 106.797 74.1363ZM106.797 74.1363C106.851 69.0174 106.896 64.8735 106.896 64.8735C106.896 64.8735 106.851 69.0174 106.797 74.1363Z" stroke="#562520" stroke-width="1.7024" stroke-miterlimit="10" stroke-linecap="round" stroke-linejoin="round"/>
<path d="M106.129 84.2478L107.239 84.2568" stroke="#562520" stroke-width="1.7024" stroke-miterlimit="10" stroke-linecap="round" stroke-linejoin="round"/>
<path d="M111.141 77.5221C111.213 82.641 111.304 89.8183 111.304 89.8183C111.304 89.8183 111.204 82.641 111.141 77.5221ZM111.141 77.5221C111.069 72.4032 111.015 68.2593 111.015 68.2593C111.015 68.2593 111.069 72.4122 111.141 77.5221Z" stroke="#562520" stroke-width="1.7024" stroke-miterlimit="10" stroke-linecap="round" stroke-linejoin="round"/>
<path d="M110.716 87.6516L111.826 87.6426" stroke="#562520" stroke-width="1.7024" stroke-miterlimit="10" stroke-linecap="round" stroke-linejoin="round"/>
<path d="M123.905 59.9893L122.208 60.5941" stroke="#EA1D25" stroke-width="0.681" stroke-miterlimit="10" stroke-linecap="round" stroke-linejoin="round"/>
<path d="M125.224 61.0728L123.526 61.6776" stroke="#EA1D25" stroke-width="0.681" stroke-miterlimit="10" stroke-linecap="round" stroke-linejoin="round"/>
<path d="M126.541 62.156L124.844 62.7699" stroke="#EA1D25" stroke-width="0.681" stroke-miterlimit="10" stroke-linecap="round" stroke-linejoin="round"/>
<path d="M110.083 48.605L108.386 49.2189" stroke="#EA1D25" stroke-width="0.681" stroke-miterlimit="10" stroke-linecap="round" stroke-linejoin="round"/>
<path d="M111.401 49.6885L109.704 50.3024" stroke="#EA1D25" stroke-width="0.681" stroke-miterlimit="10" stroke-linecap="round" stroke-linejoin="round"/>
<path d="M112.719 50.7808L111.021 51.3856" stroke="#EA1D25" stroke-width="0.681" stroke-miterlimit="10" stroke-linecap="round" stroke-linejoin="round"/>
<path d="M119.363 53.9226C118.831 53.4893 118.045 53.5615 117.612 54.0942L116.7 55.2046C116.267 55.7373 116.339 56.5227 116.872 56.956C117.404 57.3894 118.19 57.3172 118.623 56.7845L119.535 55.6741C119.977 55.1414 119.896 54.356 119.363 53.9226Z" fill="#EA1D25"/>
<path d="M134.09 10.6689C133.376 13.8649 132.546 17.5935 132.546 17.5935" stroke="black" stroke-width="0.8" stroke-miterlimit="10" stroke-linecap="round" stroke-linejoin="round"/>
<path d="M127.49 1C127.282 7.00366 126.921 17.5394 126.921 17.5394" stroke="black" stroke-width="0.8" stroke-miterlimit="10" stroke-linecap="round" stroke-linejoin="round"/>
<path d="M119.843 9.55859C120.89 13.2059 122.416 18.5325 122.416 18.5325" stroke="black" stroke-width="0.8" stroke-miterlimit="10" stroke-linecap="round" stroke-linejoin="round"/>
<path d="M155.865 71.0667C153.084 69.3424 149.834 67.3291 149.834 67.3291" stroke="black" stroke-width="0.8" stroke-miterlimit="10" stroke-linecap="round" stroke-linejoin="round"/>
<path d="M167.168 68.0242C161.571 65.8484 151.739 62.0386 151.739 62.0386" stroke="black" stroke-width="0.8" stroke-miterlimit="10" stroke-linecap="round" stroke-linejoin="round"/>
<path d="M161.607 57.985C157.815 57.7684 152.29 57.4524 152.29 57.4524" stroke="black" stroke-width="0.8" stroke-miterlimit="10" stroke-linecap="round" stroke-linejoin="round"/>
</svg>
