<svg width="80" height="239" viewBox="0 0 80 239" fill="none" xmlns="http://www.w3.org/2000/svg">
<path d="M26.7517 182.707L27.1445 185.047C29.5666 199.024 43.2155 208.545 57.5191 206.173C71.7899 203.801 81.5111 190.433 79.089 176.455L78.6962 174.115L26.7517 182.707Z" fill="#FABD6C"/>
<path d="M0.369206 30.0801L26.7506 182.707L78.6951 174.115L52.3137 21.4886C49.8916 7.51149 36.2427 -2.00964 21.9718 0.362627C14.8364 1.54876 8.8466 5.49186 4.91885 10.8775C0.991101 16.2312 -0.84185 23.0915 0.369206 30.0801Z" fill="#562520"/>
<path d="M65.7989 228.421C68.0573 229.126 69.6939 231.178 69.6939 233.582C69.6939 236.564 67.2063 239 64.1623 239H60.3C57.256 239 54.7684 236.564 54.7684 233.582V228.421H65.7989Z" fill="#562520"/>
<path d="M65.7994 197.838L65.8321 228.421H54.7689L54.7362 197.838C54.7362 194.824 57.2238 192.42 60.2678 192.42C63.3118 192.42 65.7994 194.857 65.7994 197.838Z" fill="#FABD6C"/>
<path d="M36.145 205.115L31.6608 202.615C29.075 201.172 25.7692 202.038 24.2635 204.57L22.3979 207.776C20.925 210.308 21.8087 213.546 24.3945 215.021C26.4893 216.207 29.075 215.854 30.7443 214.316L36.145 205.115Z" fill="#562520"/>
<path d="M46.6511 198.768L44.1636 203.031L41.6105 207.423C41.4141 207.744 41.0214 207.84 40.7268 207.648L36.1771 205.083L30.8092 214.284L39.6794 219.252C42.6252 220.919 46.422 219.926 48.1568 217.073L56.2087 203.801C57.7798 201.108 56.6669 197.646 53.7211 196.331C51.1026 195.241 48.0586 196.363 46.6511 198.768Z" fill="#FABD6C"/>
<path d="M35.0643 19.0844C36.8645 20.4308 38.2392 22.6107 38.7302 25.2074C39.1884 27.8041 38.6647 30.3045 37.4209 32.1959C37.0282 32.3562 36.6354 32.4845 36.2099 32.5806C33.0677 33.1256 29.9582 30.561 29.3036 26.8423C28.649 23.1236 30.6456 19.6935 33.8205 19.1485C34.246 19.0523 34.6715 19.0523 35.0643 19.0844Z" fill="#020203"/>
<path d="M35.0643 19.0843C34.6388 19.0523 34.2133 19.0523 33.7878 19.1484C30.6456 19.6934 28.6163 23.1556 29.2709 26.8423C29.9255 30.561 33.035 33.1256 36.1772 32.5806C36.6027 32.5165 36.9955 32.3883 37.3882 32.1959C36.3081 33.8309 34.7043 35.017 32.7731 35.3376C28.6163 36.0428 24.5576 32.6768 23.6738 27.804C22.7901 22.9312 25.4741 18.3791 29.5982 17.6738C31.5621 17.3212 33.4932 17.8982 35.0643 19.0843Z" fill="white"/>
<path d="M17.7826 22.0336C19.5828 23.3801 20.9575 25.56 21.4485 28.1567C21.9067 30.7533 21.383 33.2538 20.1392 35.1452C19.7464 35.3055 19.3537 35.4337 18.9282 35.5299C15.786 36.0749 12.6765 33.5103 12.0219 29.7916C11.3672 26.0729 13.3638 22.6427 16.5388 22.0978C16.9315 22.0336 17.3571 22.0016 17.7826 22.0336Z" fill="#020203"/>
<path d="M17.7817 22.0337C17.3562 22.0016 16.9307 22.0016 16.5052 22.0978C13.363 22.6428 11.3336 26.105 11.9883 29.7916C12.6429 33.5103 15.7524 36.0749 18.8946 35.5299C19.3201 35.4658 19.7128 35.3376 20.1056 35.1453C19.0255 36.7802 17.4217 37.9663 15.4578 38.2869C11.3009 38.9922 7.24224 35.6261 6.35849 30.7533C5.47475 25.8806 8.12598 21.3284 12.2829 20.6231C14.2467 20.3025 16.1779 20.8475 17.7817 22.0337Z" fill="white"/>
<path d="M21.3175 38.7997C21.3175 38.8318 21.3175 38.8638 21.3175 38.8638C21.6121 40.5308 23.2486 41.6529 24.9507 41.3643C26.6527 41.0758 27.7983 39.4729 27.5037 37.8059C27.5037 37.7739 27.5037 37.7739 27.471 37.7418L21.3175 38.7997Z" fill="#E52428"/>
<path d="M25.5718 41.5247C25.4082 41.5889 25.2118 41.6209 25.0154 41.653C24.0989 41.8133 23.2152 41.6209 22.4624 41.108C21.7096 40.5951 21.2186 39.8257 21.0549 38.9281C21.0549 38.9281 21.0549 38.864 21.0549 38.8319C21.0549 38.7037 21.1531 38.5434 21.284 38.5113L27.4375 37.4534C27.6012 37.4214 27.7321 37.5175 27.7648 37.6778C27.7648 37.7099 27.7976 37.7419 27.7976 37.774C28.0594 39.4089 27.1102 40.9798 25.5718 41.5247ZM21.6441 39.0563C21.8078 39.6974 22.2005 40.2745 22.757 40.6592C23.3789 41.0759 24.1317 41.2362 24.8845 41.108C25.6373 40.9798 26.2919 40.563 26.7174 39.9539C27.1102 39.4089 27.2739 38.7357 27.2084 38.0625L21.6441 39.0563Z" fill="#E52528"/>
<path d="M28.9111 50.9818L18.0116 58.9C17.3897 59.3488 16.4732 58.9962 16.3423 58.2589L14.5748 48.353C14.4439 47.5837 15.164 46.9746 15.9168 47.199L28.9111 50.9818Z" fill="#E52428"/>
<path d="M24.5913 51.7512L37.6183 55.566C38.3712 55.7904 39.0913 55.1493 38.9603 54.4119L37.1928 44.5061C37.0619 43.7367 36.1454 43.3841 35.5235 43.865L24.5913 51.7512Z" fill="#E52428"/>
<path d="M29.8275 50.8214C29.4674 48.7697 27.7981 47.3592 26.1288 47.6477C24.4595 47.9362 23.3794 49.8276 23.7394 51.8793C24.0995 53.931 25.7688 55.3415 27.4381 55.053C29.1074 54.7645 30.1875 52.8731 29.8275 50.8214Z" fill="#E52428"/>
</svg>
