<svg width="633" height="103" viewBox="0 0 633 103" fill="none" xmlns="http://www.w3.org/2000/svg">
<path d="M19.9503 56.4692C18.2803 54.5706 17.7733 53.1988 17.3459 51.8469C17.1372 51.1908 17.0278 50.823 16.1034 49.7694C15.8151 49.4413 15 48.9344 14.2744 48.4771C12.9623 47.662 11.332 46.6382 9.9702 45.0974C8.73759 43.6859 8.01196 42.1053 7.37578 40.7038C6.96823 39.7992 6.54079 38.8648 6.13324 38.3976C5.63622 37.831 4.74156 37.2744 3.80717 36.6879C2.56463 35.9125 1.14314 35.0278 0 33.7157L6.51091 28C6.81907 28.3479 7.65407 28.8747 8.38965 29.332C9.69184 30.1471 11.3022 31.1511 12.6442 32.672C13.8966 34.0934 14.6223 35.6839 15.2585 37.0954C15.666 37.99 16.0934 38.9145 16.4811 39.3718C16.998 39.9582 17.9026 40.5248 18.8569 41.1213C20.0895 41.8867 21.491 42.7614 22.6143 44.0437C24.5924 46.2902 25.159 47.8012 25.6163 49.2624C25.8151 49.8986 25.8648 50.0676 26.4513 50.7336L19.9503 56.4692Z" fill="#5043FF"/>
<path d="M152.943 13.4791C153.023 13.4592 153.162 13.3996 153.221 13.3499L148.291 8.75744C149.812 7.16699 151.303 6.92842 152.098 6.79919C152.158 6.78925 152.227 6.77931 152.287 6.76937C152.297 6.75943 152.317 6.73956 152.337 6.71968C152.406 6.54076 152.506 6.22266 152.565 5.99403C152.884 4.94035 153.311 3.48906 154.454 2.29622C155.518 1.1829 156.86 0.7157 157.854 0.367788C158.172 0.258444 158.639 0.0894631 158.788 0C158.788 0 158.728 0.0397565 158.659 0.119279L163.53 4.77135C162.456 5.89461 161.084 6.38169 160.09 6.7296C159.852 6.81907 159.504 6.93837 159.305 7.02783C159.245 7.20676 159.116 7.63418 159.017 7.94233C158.718 8.95624 158.341 10.2087 157.347 11.2525C155.617 13.0616 154.027 13.3201 153.172 13.4592C153.092 13.4493 153.013 13.4592 152.943 13.4791Z" fill="#FFF200"/>
<path d="M49.1467 4.04587C48.5503 3.04189 47.9539 2.02797 47.3575 1.02399C44.7034 0.795364 42.8843 1.87886 41.8008 4.31424C42.3972 5.32816 42.9936 6.33215 43.59 7.34607C44.6735 4.90074 46.5026 3.81724 49.1467 4.04587Z" fill="#FF66AA"/>
<path d="M93.5029 50.2326C95.0934 49.4175 96.6839 48.5925 98.2842 47.7773C98.8707 43.7515 97.3896 40.8688 93.7813 39C92.1908 39.8151 90.6004 40.6402 89 41.4553C92.5984 43.3241 94.0795 46.2068 93.5029 50.2326Z" fill="#45E5CA"/>
<path d="M57.705 49C54.5937 50.4314 51.4923 51.8728 48.381 53.3042C46.9496 60.9384 49.544 66.5646 56.2935 70.4215C59.4049 68.9901 62.5062 67.5487 65.6176 66.1173C58.878 62.2505 56.2736 56.6342 57.705 49Z" fill="#FF5D00"/>
<path d="M126.294 89.2747C123.898 88.3403 121.512 87.4158 119.117 86.4814C114.246 89.6822 112.566 94.0063 113.988 99.6524C116.383 100.587 118.769 101.511 121.164 102.446C119.733 96.7995 121.423 92.4755 126.294 89.2747Z" fill="#FFF200"/>
<path d="M597.231 24.1164C595.866 21.1971 594.5 18.2621 593.119 15.3427C585.899 14.0243 580.61 16.5042 577 22.8764C578.365 25.7958 579.731 28.7308 581.112 31.6502C584.706 25.2622 590.011 22.798 597.231 24.1164Z" fill="#FF5D00"/>
<path d="M197.99 85.7156C199.113 87.2165 200.237 88.7076 201.36 90.2086C205.604 90.0992 208.318 88.0615 209.601 84.0158C208.477 82.5148 207.354 81.0237 206.231 79.5227C204.948 83.5784 202.235 85.6062 197.99 85.7156Z" fill="#45E5CA"/>
<path d="M102.564 23.0915C103.688 24.5925 104.811 26.0836 105.934 27.5846C110.179 27.4752 112.892 25.4375 114.175 21.3917C113.052 19.8907 111.928 18.3997 110.805 16.8987C109.523 20.9543 106.809 22.9822 102.564 23.0915Z" fill="#45E5CA"/>
<path d="M551.425 95.5606C554.189 95.1232 556.952 94.6859 559.726 94.2385C562.549 88.5427 561.753 83.5427 557.3 79C554.537 79.4374 551.773 79.8747 549 80.3221C553.453 84.8648 554.249 89.8648 551.425 95.5606Z" fill="#FCA923"/>
<path d="M200.416 20.5367C203.179 20.0993 205.942 19.6619 208.716 19.2146C211.539 13.5188 210.744 8.51881 206.29 3.97607C203.527 4.41345 200.764 4.85081 197.99 5.29813C202.444 9.84087 203.239 14.8409 200.416 20.5367Z" fill="#FCA923"/>
<path d="M626.544 45.0001C628.569 43.462 630.593 41.9239 632.618 40.3701C632.43 34.5942 629.636 30.9372 624.127 29.2107C622.102 30.7488 620.077 32.287 618.053 33.8408C623.577 35.5673 626.356 39.24 626.544 45.0001Z" fill="#4FE06E"/>
<path d="M53.043 21.7793C53.5698 22.9821 54.0967 24.1749 54.6235 25.3777L62.5758 30.6162C63.6096 30.4771 64.5837 30.2186 65.5181 29.8509L53.371 21.8389C53.2617 21.8191 53.1523 21.7992 53.043 21.7793Z" fill="white"/>
<path d="M53.3613 21.8386L65.5084 29.8505C66.2142 29.5623 66.8902 29.2144 67.5462 28.7969L57.5064 22.1865C56.2043 22.2362 54.8226 22.1269 53.3613 21.8386Z" fill="#45E5CA"/>
<path d="M54.6133 25.3779C55.3389 27.028 56.0646 28.6781 56.7902 30.3282C58.8777 30.7656 60.8061 30.855 62.5755 30.6165L54.6133 25.3779Z" fill="#45E5CA"/>
<path d="M57.5059 22.1869L67.5456 28.7972C68.2017 28.3797 68.8279 27.8926 69.4243 27.326L60.7862 21.6401C59.7524 21.9582 58.6589 22.1372 57.5059 22.1869Z" fill="white"/>
<path d="M60.7871 21.64L69.4253 27.3258C69.9621 26.8189 70.4889 26.2523 70.976 25.636L63.2722 20.5664C62.4869 21.0237 61.6619 21.3815 60.7871 21.64Z" fill="#45E5CA"/>
<path d="M63.2812 20.5666L70.985 25.6362C71.4423 25.0696 71.8697 24.4532 72.2872 23.7872L65.2594 19.155C64.6232 19.7017 63.9671 20.169 63.2812 20.5666Z" fill="white"/>
<path d="M65.248 19.1648L72.2758 23.797C72.3454 23.6777 72.415 23.5684 72.4846 23.4491C71.2321 20.5962 69.9796 17.7433 68.7371 14.9004C67.7033 16.63 66.5403 18.0515 65.248 19.1648Z" fill="#45E5CA"/>
</svg>
