<svg width="396" height="230" viewBox="0 0 396 230" fill="none" xmlns="http://www.w3.org/2000/svg">
<path d="M52.7094 135.181C49.2176 131.212 48.1576 128.343 47.2639 125.517C46.8274 124.145 46.5988 123.376 44.6658 121.173C44.0631 120.487 42.3589 119.427 40.8416 118.471C38.0981 116.766 34.6894 114.626 31.8419 111.404C29.2647 108.453 27.7474 105.148 26.4172 102.217C25.5651 100.326 24.6713 98.3723 23.8192 97.3954C22.78 96.2107 20.9093 95.0468 18.9556 93.8205C16.3575 92.1993 13.3853 90.3495 10.9951 87.6059L24.6089 75.6549C25.2532 76.3824 26.9991 77.4839 28.5371 78.44C31.2599 80.1443 34.627 82.2436 37.4329 85.4236C40.0518 88.3958 41.569 91.7212 42.8992 94.6726C43.7514 96.5432 44.6451 98.4762 45.4557 99.4322C46.5365 100.659 48.4279 101.843 50.4232 103.09C53.0004 104.691 55.931 106.52 58.2796 109.201C62.4157 113.898 63.6004 117.057 64.5565 120.113C64.9722 121.443 65.0762 121.796 66.3025 123.189L52.7094 135.181Z" fill="#5043FF"/>
<path d="M257.061 28.1836C257.227 28.1421 257.518 28.0173 257.643 27.9134L247.334 18.311C250.514 14.9855 253.632 14.4867 255.294 14.2165C255.419 14.1957 255.565 14.1749 255.689 14.1542C255.71 14.1334 255.752 14.0918 255.793 14.0503C255.939 13.6761 256.147 13.011 256.271 12.533C256.936 10.3298 257.83 7.29531 260.22 4.80119C262.444 2.47334 265.25 1.49647 267.329 0.769012C267.994 0.540384 268.971 0.187059 269.282 0C269.282 0 269.158 0.0831274 269.012 0.249402L279.196 9.97648C276.952 12.3251 274.084 13.3436 272.005 14.071C271.506 14.2581 270.779 14.5075 270.363 14.6946C270.238 15.0687 269.968 15.9624 269.76 16.6067C269.137 18.7267 268.347 21.3456 266.269 23.5279C262.652 27.3107 259.327 27.8511 257.539 28.1421C257.373 28.1213 257.207 28.1421 257.061 28.1836Z" fill="#FFF200"/>
<path d="M40.0325 8.4595C38.7855 6.36028 37.5384 4.24025 36.2914 2.14103C30.7419 1.66299 26.9383 3.92848 24.6729 9.02066C25.9199 11.1407 27.167 13.2399 28.414 15.3599C30.6795 10.247 34.5039 7.98146 40.0325 8.4595Z" fill="#FF66AA"/>
<path d="M9.41526 218.402C12.7408 216.698 16.0663 214.973 19.4125 213.269C20.6388 204.851 17.542 198.823 9.99728 194.916C6.67178 196.62 3.34629 198.345 0 200.05C7.52395 203.957 10.6208 209.985 9.41526 218.402Z" fill="#45E5CA"/>
<path d="M55.4721 149.377C48.9665 152.37 42.4818 155.384 35.9763 158.377C32.9833 174.34 38.4081 186.103 52.5207 194.168C59.0262 191.175 65.511 188.161 72.0165 185.168C57.9247 177.083 52.4791 165.34 55.4721 149.377Z" fill="#FF5D00"/>
<path d="M201.339 186.665C196.33 184.711 191.342 182.778 186.333 180.824C176.149 187.517 172.636 196.558 175.608 208.364C180.617 210.317 185.606 212.25 190.615 214.204C187.622 202.398 191.155 193.357 201.339 186.665Z" fill="#FFF200"/>
<path d="M395.987 82.7391C394.179 78.8732 392.371 74.9865 390.542 71.1206C380.981 69.3747 373.977 72.6586 369.196 81.0971C371.005 84.963 372.813 88.8497 374.642 92.7156C379.401 84.2564 386.427 80.9932 395.987 82.7391Z" fill="#FF5D00"/>
<path d="M351.257 179.224C353.605 182.362 355.954 185.48 358.303 188.618C367.178 188.389 372.852 184.129 375.533 175.669C373.184 172.531 370.836 169.413 368.487 166.275C365.806 174.755 360.132 178.995 351.257 179.224Z" fill="#45E5CA"/>
<path d="M151.728 48.2819C154.076 51.4204 156.425 54.538 158.773 57.6765C167.648 57.4478 173.323 53.1871 176.004 44.7278C173.655 41.5894 171.306 38.4717 168.958 35.3333C166.277 43.8133 160.602 48.0533 151.728 48.2819Z" fill="#45E5CA"/>
<path d="M258.642 230C264.42 229.085 270.198 228.171 275.997 227.235C281.899 215.326 280.237 204.872 270.925 195.373C265.147 196.288 259.369 197.202 253.57 198.137C262.882 207.636 264.544 218.09 258.642 230Z" fill="#FCA923"/>
<path d="M356.328 42.9408C362.106 42.0262 367.884 41.1117 373.683 40.1764C379.586 28.2669 377.923 17.8124 368.612 8.31396C362.834 9.22848 357.056 10.143 351.257 11.0783C360.568 20.5767 362.231 31.0313 356.328 42.9408Z" fill="#FCA923"/>
<path d="M352.108 128.008C354.789 125.971 357.47 123.934 360.151 121.876C359.902 114.228 356.202 109.385 348.907 107.099C346.226 109.136 343.544 111.172 340.863 113.23C348.179 115.516 351.858 120.38 352.108 128.008Z" fill="#4FE06E"/>
<path d="M48.1768 45.5386C49.2783 48.0535 50.38 50.5476 51.4815 53.0625L68.109 64.0159C70.2706 63.7249 72.3074 63.1845 74.2611 62.4155L48.8627 45.6633C48.634 45.6217 48.4054 45.5801 48.1768 45.5386Z" fill="white"/>
<path d="M48.8418 45.6631L74.2403 62.4153C75.7159 61.8125 77.1294 61.0851 78.5012 60.2122L57.5089 46.3906C54.7861 46.4945 51.8971 46.2658 48.8418 45.6631Z" fill="#45E5CA"/>
<path d="M51.4609 53.0627C52.9782 56.513 54.4955 59.9632 56.0127 63.4134C60.3774 64.3279 64.4096 64.5149 68.1092 64.0161L51.4609 53.0627Z" fill="#45E5CA"/>
<path d="M57.5098 46.391L78.5021 60.2126C79.8738 59.3396 81.1832 58.3212 82.4302 57.1365L64.3686 45.2478C62.207 45.9129 59.9208 46.2871 57.5098 46.391Z" fill="white"/>
<path d="M64.3672 45.2476L82.4288 57.1363C83.5512 56.0763 84.6527 54.8916 85.6712 53.603L69.5633 43.0029C67.9213 43.959 66.1962 44.7072 64.3672 45.2476Z" fill="#45E5CA"/>
<path d="M69.585 43.0029L85.6929 53.603C86.6489 52.4183 87.5427 51.1296 88.4156 49.737L73.721 40.0515C72.3908 41.1947 71.0191 42.1715 69.585 43.0029Z" fill="white"/>
<path d="M73.6982 40.0723L88.3927 49.7578C88.5382 49.5084 88.6837 49.2798 88.8292 49.0303C86.2104 43.0652 83.5915 37.1001 80.9935 31.1558C78.8319 34.7722 76.4002 37.7444 73.6982 40.0723Z" fill="#45E5CA"/>
</svg>
