<svg width="663" height="111" viewBox="0 0 663 111" fill="none" xmlns="http://www.w3.org/2000/svg">
<path d="M292.08 79H280.95L284.925 53.772L277.081 56.793L278.83 46.034L288.158 41.9H297.963L292.08 79ZM309.893 67.022C306.854 67.022 304.363 65.9443 302.42 63.789C300.512 61.6337 299.558 58.9837 299.558 55.839C299.558 51.493 300.989 47.9773 303.851 45.292C306.713 42.536 310.476 41.158 315.14 41.158C319.698 41.158 323.16 42.5537 325.528 45.345C327.93 48.1717 329.132 51.7403 329.132 56.051C329.132 62.093 327.436 67.4813 324.044 72.216C322.383 74.5127 320.228 76.35 317.578 77.728C314.963 79.0707 312.083 79.742 308.939 79.742C304.911 79.742 301.695 78.8233 299.293 76.986L300.883 67.234C303.038 69.0713 305.635 69.99 308.674 69.99C310.723 69.99 312.472 69.513 313.921 68.559C315.405 67.5697 316.429 66.1917 316.995 64.425C316.288 65.2377 315.263 65.8737 313.921 66.333C312.613 66.7923 311.271 67.022 309.893 67.022ZM314.928 50.433C313.691 50.433 312.649 50.857 311.801 51.705C310.988 52.553 310.582 53.613 310.582 54.885C310.582 56.051 310.882 56.9697 311.483 57.641C312.119 58.277 313.002 58.595 314.133 58.595C315.864 58.595 317.295 57.8707 318.426 56.422C318.602 55.892 318.691 55.2383 318.691 54.461C318.691 53.2243 318.32 52.2527 317.578 51.546C316.871 50.804 315.988 50.433 314.928 50.433ZM357.584 59.973C358.997 60.6443 360.163 61.722 361.082 63.206C362.001 64.6547 362.46 66.2093 362.46 67.87C362.46 71.474 360.958 74.3537 357.955 76.509C354.952 78.6643 351.383 79.742 347.249 79.742C345.341 79.742 343.468 79.5123 341.631 79.053C339.829 78.629 338.133 77.993 336.543 77.145C334.988 76.2617 333.734 75.078 332.78 73.594C331.826 72.0747 331.349 70.361 331.349 68.453C331.349 66.2623 332.02 64.2837 333.363 62.517C334.706 60.715 336.49 59.4253 338.716 58.648C337.656 58.012 336.808 57.111 336.172 55.945C335.536 54.7437 335.218 53.4717 335.218 52.129C335.218 48.9137 336.614 46.2813 339.405 44.232C342.196 42.1827 345.5 41.158 349.316 41.158C351.471 41.158 353.574 41.5113 355.623 42.218C357.672 42.8893 359.439 44.0553 360.923 45.716C362.442 47.3413 363.202 49.32 363.202 51.652C363.202 53.4187 362.69 55.044 361.665 56.528C360.676 57.9767 359.315 59.125 357.584 59.973ZM346.931 70.414C348.132 70.414 349.175 70.0783 350.058 69.407C350.977 68.7357 351.436 67.87 351.436 66.81C351.436 65.856 351.047 65.0433 350.27 64.372C349.493 63.7007 348.468 63.365 347.196 63.365C345.995 63.365 344.935 63.7183 344.016 64.425C343.133 65.0963 342.691 65.9797 342.691 67.075C342.691 67.9937 343.08 68.7887 343.857 69.46C344.634 70.096 345.659 70.414 346.931 70.414ZM352.549 53.189C352.549 52.341 352.231 51.652 351.595 51.122C350.959 50.592 350.111 50.327 349.051 50.327C348.062 50.327 347.214 50.6097 346.507 51.175C345.836 51.705 345.5 52.4293 345.5 53.348C345.5 54.1253 345.818 54.7967 346.454 55.362C347.125 55.892 347.938 56.157 348.892 56.157C349.917 56.157 350.782 55.892 351.489 55.362C352.196 54.7967 352.549 54.0723 352.549 53.189ZM394.97 50.274L387.762 55.68C389.599 56.5987 391.083 57.8883 392.214 59.549C393.38 61.2097 393.963 63.1883 393.963 65.485C393.963 69.7957 392.461 73.2407 389.458 75.82C386.419 78.4347 382.515 79.742 377.745 79.742C375.165 79.742 372.692 79.424 370.325 78.788C367.993 78.1167 366.155 77.304 364.813 76.35L366.509 66.068C369.441 68.612 372.922 69.884 376.95 69.884C378.646 69.884 380.041 69.5307 381.137 68.824C382.232 68.1173 382.78 67.1103 382.78 65.803C382.78 64.849 382.373 64.054 381.561 63.418C380.783 62.782 379.635 62.464 378.116 62.464C375.819 62.464 373.823 62.8527 372.127 63.63L373.24 56.846L381.084 51.387H369.795L371.385 41.9H396.348L394.97 50.274Z" fill="#B1B1B1"/>
<path d="M288.08 77H276.95L280.925 51.772L273.081 54.793L274.83 44.034L284.158 39.9H293.963L288.08 77ZM305.893 65.022C302.854 65.022 300.363 63.9443 298.42 61.789C296.512 59.6337 295.558 56.9837 295.558 53.839C295.558 49.493 296.989 45.9773 299.851 43.292C302.713 40.536 306.476 39.158 311.14 39.158C315.698 39.158 319.16 40.5537 321.528 43.345C323.93 46.1717 325.132 49.7403 325.132 54.051C325.132 60.093 323.436 65.4813 320.044 70.216C318.383 72.5127 316.228 74.35 313.578 75.728C310.963 77.0707 308.083 77.742 304.939 77.742C300.911 77.742 297.695 76.8233 295.293 74.986L296.883 65.234C299.038 67.0713 301.635 67.99 304.674 67.99C306.723 67.99 308.472 67.513 309.921 66.559C311.405 65.5697 312.429 64.1917 312.995 62.425C312.288 63.2377 311.263 63.8737 309.921 64.333C308.613 64.7923 307.271 65.022 305.893 65.022ZM310.928 48.433C309.691 48.433 308.649 48.857 307.801 49.705C306.988 50.553 306.582 51.613 306.582 52.885C306.582 54.051 306.882 54.9697 307.483 55.641C308.119 56.277 309.002 56.595 310.133 56.595C311.864 56.595 313.295 55.8707 314.426 54.422C314.602 53.892 314.691 53.2383 314.691 52.461C314.691 51.2243 314.32 50.2527 313.578 49.546C312.871 48.804 311.988 48.433 310.928 48.433ZM353.584 57.973C354.997 58.6443 356.163 59.722 357.082 61.206C358.001 62.6547 358.46 64.2093 358.46 65.87C358.46 69.474 356.958 72.3537 353.955 74.509C350.952 76.6643 347.383 77.742 343.249 77.742C341.341 77.742 339.468 77.5123 337.631 77.053C335.829 76.629 334.133 75.993 332.543 75.145C330.988 74.2617 329.734 73.078 328.78 71.594C327.826 70.0747 327.349 68.361 327.349 66.453C327.349 64.2623 328.02 62.2837 329.363 60.517C330.706 58.715 332.49 57.4253 334.716 56.648C333.656 56.012 332.808 55.111 332.172 53.945C331.536 52.7437 331.218 51.4717 331.218 50.129C331.218 46.9137 332.614 44.2813 335.405 42.232C338.196 40.1827 341.5 39.158 345.316 39.158C347.471 39.158 349.574 39.5113 351.623 40.218C353.672 40.8893 355.439 42.0553 356.923 43.716C358.442 45.3413 359.202 47.32 359.202 49.652C359.202 51.4187 358.69 53.044 357.665 54.528C356.676 55.9767 355.315 57.125 353.584 57.973ZM342.931 68.414C344.132 68.414 345.175 68.0783 346.058 67.407C346.977 66.7357 347.436 65.87 347.436 64.81C347.436 63.856 347.047 63.0433 346.27 62.372C345.493 61.7007 344.468 61.365 343.196 61.365C341.995 61.365 340.935 61.7183 340.016 62.425C339.133 63.0963 338.691 63.9797 338.691 65.075C338.691 65.9937 339.08 66.7887 339.857 67.46C340.634 68.096 341.659 68.414 342.931 68.414ZM348.549 51.189C348.549 50.341 348.231 49.652 347.595 49.122C346.959 48.592 346.111 48.327 345.051 48.327C344.062 48.327 343.214 48.6097 342.507 49.175C341.836 49.705 341.5 50.4293 341.5 51.348C341.5 52.1253 341.818 52.7967 342.454 53.362C343.125 53.892 343.938 54.157 344.892 54.157C345.917 54.157 346.782 53.892 347.489 53.362C348.196 52.7967 348.549 52.0723 348.549 51.189ZM390.97 48.274L383.762 53.68C385.599 54.5987 387.083 55.8883 388.214 57.549C389.38 59.2097 389.963 61.1883 389.963 63.485C389.963 67.7957 388.461 71.2407 385.458 73.82C382.419 76.4347 378.515 77.742 373.745 77.742C371.165 77.742 368.692 77.424 366.325 76.788C363.993 76.1167 362.155 75.304 360.813 74.35L362.509 64.068C365.441 66.612 368.922 67.884 372.95 67.884C374.646 67.884 376.041 67.5307 377.137 66.824C378.232 66.1173 378.78 65.1103 378.78 63.803C378.78 62.849 378.373 62.054 377.561 61.418C376.783 60.782 375.635 60.464 374.116 60.464C371.819 60.464 369.823 60.8527 368.127 61.63L369.24 54.846L377.084 49.387H365.795L367.385 39.9H392.348L390.97 48.274Z" fill="#D00000"/>
<path d="M285.08 75V77H286.788L287.055 75.3132L285.08 75ZM273.95 75L271.974 74.6887L271.61 77H273.95V75ZM277.925 49.772L279.901 50.0833L280.44 46.6602L277.206 47.9056L277.925 49.772ZM270.081 52.793L268.107 52.4721L267.548 55.9118L270.8 54.6594L270.081 52.793ZM271.83 42.034L271.02 40.2055L270.03 40.6443L269.856 41.7131L271.83 42.034ZM281.158 37.9V35.9H280.735L280.348 36.0715L281.158 37.9ZM290.963 37.9L292.938 38.2132L293.305 35.9H290.963V37.9ZM285.08 73H273.95V77H285.08V73ZM275.926 75.3113L279.901 50.0833L275.949 49.4607L271.974 74.6887L275.926 75.3113ZM277.206 47.9056L269.362 50.9266L270.8 54.6594L278.644 51.6384L277.206 47.9056ZM272.055 53.1139L273.804 42.3549L269.856 41.7131L268.107 52.4721L272.055 53.1139ZM272.64 43.8625L281.968 39.7285L280.348 36.0715L271.02 40.2055L272.64 43.8625ZM281.158 39.9H290.963V35.9H281.158V39.9ZM288.988 37.5868L283.105 74.6868L287.055 75.3132L292.938 38.2132L288.988 37.5868ZM295.42 59.789L293.922 61.1147L293.928 61.1215L293.934 61.1283L295.42 59.789ZM296.851 41.292L298.219 42.7505L298.228 42.7416L298.238 42.7326L296.851 41.292ZM318.528 41.345L317.002 42.6386L317.004 42.6403L318.528 41.345ZM317.044 68.216L318.664 69.3879L318.669 69.3808L317.044 68.216ZM310.578 73.728L311.491 75.5072L311.5 75.5024L310.578 73.728ZM292.293 72.986L290.319 72.6642L290.126 73.8468L291.078 74.5747L292.293 72.986ZM293.883 63.234L295.18 61.712L292.48 59.41L291.909 62.9122L293.883 63.234ZM306.921 64.559L308.021 66.2294L308.03 66.2231L306.921 64.559ZM309.995 60.425L311.899 61.0346L308.485 59.1126L309.995 60.425ZM306.921 62.333L306.273 60.4407L306.265 60.4433L306.258 60.4461L306.921 62.333ZM304.801 47.705L303.386 46.2908L303.371 46.3058L303.357 46.3212L304.801 47.705ZM304.483 53.641L302.992 54.9746L303.029 55.016L303.068 55.0552L304.483 53.641ZM311.426 52.422L313.002 53.6525L313.214 53.3811L313.323 53.0545L311.426 52.422ZM310.578 47.546L309.129 48.9253L309.163 48.9606L309.198 48.9943L310.578 47.546ZM302.893 61.022C300.39 61.022 298.449 60.1625 296.905 58.4497L293.934 61.1283C296.277 63.7261 299.318 65.022 302.893 65.022V61.022ZM296.917 58.4633C295.364 56.7087 294.558 54.5441 294.558 51.839H290.558C290.558 55.4233 291.659 58.5587 293.922 61.1147L296.917 58.4633ZM294.558 51.839C294.558 47.9798 295.806 45.015 298.219 42.7505L295.482 39.8335C292.172 42.9396 290.558 47.0062 290.558 51.839H294.558ZM298.238 42.7326C300.663 40.3972 303.897 39.158 308.14 39.158V35.158C303.055 35.158 298.762 36.6748 295.463 39.8514L298.238 42.7326ZM308.14 39.158C312.267 39.158 315.106 40.4024 317.002 42.6386L320.053 40.0514C317.215 36.7049 313.128 35.158 308.14 35.158V39.158ZM317.004 42.6403C319.05 45.048 320.132 48.1338 320.132 52.051H324.132C324.132 47.3469 322.81 43.2953 320.051 40.0497L317.004 42.6403ZM320.132 52.051C320.132 57.6918 318.557 62.6695 315.418 67.0512L318.669 69.3808C322.314 64.2932 324.132 58.4942 324.132 52.051H320.132ZM315.423 67.0441C313.955 69.0747 312.044 70.7113 309.655 71.9536L311.5 75.5024C314.411 73.9887 316.811 71.9506 318.664 69.3879L315.423 67.0441ZM309.664 71.9489C307.352 73.1363 304.788 73.742 301.939 73.742V77.742C305.378 77.742 308.574 77.005 311.491 75.5071L309.664 71.9489ZM301.939 73.742C298.205 73.742 295.461 72.8914 293.507 71.3973L291.078 74.5747C293.929 76.7552 297.616 77.742 301.939 77.742V73.742ZM294.266 73.3078L295.856 63.5558L291.909 62.9122L290.319 72.6642L294.266 73.3078ZM292.585 64.756C295.13 66.9253 298.197 67.99 301.674 67.99V63.99C299.073 63.99 296.946 63.2173 295.18 61.712L292.585 64.756ZM301.674 67.99C304.042 67.99 306.19 67.435 308.021 66.2293L305.821 62.8887C304.754 63.591 303.404 63.99 301.674 63.99V67.99ZM308.03 66.2231C309.907 64.9718 311.202 63.214 311.899 61.0346L308.09 59.8154C307.656 61.1693 306.902 62.1675 305.811 62.8949L308.03 66.2231ZM308.485 59.1126C308.072 59.5879 307.385 60.0602 306.273 60.4407L307.568 64.2253C309.141 63.6871 310.504 62.8874 311.504 61.7374L308.485 59.1126ZM306.258 60.4461C305.162 60.831 304.043 61.022 302.893 61.022V65.022C304.498 65.022 306.064 64.7537 307.584 64.2199L306.258 60.4461ZM307.928 44.433C306.179 44.433 304.622 45.0548 303.386 46.2908L306.215 49.1192C306.675 48.6592 307.203 48.433 307.928 48.433V44.433ZM303.357 46.3212C302.156 47.5741 301.582 49.1442 301.582 50.885H305.582C305.582 50.0818 305.82 49.5319 306.245 49.0888L303.357 46.3212ZM301.582 50.885C301.582 52.3943 301.976 53.8391 302.992 54.9746L305.973 52.3074C305.788 52.1003 305.582 51.7076 305.582 50.885H301.582ZM303.068 55.0552C304.17 56.157 305.615 56.595 307.133 56.595V52.595C306.389 52.595 306.067 52.397 305.897 52.2268L303.068 55.0552ZM307.133 56.595C309.522 56.595 311.519 55.5523 313.002 53.6525L309.849 51.1915C309.07 52.189 308.205 52.595 307.133 52.595V56.595ZM313.323 53.0545C313.588 52.258 313.691 51.3757 313.691 50.461H309.691C309.691 51.101 309.616 51.526 309.528 51.7895L313.323 53.0545ZM313.691 50.461C313.691 48.7989 313.176 47.2584 311.957 46.0977L309.198 48.9943C309.463 49.2469 309.691 49.6498 309.691 50.461H313.691ZM312.026 46.1667C310.927 45.0132 309.514 44.433 307.928 44.433V48.433C308.461 48.433 308.815 48.5948 309.129 48.9253L312.026 46.1667ZM350.584 55.973L349.704 54.1769L345.981 56.0006L349.726 57.7796L350.584 55.973ZM354.082 59.206L352.381 60.2587L352.387 60.2679L352.393 60.2771L354.082 59.206ZM350.955 72.509L352.121 74.1339L350.955 72.509ZM334.631 75.053L335.116 73.1127L335.102 73.1093L335.089 73.1062L334.631 75.053ZM329.543 73.145L328.555 74.8839L328.578 74.8971L328.602 74.9097L329.543 73.145ZM325.78 69.594L324.086 70.6575L324.092 70.6666L324.098 70.6755L325.78 69.594ZM326.363 58.517L327.955 59.7272L327.961 59.7196L327.967 59.712L326.363 58.517ZM331.716 54.648L332.375 56.5362L336.405 55.129L332.745 52.933L331.716 54.648ZM329.172 51.945L327.404 52.8808L327.41 52.8918L327.416 52.9027L329.172 51.945ZM332.405 40.232L333.588 41.8442L332.405 40.232ZM348.623 38.218L347.971 40.1087L347.986 40.1138L348 40.1186L348.623 38.218ZM353.923 41.716L352.432 43.0487L352.446 43.0654L352.462 43.0818L353.923 41.716ZM354.665 52.528L353.019 51.3916L353.013 51.4001L354.665 52.528ZM343.058 65.407L341.878 63.7922L341.863 63.8033L341.848 63.8147L343.058 65.407ZM343.27 60.372L344.577 58.8584L343.27 60.372ZM337.016 60.425L338.226 62.0174L338.235 62.0102L337.016 60.425ZM336.857 65.46L335.55 66.9736L335.57 66.9911L335.59 67.0079L336.857 65.46ZM339.507 47.175L340.746 48.7448L340.756 48.7367L339.507 47.175ZM339.454 51.362L338.125 52.8568L338.169 52.8956L338.215 52.9318L339.454 51.362ZM344.489 51.362L345.689 52.962L345.714 52.9433L345.738 52.9237L344.489 51.362ZM349.726 57.7796C350.752 58.2672 351.641 59.0627 352.381 60.2587L355.782 58.1533C354.685 56.3813 353.242 55.0215 351.442 54.1664L349.726 57.7796ZM352.393 60.2771C353.115 61.4166 353.46 62.6016 353.46 63.87H357.46C357.46 61.8171 356.886 59.8928 355.771 58.1349L352.393 60.2771ZM353.46 63.87C353.46 66.8103 352.285 69.093 349.789 70.8841L352.121 74.1339C355.632 71.6143 357.46 68.1377 357.46 63.87H353.46ZM349.789 70.8841C347.165 72.767 344.016 73.742 340.249 73.742V77.742C344.75 77.742 348.738 76.5617 352.121 74.1339L349.789 70.8841ZM340.249 73.742C338.503 73.742 336.793 73.5321 335.116 73.1127L334.146 76.9933C336.143 77.4926 338.179 77.742 340.249 77.742V73.742ZM335.089 73.1062C333.451 72.7207 331.917 72.1448 330.484 71.3803L328.602 74.9097C330.348 75.8412 332.207 76.5373 334.173 76.9998L335.089 73.1062ZM330.531 71.4061C329.253 70.6803 328.239 69.7206 327.462 68.5125L324.098 70.6755C325.229 72.4354 326.723 73.8431 328.555 74.8839L330.531 71.4061ZM327.474 68.5305C326.733 67.3503 326.349 66.0097 326.349 64.453H322.349C322.349 66.7123 322.919 68.799 324.086 70.6575L327.474 68.5305ZM326.349 64.453C326.349 62.7055 326.873 61.1507 327.955 59.7272L324.771 57.3068C323.167 59.4166 322.349 61.8192 322.349 64.453H326.349ZM327.967 59.712C329.059 58.2464 330.507 57.1887 332.375 56.5362L331.056 52.7598C328.473 53.6619 326.352 55.1836 324.759 57.322L327.967 59.712ZM332.745 52.933C332.013 52.4939 331.406 51.8648 330.928 50.9873L327.416 52.9027C328.209 54.3572 329.299 55.5301 330.687 56.363L332.745 52.933ZM330.939 51.0092C330.454 50.0925 330.218 49.1413 330.218 48.129H326.218C326.218 49.8021 326.618 51.3949 327.404 52.8808L330.939 51.0092ZM330.218 48.129C330.218 45.6054 331.264 43.5505 333.588 41.8442L331.221 38.6198C327.963 41.0122 326.218 44.2219 326.218 48.129H330.218ZM333.588 41.8442C336.002 40.0726 338.88 39.158 342.316 39.158V35.158C338.12 35.158 334.391 36.2928 331.221 38.6198L333.588 41.8442ZM342.316 39.158C344.248 39.158 346.13 39.474 347.971 40.1087L349.275 36.3273C347.017 35.5487 344.694 35.158 342.316 35.158V39.158ZM348 40.1186C349.704 40.6767 351.174 41.6415 352.432 43.0487L355.414 40.3833C353.704 38.4692 351.641 37.102 349.245 36.3174L348 40.1186ZM352.462 43.0818C353.617 44.3174 354.202 45.8002 354.202 47.652H358.202C358.202 44.8398 357.267 42.3652 355.384 40.3502L352.462 43.0818ZM354.202 47.652C354.202 49.0038 353.818 50.2343 353.019 51.3916L356.311 53.6644C357.561 51.8537 358.202 49.8335 358.202 47.652H354.202ZM353.013 51.4001C352.238 52.5353 351.156 53.4656 349.704 54.1769L351.464 57.7691C353.474 56.7844 355.113 55.418 356.316 53.6559L353.013 51.4001ZM339.931 68.414C341.531 68.414 343.007 67.9575 344.268 66.9993L341.848 63.8147C341.342 64.1992 340.734 64.414 339.931 64.414V68.414ZM344.238 67.0218C345.628 66.0061 346.436 64.5611 346.436 62.81H342.436C342.436 63.1789 342.325 63.4652 341.878 63.7922L344.238 67.0218ZM346.436 62.81C346.436 61.2262 345.756 59.8766 344.577 58.8584L341.963 61.8856C342.338 62.21 342.436 62.4858 342.436 62.81H346.436ZM344.577 58.8584C343.356 57.8036 341.829 57.365 340.196 57.365V61.365C341.107 61.365 341.629 61.5978 341.963 61.8856L344.577 58.8584ZM340.196 57.365C338.571 57.365 337.078 57.8538 335.796 58.8398L338.235 62.0102C338.791 61.5829 339.418 61.365 340.196 61.365V57.365ZM335.806 58.8327C334.432 59.8765 333.691 61.3452 333.691 63.075H337.691C337.691 62.6141 337.833 62.3162 338.226 62.0173L335.806 58.8327ZM333.691 63.075C333.691 64.6476 334.391 65.9726 335.55 66.9736L338.164 63.9464C337.768 63.6047 337.691 63.3397 337.691 63.075H333.691ZM335.59 67.0079C336.812 68.007 338.323 68.414 339.931 68.414V64.414C338.995 64.414 338.457 64.185 338.123 63.9121L335.59 67.0079ZM347.549 49.189C347.549 47.7641 346.98 46.5061 345.875 45.5856L343.314 48.6584C343.482 48.7979 343.549 48.9179 343.549 49.189H347.549ZM345.875 45.5856C344.789 44.6803 343.445 44.327 342.051 44.327V48.327C342.777 48.327 343.129 48.5037 343.314 48.6584L345.875 45.5856ZM342.051 44.327C340.653 44.327 339.352 44.7373 338.257 45.6133L340.756 48.7367C341.075 48.4821 341.471 48.327 342.051 48.327V44.327ZM338.268 45.6052C337.076 46.5457 336.5 47.8694 336.5 49.348H340.5C340.5 48.9892 340.595 48.8643 340.746 48.7448L338.268 45.6052ZM336.5 49.348C336.5 50.7546 337.107 51.9523 338.125 52.8568L340.783 49.8672C340.528 49.6411 340.5 49.4961 340.5 49.348H336.5ZM338.215 52.9318C339.28 53.7726 340.543 54.157 341.892 54.157V50.157C341.333 50.157 340.971 50.0114 340.693 49.7922L338.215 52.9318ZM341.892 54.157C343.277 54.157 344.583 53.7917 345.689 52.962L343.289 49.762C342.982 49.9923 342.556 50.157 341.892 50.157V54.157ZM345.738 52.9237C346.906 51.9897 347.549 50.697 347.549 49.189H343.549C343.549 49.4477 343.485 49.6037 343.239 49.8003L345.738 52.9237ZM387.97 46.274L389.17 47.874L389.813 47.3918L389.943 46.5987L387.97 46.274ZM380.762 51.68L379.562 50.08L376.973 52.0216L379.867 53.4689L380.762 51.68ZM385.214 55.549L383.56 56.6746L383.568 56.6865L383.577 56.6983L385.214 55.549ZM382.458 71.82L381.155 70.3027L381.153 70.304L382.458 71.82ZM363.325 74.788L362.771 76.7099L362.788 76.7149L362.806 76.7195L363.325 74.788ZM357.813 72.35L355.839 72.0245L355.636 73.2569L356.654 73.9804L357.813 72.35ZM359.509 62.068L360.819 60.5572L358.117 58.2135L357.535 61.7425L359.509 62.068ZM374.137 64.824L375.221 66.5046L374.137 64.824ZM374.561 59.418L373.294 60.9659L373.311 60.9796L373.328 60.993L374.561 59.418ZM365.127 59.63L363.153 59.3062L362.545 63.0134L365.96 61.4481L365.127 59.63ZM366.24 52.846L365.097 51.2044L364.403 51.6876L364.266 52.5222L366.24 52.846ZM374.084 47.387L375.226 49.0286L380.459 45.387H374.084V47.387ZM362.795 47.387L360.822 47.0564L360.431 49.387H362.795V47.387ZM364.385 37.9V35.9H362.692L362.412 37.5694L364.385 37.9ZM389.348 37.9L391.321 38.2247L391.704 35.9H389.348V37.9ZM386.77 44.674L379.562 50.08L381.962 53.28L389.17 47.874L386.77 44.674ZM379.867 53.4689C381.406 54.2384 382.626 55.3027 383.56 56.6746L386.867 54.4234C385.539 52.474 383.792 50.9589 381.656 49.8911L379.867 53.4689ZM383.577 56.6983C384.476 57.979 384.963 59.5433 384.963 61.485H388.963C388.963 58.8334 388.283 56.4404 386.85 54.3997L383.577 56.6983ZM384.963 61.485C384.963 65.271 383.673 68.1399 381.155 70.3027L383.761 73.3373C387.249 70.3414 388.963 66.3203 388.963 61.485H384.963ZM381.153 70.304C378.544 72.5493 375.131 73.742 370.745 73.742V77.742C375.898 77.742 380.294 76.32 383.762 73.336L381.153 70.304ZM370.745 73.742C368.331 73.742 366.033 73.4447 363.843 72.8565L362.806 76.7195C365.351 77.4033 367.999 77.742 370.745 77.742V73.742ZM363.878 72.8661C361.67 72.2304 360.065 71.4969 358.971 70.7196L356.654 73.9804C358.246 75.1111 360.315 76.0029 362.771 76.7099L363.878 72.8661ZM359.786 72.6755L361.482 62.3935L357.535 61.7425L355.839 72.0245L359.786 72.6755ZM358.198 63.5788C361.509 66.451 365.46 67.884 369.95 67.884V63.884C366.383 63.884 363.373 62.773 360.819 60.5572L358.198 63.5788ZM369.95 67.884C371.916 67.884 373.718 67.474 375.221 66.5046L373.052 63.1434C372.364 63.5873 371.375 63.884 369.95 63.884V67.884ZM375.221 66.5046C376.889 65.4283 377.78 63.7873 377.78 61.803H373.78C373.78 62.4334 373.575 62.8064 373.052 63.1434L375.221 66.5046ZM377.78 61.803C377.78 60.1783 377.045 58.8224 375.793 57.843L373.328 60.993C373.702 61.2856 373.78 61.5197 373.78 61.803H377.78ZM375.827 57.8701C374.549 56.8247 372.87 56.464 371.116 56.464V60.464C372.4 60.464 373.017 60.7393 373.294 60.9659L375.827 57.8701ZM371.116 56.464C368.596 56.464 366.304 56.8903 364.293 57.8119L365.96 61.4481C367.341 60.815 369.042 60.464 371.116 60.464V56.464ZM367.1 59.9538L368.213 53.1698L364.266 52.5222L363.153 59.3062L367.1 59.9538ZM367.382 54.4876L375.226 49.0286L372.941 45.7454L365.097 51.2044L367.382 54.4876ZM374.084 45.387H362.795V49.387H374.084V45.387ZM364.767 47.7176L366.357 38.2306L362.412 37.5694L360.822 47.0564L364.767 47.7176ZM364.385 39.9H389.348V35.9H364.385V39.9ZM387.374 37.5753L385.996 45.9493L389.943 46.5987L391.321 38.2247L387.374 37.5753Z" fill="#FFEC00"/>
<path d="M255.36 65.0399C253.68 63.1299 253.17 61.7499 252.74 60.3899C252.53 59.7299 252.42 59.3599 251.49 58.2999C251.2 57.9699 250.38 57.4599 249.65 56.9999C248.33 56.1799 246.69 55.1499 245.32 53.5999C244.08 52.1799 243.35 50.5899 242.71 49.1799C242.3 48.2699 241.87 47.3299 241.46 46.8599C240.96 46.2899 240.06 45.7299 239.12 45.1399C237.87 44.3599 236.44 43.4699 235.29 42.1499L241.84 36.3999C242.15 36.7499 242.99 37.2799 243.73 37.7399C245.04 38.5599 246.66 39.5699 248.01 41.0999C249.27 42.5299 250 44.1299 250.64 45.5499C251.05 46.4499 251.48 47.3799 251.87 47.8399C252.39 48.4299 253.3 48.9999 254.26 49.5999C255.5 50.3699 256.91 51.2499 258.04 52.5399C260.03 54.7999 260.6 56.3199 261.06 57.7899C261.26 58.4299 261.31 58.5999 261.9 59.2699L255.36 65.0399Z" fill="#5043FF"/>
<path d="M353.68 13.56C353.76 13.54 353.9 13.48 353.96 13.43L349 8.81C350.53 7.21 352.03 6.97 352.83 6.84C352.89 6.83 352.96 6.82 353.02 6.81C353.03 6.8 353.05 6.78001 353.07 6.76001C353.14 6.58001 353.24 6.26 353.3 6.03C353.62 4.97 354.05 3.51 355.2 2.31C356.27 1.19 357.62 0.719995 358.62 0.369995C358.94 0.259995 359.41 0.09 359.56 0C359.56 0 359.5 0.0399951 359.43 0.119995L364.33 4.79999C363.25 5.92999 361.87 6.41999 360.87 6.76999C360.63 6.85999 360.28 6.98001 360.08 7.07001C360.02 7.25001 359.89 7.67999 359.79 7.98999C359.49 9.00999 359.11 10.27 358.11 11.32C356.37 13.14 354.77 13.4 353.91 13.54C353.83 13.53 353.75 13.54 353.68 13.56Z" fill="#FFF200"/>
<path d="M249.26 4.07004C248.66 3.06004 248.06 2.04003 247.46 1.03003C244.79 0.80003 242.96 1.89003 241.87 4.34003C242.47 5.36003 243.07 6.37005 243.67 7.39005C244.76 4.93005 246.6 3.84004 249.26 4.07004Z" fill="#FF66AA"/>
<path d="M234.53 105.08C236.13 104.26 237.73 103.43 239.34 102.61C239.93 98.56 238.44 95.66 234.81 93.78C233.21 94.6 231.61 95.43 230 96.25C233.62 98.13 235.11 101.03 234.53 105.08Z" fill="#45E5CA"/>
<path d="M256.69 71.8701C253.56 73.3101 250.44 74.7601 247.31 76.2001C245.87 83.8801 248.48 89.5401 255.27 93.4201C258.4 91.9801 261.52 90.5301 264.65 89.0901C257.87 85.2001 255.25 79.5501 256.69 71.8701Z" fill="#FF5D00"/>
<path d="M326.87 89.81C324.46 88.87 322.06 87.94 319.65 87C314.75 90.22 313.06 94.57 314.49 100.25C316.9 101.19 319.3 102.12 321.71 103.06C320.27 97.38 321.97 93.03 326.87 89.81Z" fill="#FFF200"/>
<path d="M420.521 39.8084C419.651 37.9484 418.781 36.0784 417.901 34.2184C413.301 33.3784 409.931 34.9584 407.631 39.0184C408.501 40.8784 409.371 42.7484 410.251 44.6084C412.541 40.5384 415.921 38.9684 420.521 39.8084Z" fill="#FF5D00"/>
<path d="M399 86.23C400.13 87.74 401.26 89.24 402.39 90.75C406.66 90.64 409.39 88.59 410.68 84.52C409.55 83.01 408.42 81.51 407.29 80C406 84.08 403.27 86.12 399 86.23Z" fill="#45E5CA"/>
<path d="M303 23.23C304.13 24.74 305.26 26.24 306.39 27.75C310.66 27.64 313.39 25.59 314.68 21.52C313.55 20.01 312.42 18.51 311.29 17C310 21.08 307.27 23.12 303 23.23Z" fill="#45E5CA"/>
<path d="M354.44 110.66C357.22 110.22 360 109.78 362.79 109.33C365.63 103.6 364.83 98.57 360.35 94C357.57 94.44 354.79 94.88 352 95.33C356.48 99.9 357.28 104.93 354.44 110.66Z" fill="#FCA923"/>
<path d="M401.44 20.66C404.22 20.22 407 19.78 409.79 19.33C412.63 13.6 411.83 8.57 407.35 4C404.57 4.44 401.79 4.87999 399 5.32999C403.48 9.89999 404.28 14.93 401.44 20.66Z" fill="#FCA923"/>
<path d="M399.41 61.5883C400.7 60.6083 401.99 59.6283 403.28 58.6383C403.16 54.9583 401.38 52.6283 397.87 51.5283C396.58 52.5083 395.29 53.4883 394 54.4783C397.52 55.5783 399.29 57.9183 399.41 61.5883Z" fill="#4FE06E"/>
<path d="M253.18 21.9099C253.71 23.1199 254.24 24.3199 254.77 25.5299L262.77 30.7999C263.81 30.6599 264.79 30.3999 265.73 30.0299L253.51 21.9699C253.4 21.9499 253.29 21.9299 253.18 21.9099Z" fill="white"/>
<path d="M253.5 21.97L265.72 30.03C266.43 29.74 267.11 29.39 267.77 28.97L257.67 22.32C256.36 22.37 254.97 22.26 253.5 21.97Z" fill="#45E5CA"/>
<path d="M254.76 25.53C255.49 27.19 256.22 28.85 256.95 30.51C259.05 30.95 260.99 31.04 262.77 30.8L254.76 25.53Z" fill="#45E5CA"/>
<path d="M257.67 22.32L267.77 28.97C268.43 28.55 269.06 28.06 269.66 27.49L260.97 21.77C259.93 22.09 258.83 22.27 257.67 22.32Z" fill="white"/>
<path d="M260.97 21.7699L269.66 27.4899C270.2 26.9799 270.73 26.4099 271.22 25.7899L263.47 20.6899C262.68 21.1499 261.85 21.5099 260.97 21.7699Z" fill="#45E5CA"/>
<path d="M263.48 20.69L271.23 25.79C271.69 25.22 272.12 24.6 272.54 23.93L265.47 19.27C264.83 19.82 264.17 20.29 263.48 20.69Z" fill="white"/>
<path d="M265.459 19.28L272.529 23.94C272.599 23.82 272.669 23.71 272.739 23.59C271.479 20.72 270.219 17.85 268.969 14.99C267.929 16.73 266.759 18.16 265.459 19.28Z" fill="#45E5CA"/>
<path d="M209.307 65.0386C172.361 50.7446 168.354 50.4318 144.385 59.9708C120.416 69.5097 95.0123 56.1167 82.6692 55.1531C70.326 54.1896 65.7571 61.0686 53.9995 62.9337" stroke="#FCA923" stroke-linecap="round"/>
<path d="M453.664 65.0386C490.61 50.7446 494.617 50.4318 518.586 59.9708C542.554 69.5097 567.958 56.1167 580.302 55.1531C592.645 54.1896 597.214 61.0686 608.971 62.9337" stroke="#FCA923" stroke-linecap="round"/>
<path d="M155.996 60.5684C119.051 46.2744 115.043 45.9615 91.0744 55.5005C67.1058 65.0395 41.7018 51.6464 29.3586 50.6829C17.0155 49.7194 12.4465 56.5984 0.688965 58.4635" stroke="#8C75FF" stroke-linecap="round"/>
<path d="M506.976 60.5684C543.922 46.2744 547.93 45.9615 571.898 55.5005C595.867 65.0395 621.271 51.6464 633.614 50.6829C645.957 49.7194 650.526 56.5984 662.284 58.4635" stroke="#8C75FF" stroke-linecap="round"/>
</svg>
