<svg width="663" height="105" viewBox="0 0 663 105" fill="none" xmlns="http://www.w3.org/2000/svg">
<path d="M292.08 78H280.95L284.925 52.772L277.081 55.793L278.83 45.034L288.158 40.9H297.963L292.08 78ZM309.893 66.022C306.854 66.022 304.363 64.9443 302.42 62.789C300.512 60.6337 299.558 57.9837 299.558 54.839C299.558 50.493 300.989 46.9773 303.851 44.292C306.713 41.536 310.476 40.158 315.14 40.158C319.698 40.158 323.16 41.5537 325.528 44.345C327.93 47.1717 329.132 50.7403 329.132 55.051C329.132 61.093 327.436 66.4813 324.044 71.216C322.383 73.5127 320.228 75.35 317.578 76.728C314.963 78.0707 312.083 78.742 308.939 78.742C304.911 78.742 301.695 77.8233 299.293 75.986L300.883 66.234C303.038 68.0713 305.635 68.99 308.674 68.99C310.723 68.99 312.472 68.513 313.921 67.559C315.405 66.5697 316.429 65.1917 316.995 63.425C316.288 64.2377 315.263 64.8737 313.921 65.333C312.613 65.7923 311.271 66.022 309.893 66.022ZM314.928 49.433C313.691 49.433 312.649 49.857 311.801 50.705C310.988 51.553 310.582 52.613 310.582 53.885C310.582 55.051 310.882 55.9697 311.483 56.641C312.119 57.277 313.002 57.595 314.133 57.595C315.864 57.595 317.295 56.8707 318.426 55.422C318.602 54.892 318.691 54.2383 318.691 53.461C318.691 52.2243 318.32 51.2527 317.578 50.546C316.871 49.804 315.988 49.433 314.928 49.433ZM343.38 66.022C340.341 66.022 337.85 64.9443 335.907 62.789C333.999 60.6337 333.045 57.9837 333.045 54.839C333.045 50.493 334.476 46.9773 337.338 44.292C340.2 41.536 343.963 40.158 348.627 40.158C353.185 40.158 356.648 41.5537 359.015 44.345C361.418 47.1717 362.619 50.7403 362.619 55.051C362.619 61.093 360.923 66.4813 357.531 71.216C355.87 73.5127 353.715 75.35 351.065 76.728C348.45 78.0707 345.571 78.742 342.426 78.742C338.398 78.742 335.183 77.8233 332.78 75.986L334.37 66.234C336.525 68.0713 339.122 68.99 342.161 68.99C344.21 68.99 345.959 68.513 347.408 67.559C348.892 66.5697 349.917 65.1917 350.482 63.425C349.775 64.2377 348.751 64.8737 347.408 65.333C346.101 65.7923 344.758 66.022 343.38 66.022ZM348.415 49.433C347.178 49.433 346.136 49.857 345.288 50.705C344.475 51.553 344.069 52.613 344.069 53.885C344.069 55.051 344.369 55.9697 344.97 56.641C345.606 57.277 346.489 57.595 347.62 57.595C349.351 57.595 350.782 56.8707 351.913 55.422C352.09 54.892 352.178 54.2383 352.178 53.461C352.178 52.2243 351.807 51.2527 351.065 50.546C350.358 49.804 349.475 49.433 348.415 49.433ZM375.779 78H363.748L381.768 50.387H366.398L367.882 40.9H395.813L394.382 49.751L375.779 78Z" fill="#B1B1B1"/>
<path d="M288.08 76H276.95L280.925 50.772L273.081 53.793L274.83 43.034L284.158 38.9H293.963L288.08 76ZM305.893 64.022C302.854 64.022 300.363 62.9443 298.42 60.789C296.512 58.6337 295.558 55.9837 295.558 52.839C295.558 48.493 296.989 44.9773 299.851 42.292C302.713 39.536 306.476 38.158 311.14 38.158C315.698 38.158 319.16 39.5537 321.528 42.345C323.93 45.1717 325.132 48.7403 325.132 53.051C325.132 59.093 323.436 64.4813 320.044 69.216C318.383 71.5127 316.228 73.35 313.578 74.728C310.963 76.0707 308.083 76.742 304.939 76.742C300.911 76.742 297.695 75.8233 295.293 73.986L296.883 64.234C299.038 66.0713 301.635 66.99 304.674 66.99C306.723 66.99 308.472 66.513 309.921 65.559C311.405 64.5697 312.429 63.1917 312.995 61.425C312.288 62.2377 311.263 62.8737 309.921 63.333C308.613 63.7923 307.271 64.022 305.893 64.022ZM310.928 47.433C309.691 47.433 308.649 47.857 307.801 48.705C306.988 49.553 306.582 50.613 306.582 51.885C306.582 53.051 306.882 53.9697 307.483 54.641C308.119 55.277 309.002 55.595 310.133 55.595C311.864 55.595 313.295 54.8707 314.426 53.422C314.602 52.892 314.691 52.2383 314.691 51.461C314.691 50.2243 314.32 49.2527 313.578 48.546C312.871 47.804 311.988 47.433 310.928 47.433ZM339.38 64.022C336.341 64.022 333.85 62.9443 331.907 60.789C329.999 58.6337 329.045 55.9837 329.045 52.839C329.045 48.493 330.476 44.9773 333.338 42.292C336.2 39.536 339.963 38.158 344.627 38.158C349.185 38.158 352.648 39.5537 355.015 42.345C357.418 45.1717 358.619 48.7403 358.619 53.051C358.619 59.093 356.923 64.4813 353.531 69.216C351.87 71.5127 349.715 73.35 347.065 74.728C344.45 76.0707 341.571 76.742 338.426 76.742C334.398 76.742 331.183 75.8233 328.78 73.986L330.37 64.234C332.525 66.0713 335.122 66.99 338.161 66.99C340.21 66.99 341.959 66.513 343.408 65.559C344.892 64.5697 345.917 63.1917 346.482 61.425C345.775 62.2377 344.751 62.8737 343.408 63.333C342.101 63.7923 340.758 64.022 339.38 64.022ZM344.415 47.433C343.178 47.433 342.136 47.857 341.288 48.705C340.475 49.553 340.069 50.613 340.069 51.885C340.069 53.051 340.369 53.9697 340.97 54.641C341.606 55.277 342.489 55.595 343.62 55.595C345.351 55.595 346.782 54.8707 347.913 53.422C348.09 52.892 348.178 52.2383 348.178 51.461C348.178 50.2243 347.807 49.2527 347.065 48.546C346.358 47.804 345.475 47.433 344.415 47.433ZM371.779 76H359.748L377.768 48.387H362.398L363.882 38.9H391.813L390.382 47.751L371.779 76Z" fill="#D00000"/>
<path d="M285.08 74V76H286.788L287.055 74.3132L285.08 74ZM273.95 74L271.974 73.6887L271.61 76H273.95V74ZM277.925 48.772L279.901 49.0833L280.44 45.6602L277.206 46.9056L277.925 48.772ZM270.081 51.793L268.107 51.4721L267.548 54.9118L270.8 53.6594L270.081 51.793ZM271.83 41.034L271.02 39.2055L270.03 39.6443L269.856 40.7131L271.83 41.034ZM281.158 36.9V34.9H280.735L280.348 35.0715L281.158 36.9ZM290.963 36.9L292.938 37.2132L293.305 34.9H290.963V36.9ZM285.08 72H273.95V76H285.08V72ZM275.926 74.3113L279.901 49.0833L275.949 48.4607L271.974 73.6887L275.926 74.3113ZM277.206 46.9056L269.362 49.9266L270.8 53.6594L278.644 50.6384L277.206 46.9056ZM272.055 52.1139L273.804 41.3549L269.856 40.7131L268.107 51.4721L272.055 52.1139ZM272.64 42.8625L281.968 38.7285L280.348 35.0715L271.02 39.2055L272.64 42.8625ZM281.158 38.9H290.963V34.9H281.158V38.9ZM288.988 36.5868L283.105 73.6868L287.055 74.3132L292.938 37.2132L288.988 36.5868ZM295.42 58.789L293.922 60.1147L293.928 60.1215L293.934 60.1283L295.42 58.789ZM296.851 40.292L298.219 41.7505L298.228 41.7416L298.238 41.7326L296.851 40.292ZM318.528 40.345L317.002 41.6386L317.004 41.6403L318.528 40.345ZM317.044 67.216L318.664 68.3879L318.669 68.3808L317.044 67.216ZM310.578 72.728L311.491 74.5072L311.5 74.5024L310.578 72.728ZM292.293 71.986L290.319 71.6642L290.126 72.8468L291.078 73.5747L292.293 71.986ZM293.883 62.234L295.18 60.712L292.48 58.41L291.909 61.9122L293.883 62.234ZM306.921 63.559L308.021 65.2294L308.03 65.2231L306.921 63.559ZM309.995 59.425L311.899 60.0346L308.485 58.1126L309.995 59.425ZM306.921 61.333L306.273 59.4407L306.265 59.4433L306.258 59.4461L306.921 61.333ZM304.801 46.705L303.386 45.2908L303.371 45.3058L303.357 45.3212L304.801 46.705ZM304.483 52.641L302.992 53.9746L303.029 54.016L303.068 54.0552L304.483 52.641ZM311.426 51.422L313.002 52.6525L313.214 52.3811L313.323 52.0545L311.426 51.422ZM310.578 46.546L309.129 47.9253L309.163 47.9606L309.198 47.9943L310.578 46.546ZM302.893 60.022C300.39 60.022 298.449 59.1625 296.905 57.4497L293.934 60.1283C296.277 62.7261 299.318 64.022 302.893 64.022V60.022ZM296.917 57.4633C295.364 55.7087 294.558 53.5441 294.558 50.839H290.558C290.558 54.4233 291.659 57.5587 293.922 60.1147L296.917 57.4633ZM294.558 50.839C294.558 46.9798 295.806 44.015 298.219 41.7505L295.482 38.8335C292.172 41.9396 290.558 46.0062 290.558 50.839H294.558ZM298.238 41.7326C300.663 39.3972 303.897 38.158 308.14 38.158V34.158C303.055 34.158 298.762 35.6748 295.463 38.8514L298.238 41.7326ZM308.14 38.158C312.267 38.158 315.106 39.4024 317.002 41.6386L320.053 39.0514C317.215 35.7049 313.128 34.158 308.14 34.158V38.158ZM317.004 41.6403C319.05 44.048 320.132 47.1338 320.132 51.051H324.132C324.132 46.3469 322.81 42.2953 320.051 39.0497L317.004 41.6403ZM320.132 51.051C320.132 56.6918 318.557 61.6695 315.418 66.0512L318.669 68.3808C322.314 63.2932 324.132 57.4942 324.132 51.051H320.132ZM315.423 66.0441C313.955 68.0747 312.044 69.7113 309.655 70.9536L311.5 74.5024C314.411 72.9887 316.811 70.9506 318.664 68.3879L315.423 66.0441ZM309.664 70.9489C307.352 72.1363 304.788 72.742 301.939 72.742V76.742C305.378 76.742 308.574 76.005 311.491 74.5071L309.664 70.9489ZM301.939 72.742C298.205 72.742 295.461 71.8914 293.507 70.3973L291.078 73.5747C293.929 75.7552 297.616 76.742 301.939 76.742V72.742ZM294.266 72.3078L295.856 62.5558L291.909 61.9122L290.319 71.6642L294.266 72.3078ZM292.585 63.756C295.13 65.9253 298.197 66.99 301.674 66.99V62.99C299.073 62.99 296.946 62.2173 295.18 60.712L292.585 63.756ZM301.674 66.99C304.042 66.99 306.19 66.435 308.021 65.2293L305.821 61.8887C304.754 62.591 303.404 62.99 301.674 62.99V66.99ZM308.03 65.2231C309.907 63.9718 311.202 62.214 311.899 60.0346L308.09 58.8154C307.656 60.1693 306.902 61.1675 305.811 61.8949L308.03 65.2231ZM308.485 58.1126C308.072 58.5879 307.385 59.0602 306.273 59.4407L307.568 63.2253C309.141 62.6871 310.504 61.8874 311.504 60.7374L308.485 58.1126ZM306.258 59.4461C305.162 59.831 304.043 60.022 302.893 60.022V64.022C304.498 64.022 306.064 63.7537 307.584 63.2199L306.258 59.4461ZM307.928 43.433C306.179 43.433 304.622 44.0548 303.386 45.2908L306.215 48.1192C306.675 47.6592 307.203 47.433 307.928 47.433V43.433ZM303.357 45.3212C302.156 46.5741 301.582 48.1442 301.582 49.885H305.582C305.582 49.0818 305.82 48.5319 306.245 48.0888L303.357 45.3212ZM301.582 49.885C301.582 51.3943 301.976 52.8391 302.992 53.9746L305.973 51.3074C305.788 51.1003 305.582 50.7076 305.582 49.885H301.582ZM303.068 54.0552C304.17 55.157 305.615 55.595 307.133 55.595V51.595C306.389 51.595 306.067 51.397 305.897 51.2268L303.068 54.0552ZM307.133 55.595C309.522 55.595 311.519 54.5523 313.002 52.6525L309.849 50.1915C309.07 51.189 308.205 51.595 307.133 51.595V55.595ZM313.323 52.0545C313.588 51.258 313.691 50.3757 313.691 49.461H309.691C309.691 50.101 309.616 50.526 309.528 50.7895L313.323 52.0545ZM313.691 49.461C313.691 47.7989 313.176 46.2584 311.957 45.0977L309.198 47.9943C309.463 48.2469 309.691 48.6498 309.691 49.461H313.691ZM312.026 45.1667C310.927 44.0132 309.514 43.433 307.928 43.433V47.433C308.461 47.433 308.815 47.5948 309.129 47.9253L312.026 45.1667ZM328.907 58.789L327.409 60.1147L327.415 60.1215L327.421 60.1283L328.907 58.789ZM330.338 40.292L331.706 41.7505L331.716 41.7416L331.725 41.7326L330.338 40.292ZM352.015 40.345L350.49 41.6386L350.491 41.6403L352.015 40.345ZM350.531 67.216L352.152 68.3879L352.157 68.3808L350.531 67.216ZM344.065 72.728L344.978 74.5072L344.988 74.5024L344.065 72.728ZM325.78 71.986L323.806 71.6642L323.613 72.8468L324.565 73.5747L325.78 71.986ZM327.37 62.234L328.667 60.712L325.967 58.41L325.396 61.9122L327.37 62.234ZM340.408 63.559L341.508 65.2294L341.517 65.2231L340.408 63.559ZM343.482 59.425L345.387 60.0346L341.973 58.1126L343.482 59.425ZM340.408 61.333L339.76 59.4407L339.753 59.4433L339.745 59.4461L340.408 61.333ZM338.288 46.705L336.874 45.2908L336.859 45.3058L336.844 45.3212L338.288 46.705ZM337.97 52.641L336.479 53.9746L336.516 54.016L336.556 54.0552L337.97 52.641ZM344.913 51.422L346.489 52.6525L346.701 52.3811L346.81 52.0545L344.913 51.422ZM344.065 46.546L342.617 47.9253L342.65 47.9606L342.686 47.9943L344.065 46.546ZM336.38 60.022C333.877 60.022 331.937 59.1625 330.392 57.4497L327.421 60.1283C329.764 62.7261 332.805 64.022 336.38 64.022V60.022ZM330.404 57.4633C328.851 55.7087 328.045 53.5441 328.045 50.839H324.045C324.045 54.4233 325.147 57.5587 327.409 60.1147L330.404 57.4633ZM328.045 50.839C328.045 46.9798 329.293 44.015 331.706 41.7505L328.969 38.8335C325.659 41.9396 324.045 46.0062 324.045 50.839H328.045ZM331.725 41.7326C334.15 39.3972 337.384 38.158 341.627 38.158V34.158C336.542 34.158 332.249 35.6748 328.951 38.8514L331.725 41.7326ZM341.627 38.158C345.754 38.158 348.593 39.4024 350.49 41.6386L353.54 39.0514C350.702 35.7049 346.616 34.158 341.627 34.158V38.158ZM350.491 41.6403C352.538 44.048 353.619 47.1338 353.619 51.051H357.619C357.619 46.3469 356.298 42.2953 353.539 39.0497L350.491 41.6403ZM353.619 51.051C353.619 56.6918 352.044 61.6695 348.905 66.0512L352.157 68.3808C355.802 63.2932 357.619 57.4942 357.619 51.051H353.619ZM348.91 66.0441C347.442 68.0747 345.531 69.7113 343.142 70.9536L344.988 74.5024C347.899 72.9887 350.298 70.9506 352.152 68.3879L348.91 66.0441ZM343.151 70.9489C340.839 72.1363 338.276 72.742 335.426 72.742V76.742C338.866 76.742 342.062 76.005 344.978 74.5071L343.151 70.9489ZM335.426 72.742C331.692 72.742 328.949 71.8914 326.995 70.3973L324.565 73.5747C327.416 75.7552 331.104 76.742 335.426 76.742V72.742ZM327.754 72.3078L329.344 62.5558L325.396 61.9122L323.806 71.6642L327.754 72.3078ZM326.072 63.756C328.617 65.9253 331.684 66.99 335.161 66.99V62.99C332.56 62.99 330.433 62.2173 328.667 60.712L326.072 63.756ZM335.161 66.99C337.529 66.99 339.677 66.435 341.508 65.2293L339.308 61.8887C338.241 62.591 336.891 62.99 335.161 62.99V66.99ZM341.517 65.2231C343.394 63.9718 344.689 62.214 345.387 60.0346L341.577 58.8154C341.144 60.1693 340.39 61.1675 339.298 61.8949L341.517 65.2231ZM341.973 58.1126C341.559 58.5879 340.873 59.0602 339.76 59.4407L341.055 63.2253C342.628 62.6871 343.991 61.8874 344.991 60.7374L341.973 58.1126ZM339.745 59.4461C338.649 59.831 337.531 60.022 336.38 60.022V64.022C337.985 64.022 339.552 63.7537 341.071 63.2199L339.745 59.4461ZM341.415 43.433C339.666 43.433 338.11 44.0548 336.874 45.2908L339.702 48.1192C340.162 47.6592 340.69 47.433 341.415 47.433V43.433ZM336.844 45.3212C335.643 46.5741 335.069 48.1442 335.069 49.885H339.069C339.069 49.0818 339.307 48.5319 339.732 48.0888L336.844 45.3212ZM335.069 49.885C335.069 51.3943 335.463 52.8391 336.479 53.9746L339.46 51.3074C339.275 51.1003 339.069 50.7076 339.069 49.885H335.069ZM336.556 54.0552C337.657 55.157 339.103 55.595 340.62 55.595V51.595C339.876 51.595 339.554 51.397 339.384 51.2268L336.556 54.0552ZM340.62 55.595C343.01 55.595 345.007 54.5523 346.489 52.6525L343.336 50.1915C342.558 51.189 341.693 51.595 340.62 51.595V55.595ZM346.81 52.0545C347.076 51.258 347.178 50.3757 347.178 49.461H343.178C343.178 50.101 343.103 50.526 343.015 50.7895L346.81 52.0545ZM347.178 49.461C347.178 47.7989 346.663 46.2584 345.444 45.0977L342.686 47.9943C342.951 48.2469 343.178 48.6498 343.178 49.461H347.178ZM345.513 45.1667C344.415 44.0132 343.001 43.433 341.415 43.433V47.433C341.949 47.433 342.302 47.5948 342.617 47.9253L345.513 45.1667ZM368.779 74V76H369.857L370.449 75.1L368.779 74ZM356.748 74L355.073 72.907L353.055 76H356.748V74ZM374.768 46.387L376.443 47.48L378.461 44.387H374.768V46.387ZM359.398 46.387L357.422 46.0779L357.061 48.387H359.398V46.387ZM360.882 36.9V34.9H359.171L358.906 36.5909L360.882 36.9ZM388.813 36.9L390.787 37.2192L391.162 34.9H388.813V36.9ZM387.382 45.751L389.052 46.851L389.288 46.4932L389.356 46.0702L387.382 45.751ZM368.779 72H356.748V76H368.779V72ZM358.423 75.093L376.443 47.48L373.093 45.294L355.073 72.907L358.423 75.093ZM374.768 44.387H359.398V48.387H374.768V44.387ZM361.374 46.6961L362.858 37.2091L358.906 36.5909L357.422 46.0779L361.374 46.6961ZM360.882 38.9H388.813V34.9H360.882V38.9ZM386.839 36.5808L385.408 45.4318L389.356 46.0702L390.787 37.2192L386.839 36.5808ZM385.712 44.651L367.109 72.9L370.449 75.1L389.052 46.851L385.712 44.651Z" fill="#FFEC00"/>
<path d="M379.51 89.8457C378.42 89.8457 377.67 89.4957 377.09 89.2257C376.52 88.9657 376.23 88.8357 375.57 88.9457L375 85.7757C376.67 85.4757 377.69 85.9557 378.44 86.2957C379.01 86.5557 379.29 86.6857 379.96 86.5757C380.63 86.4557 380.85 86.2357 381.29 85.7857C381.87 85.1957 382.67 84.3957 384.34 84.1057C386.01 83.8057 387.03 84.2857 387.78 84.6257C388.35 84.8857 388.63 85.0157 389.3 84.9057C389.97 84.7857 390.19 84.5657 390.63 84.1157C391.21 83.5357 392.01 82.7257 393.68 82.4357C395.35 82.1357 396.37 82.6157 397.12 82.9557C397.69 83.2157 397.97 83.3457 398.64 83.2357C399.31 83.1157 399.53 82.8957 399.97 82.4457C400.55 81.8657 401.35 81.0557 403.02 80.7657C404.69 80.4657 405.71 80.9457 406.46 81.2857C407.03 81.5457 407.31 81.6857 407.98 81.5657C408.65 81.4457 408.87 81.2257 409.32 80.7757C409.9 80.1957 410.7 79.3857 412.37 79.0957C414.04 78.7957 415.06 79.2657 415.81 79.6157C416.38 79.8757 416.67 80.0057 417.34 79.8857L417.91 83.0557C416.24 83.3557 415.22 82.8857 414.47 82.5357C413.9 82.2757 413.61 82.1457 412.94 82.2657C412.27 82.3857 412.05 82.6057 411.6 83.0557C411.02 83.6357 410.22 84.4457 408.55 84.7357C406.88 85.0357 405.86 84.5657 405.11 84.2157C404.54 83.9557 404.26 83.8257 403.59 83.9357C402.92 84.0557 402.7 84.2757 402.26 84.7257C401.68 85.3057 400.88 86.1157 399.21 86.4057C397.54 86.7057 396.52 86.2257 395.77 85.8857C395.2 85.6257 394.92 85.4857 394.25 85.6057C393.58 85.7257 393.36 85.9457 392.92 86.3957C392.34 86.9857 391.54 87.7857 389.87 88.0757C388.2 88.3757 387.18 87.9057 386.43 87.5557C385.86 87.2957 385.57 87.1657 384.91 87.2857C384.24 87.4057 384.02 87.6257 383.58 88.0757C383 88.6557 382.2 89.4657 380.53 89.7557C380.16 89.8157 379.83 89.8457 379.51 89.8457Z" fill="#27AAE1"/>
<path d="M255.36 78.35C253.59 78.13 252.69 77.39 252.03 76.85C251.5 76.42 251.18 76.16 250.34 76.05C249.49 75.94 249.12 76.12 248.51 76.41C247.74 76.77 246.68 77.27 244.91 77.05C243.14 76.83 242.24 76.09 241.58 75.55C241.05 75.12 240.73 74.86 239.89 74.75C239.04 74.64 238.67 74.82 238.05 75.11C237.28 75.47 236.22 75.96 234.45 75.75C232.68 75.53 231.77 74.79 231.11 74.25C230.58 73.82 230.26 73.56 229.42 73.45L229.82 70.25C231.59 70.47 232.49 71.21 233.16 71.75C233.69 72.18 234.01 72.44 234.85 72.55C235.7 72.66 236.07 72.48 236.69 72.19C237.46 71.83 238.52 71.33 240.29 71.55C242.06 71.77 242.96 72.51 243.62 73.05C244.15 73.48 244.47 73.74 245.31 73.85C246.15 73.96 246.53 73.78 247.14 73.49C247.91 73.13 248.97 72.63 250.74 72.85C252.51 73.07 253.41 73.81 254.07 74.35C254.6 74.78 254.92 75.04 255.76 75.15L255.36 78.35Z" fill="#FFF200"/>
<path d="M371.47 2.76999C372.37 1.84999 373.27 0.93 374.17 0C377.06 0.45 378.73 2.08001 379.25 4.95001C378.35 5.87001 377.45 6.79 376.55 7.72C376.03 4.84 374.36 3.21999 371.47 2.76999Z" fill="#FF66AA"/>
<path d="M361.46 104.06C359.97 102.77 358.48 101.48 357 100.2C357.42 95.75 359.76 93.06 364.09 92C365.58 93.29 367.07 94.58 368.55 95.86C364.21 96.92 361.88 99.61 361.46 104.06Z" fill="#8C75FF"/>
<path d="M416.9 42C419.84 44.34 422.79 46.68 425.73 49.02C425.27 57.55 421.04 62.88 412.83 65.24C409.89 62.9 406.94 60.56 404 58.22C412.21 55.86 416.45 50.53 416.9 42Z" fill="#EA1D25"/>
<path d="M303 83.12C305.8 82.75 308.59 82.37 311.39 82C315.76 86.68 316.43 91.74 313.45 97.4C310.65 97.77 307.86 98.15 305.06 98.52C308.04 92.86 307.37 87.8 303 83.12Z" fill="#FFF200"/>
<path d="M265.29 6.48996C267.54 6.35996 269.78 6.22998 272.03 6.09998C275.23 10.08 275.46 14.15 272.75 18.47C270.5 18.6 268.26 18.73 266.01 18.86C268.72 14.54 268.49 10.47 265.29 6.48996Z" fill="#EA1D25"/>
<path d="M229 31.54C230.96 30.74 232.92 29.94 234.88 29.14C238.94 31.71 240.39 35.26 239.29 39.93C237.33 40.73 235.37 41.53 233.41 42.33C234.51 37.65 233.06 34.11 229 31.54Z" fill="#FFF200"/>
<path d="M331.69 98.99C330.1 100.3 328.51 101.6 326.92 102.91C322.41 101.69 320.05 98.81 319.73 94.15C321.32 92.84 322.91 91.54 324.5 90.23C324.82 94.89 327.18 97.77 331.69 98.99Z" fill="#8C75FF"/>
<path d="M251.29 100.86C248.45 99.67 245.61 98.48 242.77 97.29C241.23 90.47 243.38 85.34 249.32 81.65C252.16 82.84 255 84.03 257.84 85.22C251.91 88.9 249.76 94.04 251.29 100.86Z" fill="#00A651"/>
<path d="M263.18 38.58C262.06 37.2 260.95 35.8301 259.83 34.4501C260.91 30.5801 263.4 28.56 267.41 28.3C268.53 29.68 269.64 31.0501 270.76 32.4301C266.74 32.6901 264.25 34.71 263.18 38.58Z" fill="#00AEEF"/>
<path d="M366.02 16.19C364.78 17.81 363.55 19.43 362.31 21.05L348.35 26.04C346.84 25.45 345.46 24.7 344.19 23.8L365.51 16.17C365.68 16.18 365.85 16.19 366.02 16.19Z" fill="white"/>
<path d="M365.51 16.17L344.19 23.8C343.22 23.11 342.33 22.3301 341.5 21.4601L359.12 15.16C361.07 15.72 363.2 16.06 365.51 16.17Z" fill="#8C75FF"/>
<path d="M362.31 21.05C360.61 23.28 358.9 25.5101 357.2 27.7401C353.89 27.6301 350.94 27.07 348.35 26.05L362.31 21.05Z" fill="#8C75FF"/>
<path d="M359.12 15.16L341.5 21.46C340.67 20.58 339.9 19.62 339.21 18.55L354.36 13.13C355.8 13.99 357.39 14.66 359.12 15.16Z" fill="white"/>
<path d="M354.36 13.13L339.211 18.55C338.581 17.59 338 16.55 337.48 15.43L350.99 10.59C352.02 11.57 353.14 12.41 354.36 13.13Z" fill="#8C75FF"/>
<path d="M350.99 10.59L337.48 15.43C337 14.41 336.57 13.31 336.2 12.16L348.53 7.75C349.27 8.79 350.1 9.74 350.99 10.59Z" fill="white"/>
<path d="M348.52 7.74002L336.19 12.15C336.12 11.95 336.06 11.75 336 11.55C338.94 7.70002 341.88 3.85 344.82 0C345.74 3 346.98 5.58002 348.52 7.74002Z" fill="#8C75FF"/>
<path d="M209.307 61.0386C172.361 46.7446 168.354 46.4318 144.385 55.9708C120.416 65.5097 95.0123 52.1167 82.6692 51.1531C70.326 50.1896 65.7571 57.0686 53.9995 58.9337" stroke="#FCA923" stroke-linecap="round"/>
<path d="M453.664 61.0386C490.61 46.7446 494.617 46.4318 518.586 55.9708C542.554 65.5097 567.958 52.1167 580.302 51.1531C592.645 50.1896 597.214 57.0686 608.971 58.9337" stroke="#FCA923" stroke-linecap="round"/>
<path d="M155.996 56.5684C119.051 42.2744 115.043 41.9615 91.0744 51.5005C67.1058 61.0395 41.7018 47.6464 29.3586 46.6829C17.0155 45.7194 12.4465 52.5984 0.688965 54.4635" stroke="#8C75FF" stroke-linecap="round"/>
<path d="M506.976 56.5684C543.922 42.2744 547.93 41.9615 571.898 51.5005C595.867 61.0395 621.271 47.6464 633.614 46.6829C645.957 45.7194 650.526 52.5984 662.284 54.4635" stroke="#8C75FF" stroke-linecap="round"/>
</svg>
