<svg width="103" height="238" viewBox="0 0 103 238" fill="none" xmlns="http://www.w3.org/2000/svg">
<path d="M78.1186 32.2371L51.3644 210.793C51.066 212.79 49.1952 214.179 47.1866 213.869L9.13847 208.165C7.1299 207.867 5.75259 205.996 6.051 203.999L32.8052 25.4424L78.1186 32.2371Z" fill="#FCA923"/>
<path d="M78.6114 28.9428L78.1178 32.2369L32.8159 25.4422L33.3094 22.1481C33.6079 20.1395 35.4787 18.7622 37.4873 19.0606L75.5354 24.765C77.5325 25.0634 78.9212 26.9343 78.6114 28.9428Z" fill="#FF7700"/>
<path d="M35.64 104.718C33.2757 104.362 31.6458 102.158 32.0016 99.7939L33.2527 91.4497C33.6085 89.0854 35.8122 87.4555 38.1766 87.8113C40.5409 88.1671 42.1707 90.3708 41.8149 92.7352L40.5639 101.079C40.2196 103.444 38.0159 105.074 35.64 104.718Z" fill="#D17D1B"/>
<path d="M26.825 163.574C24.4606 163.219 22.8308 161.015 23.1866 158.651L24.4377 150.306C24.7935 147.942 26.9972 146.312 29.3616 146.668C31.7259 147.024 33.3557 149.228 32.9999 151.592L31.7489 159.936C31.3931 162.3 29.1894 163.93 26.825 163.574Z" fill="#D17D1B"/>
<path d="M49.1031 136.82C46.7387 136.465 45.1089 134.261 45.4647 131.897L46.7158 123.552C47.0716 121.188 49.2752 119.558 51.6396 119.914C54.004 120.27 55.6338 122.473 55.278 124.838L54.027 133.182C53.6712 135.546 51.4675 137.176 49.1031 136.82Z" fill="#D17D1B"/>
<path d="M40.2888 195.689C37.9244 195.333 36.2946 193.13 36.6504 190.765L37.9014 182.421C38.2572 180.057 40.4609 178.427 42.8253 178.783C45.1897 179.138 46.8195 181.342 46.4637 183.706L45.2127 192.051C44.8569 194.404 42.6532 196.033 40.2888 195.689Z" fill="#D17D1B"/>
<path d="M45.1439 38.6991C49.5742 39.4107 52.5928 43.5655 51.8812 47.9959C51.1811 52.4147 47.0147 55.4333 42.5844 54.7217C38.1541 54.0101 35.1355 49.8553 35.8471 45.4364C36.5587 41.0061 40.7136 37.9989 45.1439 38.6991ZM47.9215 47.3646C48.2773 45.1265 46.7507 43.0146 44.5126 42.6588C42.2745 42.303 40.1626 43.8295 39.8068 46.0676C39.451 48.3058 40.9775 50.4062 43.2157 50.762C45.4653 51.1178 47.5657 49.6027 47.9215 47.3646Z" fill="white"/>
<path d="M44.513 42.659C46.7511 43.0148 48.2777 45.1152 47.9219 47.3648C47.566 49.6029 45.4656 51.118 43.216 50.7622C40.9779 50.4064 39.4514 48.306 39.8072 46.0679C40.163 43.8297 42.2749 42.3032 44.513 42.659Z" fill="black"/>
<path d="M63.6914 41.6604C68.1218 42.372 71.1404 46.5269 70.4288 50.9573C69.7286 55.3761 65.5623 58.3947 61.132 57.6831C56.7016 56.9715 53.683 52.8166 54.3946 48.3978C55.1062 43.9674 59.2611 40.9488 63.6914 41.6604ZM66.469 50.326C66.8248 48.0879 65.2983 45.976 63.0602 45.6202C60.822 45.2644 58.7102 46.7909 58.3544 49.029C57.9986 51.2672 59.5251 53.3676 61.7632 53.7234C64.0128 54.0792 66.1132 52.5526 66.469 50.326Z" fill="white"/>
<path d="M63.0598 45.6201C65.298 45.9759 66.8245 48.0763 66.4687 50.3259C66.1129 52.564 64.0125 54.0791 61.7629 53.7233C59.5247 53.3675 57.9982 51.2671 58.354 49.029C58.7098 46.7794 60.8102 45.2643 63.0598 45.6201Z" fill="black"/>
<path d="M47.8295 55.7547C47.6114 55.7202 47.3933 55.8809 47.3704 56.099C47.026 59.9096 48.2771 63.1118 50.3775 63.4446C52.4664 63.7775 54.6586 61.1261 55.5194 57.3959C55.5653 57.1779 55.4161 56.9598 55.1981 56.9254L47.8295 55.7547Z" fill="#EA1D25"/>
<path d="M57.1493 39.4221C56.9656 39.4221 56.782 39.3188 56.7016 39.1351C56.5868 38.8826 56.6902 38.5957 56.9427 38.4809L63.7603 35.3246C64.0128 35.2098 64.2998 35.3131 64.4145 35.5656C64.5293 35.8181 64.426 36.1051 64.1735 36.2199L57.3558 39.3762C57.287 39.4106 57.2181 39.4221 57.1493 39.4221Z" fill="black"/>
<path d="M51.1007 38.4579C50.9859 38.4579 50.8596 38.412 50.7678 38.3202L45.2701 33.2012C45.075 33.0176 45.0635 32.7077 45.2471 32.5011C45.4308 32.306 45.7406 32.2945 45.9472 32.4781L51.445 37.5971C51.6401 37.7808 51.6516 38.0907 51.4679 38.2973C51.3646 38.4006 51.2384 38.4579 51.1007 38.4579Z" fill="black"/>
<path d="M54.0153 39.617C53.9923 39.617 53.9579 39.617 53.9349 39.6056C53.6709 39.5596 53.4873 39.3071 53.5217 39.0432L53.6595 38.1479C53.7054 37.8839 53.9579 37.6888 54.2218 37.7347C54.4858 37.7807 54.6695 38.0331 54.6351 38.2971L54.4973 39.1924C54.4629 39.4449 54.2563 39.617 54.0153 39.617Z" fill="black"/>
<path d="M33.2643 22.4354C33.2643 22.4354 33.1036 23.4799 32.7478 25.8787C31.9444 31.2502 29.58 40.4322 22.9231 41.7062C22.4754 41.7866 22.4754 42.4408 22.9231 42.5326C30.1424 44.128 47.9097 46.4809 52.7532 32.4553C53.5337 30.1828 55.8177 28.7825 58.1936 29.1383L77.7399 32.0651" fill="#FF7700"/>
<path d="M38.3028 216.154L36.7992 226.529C36.6156 227.769 35.9614 228.813 35.0317 229.502C34.102 230.191 32.9083 230.535 31.6802 230.351C29.2011 229.996 27.4909 227.7 27.8467 225.221L29.3274 214.983C29.6717 212.607 31.772 210.782 34.1709 210.977C36.8107 211.207 38.6701 213.583 38.3028 216.154Z" fill="#E38D00"/>
<path d="M39.278 211.057L37.6941 221.984C37.5105 223.281 36.8103 224.383 35.8233 225.117C34.8477 225.852 33.5966 226.208 32.2997 226.013C29.6943 225.634 27.8923 223.224 28.271 220.618L29.832 209.852C30.1993 207.339 32.4029 205.422 34.928 205.628C37.7056 205.846 39.6683 208.349 39.278 211.057Z" fill="#FCA923"/>
<path d="M25.8952 208.612L21.8551 231.063L11.5942 229.157L17.046 206.971C17.4936 204.526 19.8465 202.908 22.2913 203.367C24.736 203.826 26.3543 206.168 25.8952 208.612Z" fill="#FCA923"/>
<path d="M23.0603 228.124L22.188 232.819C21.8207 234.781 20.5696 236.365 18.9054 237.203C19.2612 236.813 19.5252 236.331 19.6285 235.768L20.4204 231.487C20.9025 228.882 19.1808 226.38 16.5754 225.898L14.7964 225.565C12.696 225.175 10.6645 226.563 10.2743 228.675L9.86107 230.925C9.56265 232.543 9.96438 234.138 10.8482 235.401C9.47085 233.806 8.79365 231.613 9.20684 229.375L9.88405 225.725C10.5612 222.076 14.0618 219.665 17.7117 220.342C19.5252 220.675 21.0287 221.72 21.9929 223.12C22.9684 224.543 23.3931 226.311 23.0603 228.124Z" fill="#FCA923"/>
<path d="M20.4204 231.487L19.6285 235.768C19.5252 236.319 19.2726 236.813 18.9054 237.203C17.7347 237.8 16.3688 238.029 14.9801 237.777C13.3043 237.467 11.8696 236.595 10.8481 235.401C9.96436 234.15 9.56263 232.555 9.86104 230.925L10.2743 228.675C10.6645 226.575 12.696 225.175 14.7964 225.565L16.5754 225.898C19.1808 226.38 20.9025 228.882 20.4204 231.487Z" fill="#E38D00"/>
<path d="M93.1765 60.7935C93.1765 60.7935 94.7604 71.7545 102.416 72.6842C94.7604 71.7545 90.594 82.004 90.594 82.004C90.594 82.004 89.0101 71.0429 81.3546 70.1132C88.9987 71.0429 93.1765 60.7935 93.1765 60.7935Z" fill="#FFBB00"/>
<path d="M11.0773 28.8282C11.0773 28.8282 12.535 38.9285 19.5937 39.7778C12.535 38.917 8.70148 48.3745 8.70148 48.3745C8.70148 48.3745 7.24381 38.2743 0.18512 37.4249C7.24381 38.2743 11.0773 28.8282 11.0773 28.8282Z" fill="#FFBB00"/>
<path d="M84.6602 16.2145C84.6602 16.2145 85.3604 21.0695 88.7577 21.4827C85.3718 21.0695 83.5239 25.6146 83.5239 25.6146C83.5239 25.6146 82.8238 20.7596 79.4265 20.3464C82.8123 20.7596 84.6602 16.2145 84.6602 16.2145Z" fill="#FFBB00"/>
<path d="M79.7826 91.3237C79.7826 91.3237 80.5172 96.4313 84.0867 96.8674C80.5172 96.4313 78.5775 101.217 78.5775 101.217C78.5775 101.217 77.8429 96.1099 74.2734 95.6737C77.8314 96.0984 79.7826 91.3237 79.7826 91.3237Z" fill="#FFBB00"/>
<path d="M38.325 3.97925C38.325 3.97925 39.0595 9.08674 42.6291 9.52289C39.0595 9.08674 37.1198 13.8729 37.1198 13.8729C37.1198 13.8729 36.3853 8.76536 32.8157 8.32922C36.3853 8.75388 38.325 3.97925 38.325 3.97925Z" fill="#FFBB00"/>
<path d="M85.9107 54.3772C85.9107 54.3772 87.2077 45.5854 82.5707 45.023C87.2077 45.5854 88.057 36.7477 88.057 36.7477C88.057 36.7477 86.76 45.5395 91.397 46.1019C86.76 45.5395 85.9107 54.3772 85.9107 54.3772Z" fill="#FFBB00"/>
<path d="M22.0272 28.438C22.0272 28.438 22.7159 23.7436 20.2482 23.4452C22.7274 23.7436 23.175 19.0264 23.175 19.0264C23.175 19.0264 22.4863 23.7207 24.954 24.0191C22.4748 23.7092 22.0272 28.438 22.0272 28.438Z" fill="#FFBB00"/>
<path d="M13.1432 94.8357C13.1432 94.8357 13.8319 90.1414 11.3642 89.8429C13.8433 90.1414 14.291 85.4241 14.291 85.4241C14.291 85.4241 13.6023 90.1184 16.07 90.4168C13.5908 90.1184 13.1432 94.8357 13.1432 94.8357Z" fill="#FFBB00"/>
<path d="M14.4408 75.8518C14.4408 75.8518 15.6345 67.7602 11.3648 67.2437C15.6345 67.7602 16.415 59.6226 16.415 59.6226C16.415 59.6226 15.2213 67.7142 19.4909 68.2307C15.2213 67.7028 14.4408 75.8518 14.4408 75.8518Z" fill="#FFBB00"/>
<path d="M61.6128 13.8614C61.6128 13.8614 62.5769 7.36508 59.1451 6.94041C62.5769 7.3536 63.2082 0.811401 63.2082 0.811401C63.2082 0.811401 62.2441 7.3077 65.6759 7.73237C62.2441 7.31917 61.6128 13.8614 61.6128 13.8614Z" fill="#FFBB00"/>
</svg>
